<svg width="128" height="129" viewBox="0 0 128 129" fill="none" xmlns="http://www.w3.org/2000/svg">
<g clip-path="url(#clip0_536_4435)">
<rect width="131.289" height="129.979" transform="translate(-1.64453 -0.490234)" fill="black"/>
<path d="M23.6123 61.6855C29.7666 57.0189 34.7942 81.6271 56.1201 92.9619C77.4457 104.296 101.442 90.899 102.408 81.0674C103.37 71.2682 95.2248 75.021 95.1709 75.0459C95.1709 75.0459 94.202 74.0975 97.8252 70.9102C101.449 67.7226 106.595 70.6293 107.211 77.6865C107.827 84.7439 90.7836 113.101 54.7148 97.8857C18.646 82.6705 17.458 66.3525 23.6123 61.6855ZM85.6435 34.375C90.6653 34.375 94.3009 35.7409 96.5508 38.4727C98.8006 41.2046 99.9258 44.9816 99.9258 49.8027C99.9257 54.1014 99.1226 58.5809 97.5156 63.2412C95.9086 67.9015 93.4176 71.8591 90.0429 75.1133C86.7083 78.3274 82.59 79.9346 77.6885 79.9346C74.3137 79.9346 71.6618 78.9704 69.7334 77.042C67.8452 75.1135 66.9013 72.0397 66.9013 67.8213C66.9014 64.2457 67.5445 60.228 68.8301 55.7686C70.1157 51.3091 71.9838 47.4922 74.4345 44.3184C76.9253 41.1447 79.8579 39.5577 83.2324 39.5576C84.4376 39.5576 85.4824 39.7187 86.3662 40.04C84.5986 41.0847 82.8912 43.2343 81.2441 46.4883C79.6372 49.7424 78.3315 53.3781 77.3271 57.3955C76.3227 61.4131 75.8203 64.969 75.8203 68.0625C75.8203 70.232 76.1016 71.9401 76.664 73.1855C77.2265 74.4307 78.1104 75.0536 79.3154 75.0537C81.284 75.0537 83.2327 73.6472 85.1611 70.835C87.1297 67.9825 88.7369 64.4063 89.9824 60.1074C91.268 55.8087 91.9111 51.6707 91.9111 47.6934C91.9111 45.2027 91.6899 43.214 91.248 41.7275C90.8463 40.2009 90.0829 39.0553 88.958 38.292C87.8331 37.5287 86.2461 37.1475 84.1972 37.1475C81.1037 37.1475 78.2307 37.7896 75.5791 39.0752C72.9276 40.3206 70.7984 42.1288 69.1914 44.499C67.6245 46.8292 66.8408 49.5413 66.8408 52.6348C66.8408 53.7195 66.9417 54.5236 67.1426 55.0459C67.3433 55.5278 67.4433 55.8093 67.4433 55.8896C65.4346 55.8896 63.9078 55.4871 62.8633 54.6836C61.8591 53.8801 61.3564 52.5947 61.3564 50.8271C61.3564 48.055 62.4816 45.4031 64.7314 42.8721C67.0215 40.341 70.0351 38.2925 73.7715 36.7256C77.548 35.1587 81.5054 34.375 85.6435 34.375ZM55.165 26.6914C58.178 26.6915 60.609 27.3549 62.457 28.6807C64.3048 30.0065 65.2285 32.0358 65.2285 34.7676C65.2284 36.4949 64.887 37.8609 64.2041 38.8652C63.5211 39.8293 62.456 40.3115 61.0097 40.3115C59.5636 40.3114 58.4188 39.7886 57.5752 38.7441C58.2983 38.3825 58.9415 37.6599 59.5039 36.5752C60.0664 35.4904 60.3476 34.3653 60.3476 33.2002C60.3476 32.1155 60.0459 31.2318 59.4433 30.5488C58.8809 29.8658 57.9565 29.5244 56.6709 29.5244C54.5417 29.5246 52.5133 30.9911 50.5849 33.9238C48.6565 36.8165 47.089 40.4723 45.8838 44.8916C44.7187 49.3109 44.1367 53.57 44.1367 57.668C44.1367 60.7211 44.6586 63.0512 45.7031 64.6582C46.7477 66.2652 48.6362 67.0684 51.3681 67.0684C53.7384 67.0683 55.9278 66.5464 57.9365 65.502C59.9453 64.4574 61.6728 62.9704 63.1191 61.042L64.5058 61.6445C63.5014 64.1756 62.0145 66.2853 60.0459 67.9727C58.0774 69.6599 55.9684 70.9055 53.7187 71.709C51.4689 72.4723 49.3389 72.8545 47.3301 72.8545C42.7902 72.8545 39.4555 71.709 37.3262 69.4189C35.1969 67.1289 34.1328 63.3323 34.1328 58.0293C34.1328 53.8108 34.835 49.2705 36.2412 44.4092C37.6875 39.548 39.9777 35.3897 43.1113 31.9346C46.2852 28.4392 50.3037 26.6914 55.165 26.6914Z" fill="#00FFA2"/>
</g>
<defs>
<clipPath id="clip0_536_4435">
<rect y="0.5" width="128" height="128" rx="64" fill="white"/>
</clipPath>
</defs>
</svg>
