<svg xmlns="http://www.w3.org/2000/svg" xmlns:xlink="http://www.w3.org/1999/xlink" width="190" height="248" viewBox="0 0 190 248"><defs><radialGradient id="a" cx="0.5" cy="0.794" r="0.5" gradientUnits="objectBoundingBox"><stop offset="0" stop-color="aqua"/><stop offset="0.213" stop-color="#90f"/><stop offset="0.46" stop-color="red"/><stop offset="0.812" stop-color="#fc0"/><stop offset="1" stop-color="#fff700"/></radialGradient><radialGradient id="b" cy="0.939" xlink:href="#a"/><radialGradient id="c" cy="0.939" gradientTransform="matrix(-1, 0, 0, 1, 1, 0)" xlink:href="#a"/><clipPath id="e"><rect width="190" height="248"/></clipPath></defs><g id="d" clip-path="url(#e)"><rect width="190" height="248" fill="rgba(255,255,255,0)"/><g transform="translate(20.001 23.105)"><path d="M 126.6445922851562 183.0729370117188 L 119.6518630981445 178.2627563476562 L 74.99976348876953 147.5474090576172 L 30.34761619567871 178.2627563476562 L 23.35506629943848 183.0728149414062 L 25.77156639099121 174.9369201660156 L 41.1976203918457 123.0002288818359 L -1.824284434318542 90.04541015625 L -8.565359115600586 84.88173675537109 L -0.07663439959287643 84.66481018066406 L 54.10956954956055 83.28009796142578 L 72.17136383056641 32.19893646240234 L 74.99976348876953 24.19986343383789 L 77.82816314697266 32.19893646240234 L 95.88993835449219 83.28009796142578 L 150.0761413574219 84.66481018066406 L 158.5649871826172 84.88173675537109 L 151.8237609863281 90.04544067382812 L 108.8010482788086 123.0002288818359 L 124.227912902832 174.9368896484375 L 126.6445922851562 183.0729370117188 Z M 30.40586471557617 65.76094055175781 L 30.40576553344727 65.76094055175781 L 30.4056396484375 65.76094055175781 C 28.65739059448242 65.76116180419922 26.90506553649902 65.14091491699219 25.19734001159668 63.91746520996094 C 23.77319145202637 62.89716339111328 22.44076538085938 61.49953842163086 21.2370662689209 59.7634391784668 C 18.85711479187012 56.33081436157227 17.25259017944336 51.89931488037109 16.83491516113281 47.60523986816406 C 16.56369018554688 44.81728744506836 17.58861541748047 41.7498893737793 19.96826553344727 38.22778701782227 C 21.64291572570801 35.74913787841797 24.01424026489258 33.0311393737793 27.0163402557373 30.14926338195801 C 32.02176666259766 25.34431266784668 37.05851745605469 21.72013854980469 37.27046585083008 21.56821250915527 L 46.47929000854492 14.96761322021484 L 41.74356460571289 25.26048851013184 C 40.57051467895508 27.81001281738281 40.76488876342773 29.31011390686035 41.34189224243164 33.76308822631836 C 41.53849029541016 35.2802619934082 41.78314208984375 37.16843795776367 42.00408935546875 39.43936157226562 C 42.23696517944336 41.83303833007812 42.21066665649414 44.4104118347168 41.9259147644043 47.09988784790039 C 41.65316390991211 49.67628860473633 41.14073944091797 52.27038955688477 40.44406509399414 54.60178756713867 C 39.25076675415039 58.59508895874023 36.98581695556641 63.68816375732422 32.97231674194336 65.27404022216797 C 32.15509033203125 65.59693908691406 31.29161643981934 65.76076507568359 30.40586471557617 65.76094055175781 Z M 112.9592132568359 41.753662109375 L 112.959114074707 41.753662109375 C 112.0849380493164 41.753662109375 111.2349624633789 41.57626342773438 110.4327926635742 41.22638702392578 C 106.7208938598633 39.60768890380859 104.6540679931641 34.51071166992188 103.5738677978516 30.51996421813965 C 102.2834930419922 25.75271415710449 101.7581939697266 20.12288856506348 102.1686935424805 15.46016311645508 C 102.3684692382812 13.19371318817139 102.5897674560547 11.3081636428833 102.7675933837891 9.793113708496094 C 103.296989440918 5.282613277435303 103.4753189086914 3.763138294219971 102.3879928588867 1.15406334400177 L 97.92893981933594 -9.545586585998535 L 107.0187683105469 -2.352511644363403 C 107.2112655639648 -2.200161695480347 111.7855682373047 1.433638334274292 116.328369140625 6.248088359832764 C 119.0514907836914 9.134037971496582 121.201789855957 11.85476303100586 122.7195663452148 14.33473873138428 C 124.8540191650391 17.82233810424805 125.7748413085938 20.84366416931152 125.5347137451172 23.57133865356445 C 125.1594619750977 27.82853889465332 123.7146682739258 32.22793960571289 121.5707168579102 35.64178848266602 C 119.0955123901367 39.58308792114258 116.0372161865234 41.753662109375 112.9592132568359 41.753662109375 Z" stroke="none"/><path d="M 121.3520736694336 175.7910919189453 L 105.3371276855469 121.8745651245117 L 149.9994964599609 87.66384124755859 L 93.74968719482422 86.22637176513672 L 74.99977111816406 33.19903945922852 L 56.24982452392578 86.22637176513672 L -9.399414011568297e-06 87.66384124755859 L 44.66149139404297 121.8745651245117 L 28.64740753173828 175.7910919189453 L 74.99977111816406 143.9061737060547 L 121.3520736694336 175.7910919189453 M 30.4052677154541 62.76092910766602 C 30.90423965454102 62.76084518432617 31.39507484436035 62.67153930664062 31.8698787689209 62.48395538330078 C 36.66985321044922 60.58731460571289 39.88654708862305 48.6556510925293 39.01818466186523 39.7298698425293 C 38.14985275268555 30.80487251281738 36.97571182250977 28.44573211669922 39.01818466186523 24.00653839111328 C 39.01818466186523 24.00653839111328 18.95246315002441 38.38898468017578 19.82079696655273 47.31478881835938 C 20.60315704345703 55.35750961303711 25.86137962341309 62.76150894165039 30.4052677154541 62.76092910766602 M 112.9591979980469 38.75367736816406 C 117.0744094848633 38.75367736816406 121.837532043457 31.34913063049316 122.5462646484375 23.3082332611084 C 123.3320999145508 14.38245487213135 105.1571273803711 1.055230040947208e-05 105.1571273803711 1.055230040947208e-05 C 107.0071029663086 4.439094066619873 105.9438247680664 6.798288345336914 105.1571273803711 15.7232608795166 C 104.3712997436523 24.64903831481934 107.2846603393555 36.5806770324707 111.6321258544922 38.47656631469727 C 112.0626754760742 38.66436386108398 112.5121307373047 38.7540283203125 112.9591979980469 38.75367736816406 M 131.9370422363281 190.3547821044922 L 74.99976348876953 151.1886444091797 L 18.06276893615723 190.3545379638672 L 37.73374176025391 124.1258926391602 L -17.13078689575195 82.09967803955078 L 51.96935653686523 80.33378601074219 L 74.99977111816406 15.20070457458496 L 98.0301513671875 80.33378601074219 L 167.1305236816406 82.09967803955078 L 112.2649383544922 124.1259002685547 L 131.9370422363281 190.3547821044922 Z M 30.40626907348633 68.76092529296875 L 30.40604591369629 68.76092529296875 C 21.71623992919922 68.76203918457031 14.82926845550537 57.97309494018555 13.84899044036865 47.89570617675781 C 12.73251819610596 36.41926193237305 30.15604591369629 22.97653770446777 35.52273941040039 19.1298713684082 L 53.94040679931641 5.928705215454102 L 44.46893692016602 26.51442718505859 C 43.70174026489258 28.18184471130371 43.73112869262695 28.85598182678223 44.3170166015625 33.37751007080078 C 44.52362823486328 34.97209548950195 44.76632308959961 36.8498420715332 44.989990234375 39.14887237548828 C 45.95629501342773 49.08134460449219 42.70068359375 64.65573120117188 34.07479476928711 68.06412506103516 C 32.9049072265625 68.52631378173828 31.67074012756348 68.76070404052734 30.40626907348633 68.76092529296875 Z M 112.9591827392578 44.75367736816406 C 111.6696548461914 44.75367736816406 110.4160766601562 44.49209213256836 109.233268737793 43.97615051269531 C 100.9644622802734 40.37020492553711 98.34609985351562 24.67145538330078 99.18023681640625 15.1970386505127 C 99.38229370117188 12.90481567382812 99.60146331787109 11.03303813934326 99.78801727294922 9.443511009216309 C 100.3268814086914 4.852566242218018 100.3557662963867 4.076399326324463 99.61882019042969 2.308066129684448 L 90.70076751708984 -19.09112739562988 L 108.8803787231445 -4.70501708984375 C 113.7392654418945 -0.8600172400474548 129.515625 12.56145477294922 128.5231628417969 23.8344554901123 C 127.6363830566406 33.89534378051758 121.4337692260742 44.75367736816406 112.9591827392578 44.75367736816406 Z" stroke="none" fill="#000"/></g><g transform="translate(20 23.104)"><g transform="translate(0 33.199)" fill="url(#a)"><path d="M 124.8803482055664 147.4466094970703 L 120.2186279296875 144.2399597167969 L 74.99974822998047 113.1350860595703 L 29.78084754943848 144.2399597167969 L 25.1191291809082 147.4466094970703 L 26.73014831542969 142.0226898193359 L 42.35247039794922 89.42630767822266 L -1.216171741485596 56.05307388305664 L -5.710291862487793 52.61063385009766 L -0.05109177157282829 52.46601486206055 L 54.82297515869141 51.06367111206055 L 73.11415100097656 -0.6667261123657227 L 74.99974822998047 -5.999505996704102 L 76.88534545898438 -0.6667261123657227 L 95.17652130126953 51.06367111206055 L 150.0506134033203 52.46601486206055 L 155.7098083496094 52.61063385009766 L 151.2156829833984 56.05309295654297 L 107.6470336914062 89.42632293701172 L 123.2693252563477 142.0226898193359 L 124.8803482055664 147.4466094970703 Z" stroke="none"/><path d="M 74.99974822998047 0 L 56.24981689453125 53.02787017822266 L 0 54.46537017822266 L 44.66172790527344 88.67587280273438 L 28.64736175537109 142.5921478271484 L 74.99974822998047 110.7075958251953 L 121.3521118164062 142.5921478271484 L 105.3377685546875 88.67587280273438 L 149.9994964599609 54.46537017822266 L 93.74967956542969 53.02784729003906 L 74.99974822998047 0 M 74.99974822998047 -11.99899291992188 L 96.60334777832031 49.09945678710938 L 161.4200897216797 50.75593566894531 L 109.9562835693359 90.17677307128906 L 128.4085845947266 152.3010711669922 L 74.99974822998047 115.5625610351562 L 21.59086608886719 152.3010711669922 L 40.043212890625 90.17677307128906 L -11.42060852050781 50.75591278076172 L 53.39614868164062 49.09947967529297 L 74.99974822998047 -11.99899291992188 Z" stroke="none" fill="#ffd500"/></g><g transform="translate(-684.403 -648.172)" fill="url(#b)"><path d="M 797.3623046875 688.926513671875 C 797.3619384765625 688.926513671875 797.3616333007812 688.926513671875 797.3612670898438 688.926513671875 C 796.62548828125 688.9263916015625 795.91015625 688.7770385742188 795.2352905273438 688.4827270507812 C 791.8871459960938 687.0223388671875 789.9649658203125 682.210693359375 788.9420166015625 678.431396484375 C 787.6807250976562 673.7715454101562 787.1671142578125 668.2721557617188 787.5679931640625 663.7206420898438 C 787.7664794921875 661.4677124023438 787.9776611328125 659.6680297851562 788.1640014648438 658.0802001953125 C 788.7009887695312 653.5042724609375 788.90185546875 651.7921142578125 787.714111328125 648.9415283203125 L 784.7423095703125 641.8091430664062 L 790.8013916015625 646.6039428710938 C 790.9915771484375 646.7544555664062 795.5106811523438 650.3445434570312 800.004150390625 655.1068115234375 C 802.679931640625 657.9425659179688 804.7879028320312 660.6080932617188 806.2695922851562 663.0291748046875 C 808.2601318359375 666.28173828125 809.1590576171875 669.1842651367188 808.9413452148438 671.6560668945312 C 808.5797119140625 675.7612915039062 807.1893920898438 679.999267578125 805.1268920898438 683.283447265625 C 804.0929565429688 684.9296875 802.9525146484375 686.2518310546875 801.7371826171875 687.2130737304688 C 800.2996215820312 688.3500366210938 798.8276977539062 688.926513671875 797.3623046875 688.926513671875 Z" stroke="none"/><path d="M 789.560302734375 648.1723022460938 C 791.41015625 652.6119995117188 790.3465576171875 654.9705200195312 789.560302734375 663.8961181640625 C 788.7741088867188 672.8217163085938 791.6876831054688 684.7533569335938 796.0348510742188 686.6494750976562 C 800.3829956054688 688.5465087890625 806.162841796875 680.4061279296875 806.9490356445312 671.4805908203125 C 807.7352294921875 662.5549926757812 789.560302734375 648.1723022460938 789.560302734375 648.1723022460938 M 779.9243774414062 635.4459838867188 L 792.04248046875 645.03564453125 C 792.2373046875 645.1898193359375 796.8668212890625 648.8674926757812 801.4588012695312 653.7341918945312 C 808.2711181640625 660.9539794921875 811.3703002929688 666.8736572265625 810.93359375 671.83154296875 C 810.734375 674.093505859375 810.26025390625 676.3558959960938 809.5243530273438 678.5558471679688 C 808.8187866210938 680.665283203125 807.9090576171875 682.6137084960938 806.820556640625 684.346923828125 C 804.15576171875 688.58984375 800.7965698242188 690.926513671875 797.3616333007812 690.926513671875 C 796.3490600585938 690.926513671875 795.3646240234375 690.7210693359375 794.4357299804688 690.31591796875 C 792.583740234375 689.5081176757812 790.9590454101562 687.8998413085938 789.6066284179688 685.53564453125 C 788.5818481445312 683.744140625 787.7086791992188 681.5297241210938 787.011474609375 678.9539184570312 C 785.6723022460938 674.0061645507812 785.1489868164062 668.389892578125 785.5757446289062 663.545166015625 C 785.7767333984375 661.2633666992188 785.9990234375 659.369140625 786.1776123046875 657.8471069335938 C 786.7252807617188 653.18017578125 786.818359375 651.99169921875 785.8679809570312 649.7107543945312 L 779.9243774414062 635.4459838867188 Z" stroke="none" fill="#ffd500"/></g><g transform="translate(-769.638 -624.166)" fill="url(#c)"><path d="M 800.044189453125 688.926513671875 C 798.5091552734375 688.926513671875 796.952880859375 688.369140625 795.4185180664062 687.2698974609375 C 794.0877075195312 686.3164672851562 792.8357543945312 685.000732421875 791.697509765625 683.3590698242188 C 789.4117431640625 680.0625 787.8704223632812 675.8035278320312 787.4688720703125 671.6741943359375 C 787.335693359375 670.3047485351562 787.5687255859375 668.80517578125 788.1614379882812 667.2171020507812 C 788.6580200195312 665.8865356445312 789.4232177734375 664.4520874023438 790.4357299804688 662.9534912109375 C 792.0709838867188 660.5332641601562 794.3965454101562 657.86962890625 797.3477783203125 655.0365600585938 C 802.3020629882812 650.2806396484375 807.2822875976562 646.6969604492188 807.4918823242188 646.5467529296875 L 813.6303100585938 642.1468505859375 L 810.4739990234375 649.0081176757812 C 809.1809692382812 651.819091796875 809.4010009765625 653.5173950195312 809.989013671875 658.0563354492188 C 810.1949462890625 659.6455078125 810.4282836914062 661.4466552734375 810.6476440429688 663.7025146484375 C 811.0924682617188 668.2765502929688 810.5230712890625 673.8013916015625 809.1245727539062 678.4815063476562 C 808.40087890625 680.903076171875 807.5056762695312 682.967529296875 806.4636840820312 684.617431640625 C 805.2213134765625 686.5846557617188 803.8015747070312 687.8941650390625 802.243896484375 688.5095825195312 C 801.5435791015625 688.7862548828125 800.8035278320312 688.926513671875 800.044189453125 688.926513671875 Z" stroke="none"/><path d="M 808.6570434570312 648.1723022460938 C 808.6570434570312 648.1723022460938 788.591552734375 662.5549926757812 789.45947265625 671.4805908203125 C 790.3275146484375 680.40625 796.7091674804688 688.5457763671875 801.509033203125 686.6494750976562 C 806.308349609375 684.7533569335938 809.5250244140625 672.8217163085938 808.6570434570312 663.8961181640625 C 807.7890014648438 654.9705200195312 806.61474609375 652.6119995117188 808.6570434570312 648.1723022460938 M 818.6034545898438 636.1213989257812 L 812.291015625 649.8439331054688 C 811.27685546875 652.0485229492188 811.3784790039062 653.2146606445312 811.9724731445312 657.79931640625 C 812.1699829101562 659.3239135742188 812.415771484375 661.2213134765625 812.6382446289062 663.5089111328125 C 813.1138305664062 668.3992919921875 812.5316162109375 674.0653076171875 811.0408325195312 679.0540771484375 C 809.7841186523438 683.2596435546875 807.3652954101562 688.6366577148438 802.9788208007812 690.36962890625 C 802.04345703125 690.7391967773438 801.05615234375 690.926513671875 800.044189453125 690.926513671875 C 798.0828857421875 690.926513671875 796.1346435546875 690.2432250976562 794.2537231445312 688.8956909179688 C 792.7361450195312 687.8084716796875 791.3231201171875 686.3291015625 790.053955078125 684.4987182617188 C 788.8465576171875 682.7573852539062 787.8365478515625 680.7971801757812 787.0519409179688 678.672607421875 C 786.2305297851562 676.4482421875 785.7010498046875 674.1588134765625 785.478271484375 671.8677978515625 C 784.9869384765625 666.8153076171875 788.4164428710938 660.8378295898438 795.9627075195312 653.59375 C 801.0192260742188 648.7396850585938 806.1123657226562 645.0748291015625 806.3267211914062 644.9212036132812 L 818.6034545898438 636.1213989257812 Z" stroke="none" fill="#ffd500"/></g></g></g></svg>