<svg xmlns="http://www.w3.org/2000/svg" xmlns:xlink="http://www.w3.org/1999/xlink" width="190" height="248" viewBox="0 0 190 248"><defs><linearGradient id="a" x1="0.5" x2="0.5" y2="1" gradientUnits="objectBoundingBox"><stop offset="0" stop-color="#f3dd4f"/><stop offset="1" stop-color="#706a38"/></linearGradient><linearGradient id="b" x1="0.5" x2="0.5" y2="1" gradientUnits="objectBoundingBox"><stop offset="0" stop-color="#ffe78a"/><stop offset="1" stop-color="#706a38"/></linearGradient><linearGradient id="c" x1="0.5" x2="0.5" y2="1" gradientUnits="objectBoundingBox"><stop offset="0" stop-color="#fff4c8"/><stop offset="1" stop-color="#706a38"/></linearGradient><linearGradient id="d" x1="0.5" x2="0.5" y2="1" gradientUnits="objectBoundingBox"><stop offset="0" stop-color="#f3d24f"/><stop offset="1" stop-color="#706a38"/></linearGradient><linearGradient id="f" x1="0.5" x2="0.5" y2="1" gradientUnits="objectBoundingBox"><stop offset="0" stop-color="#fff5b1"/><stop offset="1" stop-color="#706a38"/></linearGradient><linearGradient id="h" x1="0.5" x2="0.5" y2="1" gradientUnits="objectBoundingBox"><stop offset="0" stop-color="#ffeb9b"/><stop offset="1" stop-color="#706a38"/></linearGradient><clipPath id="l"><rect width="190" height="248"/></clipPath></defs><g id="k" clip-path="url(#l)"><rect width="190" height="248" fill="rgba(255,255,255,0)"/><g transform="translate(-3.244 -34.183)"><g transform="translate(11.004 29.636)" fill="#efcf4f"><path d="M 77.54989624023438 207.8365783691406 L 77.54987335205078 207.8365783691406 C 73.55877685546875 207.8368682861328 69.63075256347656 207.1704864501953 65.87492370605469 205.85595703125 C 62.22546768188477 204.5786743164062 58.82318115234375 202.7208404541016 55.76261138916016 200.3340759277344 C 52.71154022216797 197.9547271728516 50.08518218994141 195.1163635253906 47.95651626586914 191.8978729248047 C 46.27705764770508 189.3585357666016 44.94121551513672 186.6322631835938 43.96913528442383 183.7643585205078 C 40.95867919921875 184.6695556640625 37.84453582763672 185.1271057128906 34.67880249023438 185.1271057128906 C 33.16244506835938 185.1271057128906 31.6280632019043 185.0196228027344 30.11827850341797 184.8076324462891 L 28.72563552856445 184.6123962402344 C 24.38118362426758 184.0018463134766 20.2857780456543 182.5581817626953 16.55234909057617 180.3213958740234 C 12.9474925994873 178.1616363525391 9.831968307495117 175.3576965332031 7.292325496673584 171.9875030517578 C 4.752682685852051 168.6172943115234 2.91608738899231 164.849609375 1.833611249923706 160.7890777587891 C 0.7125160098075867 156.5837707519531 0.4535874724388123 152.2490997314453 1.064039826393127 147.9054870605469 L 1.955016016960144 141.5633239746094 C 2.352730274200439 138.7338714599609 3.115182638168335 135.9776458740234 4.221254348754883 133.3710327148438 C 5.112945079803467 131.2695922851562 6.227580070495605 129.2653656005859 7.542886257171631 127.3964462280273 C 6.335418224334717 123.8908004760742 5.69108772277832 120.2232131958008 5.625587463378906 116.4739608764648 L 5.574277877807617 113.5445785522461 C 5.509611129760742 109.8429870605469 6.049825668334961 106.3267517089844 7.179944515228271 103.093391418457 C 8.242753982543945 100.0525588989258 9.856825828552246 97.17862701416016 11.97725391387939 94.55143737792969 C 15.39941024780273 90.31144714355469 20.16690063476562 86.61236572265625 26.5200252532959 83.27384185791016 L 26.51041984558105 83.13681793212891 C 26.27456283569336 79.76243591308594 26.43894386291504 76.85520172119141 27.0129451751709 74.24848937988281 C 27.55006408691406 71.80917358398438 28.43582534790039 69.68138885498047 29.72080230712891 67.74350738525391 C 32.06675338745117 64.20560455322266 35.39608764648438 61.90739059448242 38.61580276489258 59.68484497070312 C 41.06484985351562 57.99427032470703 43.5972785949707 56.24615097045898 45.81977844238281 53.90117645263672 C 49.11006546020508 50.42919921875 52.53989791870117 47.91858291625977 56.01396942138672 46.43912887573242 C 58.9202766418457 45.20143890380859 61.11423110961914 45.01665115356445 62.16337203979492 45.01665115356445 C 62.33117294311523 45.01665115356445 62.47233200073242 45.02133941650391 62.58503723144531 45.02744293212891 C 63.35895919799805 44.9772834777832 64.14095306396484 44.95188903808594 64.91237640380859 44.95188903808594 C 67.49298095703125 44.95188903808594 70.05960845947266 45.23220825195312 72.56623077392578 45.78652572631836 C 74.17414855957031 43.39577865600586 76.23944854736328 41.39638900756836 78.72537231445312 39.82760620117188 C 81.72569274902344 37.93423461914062 85.29219055175781 36.70367813110352 89.33066558837891 36.16789627075195 L 95.88699340820312 33.58570098876953 L 96.18280029296875 33.46920013427734 L 96.49837493896484 33.43043899536133 C 97.60765838623047 33.2942008972168 98.71956634521484 33.22512817382812 99.80325317382812 33.22512817382812 C 104.1631088256836 33.22512817382812 108.2018737792969 34.30527114868164 111.8073272705078 36.43550872802734 C 114.7170257568359 38.1546745300293 117.2135314941406 40.47636795043945 119.2491760253906 43.35280990600586 C 120.4792633056641 43.0255241394043 121.7360076904297 42.78231811523438 123.0044479370117 42.62662887573242 L 123.2863998413086 42.59203338623047 L 123.5689239501953 42.62155914306641 L 134.5453033447266 43.76886749267578 C 135.7339172363281 43.63305282592773 136.886962890625 43.56424713134766 137.9768524169922 43.56424713134766 C 141.0661163330078 43.56424713134766 143.8331146240234 44.11872482299805 146.2009887695312 45.21227264404297 C 148.5242614746094 46.28522491455078 150.524658203125 47.9018669128418 152.1466369628906 50.01729583740234 C 153.6402587890625 51.9653434753418 154.8170471191406 54.30479431152344 155.7442474365234 57.16929626464844 C 156.5721130371094 59.72691345214844 157.1800231933594 62.64315414428711 157.6026611328125 66.08467864990234 L 157.8673553466797 68.24439239501953 C 158.1433715820312 70.49198913574219 158.1435852050781 72.76203155517578 157.8678894042969 74.99086761474609 C 157.6593322753906 76.677001953125 157.2924957275391 78.34409332275391 156.7743682861328 79.96395111083984 C 158.7019195556641 82.47240447998047 160.2800750732422 85.21815490722656 161.4745941162109 88.14424896240234 C 161.7401275634766 88.79472351074219 161.9859771728516 89.45255279541016 162.2118072509766 90.11648559570312 L 162.6831817626953 90.11648559570312 L 163.4175109863281 90.86124420166016 C 164.1433258056641 91.597412109375 164.1390838623047 92.43910217285156 164.1377105712891 92.7156982421875 C 164.1373901367188 92.77681732177734 164.1366119384766 92.87003326416016 164.1352996826172 92.99893951416016 C 164.1327819824219 93.24636840820312 164.1282043457031 93.63084411621094 164.1211547851562 94.18032073974609 C 164.1062774658203 95.34229278564453 164.0810394287109 97.18348693847656 164.0461578369141 99.65270233154297 C 163.9891357421875 103.6548233032227 163.1883544921875 107.872444152832 161.7177124023438 111.9631423950195 C 164.73828125 114.1674575805664 167.2804412841797 117.0008773803711 169.1394195556641 120.2521057128906 C 171.4163055419922 124.234245300293 172.6197967529297 128.7762908935547 172.6197967529297 133.38720703125 L 172.6197967529297 139.4801940917969 C 172.6197967529297 145.9021301269531 170.2931518554688 152.097412109375 166.0684967041016 156.9247894287109 C 162.2223663330078 161.3195953369141 157.0509185791016 164.3126678466797 151.3779602050781 165.4571533203125 C 149.5257263183594 170.2420043945312 146.5801086425781 174.5588989257812 142.7805328369141 178.0490417480469 C 141.6638641357422 182.3125610351562 139.4239654541016 186.1884765625 136.2701873779297 189.3009185791016 C 132.8346405029297 192.6914367675781 128.5045623779297 194.9721527099609 123.7481079101562 195.896484375 L 121.8546829223633 196.2645568847656 C 120.3022308349609 196.5662078857422 118.7213516235352 196.7191009521484 117.1557083129883 196.7191009521484 C 113.4177780151367 196.7191009521484 109.7380447387695 195.8576354980469 106.3895263671875 194.2121734619141 C 104.2022705078125 197.1070404052734 101.64990234375 199.9830474853516 98.23692321777344 202.3200531005859 C 93.90622711181641 205.2854309082031 88.69370269775391 206.9988403320312 82.30153656005859 207.5581817626953 L 80.68084716796875 207.6995544433594 C 79.64285278320312 207.7903900146484 78.58920288085938 207.8365173339844 77.54989624023438 207.8365783691406 Z" stroke="none"/><path d="M 77.54972076416016 205.3365936279297 C 78.51271820068359 205.3365020751953 79.48622131347656 205.2945404052734 80.46361541748047 205.2090148925781 L 82.08361053466797 205.0677185058594 C 95.02111053466797 203.9355926513672 100.5927734375 198.0731964111328 105.6704788208008 190.9642181396484 C 110.2003173828125 193.7465362548828 115.7457656860352 194.9047088623047 121.3776092529297 193.8105010986328 L 123.2711944580078 193.4423980712891 C 132.1029052734375 191.7261199951172 138.6657104492188 184.9491119384766 140.5359039306641 176.7042236328125 C 144.6196136474609 173.1290130615234 147.7562713623047 168.4996185302734 149.5211944580078 163.2403717041016 C 161.1656951904297 161.5886993408203 170.1197967529297 151.5800933837891 170.1197967529297 139.480224609375 L 170.1197967529297 133.3872222900391 C 170.1197967529297 124.7319030761719 165.5361175537109 117.1457977294922 158.6655120849609 112.9239044189453 C 160.4799041748047 108.5571136474609 161.4842987060547 103.9751892089844 161.5464019775391 99.61740112304688 C 161.6207275390625 94.35611724853516 161.6418609619141 92.61648559570312 161.6372833251953 92.61648559570312 C 161.6283569335938 92.61648559570312 161.5212249755859 99.26819610595703 161.5212249755859 99.26819610595703 C 161.0186920166016 92.07861328125 158.2480926513672 85.58743286132812 153.9585266113281 80.446533203125 C 155.3519744873047 76.77406311035156 155.8979797363281 72.71817016601562 155.3858947753906 68.54850769042969 L 155.1213226318359 66.389404296875 C 153.4383239746094 52.68511962890625 148.2659759521484 44.60221099853516 134.5626068115234 46.28429794311523 L 123.3090057373047 45.10800933837891 C 121.5290603637695 45.32648086547852 119.8156127929688 45.72713851928711 118.1855850219727 46.28877258300781 C 113.8019332885742 39.05169296264648 106.2071838378906 34.75691604614258 96.80311584472656 35.91179656982422 L 89.95679473876953 38.60819244384766 C 82.19795227050781 39.56106185913086 76.72689819335938 43.19548416137695 73.74530029296875 48.65682601928711 C 70.21087646484375 47.67161560058594 66.44825744628906 47.26303482055664 62.57879638671875 47.53350830078125 C 62.57879257202148 47.53350830078125 56.02768707275391 46.76400756835938 47.63429641723633 55.62090301513672 C 39.24000549316406 64.47779846191406 27.73350715637207 64.78111267089844 29.00429725646973 82.96200561523438 L 29.12945556640625 84.74726867675781 C 16.89832305908203 90.83461761474609 7.827665328979492 99.40695953369141 8.073902130126953 113.5008010864258 L 8.125191688537598 116.4302978515625 C 8.195243835449219 120.4390335083008 8.978165626525879 124.2669296264648 10.35200691223145 127.7970581054688 C 7.286165237426758 131.7765808105469 5.179902076721191 136.5808715820312 4.430717945098877 141.9111175537109 L 3.539717674255371 148.2534027099609 C 1.233901977539062 164.660400390625 12.66571807861328 179.8308258056641 29.07269096374512 182.1366119384766 L 30.46590232849121 182.3319091796875 C 35.78218841552734 183.0783081054688 40.9620361328125 182.3840942382812 45.62037658691406 180.5476684570312 C 49.31558609008789 195.0014038085938 62.42769241333008 205.337646484375 77.54972076416016 205.3365936279297 M 77.55014038085938 210.3365936279297 L 77.55005645751953 210.3365936279297 C 73.27700805664062 210.3368835449219 69.07106018066406 209.623291015625 65.04905700683594 208.2156066894531 C 61.14237594604492 206.8482971191406 57.50071716308594 204.8598480224609 54.22521591186523 202.3054809570312 C 50.96026992797852 199.7593536376953 48.14961242675781 196.7217254638672 45.87132263183594 193.2769775390625 C 44.50582885742188 191.2123565673828 43.35247802734375 189.0323333740234 42.42065048217773 186.7579803466797 C 39.8900146484375 187.3357391357422 37.30069351196289 187.6271209716797 34.67879486083984 187.6271209716797 C 33.04674530029297 187.6271209716797 31.39542770385742 187.5114593505859 29.77071762084961 187.2833557128906 L 28.37861251831055 187.0881958007812 C 23.70011329650879 186.4306945800781 19.28948020935059 184.8756408691406 15.26750755310059 182.4659576416016 C 11.38508605957031 180.1399078369141 8.030112266540527 177.1206359863281 5.295743942260742 173.4920654296875 C 2.561375617980957 169.8634490966797 0.583823025226593 165.8062133789062 -0.582019031047821 161.4330596923828 C -1.789755940437317 156.9026947021484 -2.06888747215271 152.2342987060547 -1.411624312400818 147.5575561523438 L -0.5206506252288818 141.2155151367188 C -0.0925716906785965 138.1697692871094 0.7285072803497314 135.2020568847656 1.919849395751953 132.3944854736328 C 2.7155601978302 130.5192565917969 3.675854682922363 128.7161254882812 4.787340641021729 127.0080642700195 C 3.746490716934204 123.6213684082031 3.188626527786255 120.1039047241211 3.125954627990723 116.5176696777344 L 3.074665069580078 113.5883255004883 C 2.938638925552368 105.8026657104492 5.279375553131104 98.8695068359375 10.0318489074707 92.98126983642578 C 13.4083833694458 88.79782867431641 17.97599411010742 85.13056182861328 23.93619918823242 81.82750701904297 C 23.82290840148926 78.82561492919922 24.03246116638184 76.15848541259766 24.5714282989502 73.71087646484375 C 25.17603302001953 70.96516418457031 26.1788501739502 68.56129455566406 27.63724327087402 66.36193084716797 C 30.24966430664062 62.42214202880859 33.78074264526367 59.98466491699219 37.19556045532227 57.6274299621582 C 39.64687728881836 55.93529891967773 41.9622688293457 54.33698272705078 44.00527191162109 52.18140411376953 C 52.27177047729492 43.45840454101562 59.45758438110352 42.51663970947266 62.16334915161133 42.51663970947266 C 62.30978393554688 42.51663970947266 62.44318771362305 42.51937484741211 62.56341934204102 42.52384567260742 C 63.34534454345703 42.47605895996094 64.13388061523438 42.45187759399414 64.91234588623047 42.45187759399414 C 67.12092590332031 42.45187759399414 69.32003021240234 42.64371490478516 71.48468017578125 43.02398681640625 C 73.11764526367188 40.94122314453125 75.09397125244141 39.16306686401367 77.39116668701172 37.71340179443359 C 80.62123107910156 35.67504119873047 84.42096710205078 34.33691024780273 88.69367218017578 33.73186874389648 L 95.56250762939453 31.02658843994141 L 96.19364166259766 30.94908714294434 C 97.40361022949219 30.80048179626465 98.61805725097656 30.72513961791992 99.80324554443359 30.72513961791992 C 102.2111892700195 30.72513961791992 104.5708465576172 31.03387641906738 106.8166656494141 31.64279747009277 C 109.0160369873047 32.23908615112305 111.1229782104492 33.1274299621582 113.0790328979492 34.28313827514648 C 114.9832458496094 35.40821838378906 116.7550048828125 36.79282379150391 118.345085144043 38.39853668212891 C 119.0150451660156 39.07505798339844 119.6542892456055 39.79241561889648 120.259651184082 40.54650115966797 C 121.0664978027344 40.37975311279297 121.8809432983398 40.24576187133789 122.6998748779297 40.14524459838867 L 123.2637710571289 40.07603454589844 L 134.5380249023438 41.25450134277344 C 135.7235260009766 41.12819671630859 136.8778228759766 41.06427001953125 137.9768218994141 41.06427001953125 C 141.4306335449219 41.06427001953125 144.55029296875 41.69624710083008 147.2491455078125 42.9426383972168 C 149.9441986083984 44.18727111816406 152.2594604492188 46.05574417114258 154.1305847167969 48.49613952636719 C 155.8004760742188 50.67408752441406 157.1063232421875 53.25927352905273 158.1227722167969 56.3994026184082 C 159.0002136230469 59.11019134521484 159.6417694091797 62.17861557006836 160.0840301513672 65.77993011474609 L 160.3487701416016 67.94035339355469 C 160.6496429443359 70.39016723632812 160.6497650146484 72.86598205566406 160.3489837646484 75.29774475097656 C 160.1746063232422 76.70752716064453 159.8988342285156 78.10516357421875 159.5251922607422 79.47660064697266 C 161.2431640625 81.87647247314453 162.6725769042969 84.46417999267578 163.7891387939453 87.19937896728516 C 163.8972473144531 87.46421813964844 164.0022430419922 87.72998046875 164.1042175292969 87.99695587158203 L 165.1977233886719 89.10601043701172 C 165.8595886230469 89.77729797363281 166.6466674804688 90.95063781738281 166.6376647949219 92.72840118408203 C 166.6373443603516 92.79229736328125 166.6365661621094 92.88974761962891 166.6351623535156 93.02450561523438 C 166.6326446533203 93.27326965332031 166.6280364990234 93.65987396240234 166.6209564208984 94.21234893798828 C 166.6060333251953 95.37598419189453 166.5807952880859 97.21826934814453 166.5458984375 99.68801116943359 C 166.4929809570312 103.4003601074219 165.8443145751953 107.2778015136719 164.651123046875 111.0820236206055 C 167.3178863525391 113.3013229370117 169.5831604003906 115.9915771484375 171.3096923828125 119.0111923217773 C 173.8022918701172 123.3705902099609 175.1197967529297 128.3417205810547 175.1197967529297 133.3872222900391 L 175.1197967529297 139.480224609375 C 175.1197967529297 146.5079498291016 172.5734252929688 153.2879333496094 167.9497985839844 158.5712127685547 C 164.0431060791016 163.0352325439453 158.8860931396484 166.1775970458984 153.1991424560547 167.6073455810547 C 151.2919311523438 172.0313873291016 148.5027923583984 176.0452423095703 145.0026092529297 179.3926239013672 C 143.7161102294922 183.8108825683594 141.3248596191406 187.824951171875 138.0262451171875 191.080322265625 C 134.2389526367188 194.8179626464844 129.4665832519531 197.3319854736328 124.2250061035156 198.3505859375 L 122.3317413330078 198.7186431884766 C 120.6221923828125 199.0507659912109 118.8809051513672 199.2191162109375 117.1556930541992 199.2191162109375 C 113.7200622558594 199.2191162109375 110.329460144043 198.5592956542969 107.1584091186523 197.2891693115234 C 105.1085662841797 199.8194885253906 102.7140197753906 202.2843322753906 99.64937591552734 204.3827972412109 C 94.95453643798828 207.5975341796875 89.35132598876953 209.4508514404297 82.51947784423828 210.0486907958984 L 80.89803314208984 210.1900939941406 C 79.78874206542969 210.2871704101562 78.66184997558594 210.3365020751953 77.55014038085938 210.3365936279297 Z" stroke="none" fill="#000"/></g><g transform="translate(11.004 29.636)" fill="#efcf4f"><path d="M 77.54985046386719 206.8365936279297 L 77.54982757568359 206.8365936279297 C 73.6715087890625 206.8368682861328 69.85464477539062 206.1893920898438 66.20528411865234 204.912109375 C 62.65871429443359 203.6708374023438 59.35219192504883 201.8652496337891 56.3775520324707 199.5455169677734 C 53.41203308105469 197.2328796386719 50.85941696166992 194.4742279052734 48.79059982299805 191.3462066650391 C 46.97760772705078 188.6049957275391 45.57657241821289 185.6391754150391 44.61467361450195 182.5100708007812 C 41.40951538085938 183.5838012695312 38.07489776611328 184.1271057128906 34.67880249023438 184.1271057128906 C 33.2088508605957 184.1271057128906 31.72125816345215 184.0228881835938 30.25732612609863 183.8173370361328 L 28.8644847869873 183.6220855712891 C 24.65359878540039 183.0302886962891 20.68430328369141 181.6312103271484 17.06630325317383 179.4635620117188 C 13.5724630355835 177.3703155517578 10.55271339416504 174.6525268554688 8.090963363647461 171.3856811523438 C 5.629190444946289 168.1188354492188 3.849008560180664 164.4669799804688 2.799872159957886 160.531494140625 C 1.713440299034119 156.4562072753906 1.462599396705627 152.2550201416016 2.054303884506226 148.0446624755859 L 2.945303916931152 141.7024383544922 C 3.665105819702148 136.5812835693359 5.635855197906494 131.7080841064453 8.659283638000488 127.5551452636719 C 7.375885009765625 124.0028915405273 6.692117691040039 120.2735900878906 6.625417709350586 116.4564971923828 L 6.574121952056885 113.5270462036133 C 6.511531352996826 109.944091796875 7.032962799072266 106.5447235107422 8.123940467834473 103.42333984375 C 9.148849487304688 100.4909286499023 10.70712184906006 97.71731567382812 12.7554178237915 95.17949676513672 C 16.19275665283203 90.92070007324219 21.04317665100098 87.21120452880859 27.56346893310547 83.85845184326172 L 27.50798606872559 83.06688690185547 C 27.27889442443848 79.78952026367188 27.43641662597656 76.97545623779297 27.98955345153809 74.46352386474609 C 28.49969100952148 72.14679718017578 29.33860015869141 70.12943267822266 30.55423545837402 68.29613494873047 C 32.79357528686523 64.91899871826172 35.89759826660156 62.77631759643555 39.18387222290039 60.50781631469727 C 41.67516708374023 58.78808975219727 44.25128173828125 57.00981903076172 46.54560089111328 54.58906555175781 C 49.7410774230957 51.21711349487305 53.05855560302734 48.78459167480469 56.40578079223633 47.35915756225586 C 59.14873504638672 46.19104385375977 61.19046401977539 46.01663589477539 62.16337203979492 46.01663589477539 C 62.34468078613281 46.01663589477539 62.48727416992188 46.02275466918945 62.5883903503418 46.02936553955078 C 63.36078262329102 45.97793579101562 64.14199829101562 45.95188522338867 64.91228485107422 45.95188522338867 C 67.65202331542969 45.95188522338867 70.37522125244141 46.27691268920898 73.02393341064453 46.91906356811523 C 74.60298156738281 44.38821411132812 76.69601440429688 42.29074096679688 79.25905609130859 40.67329406738281 C 82.16610717773438 38.83876419067383 85.63826751708984 37.65163421630859 89.58248138427734 37.14347839355469 L 96.25341796875 34.51615905761719 L 96.43091583251953 34.44624710083008 L 96.62026214599609 34.42300033569336 C 97.68925476074219 34.29172515869141 98.76016998291016 34.22515869140625 99.80326080322266 34.22515869140625 C 103.9817352294922 34.22515869140625 107.8493270874023 35.25849914550781 111.2986450195312 37.29647445678711 C 114.2773742675781 39.05640411376953 116.8065567016602 41.47907638549805 118.8304138183594 44.50860214233398 C 120.2299194335938 44.09628677368164 121.6701202392578 43.79790878295898 123.1262588500977 43.61918258666992 L 123.2954406738281 43.59840774536133 L 123.4649429321289 43.61613464355469 L 134.5509643554688 44.7749137878418 C 135.7401580810547 44.63510131835938 136.8918914794922 44.56424713134766 137.9768218994141 44.56424713134766 C 140.9202880859375 44.56424713134766 143.5462188720703 45.08772659301758 145.7816925048828 46.12013626098633 C 147.9562835693359 47.12440872192383 149.8307342529297 48.64031600952148 151.3530578613281 50.62577056884766 C 152.7761688232422 52.48186111450195 153.9013214111328 54.72299957275391 154.7928466796875 57.47724914550781 C 155.6008911132812 59.97359085083008 156.1953277587891 62.82897567749023 156.6101226806641 66.20656585693359 L 156.8747863769531 68.36602020263672 C 157.1408538818359 70.53270721435547 157.1410980224609 72.72042846679688 156.8754425048828 74.86808776855469 C 156.6530456542969 76.66605377197266 156.2439117431641 78.44132995605469 155.6569976806641 80.15764617919922 C 157.6780548095703 82.70652770996094 159.3217926025391 85.51651763916016 160.5487518310547 88.52217864990234 C 160.8979187011719 89.37749481201172 161.2119750976562 90.24569702148438 161.4904022216797 91.12458801269531 C 161.5408782958984 91.119140625 161.5900421142578 91.11650085449219 161.6372833251953 91.11650085449219 L 162.2648315429688 91.11650085449219 L 162.7054138183594 91.56336212158203 C 163.1412658691406 92.00540924072266 163.1386871337891 92.51776885986328 163.1377105712891 92.71067810058594 C 163.1374206542969 92.77068328857422 163.1366424560547 92.8621826171875 163.1353454589844 92.98874664306641 C 163.1328277587891 93.23561096191406 163.1282806396484 93.61924743652344 163.1212615966797 94.16749572753906 C 163.1063537597656 95.32906341552734 163.0811157226562 97.16979217529297 163.0462341308594 99.63858795166016 C 162.9874877929688 103.7630920410156 162.1146545410156 108.1279144287109 160.5135803222656 112.3360900878906 C 163.6911163330078 114.5141067504883 166.3574066162109 117.4012145996094 168.2713012695312 120.7484741210938 C 170.4619140625 124.579704284668 171.6197967529297 128.9501190185547 171.6197967529297 133.38720703125 L 171.6197967529297 139.4802093505859 C 171.6197967529297 145.6597900390625 169.3810577392578 151.6211853027344 165.3159637451172 156.2662048339844 C 161.4929046630859 160.6346893310547 156.3101654052734 163.5637512207031 150.6402435302734 164.5797271728516 C 148.8248138427734 169.5194244384766 145.8154296875 173.9666137695312 141.8857727050781 177.5112915039062 C 140.8409576416016 181.7129364013672 138.6632690429688 185.5342407226562 135.5677642822266 188.5891876220703 C 132.2729187011719 191.8408355712891 128.1197814941406 194.0282287597656 123.5573501586914 194.9148559570312 L 121.6638259887695 195.2829284667969 C 120.1741485595703 195.5723571777344 118.6574401855469 195.7191162109375 117.1557159423828 195.7191162109375 C 113.2946853637695 195.7191162109375 109.4986190795898 194.7607574462891 106.0936279296875 192.9363403320312 C 103.8458404541016 195.9864959716797 101.2339324951172 199.055908203125 97.67192077636719 201.4949340820312 C 93.48689270019531 204.3605651855469 88.43068695068359 206.0180206298828 82.21434783935547 206.5619964599609 L 80.59394073486328 206.7033233642578 C 79.58460235595703 206.7916412353516 78.56027984619141 206.8365020751953 77.54985046386719 206.8365936279297 Z" stroke="none"/><path d="M 77.54970550537109 205.3365783691406 C 78.51273345947266 205.3365173339844 79.48622894287109 205.2945404052734 80.46360778808594 205.2090148925781 L 82.08361053466797 205.0677032470703 C 95.02111053466797 203.9356079101562 100.5927505493164 198.0731811523438 105.6704940795898 190.9642181396484 C 110.200309753418 193.7465362548828 115.7456970214844 194.9047088623047 121.3776092529297 193.8105163574219 L 123.2712097167969 193.4423980712891 C 132.1028900146484 191.7261047363281 138.6657104492188 184.9491119384766 140.5359039306641 176.7041931152344 C 144.6196136474609 173.1290130615234 147.7562561035156 168.4996032714844 149.5211791992188 163.2403717041016 C 161.1657104492188 161.5886840820312 170.1197967529297 151.5801086425781 170.1197967529297 139.4801940917969 L 170.1197967529297 133.38720703125 C 170.1197967529297 124.7319183349609 165.5361175537109 117.1457977294922 158.6654968261719 112.9239120483398 C 160.4799041748047 108.5571060180664 161.4842987060547 103.9751968383789 161.5464019775391 99.61739349365234 C 161.6207275390625 94.35610961914062 161.6418609619141 92.61648559570312 161.6372833251953 92.61648559570312 C 161.6283569335938 92.61648559570312 161.5212097167969 99.26820373535156 161.5212097167969 99.26820373535156 C 161.0186767578125 92.07862854003906 158.2480926513672 85.58744049072266 153.9585418701172 80.446533203125 C 155.3519897460938 76.77405548095703 155.8979949951172 72.71817779541016 155.3859252929688 68.54850769042969 L 155.1213073730469 66.38941192626953 C 153.4382934570312 52.68509292602539 148.2658081054688 44.60226440429688 134.5626068115234 46.28429412841797 L 123.3090133666992 45.10800933837891 C 121.5290603637695 45.32648468017578 119.8156127929688 45.72712707519531 118.1855850219727 46.28877258300781 C 113.8019180297852 39.05167388916016 106.2071838378906 34.75686645507812 96.80310821533203 35.91179656982422 L 89.95680236816406 38.60820007324219 C 82.19794464111328 39.56105804443359 76.72689819335938 43.19548416137695 73.74530029296875 48.65681838989258 C 70.21086883544922 47.67160415649414 66.4482421875 47.26303482055664 62.57880020141602 47.53350830078125 C 62.57881927490234 47.53351593017578 56.02771377563477 46.76400756835938 47.63430023193359 55.62091445922852 C 39.23999404907227 64.47779846191406 27.73351669311523 64.78110504150391 29.00430107116699 82.96201324462891 L 29.12944412231445 84.74726867675781 C 16.89832496643066 90.83460235595703 7.827658653259277 99.40695953369141 8.073897361755371 113.5007934570312 L 8.12520694732666 116.4302978515625 C 8.195230484008789 120.4390335083008 8.978182792663574 124.2669372558594 10.35201644897461 127.7970809936523 C 7.286182880401611 131.7765808105469 5.179920673370361 136.5808715820312 4.43070650100708 141.9111022949219 L 3.539706468582153 148.25341796875 C 1.233896970748901 164.6603851318359 12.66570663452148 179.8308258056641 29.07270622253418 182.1366119384766 L 30.46589660644531 182.3319091796875 C 35.78215408325195 183.0784149169922 40.96200942993164 182.3840942382812 45.6203727722168 180.5476531982422 C 49.31558609008789 195.0013885498047 62.42768096923828 205.337646484375 77.54970550537109 205.3365783691406 M 77.54991912841797 208.3365783691406 C 73.50241851806641 208.3368682861328 69.51882934570312 207.6610565185547 65.70975494384766 206.3278961181641 C 62.00885009765625 205.0326080322266 58.55868148803711 203.1486511230469 55.45513534545898 200.7283630371094 C 52.36127853393555 198.3156585693359 49.69806289672852 195.4374389648438 47.53946685791016 192.1736755371094 C 45.92499160766602 189.7326049804688 44.62345504760742 187.1206970214844 43.6525764465332 184.3780212402344 C 40.73870086669922 185.2079467773438 37.73260879516602 185.6271057128906 34.67880249023438 185.6271057128906 C 33.13925552368164 185.6271057128906 31.58149147033691 185.5179901123047 30.04875373840332 185.3027648925781 L 28.65620613098145 185.1075592041016 C 24.24496841430664 184.4876098632812 20.08651542663574 183.0216827392578 16.29539680480957 180.7502899169922 C 12.63501644134521 178.5572967529297 9.471587181091309 175.7102966308594 6.89299201965332 172.2884216308594 C 4.314420700073242 168.8665313720703 2.449635028839111 165.0409393310547 1.350468397140503 160.9178924560547 C 0.212063655257225 156.6475524902344 -0.05091254040598869 152.2461242675781 0.568897008895874 147.8358917236328 L 1.459873199462891 141.4937438964844 C 1.863658905029297 138.6210327148438 2.6378493309021 135.8225402832031 3.760968446731567 133.1757202148438 C 4.633287906646729 131.1199798583984 5.715719223022461 129.1557922363281 6.987964630126953 127.3178863525391 C 5.816269874572754 123.8357162475586 5.190568923950195 120.1987609863281 5.125658988952637 116.4826965332031 L 5.074349403381348 113.5533447265625 C 5.008658885955811 109.7924346923828 5.55827808380127 106.2177505493164 6.707944393157959 102.9284133911133 C 7.789706707000732 99.83336639404297 9.431658744812012 96.90929412841797 11.58818244934082 94.23741149902344 C 15.00168609619141 90.00811767578125 19.72807502746582 86.31490325927734 25.99886703491211 82.98368835449219 C 25.77870941162109 79.64053344726562 25.95094299316406 76.74629974365234 26.52463531494141 74.14096069335938 C 27.07525444030762 71.64038848876953 27.98442077636719 69.45736694335938 29.30408668518066 67.46717834472656 C 31.70332527160645 63.84889221191406 35.07301712036133 61.52284240722656 38.33175277709961 59.27334213256836 C 40.75968170166016 57.59736633300781 43.27027893066406 55.86431884765625 45.45687484741211 53.55722427368164 C 48.79454040527344 50.03524780273438 52.28058624267578 47.48555755615234 55.81806182861328 45.97910690307617 C 58.8060417175293 44.7066535949707 61.07613372802734 44.51665115356445 62.16337203979492 44.51665115356445 C 62.32649612426758 44.51665115356445 62.46645736694336 44.52075958251953 62.58274459838867 44.52655792236328 C 63.35753631591797 44.47699737548828 64.14011383056641 44.45188903808594 64.91237640380859 44.45188903808594 C 67.41597747802734 44.45188903808594 69.90643310546875 44.71201705932617 72.34329986572266 45.22677612304688 C 73.96117401123047 42.90208053588867 76.01076507568359 40.9494743347168 78.45854187011719 39.40476989746094 C 81.50511169433594 37.48219680786133 85.11866760253906 36.2299919128418 89.20406341552734 35.68037796020508 L 96.05875396728516 32.98067474365234 L 96.43742370605469 32.93417739868164 C 97.56684875488281 32.79546356201172 98.69927978515625 32.72512817382812 99.80325317382812 32.72512817382812 C 104.2537994384766 32.72512817382812 108.3781356811523 33.82865142822266 112.0616836547852 36.00503540039062 C 113.8184661865234 37.04301071166992 115.4543762207031 38.32177352905273 116.9239959716797 39.80582046508789 C 117.8300552368164 40.72079086303711 118.6762390136719 41.7171630859375 119.4534530639648 42.78324127197266 C 120.5992736816406 42.49334716796875 121.7665100097656 42.27482604980469 122.9435424804688 42.13036727905273 L 123.2818756103516 42.08881759643555 L 134.5431213378906 43.26591873168945 C 135.7313690185547 43.13203811645508 136.8848876953125 43.06424713134766 137.9768524169922 43.06424713134766 C 144.2598419189453 43.06424713134766 149.1607513427734 45.30122375488281 152.5434265136719 49.71308135986328 C 154.0722961425781 51.70710372924805 155.2749176025391 54.09567642211914 156.219970703125 57.01531982421875 C 157.0577545166016 59.60358047485352 157.6723785400391 62.55024719238281 158.0989227294922 66.02375030517578 L 158.3636322021484 68.18355560302734 C 158.6446380615234 70.47162628173828 158.6448211669922 72.78282165527344 158.3641052246094 75.05224609375 C 158.1624145507812 76.68282318115234 157.8153991699219 78.29582977294922 157.3291015625 79.86681365966797 C 159.2121276855469 82.35433959960938 160.7589569091797 85.06824493408203 161.9374847412109 87.95529174804688 C 162.1615600585938 88.50419616699219 162.3717651367188 89.05807495117188 162.5679626464844 89.61648559570312 L 162.8923492431641 89.61648559570312 L 163.7735443115234 90.51020050048828 C 164.3513793945312 91.09624481201172 164.6421051025391 91.83912658691406 164.6376800537109 92.71820068359375 C 164.6373748779297 92.77986907958984 164.6366119384766 92.87393951416016 164.6352844238281 93.00403594970703 C 164.6327514648438 93.25172424316406 164.6281890869141 93.63662719726562 164.6211395263672 94.18669891357422 C 164.6062316894531 95.34970092773438 164.5809631347656 97.19110870361328 164.5460815429688 99.65977478027344 C 164.4899291992188 103.6021881103516 163.7225036621094 107.7489471435547 162.3125915527344 111.781494140625 C 165.2580871582031 113.9940795898438 167.7415618896484 116.8000259399414 169.5734710693359 120.0039367675781 C 171.8934936523438 124.0615081787109 173.1197967529297 128.6893615722656 173.1197967529297 133.38720703125 L 173.1197967529297 139.4801940917969 C 173.1197967529297 146.0233001708984 170.7492370605469 152.3355102539062 166.4447479248047 157.2540740966797 C 162.5867919921875 161.6624145507812 157.4197998046875 164.6864929199219 151.7446594238281 165.8918151855469 C 149.8775024414062 170.6017150878906 146.9634857177734 174.8555603027344 143.2265319824219 178.3178558349609 C 142.0748748779297 182.6123657226562 139.8042755126953 186.5156402587891 136.6213989257812 189.6567993164062 C 133.1154937744141 193.1167449951172 128.6969757080078 195.4441070556641 123.8434906005859 196.3872985839844 L 121.9501113891602 196.7553863525391 C 120.3662338256836 197.0631103515625 118.7532806396484 197.2191009521484 117.1557083129883 197.2191009521484 C 113.478759765625 197.2191009521484 109.8572845458984 196.4024200439453 106.54052734375 194.8397064208984 C 104.3820037841797 197.6587982177734 101.8601608276367 200.445068359375 98.51939392089844 202.7326049804688 C 94.11587524414062 205.7478485107422 88.82523345947266 207.4892425537109 82.34513854980469 208.0562744140625 L 80.72430419921875 208.1976470947266 C 79.67201232910156 208.2897491455078 78.60372924804688 208.3365173339844 77.54991912841797 208.3365783691406 Z" stroke="none" fill="#efcf4f"/></g><path d="M21.551,2.018,28.675.176C42.482.176,51.064,11.193,51.064,25v2.175a25,25,0,0,1-25,25H25a25,25,0,0,1-25-25V25C0,11.193,7.744,2.018,21.551,2.018Z" transform="translate(79.325 68.868) rotate(-7)" fill="url(#a)"/><path d="M20.491,7.025C29.482-1.225,35.964,0,35.964,0a33,33,0,0,1,33,33v4.016a33,33,0,0,1-33,33H33a33,33,0,0,1-33-33V33C0,14.775,11.5,15.275,20.491,7.025Z" transform="matrix(0.998, -0.07, 0.07, 0.998, 37.707, 79.679)" fill="url(#b)"/><path d="M25,0,36.026,2.54c13.807,0,17.955,8.653,17.955,22.46v2.175a25,25,0,0,1-25,25H25a25,25,0,0,1-25-25V25A25,25,0,0,1,25,0Z" transform="translate(109.499 77.791) rotate(-7)" fill="url(#c)"/><path d="M32.93,0c17.586-6.018,32.93,14.743,32.93,32.93v2.93A32.93,32.93,0,0,1,0,35.859V32.93C0,14.743,15.343,6.018,32.93,0Z" transform="translate(18.503 110.213) rotate(-1)" fill="url(#d)"/><path d="M22.943.486l11.5,1.05c16.569,0,27.219,11.9,27.219,28.465v4.033a30,30,0,0,1-30,30H30a30,30,0,0,1-30-30V30C0,13.431,6.374.486,22.943.486Z" transform="matrix(0.921, -0.391, 0.391, 0.921, 57.454, 98.961)" fill="url(#a)"/><path d="M42.067,100.517,40.044,98.7a23.267,23.267,0,0,1-4.858-6.45A23,23,0,0,1,14.519,79.683l-.833-1.635A23,23,0,0,1,23.738,47.113S31,42.4,39.448,44.551c5.171,1.315,8.627.96,11.853,3.081l2.143.356a27.106,27.106,0,0,0,9.8-.426c5.576-1,10.5-2.01,18.312,5.026l2.023,1.822a29,29,0,0,1,2.146,40.955l-2.706,3.006a29,29,0,0,1-40.956,2.146Z" transform="translate(26.902 73.346)" fill="url(#f)"/><path d="M76.626,130.314a24,24,0,0,1-23.9-21.8A25,25,0,0,1,13.011,80.146l2.39-5.633a24.965,24.965,0,0,1,17.59-14.636c12.851-14.334,6.978-23.138,24.6-24.371l.3-.021A33,33,0,0,1,93.115,66.1s.245-15.2.025.349a36.417,36.417,0,0,1-2.88,13.307,23.986,23.986,0,0,1,11.454,20.463v6.093a24,24,0,0,1-24,24Z" transform="translate(79.41 62.802)" fill="url(#a)"/><path d="M14.261,89.683a30.932,30.932,0,0,1-11.017-23.7v-1.8a31,31,0,0,1,31-31h4.42a31,31,0,0,1,31,31v1.8A30.926,30.926,0,0,1,59.074,89.316,22,22,0,0,1,41.81,106.054l-1.894.368A21.975,21.975,0,0,1,14.261,89.683Z" transform="translate(92.466 117.025)" fill="url(#h)"/><path d="M34.346,103.312l-1.393-.2A30,30,0,0,1,7.42,69.233l.891-6.342A30.005,30.005,0,0,1,38.788,37.073,80.7,80.7,0,0,1,52.3,38.525c5.142.839,10.077,1.678,13.312,1.409,8.839-.737,42.094-2.409,43.776,11.295V61.254a25,25,0,0,1-21.767,27.86l-3.952.485A24.91,24.91,0,0,1,66.2,85.2a29.973,29.973,0,0,1-31.849,18.107Z" transform="translate(7.124 108.656)" fill="url(#a)"/><path d="M22.993,3.46,34.626,0C52.851,0,68.768,3.293,68.768,21.518l.578,7.38c0,.365,5.264,9.208-3.416,18.876s-13.443,19.8-31.3,19.8H33a33,33,0,0,1-33-33l.668-7.635C.668,8.712,4.768,3.46,22.993,3.46Z" transform="matrix(0.996, -0.087, 0.087, 0.996, 52.704, 170.407)" fill="url(#d)"/></g></g></svg>