<svg xmlns="http://www.w3.org/2000/svg" xmlns:xlink="http://www.w3.org/1999/xlink" width="190" height="248" viewBox="0 0 190 248"><defs><linearGradient id="a" x1="0.5" x2="0.5" y2="1" gradientUnits="objectBoundingBox"><stop offset="0" stop-color="#cc009c"/><stop offset="1" stop-color="#0e000e"/></linearGradient><linearGradient id="b" y1="0.5" x2="1" y2="0.5" gradientUnits="objectBoundingBox"><stop offset="0" stop-color="#e9e9e9"/><stop offset="1" stop-color="#818181"/></linearGradient><linearGradient id="c" y1="0.477" x2="0.982" y2="0.524" gradientUnits="objectBoundingBox"><stop offset="0" stop-color="#fff" stop-opacity="0.478"/><stop offset="0.339" stop-color="#fff" stop-opacity="0.278"/><stop offset="0.385" stop-color="#fff" stop-opacity="0"/><stop offset="1" stop-color="#fff" stop-opacity="0"/></linearGradient><clipPath id="e"><rect width="190" height="248"/></clipPath></defs><g id="d" clip-path="url(#e)"><g transform="translate(895 909)" fill="none"><path d="M-867-682a13,13,0,0,1-13-13l20-156a13,13,0,0,1,13-13h94a13,13,0,0,1,13,13l20,156a13,13,0,0,1-13,13Zm30-182a13,13,0,0,1-13-13v-5a13,13,0,0,1,13-13h74a13,13,0,0,1,13,13v5a13,13,0,0,1-13,13Z" stroke="none"/><path d="M -732.9996337890625 -682.000244140625 C -725.8203125 -682.000244140625 -720 -687.8204956054688 -720 -694.9998168945312 L -739.9998168945312 -851.0004272460938 C -739.9998168945312 -858.1797485351562 -745.8201293945312 -864 -753.0003051757812 -864 L -846.9999389648438 -864 C -854.1801147460938 -864 -860.0004272460938 -858.1797485351562 -860.0004272460938 -851.0004272460938 L -880.000244140625 -694.9998168945312 C -880.000244140625 -687.8204956054688 -874.179931640625 -682.000244140625 -866.9996948242188 -682.000244140625 L -732.9996337890625 -682.000244140625 M -763.000244140625 -864 C -755.8200073242188 -864 -749.9996948242188 -869.8203125 -749.9996948242188 -876.9996337890625 L -749.9996948242188 -882 C -749.9996948242188 -889.1793212890625 -755.8200073242188 -894.9996337890625 -763.000244140625 -894.9996337890625 L -837 -894.9996337890625 C -844.1793212890625 -894.9996337890625 -849.9996337890625 -889.1793212890625 -849.9996337890625 -882 L -849.9996337890625 -876.9996337890625 C -849.9996337890625 -869.8203125 -844.1793212890625 -864 -837 -864 L -763.000244140625 -864 M -732.9996337890625 -678.000244140625 L -866.9996948242188 -678.000244140625 C -869.29296875 -678.000244140625 -871.5198364257812 -678.4502563476562 -873.6182861328125 -679.3377685546875 C -875.6431884765625 -680.1942138671875 -877.4608764648438 -681.4193725585938 -879.0208740234375 -682.9793090820312 C -880.5809326171875 -684.5391845703125 -881.80615234375 -686.3568115234375 -882.66259765625 -688.381591796875 C -883.5502319335938 -690.47998046875 -884.000244140625 -692.7066650390625 -884.000244140625 -694.9998168945312 L -884.000244140625 -695.2551879882812 L -863.998291015625 -851.2723388671875 C -863.9641723632812 -853.4696655273438 -863.5153198242188 -855.603271484375 -862.6627807617188 -857.61865234375 C -861.8063354492188 -859.6434326171875 -860.5811157226562 -861.4610595703125 -859.0211181640625 -863.02099609375 C -857.4611206054688 -864.5808715820312 -855.6434326171875 -865.8060913085938 -853.6185302734375 -866.6624755859375 C -852.7981567382812 -867.0094604492188 -851.958251953125 -867.2894897460938 -851.1023559570312 -867.5020141601562 C -851.7118530273438 -868.4056396484375 -852.233154296875 -869.3675537109375 -852.6620483398438 -870.3814086914062 C -853.549560546875 -872.4797973632812 -853.9996337890625 -874.7064819335938 -853.9996337890625 -876.9996337890625 L -853.9996337890625 -882 C -853.9996337890625 -884.2931518554688 -853.549560546875 -886.5198364257812 -852.6620483398438 -888.6182250976562 C -851.8056030273438 -890.6429443359375 -850.5803833007812 -892.4605712890625 -849.0204467773438 -894.0204467773438 C -847.4605712890625 -895.5803833007812 -845.6429443359375 -896.8056030273438 -843.6182250976562 -897.6620483398438 C -841.5198364257812 -898.5496215820312 -839.2931518554688 -898.9996337890625 -837 -898.9996337890625 L -763.000244140625 -898.9996337890625 C -760.7069091796875 -898.9996337890625 -758.4801025390625 -898.5496215820312 -756.381591796875 -897.6620483398438 C -754.356689453125 -896.8056640625 -752.5390014648438 -895.5804443359375 -750.97900390625 -894.0205688476562 C -749.4190063476562 -892.4606323242188 -748.1937866210938 -890.6430053710938 -747.3372802734375 -888.6182250976562 C -746.44970703125 -886.5198364257812 -745.9996948242188 -884.2931518554688 -745.9996948242188 -882 L -745.9996948242188 -876.9996337890625 C -745.9996948242188 -874.7064819335938 -746.44970703125 -872.4797973632812 -747.3372802734375 -870.38134765625 C -747.7661743164062 -869.3674926757812 -748.28759765625 -868.4054565429688 -748.8970947265625 -867.5018310546875 C -748.04150390625 -867.2893676757812 -747.2018432617188 -867.0093383789062 -746.3817138671875 -866.6624755859375 C -744.3568115234375 -865.8060913085938 -742.5391235351562 -864.5808715820312 -740.9791259765625 -863.02099609375 C -739.4191284179688 -861.4610595703125 -738.1939086914062 -859.6434326171875 -737.3374633789062 -857.61865234375 C -736.4849243164062 -855.603271484375 -736.0360717773438 -853.4696655273438 -736.001953125 -851.2723388671875 L -716 -695.2551879882812 L -716 -694.9998168945312 C -716 -692.7066650390625 -716.4500122070312 -690.47998046875 -717.3375854492188 -688.3816528320312 C -718.1940307617188 -686.3568725585938 -719.419189453125 -684.539306640625 -720.9791259765625 -682.9793701171875 C -722.5390625 -681.41943359375 -724.3566284179688 -680.1942749023438 -726.3814086914062 -679.3378295898438 C -728.4797973632812 -678.4502563476562 -730.7064819335938 -678.000244140625 -732.9996337890625 -678.000244140625 Z" stroke="none" fill="#000"/></g><rect width="190" height="248" fill="rgba(255,255,255,0)"/><path d="M20,0H140l20,149a13,13,0,0,1-13,13H13A13,13,0,0,1,0,149Z" transform="translate(15 65)" fill="url(#a)"/><path d="M33,0h94a13,13,0,0,1,13,13l20,156a13,13,0,0,1-13,13H13A13,13,0,0,1,0,169L20,13A13,13,0,0,1,33,0Z" transform="translate(15 45)" fill="none" stroke="#f8f8f8" stroke-width="4"/><rect width="100" height="31" rx="13" transform="translate(45 14)" stroke="#f8f8f8" stroke-width="4" fill="url(#b)"/><path d="M33,0h94a13,13,0,0,1,13,13l20,156a13,13,0,0,1-13,13H13A13,13,0,0,1,0,169L20,13A13,13,0,0,1,33,0Z" transform="translate(15 45)" fill="url(#c)"/></g></svg>