<svg xmlns="http://www.w3.org/2000/svg" xmlns:xlink="http://www.w3.org/1999/xlink" width="190" height="248" viewBox="0 0 190 248"><defs><linearGradient id="a" x1="0.066" y1="0.277" x2="1.007" y2="0.275" gradientUnits="objectBoundingBox"><stop offset="0" stop-color="#c6c6c6"/><stop offset="0.434" stop-color="#fff"/><stop offset="1" stop-color="#fff"/></linearGradient><radialGradient id="q" cx="0.541" cy="0.414" r="0.707" gradientTransform="translate(0 0)" gradientUnits="objectBoundingBox"><stop offset="0" stop-color="#9b0000"/><stop offset="0.569" stop-color="#9b0000"/><stop offset="1" stop-color="#4e0000"/></radialGradient><clipPath id="r"><path d="M95.738,196a106.077,106.077,0,0,1-12.658-1.069c-7.649-.956-13.67-3.168-18.946-6.959-4.768-3.426-8.535-7.87-12.523-12.575-1.4-1.657-2.856-3.37-4.41-5.111-9.824-11.009-10.939-13.7-15.632-25.037-.328-.792-.673-1.625-1.04-2.507-1.427-3.43-2.656-6.234-3.74-8.708a188.6,188.6,0,0,1-9.669-26.446,224.413,224.413,0,0,1-6.042-26.5A101.818,101.818,0,0,0,8.423,68.81c-2.556-8.031-6.529-32.321-6.886-36.6-.085-1.016-.3-2.483-.559-4.181-.7-4.7-1.578-10.541-.4-11.9a.769.769,0,0,1,.6-.286,1.147,1.147,0,0,1,.36.064c3.226,1.075,4.7,4.674,4.712,4.711A59.111,59.111,0,0,0,17.121,36.192a23.169,23.169,0,0,0,7.726,5.3,30.986,30.986,0,0,1,8.582,5.569,59.273,59.273,0,0,1,8.394,8.852,66.447,66.447,0,0,0,7.915,8.545c7.758,7.061,13.272,11.2,15.946,11.959,1.551.443,12.031,1.149,21.525,1.149,5.046,0,11.757-.2,15.08-1.149,7.677-2.193,12.23-4.967,23.195-14.134,8.684-7.26,10.823-9.974,15.993-16.531,1.41-1.789,3.007-3.815,5.027-6.3,6.858-8.441,7.956-10.592,10.143-14.879.838-1.642,1.787-3.5,3.267-6.142A54.367,54.367,0,0,0,164.6,5.685c.879-3.3,1.514-5.685,2.563-5.685a1.619,1.619,0,0,1,1.091.675c3.143,3.492,2.919,9.148,2.252,25.937l-.078,1.969a222.619,222.619,0,0,1-2.687,28.126c-.633,4.443-1.42,9.973-2.387,17.538a147.206,147.206,0,0,0-1.171,20.2,83.68,83.68,0,0,1-.834,13.893,101.214,101.214,0,0,1-5.606,19.548c-5.09,13.512-8.435,22.177-12.865,29.729A72.414,72.414,0,0,1,137,168.566a127.992,127.992,0,0,1-11.512,11.505c-6.353,5.705-11.553,10.034-16.283,12.617A25.987,25.987,0,0,1,95.738,196ZM16.093,54.483a.672.672,0,0,0-.516.208,1.946,1.946,0,0,0-.268,1.434c.365,4.744,5.106,17.453,9.06,24.282,1.692,2.922,3.878,7.024,6.193,11.368,3.177,5.962,6.777,12.716,10.116,18.35,1.5,2.525,3.008,5.806,4.607,9.28a112.151,112.151,0,0,0,8.049,15.326c3.633,5.417,7.436,8.749,11.626,10.185,6.287,2.156,8.65,3.773,10.374,4.953,1.759,1.2,2.82,1.93,6.659,2.3,2.368.225,4.683.34,6.882.34a47.2,47.2,0,0,0,14.863-2.152c5.127-1.709,13.057-12.009,18.3-18.825,1.39-1.805,2.588-3.361,3.441-4.37,3.758-4.441,9.164-14.256,13.772-25.006,3.86-9.009,11.054-24.383,14.511-31.772.426-.91.788-1.685,1.073-2.3,2.471-5.3,6.524-18.107,6.161-21.383-.228-2.051-2.074-4.654-3.823-4.654-.742,0-1.751.493-2.338,2.842-.694,2.774-4.028,9.406-8.109,16.128-4.5,7.413-8.244,12.223-10.012,12.866-3.87,1.407-11.552,7.168-13.047,9.785a25.768,25.768,0,0,1-19.934,11.959c-3.222.284-6.661.905-10.3,1.563a90.72,90.72,0,0,1-15.627,1.914c-5.37,0-9.573-1.137-12.849-3.477-3.918-2.8-8.555-5.842-13.039-8.786C44.932,82.254,38.332,77.921,36.329,75.7,33.5,72.554,27.8,66.117,24.369,61.924,21.561,58.491,17.708,54.483,16.093,54.483Z" transform="translate(0 0)" fill="#9b0000"/></clipPath><radialGradient id="s" cx="0.5" cy="0.386" r="0.65" gradientTransform="matrix(0.073, 0.997, -1.308, 0.096, 0.969, -0.149)" gradientUnits="objectBoundingBox"><stop offset="0" stop-color="#ff6a6a"/><stop offset="0.452" stop-color="#b90000"/><stop offset="1" stop-color="#fff" stop-opacity="0"/></radialGradient><clipPath id="u"><rect width="190" height="248"/></clipPath></defs><g id="t" clip-path="url(#u)"><rect width="190" height="248" fill="rgba(255,255,255,0)"/><g transform="translate(-12.27 -19.56)"><g transform="translate(-215.772 3.848)"><path d="M 333.3250732421875 237.7117156982422 C 329.7527770996094 237.7118377685547 325.6907348632812 237.2938079833984 320.2945251464844 236.6192779541016 C 312.1278076171875 235.5984191894531 305.6694641113281 233.2154388427734 299.9697570800781 229.1198883056641 C 294.9021301269531 225.4785308837891 291.0194396972656 220.8980865478516 286.9088134765625 216.0486602783203 C 285.5164184570312 214.406005859375 284.0765991210938 212.7074127197266 282.549072265625 210.9955291748047 C 277.3323974609375 205.1493072509766 274.6033630371094 201.6683654785156 272.4797973632812 198.1519927978516 C 270.2693481445312 194.4917297363281 268.7245178222656 190.7607727050781 266.3860473632812 185.1133117675781 C 266.0584106445312 184.322021484375 265.7133178710938 183.4885559082031 265.3465270996094 182.6070861816406 C 263.9307250976562 179.2046051025391 262.7079772949219 176.4140625 261.629150390625 173.9519958496094 C 258.3662109375 166.5054779052734 256.0086669921875 161.1252288818359 251.8327331542969 147.15966796875 C 248.5465698242188 136.1699523925781 246.9749755859375 127.38525390625 245.7122039794922 120.3266372680664 C 244.8346252441406 115.4212799072266 244.1414489746094 111.5467224121094 243.1502075195312 108.4313354492188 C 241.6158905029297 103.6092224121094 239.7644195556641 93.80377960205078 238.7973175048828 88.38805389404297 C 237.50537109375 81.15313720703125 236.3352508544922 73.58869171142578 236.1334533691406 71.16683197021484 C 236.0568695068359 70.24791717529297 235.8335571289062 68.75602722167969 235.5971221923828 67.17655944824219 C 234.3865356445312 59.08902740478516 234.0206146240234 55.04152679443359 235.8883666992188 52.87339019775391 C 236.6263427734375 52.01669311523438 237.6472015380859 51.54491806030273 238.7628936767578 51.54491806030273 C 239.1973724365234 51.54491806030273 239.6377258300781 51.61827850341797 240.07177734375 51.76294326782227 C 244.3295288085938 53.18219375610352 246.2475280761719 57.31777572631836 246.5835876464844 58.11780166625977 C 246.8786163330078 58.74941635131836 250.7300109863281 66.84695434570312 256.7994384765625 72.75450134277344 C 259.865234375 75.73855590820312 261.5477294921875 76.50627899169922 263.6778259277344 77.47822570800781 C 265.9974365234375 78.53663635253906 268.6265258789062 79.73627471923828 272.98046875 83.50971984863281 C 277.3978271484375 87.33808135986328 279.6090087890625 90.08853149414062 281.7474060058594 92.74842071533203 C 283.7384033203125 95.22494506835938 285.6189575195312 97.56414031982422 289.3436584472656 100.9540252685547 C 300.0411987304688 110.6900177001953 303.4654541015625 112.0616455078125 304.079345703125 112.2433547973633 C 305.3549499511719 112.5449142456055 314.9266967773438 113.2808609008789 324.7950134277344 113.2809143066406 C 334.0524597167969 113.2809753417969 337.7001037597656 112.6336975097656 339.0505065917969 112.2478637695312 C 346.237548828125 110.1944198608398 350.5738830566406 107.5348587036133 361.1450500488281 98.69667053222656 C 369.591064453125 91.63525390625 371.6745300292969 88.99238586425781 376.7081298828125 82.60727691650391 C 378.1235656738281 80.81175231933594 379.7279052734375 78.77666473388672 381.7611083984375 76.27425384521484 C 388.4195556640625 68.07925415039062 389.4037475585938 66.15013885498047 391.5601196289062 61.92344665527344 C 392.3681335449219 60.3396110534668 393.373779296875 58.36847305297852 394.882080078125 55.67863845825195 C 397.1494750976562 51.63513946533203 398.3318786621094 47.19394302368164 399.2819213867188 43.62536239624023 C 399.7492980957031 41.8698616027832 400.1529235839844 40.35375213623047 400.6160583496094 39.18777847290039 C 400.9441833496094 38.36175155639648 401.2876586914062 37.74211120605469 401.6969909667969 37.23772430419922 C 402.774169921875 35.91036224365234 404.0682678222656 35.71216583251953 404.7437438964844 35.71216583251953 C 405.9507141113281 35.71216583251953 407.0679016113281 36.27352905273438 408.0643005371094 37.38063812255859 C 410.1222839355469 39.66730499267578 411.083984375 42.49919509887695 411.3836669921875 47.15522384643555 C 411.6474609375 51.25344467163086 411.4233703613281 56.9017219543457 411.0841674804688 65.451416015625 C 411.0588989257812 66.08858489990234 411.0329895019531 66.74183654785156 411.0065612792969 67.41169738769531 C 410.4965209960938 80.35453033447266 409.7597045898438 85.52974700927734 408.2917175292969 95.84019470214844 C 407.66015625 100.2762222290039 406.8741149902344 105.7969970703125 405.9108581542969 113.3380584716797 C 404.7965393066406 122.0616149902344 404.7789916992188 127.9599151611328 404.7634887695312 133.1638641357422 C 404.7351379394531 142.6727294921875 404.7127685546875 150.1833953857422 398.1317443847656 167.653076171875 C 392.9858093261719 181.3132019042969 389.6007385253906 190.0794677734375 385.0461120605469 197.8429718017578 C 380.4346313476562 205.7034759521484 374.6482543945312 212.4170074462891 365.0738220214844 221.0154418945312 C 358.5648498535156 226.8608856201172 353.2086486816406 231.3115844726562 348.2250366210938 234.0329132080078 C 343.5031433105469 236.611328125 339.0470886230469 237.7115325927734 333.3250732421875 237.7117156982422 Z" stroke="none"/><path d="M 404.7437744140625 38.71217346191406 C 402.5709838867188 38.71282958984375 402.2415466308594 48.68795776367188 397.498779296875 57.14590454101562 C 392.0625610351562 66.84056091308594 393.5122680664062 66.56871032714844 384.0894470214844 78.16606140136719 C 374.6666259765625 89.76333618164062 374.1230163574219 91.75662231445312 363.0693054199219 100.9982452392578 C 352.015625 110.2398376464844 347.4854125976562 112.9579315185547 339.8746643066406 115.1324310302734 C 332.2639465332031 117.3069152832031 305.8075866699219 115.8572845458984 303.2706909179688 115.1324310302734 C 300.7337646484375 114.4076232910156 295.3881225585938 110.5116424560547 287.3243713378906 103.1727447509766 C 279.2606811523438 95.83380126953125 279.1700439453125 92.8438720703125 271.0156860351562 85.77677917480469 C 262.861328125 78.70965576171875 261.5022888183594 81.51840209960938 254.7069702148438 74.90431213378906 C 247.91162109375 68.29017639160156 243.83447265625 59.32040405273438 243.83447265625 59.32040405273438 C 243.83447265625 59.32040405273438 242.3848266601562 55.69624328613281 239.1230773925781 54.60899353027344 C 235.8616638183594 53.52168273925781 238.7606506347656 66.56871032714844 239.1230773925781 70.91770935058594 C 239.4854736328125 75.26670837402344 243.4720764160156 99.54855346679688 246.0089721679688 107.5217132568359 C 248.5458984375 115.494873046875 249.1801147460938 127.8169860839844 254.7069702148438 146.3002014160156 C 260.2337951660156 164.7834320068359 262.4988708496094 167.95458984375 268.1163024902344 181.4545593261719 C 273.7337951660156 194.9545288085938 274.2774047851562 197.2196502685547 284.7874755859375 208.9981536865234 C 295.2975463867188 220.7766723632812 301.09619140625 231.1961212158203 320.6666564941406 233.6424255371094 C 340.2371520996094 236.0887603759766 344.4049377441406 235.5451049804688 363.0693054199219 218.7834014892578 C 381.7336730957031 202.0216217041016 385.35791015625 193.0518646240234 395.3242797851562 166.5954895019531 C 405.2907104492188 140.1391448974609 399.763916015625 137.7834320068359 402.9349975585938 112.9579315185547 C 406.1061401367188 88.13246154785156 407.2840576171875 85.6861572265625 408.0088806152344 67.29354858398438 C 408.7337341308594 48.90092468261719 409.0961303710938 43.01168823242188 405.8344116210938 39.38752746582031 C 405.4183349609375 38.92521667480469 405.0614624023438 38.71206665039062 404.7437744140625 38.71217346191406 M 404.7440185546875 32.71217346191406 C 406.183837890625 32.71217346191406 408.314453125 33.17410278320312 410.2941284179688 35.37368774414062 C 415.0693359375 40.67948913574219 414.8204956054688 46.95167541503906 414.081787109375 65.57052612304688 L 414.0042114257812 67.52983093261719 C 413.4881286621094 80.62574768066406 412.7441101074219 85.8516845703125 411.2617797851562 96.26312255859375 C 410.625244140625 100.733642578125 409.8479614257812 106.1926116943359 408.8866577148438 113.7181854248047 C 407.7959594726562 122.2568664550781 407.7786865234375 128.05615234375 407.763427734375 133.1727447509766 C 407.7341918945312 142.9842681884766 407.7111206054688 150.7340240478516 400.9390869140625 168.7106475830078 C 391.2240600585938 194.4998474121094 387.202880859375 205.1743469238281 367.0782775878906 223.2474670410156 C 352.7269592285156 236.1358032226562 345.4701538085938 240.7117156982422 333.3249816894531 240.7117156982422 C 329.5963134765625 240.7117156982422 325.4323425292969 240.2848358154297 319.9224548339844 239.5960845947266 C 300.9230651855469 237.2211761474609 293.0042114257812 227.8790893554688 284.620361328125 217.9884643554688 C 283.2453002929688 216.3663024902344 281.8284606933594 214.6939086914062 280.3106384277344 212.9928588867188 C 269.8106689453125 201.2256774902344 268.3741455078125 197.75634765625 263.6142578125 186.2609558105469 L 262.5767211914062 183.7596130371094 C 261.1670532226562 180.3717956542969 259.9708251953125 177.6423645019531 258.8813781738281 175.1560974121094 C 255.5755615234375 167.6117858886719 253.1871032714844 162.1608581542969 248.9584655761719 148.0191192626953 C 245.6234741210938 136.8660583496094 244.0352172851562 127.9883117675781 242.7590637207031 120.8549346923828 C 241.9008483886719 116.0578002929688 241.2230224609375 112.2687377929688 240.2914123535156 109.3409271240234 C 237.5702819824219 100.7887725830078 233.5234069824219 75.97161865234375 233.143798828125 71.41595458984375 C 233.0669555664062 70.49365234375 232.8577270507812 69.14083862304688 232.6301574707031 67.62052917480469 C 231.3627319335938 59.15330505371094 230.7835693359375 54.20265197753906 233.6154174804688 50.91537475585938 L 235.4106750488281 48.83140563964844 L 238.7628784179688 48.54490661621094 L 239.7367553710938 48.54490661621094 L 241.0208435058594 48.91702270507812 C 246.7502746582031 50.82682800292969 249.1459045410156 56.44429016113281 249.4045104980469 57.08995056152344 C 249.3704833984375 57.00067138671875 253.0537414550781 64.92225646972656 258.8919067382812 70.60470581054688 C 261.5844421386719 73.2254638671875 262.9126892089844 73.83152770996094 264.9231872558594 74.74893188476562 C 267.3030700683594 75.8348388671875 270.264892578125 77.18630981445312 274.9452819824219 81.24264526367188 C 279.5667419433594 85.24789428710938 281.8639526367188 88.10536193847656 284.0855407714844 90.86874389648438 C 286.0013122558594 93.25173950195312 287.8108520507812 95.5025634765625 291.3629150390625 98.73536682128906 C 301.7662353515625 108.2035217285156 304.8329467773438 109.3319244384766 304.9584045410156 109.3753356933594 C 306.2014770507812 109.6062164306641 315.3416748046875 110.2808990478516 324.7949523925781 110.2808990478516 C 334.2777099609375 110.2808990478516 337.4729309082031 109.5785522460938 338.2263488769531 109.36328125 C 344.5786743164062 107.54833984375 348.3031616210938 105.5229644775391 359.2207641601562 96.39511108398438 C 367.4279479980469 89.53337097167969 369.3133544921875 87.14170837402344 374.3522644042969 80.74986267089844 C 375.7621154785156 78.96148681640625 377.3913879394531 76.89495849609375 379.4327697753906 74.38249206542969 C 385.8912963867188 66.43348693847656 386.830322265625 64.5928955078125 388.8877868652344 60.56008911132812 C 389.7328796386719 58.90354919433594 390.7357788085938 56.939208984375 392.265380859375 54.21133422851562 C 394.3477783203125 50.4976806640625 395.4762268066406 46.25927734375 396.3829345703125 42.85362243652344 C 397.6482543945312 38.10111999511719 399.0828247070312 32.71455383300781 404.7413940429688 32.71218872070312 L 404.7413940429688 32.71217346191406 C 404.7421875 32.71217346191406 404.7432250976562 32.71217346191406 404.7440185546875 32.71217346191406 Z" stroke="none" fill="#000"/></g><path d="M243.834,59.32A58.64,58.64,0,0,0,254.707,74.9c6.8,6.614,8.154,3.805,16.309,10.872s8.245,10.057,16.309,17.4,13.409,11.235,15.946,11.96,28.993,2.174,36.6,0S352.016,110.24,363.069,101s11.6-11.235,21.02-22.832,7.973-11.325,13.409-21.02,5.074-21.383,8.336-17.758,2.9,9.513,2.174,27.906-1.9,20.839-5.074,45.664,2.356,27.181-7.611,53.638-13.591,35.426-32.255,52.188-22.832,17.305-42.4,14.859S295.3,220.777,284.787,209s-11.054-14.044-16.671-27.544-7.883-16.671-13.409-35.154-6.161-30.805-8.7-38.778-6.523-32.255-6.886-36.6-3.262-17.4,0-16.309S243.834,59.32,243.834,59.32Z" transform="translate(-215.772 3.848)"/><g transform="translate(46.99 135.068)"><rect width="21.601" height="30.053" rx="8" transform="translate(0 12.209)" fill="url(#a)"/><rect width="21.601" height="26.297" rx="8" transform="translate(112.7 0)" fill="url(#a)"/><rect width="21.601" height="32.871" rx="8" transform="translate(15.966 27.236)" fill="url(#a)"/><rect width="22.54" height="30.992" rx="8" transform="translate(97.673 15.027)" fill="url(#a)"/><rect width="22.54" height="30.053" rx="8" transform="translate(77.012 26.297)" fill="url(#a)"/><rect width="25.007" height="30.443" rx="8" transform="matrix(1, 0.017, -0.017, 1, 58.909, 37.05)" fill="url(#a)"/><rect width="26.094" height="31.53" rx="8" transform="matrix(0.999, 0.035, -0.035, 0.999, 33.456, 35.655)" fill="url(#a)"/></g><g transform="translate(35.72 80.596)"><rect width="21.601" height="30.992" rx="8" transform="translate(0 12.209)" fill="url(#a)"/><rect width="21.601" height="25.357" rx="8" transform="translate(128.666 0)" fill="url(#a)"/><rect width="21.601" height="30.053" rx="8" transform="translate(14.087 23.479)" fill="url(#a)"/><rect width="21.601" height="26.297" rx="8" transform="translate(118.335 14.087)" fill="url(#a)"/><rect width="21.601" height="30.053" rx="8" transform="translate(29.114 36.627)" fill="url(#a)"/><rect width="21.601" height="30.992" rx="8" transform="translate(104.247 27.236)" fill="url(#a)"/><rect width="21.601" height="30.992" rx="8" transform="translate(86.403 40.384)" fill="url(#a)"/><rect width="26.094" height="35.879" rx="8" transform="matrix(1, 0.017, -0.017, 1, 68.402, 44.683)" fill="url(#a)"/><rect width="26.094" height="33.705" rx="8" transform="matrix(0.998, 0.07, -0.07, 0.998, 44.364, 44.041)" fill="url(#a)"/></g><g transform="translate(21.814 42.56)" fill="url(#q)"><path d="M 95.73841094970703 198 C 92.21833801269531 198.0001678466797 88.19049072265625 197.5851440429688 82.83257293701172 196.9154052734375 C 74.83831024169922 195.9161376953125 68.52597045898438 193.5903015136719 62.96725845336914 189.5958404541016 C 57.99954605102539 186.0261077880859 54.15567779541016 181.4911041259766 50.08612442016602 176.6898803710938 C 48.69062423706055 175.0433502197266 47.24762344360352 173.3408508300781 45.70978164672852 171.6172637939453 C 40.53696823120117 165.8203430175781 37.83757400512695 162.3798675537109 35.74993896484375 158.9232635498047 C 33.57844161987305 155.3277893066406 32.12686157226562 151.8222198486328 29.72201919555664 146.0143432617188 L 29.71970367431641 146.0088195800781 C 29.39299392700195 145.2197418212891 29.04904556274414 144.3890380859375 28.68354606628418 143.5106353759766 C 27.26425743103027 140.0994567871094 26.03991508483887 137.3050842285156 24.95967674255371 134.8396911621094 C 21.7100715637207 127.4230804443359 19.36317825317383 122.0668182373047 15.2051248550415 108.1607666015625 C 11.93507194519043 97.22447967529297 10.36883544921875 88.47063446044922 9.11036205291748 81.43679809570312 C 8.226203918457031 76.4952392578125 7.528046131134033 72.59337615966797 6.517335414886475 69.41629791259766 C 4.992019653320312 64.62321472167969 3.149309158325195 54.85166168212891 2.186677694320679 49.45355606079102 C 0.9032039642333984 42.25647735595703 -0.2574802339076996 34.75303268432617 -0.4557434022426605 32.37126922607422 C -0.535006582736969 31.42168998718262 -0.7498486638069153 29.98642539978027 -0.9985855221748352 28.32450485229492 C -1.354217052459717 25.94892692565918 -1.756585478782654 23.26118850708008 -1.921848654747009 20.96595191955566 C -2.158375024795532 17.68103218078613 -1.873795986175537 15.89876842498779 -0.9395855069160461 14.81434726715088 C -0.3946381509304047 14.181715965271 0.3571513295173645 13.83326816558838 1.17723023891449 13.83326816558838 C 1.50428295135498 13.83326816558838 1.838388204574585 13.88939952850342 2.17028284072876 14.00013637542725 C 6.049912452697754 15.29327964782715 7.840960502624512 19.23771858215332 8.080277442932129 19.80311965942383 C 8.312863349914551 20.30206489562988 12.27792835235596 28.68744087219238 18.51620483398438 34.75863647460938 C 21.70662498474121 37.86450576782227 23.54659843444824 38.70400619506836 25.67709922790527 39.67605590820312 C 27.82352066040039 40.65539932250977 30.49465179443359 41.87418746948242 34.7392578125 45.55287170410156 C 39.08886337280273 49.32263565063477 41.17415237426758 51.91647720336914 43.38186264038086 54.66263580322266 C 45.3092041015625 57.05997848510742 47.30217742919922 59.5389518737793 51.08457183837891 62.98129272460938 C 61.47533416748047 72.43771362304688 65.14015197753906 74.18463897705078 66.23348999023438 74.49676513671875 C 67.39483642578125 74.81642913818359 77.34130859375 75.56881713867188 87.20915222167969 75.56881713867188 C 94.16059875488281 75.56881713867188 99.32088470458984 75.18813323974609 101.7394180297852 74.49692535400391 C 109.0892562866211 72.39727020263672 113.4975967407227 69.69963836669922 124.2011489868164 60.75174331665039 C 132.7256317138672 53.62484741210938 134.8276062011719 50.95850372314453 139.9059143066406 44.51666259765625 C 141.3204956054688 42.72224044799805 142.9228820800781 40.68960952758789 144.9513549804688 38.19308471679688 C 151.6762847900391 29.91647911071777 152.7418670654297 27.82787322998047 154.8647308349609 23.66679382324219 C 155.7106323242188 22.00871467590332 156.6693572998047 20.12937355041504 158.1687774658203 17.45545196533203 C 160.4975128173828 13.30226802825928 161.7487335205078 8.602452278137207 162.6623382568359 5.170794486999512 C 163.1173095703125 3.461741924285889 163.5102081298828 1.985820770263672 163.9530792236328 0.8681365251541138 C 164.2341766357422 0.1587418168783188 165.0895385742188 -1.999994993209839 167.1577606201172 -1.999994993209839 C 168.0691528320312 -1.999994993209839 168.9362640380859 -1.549995064735413 169.7349700927734 -0.6624950170516968 C 171.6270141601562 1.439557552337646 172.5147247314453 4.102663040161133 172.798828125 8.52934741973877 C 173.0589599609375 12.58216285705566 172.8361968994141 18.19540023803711 172.4989929199219 26.69205665588379 L 172.4210205078125 28.66103172302246 C 171.9134368896484 41.55361175537109 171.1788940429688 46.71229553222656 169.7154998779297 56.98979568481445 L 169.7144470214844 56.99710845947266 C 169.0828857421875 61.43266296386719 168.2968597412109 66.95287322998047 167.3328399658203 74.49910736083984 C 166.2110137939453 83.28334808349609 166.1933898925781 89.21421813964844 166.1778411865234 94.44692230224609 C 166.1634979248047 99.26969146728516 166.151123046875 103.434211730957 165.3190460205078 108.6499557495117 C 164.4159088134766 114.310791015625 162.6016998291016 120.646369934082 159.6095733642578 128.5884857177734 C 154.4822235107422 142.1995849609375 151.1106262207031 150.9322662353516 146.5978393554688 158.6248779296875 C 144.2451782226562 162.6351928710938 141.6750793457031 166.2095336914062 138.5095520019531 169.8735046386719 C 135.3847503662109 173.4902954101562 131.6703948974609 177.2034454345703 126.8202590942383 181.5590362548828 C 120.3630752563477 187.3577880859375 115.0587005615234 191.7679748535156 110.1594924926758 194.4432220458984 C 107.8318634033203 195.7142181396484 105.5888900756836 196.6054992675781 103.3024139404297 197.1680297851562 C 100.9958877563477 197.7355041503906 98.59236145019531 197.9998779296875 95.73841094970703 198 Z M 17.54168128967285 57.58702087402344 C 18.60132026672363 62.92273330688477 22.71937561035156 73.56587982177734 26.10012435913086 79.40531921386719 C 27.80912590026855 82.35729217529297 30.00328254699707 86.47415924072266 32.3262825012207 90.83274078369141 C 35.49404525756836 96.77632141113281 39.08320236206055 103.5104751586914 42.39886093139648 109.1055068969727 C 43.94831085205078 111.7201919555664 45.48030853271484 115.0467681884766 47.1022834777832 118.5686645507812 C 49.36167907714844 123.4745330810547 51.92251968383789 129.0349578857422 54.99575805664062 133.6171569824219 C 58.37670516967773 138.6581878662109 61.84830856323242 141.7353973388672 65.60891723632812 143.0246124267578 C 72.15328216552734 145.2686614990234 74.64491271972656 146.973876953125 76.4642333984375 148.2189483642578 C 78.10844421386719 149.3442230224609 78.85881042480469 149.8577728271484 82.18315124511719 150.1744232177734 C 84.48775482177734 150.3937683105469 86.73941802978516 150.5049743652344 88.87541198730469 150.5049743652344 C 94.23802185058594 150.5049743652344 99.02583312988281 149.8155364990234 103.1058654785156 148.4558258056641 C 104.4118881225586 148.0205383300781 106.9038848876953 146.4635009765625 111.3588104248047 141.5176849365234 C 114.5863876342773 137.9344482421875 117.8417282104492 133.7061157226562 120.4574432373047 130.3085632324219 C 121.8615188598633 128.4847869873047 123.0736236572266 126.910400390625 123.9572830200195 125.8662643432617 C 127.5979156494141 121.5643463134766 132.8813018798828 111.9467163085938 137.4173889160156 101.3641891479492 C 141.2905426025391 92.32545471191406 148.4932861328125 76.93108367919922 151.9547271728516 69.53292846679688 C 152.3799896240234 68.62400817871094 152.7424621582031 67.84926605224609 153.0272827148438 67.23902893066406 C 154.2111206054688 64.70142364501953 155.7967834472656 60.31452941894531 157.0667572021484 56.06319046020508 C 158.6598815917969 50.73000335693359 159.1106567382812 47.80619049072266 159.0126037597656 46.92287445068359 C 158.9463653564453 46.32784652709961 158.6238861083984 45.57313537597656 158.1710968017578 44.95387268066406 C 157.7938995361328 44.4379997253418 157.4636077880859 44.19641876220703 157.2835235595703 44.10014343261719 C 157.1692657470703 44.2592887878418 156.968017578125 44.6223030090332 156.7799377441406 45.37487411499023 C 156.0312347412109 48.36887359619141 152.6795654296875 55.07216262817383 148.439697265625 62.05545043945312 C 146.1919860839844 65.75747680664062 144.061279296875 68.9256591796875 142.2778625488281 71.217529296875 C 139.6112365722656 74.64440155029297 138.2714080810547 75.44687652587891 137.402099609375 75.76310729980469 C 135.7833099365234 76.35155487060547 133.1403350830078 77.94526672363281 130.5041198730469 79.92247772216797 C 127.6165161132812 82.08824157714844 125.864128112793 83.86279296875 125.4084167480469 84.66071319580078 C 124.9509658813477 85.46079254150391 123.1945495605469 88.29090118408203 119.7799682617188 91.15071868896484 C 117.7915725708008 92.81608581542969 115.5889663696289 94.19266510009766 113.2333374023438 95.24224090576172 C 110.3436813354492 96.52976989746094 107.2082061767578 97.3299560546875 103.9139633178711 97.62058258056641 C 100.7828903198242 97.8968505859375 97.38746643066406 98.51016235351562 93.79264831542969 99.15950775146484 C 88.49552154541016 100.1163482666016 83.01933288574219 101.1055068969727 77.80899047851562 101.1055603027344 C 72.00728607177734 101.1056137084961 67.42417907714844 99.84632110595703 63.79775619506836 97.25571441650391 C 59.91346740722656 94.48152923583984 55.29428482055664 91.44902801513672 50.82720565795898 88.51637268066406 C 43.41583633422852 83.65079498291016 37.01838684082031 79.45082092285156 34.84244155883789 77.0340576171875 C 32.00291442871094 73.87845611572266 26.2762565612793 67.41229248046875 22.82146644592285 63.19074249267578 C 21.42783546447754 61.48731994628906 19.97078323364258 59.8801383972168 18.71846771240234 58.66505813598633 C 18.26373100280762 58.22382354736328 17.87355613708496 57.87016677856445 17.54168128967285 57.58702087402344 Z" stroke="none"/><path d="M 95.73829650878906 196 C 100.9927368164062 195.999755859375 104.8931274414062 195.0401611328125 109.2009582519531 192.6878967285156 C 113.9305191040039 190.1052856445312 119.1307983398438 185.7763366699219 125.4839324951172 180.0709686279297 C 130.2697601318359 175.7731323242188 133.9278564453125 172.1173400878906 136.9961242675781 168.5659790039062 C 140.0802612304688 164.9962005615234 142.5831298828125 161.5158081054688 144.8727722167969 157.6128692626953 C 149.3032989501953 150.0605316162109 152.6478729248047 141.3956146240234 157.7379913330078 127.8833923339844 C 160.6812896728516 120.0708312988281 162.4626770019531 113.8591690063477 163.3440093994141 108.3348922729492 C 164.1515655517578 103.2729187011719 164.1637420654297 99.18052673339844 164.1778259277344 94.44164276123047 C 164.1935729980469 89.15058135986328 164.2113800048828 83.15358734130859 165.3489685058594 74.24566650390625 C 166.3153533935547 66.6810302734375 167.1027679443359 61.15119552612305 167.7354583740234 56.70783233642578 C 169.1893005371094 46.49750137329102 169.9190216064453 41.37252807617188 170.422607421875 28.58191680908203 L 170.5005798339844 26.61286163330078 C 171.1668853759766 9.823250770568848 171.391357421875 4.167250633239746 168.2483215332031 0.6753894686698914 C 167.8393249511719 0.2209172546863556 167.4826049804688 5.900064934394322e-07 167.1577453613281 5.900064934394322e-07 C 166.1085205078125 5.900064934394322e-07 165.4736785888672 2.384639501571655 164.5950164794922 5.685278415679932 C 163.6540374755859 9.219778060913086 162.3653564453125 14.06047248840332 159.9132385253906 18.43366813659668 C 158.4332122802734 21.07302856445312 157.4838714599609 22.93383407592773 156.6462707519531 24.5756664276123 C 154.4594268798828 28.86211204528809 153.3617706298828 31.01366806030273 146.5035705566406 39.45427703857422 C 144.4840240478516 41.93983459472656 142.8868255615234 43.96586227416992 141.4765930175781 45.75477981567383 C 136.307373046875 52.31194686889648 134.1677703857422 55.02605438232422 125.4839019775391 62.28616714477539 C 114.5187377929688 71.45275115966797 109.9664611816406 74.22666931152344 102.2890167236328 76.41991424560547 C 98.96662902832031 77.36947631835938 92.25468444824219 77.56880950927734 87.20915222167969 77.56880950927734 C 77.71543121337891 77.56880950927734 67.23521423339844 76.86311340332031 65.68443298339844 76.41991424560547 C 63.01071166992188 75.65660858154297 57.49668502807617 71.52105712890625 49.73840713500977 64.46044158935547 C 45.84098815917969 60.91341781616211 43.79851531982422 58.37285995483398 41.82312774658203 55.91575241088867 C 39.67340469360352 53.24177932739258 37.6429328918457 50.71605682373047 33.42937850952148 47.06425094604492 C 29.40237808227539 43.57413864135742 26.98223876953125 42.46991729736328 24.8469066619873 41.49561309814453 C 22.64251708984375 40.48983383178711 20.56037712097168 39.53983306884766 17.12132263183594 36.19189071655273 C 10.40501689910889 29.65547370910645 6.289711475372314 20.69761085510254 6.248961448669434 20.60791778564453 C 6.234488964080811 20.57169532775879 4.762933731079102 16.97247314453125 1.537377953529358 15.89733409881592 C 1.140746355056763 15.76503562927246 0.8169276118278503 15.83958911895752 0.5756834745407104 16.11972236633301 C -0.5992053747177124 17.48352813720703 0.2757112681865692 23.32802772521973 0.9787112474441528 28.02416801452637 C 1.232961297035217 29.72255706787109 1.452544569969177 31.18936157226562 1.537377953529358 32.20536041259766 C 1.893933534622192 36.48911285400391 5.867461204528809 60.77891540527344 8.423238754272461 68.80997467041016 C 9.473794937133789 72.11241912841797 10.18218326568604 76.07172393798828 11.07910060882568 81.08455657958984 C 12.32868385314941 88.06861114501953 13.88382244110107 96.760498046875 17.12129402160645 107.5878067016602 C 21.24412727355957 121.3760299682617 23.57040596008301 126.6853866577148 26.7901554107666 134.0338287353516 C 27.87423896789551 136.5080871582031 29.1030158996582 139.3124237060547 30.53004455566406 142.7422790527344 C 30.89687728881836 143.6238403320312 31.24204444885254 144.4574737548828 31.56985092163086 145.2491912841797 C 36.26301574707031 156.5834197998047 37.37812805175781 159.2764434814453 47.20209884643555 170.2857513427734 C 48.75576782226562 172.0270233154297 50.20759963989258 173.7399444580078 51.61182403564453 175.3966979980469 C 55.59962844848633 180.1015014648438 59.36629486083984 184.5453948974609 64.13437652587891 187.9716949462891 C 69.41082000732422 191.7633361816406 75.43112945556641 193.9746704101562 83.08059692382812 194.9308319091797 C 88.36204528808594 195.5910034179688 92.32170867919922 196.0001678466797 95.73829650878906 196 M 16.09334945678711 54.48291778564453 C 17.70809936523438 54.48261260986328 21.56073951721191 58.49124908447266 24.36923980712891 61.9240837097168 C 27.80087852478027 66.11736297607422 33.50143432617188 72.55377960205078 36.32876586914062 75.69583129882812 C 38.33185195922852 77.92063903808594 44.93243408203125 82.25394439697266 51.92110061645508 86.84202575683594 C 56.4056282043457 89.78614044189453 61.04279327392578 92.83041381835938 64.96031951904297 95.62830352783203 C 68.23576354980469 97.96819305419922 72.43857574462891 99.10561370849609 77.8089599609375 99.10555267333984 C 82.84029388427734 99.10549926757812 88.22654724121094 98.13255310058594 93.43634796142578 97.19149780273438 C 97.07734680175781 96.53380584716797 100.5164642333984 95.91258239746094 103.7382125854492 95.62830352783203 C 117.1425170898438 94.44574737548828 123.0430145263672 84.76838684082031 123.6717147827148 83.66883087158203 C 125.1662979125977 81.05194854736328 132.8479919433594 75.29055786132812 136.7183837890625 73.88361358642578 C 138.4864959716797 73.24041748046875 142.2292175292969 68.43064117431641 146.7301330566406 61.01750183105469 C 150.8111572265625 54.29583358764648 154.1459350585938 47.66394424438477 154.8396301269531 44.88994598388672 C 155.4265747070312 42.54138946533203 156.4348297119141 42.04841613769531 157.1772918701172 42.04841613769531 C 158.92626953125 42.04841613769531 160.7720489501953 44.65083312988281 161.0004119873047 46.70219421386719 C 161.3640747070312 49.9781379699707 157.3107604980469 62.78791809082031 154.839599609375 68.08489227294922 C 154.5545654296875 68.69558715820312 154.1918487548828 69.47088623046875 153.7662658691406 70.38050079345703 C 150.309326171875 77.76902770996094 143.115966796875 93.14333343505859 139.2556304931641 102.1521377563477 C 134.6478576660156 112.9019165039062 129.2421569824219 122.7174453735352 125.4839324951172 127.1582794189453 C 124.6305160522461 128.1667022705078 123.4324340820312 129.7228546142578 122.0427932739258 131.5278930664062 C 116.7951812744141 138.3439788818359 108.8650436401367 148.64453125 103.7382125854492 150.3532257080078 C 99.45384979248047 151.7810211181641 94.45329284667969 152.5050048828125 88.87543487548828 152.5050048828125 C 86.67674255371094 152.5050048828125 84.36132049560547 152.3907775878906 81.99349212646484 152.1654510498047 C 78.15518188476562 151.7997741699219 77.09359741210938 151.0732574462891 75.33468627929688 149.8694458007812 C 73.60987854003906 148.6890563964844 71.24771118164062 147.0724487304688 64.96031951904297 144.9165344238281 C 60.77093505859375 143.4803009033203 56.96818161010742 140.1486663818359 53.33473968505859 134.731201171875 C 50.17268371582031 130.0165557861328 47.57637786865234 124.3791122436523 45.28568267822266 119.4053039550781 C 43.68587875366211 115.9315567016602 42.17476654052734 112.6504745483398 40.67826843261719 110.1251373291016 C 37.3394889831543 104.4909973144531 33.73960113525391 97.73672485351562 30.56218338012695 91.77510833740234 C 28.24735069274902 87.43177795410156 26.06087875366211 83.32933044433594 24.36929512023926 80.40738677978516 C 20.41543388366699 73.57808685302734 15.67368316650391 60.86969375610352 15.30910015106201 56.12536239624023 C 15.25523948669434 55.42433547973633 15.34554481506348 54.94180679321289 15.57748889923096 54.69124984741211 C 15.70548915863037 54.55308532714844 15.87904453277588 54.48297119140625 16.09334945678711 54.48291778564453 M 95.73848724365234 200 L 95.73829650878906 196 L 95.73848724365234 200 C 92.11476898193359 200.0001678466797 88.01873779296875 199.5792236328125 82.58446502685547 198.8999481201172 C 74.24537658691406 197.8575897216797 67.64101409912109 195.4172210693359 61.80015563964844 191.2200012207031 C 56.63279342651367 187.5067443847656 52.71173858642578 182.8807220458984 48.56046295166016 177.9830322265625 C 47.17251586914062 176.3455047607422 45.73737716674805 174.6522521972656 44.21746063232422 172.9488067626953 C 33.94193267822266 161.4334716796875 32.65657424926758 158.3292541503906 27.87415504455566 146.7794799804688 C 27.54715538024902 145.9897155761719 27.20290565490723 145.1582794189453 26.83701705932617 144.2790222167969 C 25.42557144165039 140.8866119384766 24.2056827545166 138.1023864746094 23.1293773651123 135.6459197998047 L 23.12640571594238 135.6390838623047 C 19.84962844848633 128.1605072021484 17.48209953308105 122.7570877075195 13.28896141052246 108.7337265014648 C 9.986405372619629 97.68875122070312 8.409071922302246 88.87288665771484 7.141655921936035 81.78919219970703 C 6.270461082458496 76.92005920410156 5.582461357116699 73.07489013671875 4.611461162567139 70.02255249023438 C 1.923794627189636 61.57705688476562 -2.073788642883301 37.04316711425781 -2.448844194412231 32.53713989257812 C -2.522705316543579 31.65238952636719 -2.733316421508789 30.24552917480469 -2.977177619934082 28.6164722442627 C -3.337538719177246 26.2093334197998 -3.745927572250366 23.48125076293945 -3.916677713394165 21.10952758789062 C -4.195316314697266 17.23972320556641 -3.771788835525513 15.03769493103027 -2.454844236373901 13.50900077819824 C -1.537899851799011 12.44422245025635 -0.2138998359441757 11.83325099945068 1.177211284637451 11.83325099945068 C 1.719711303710938 11.83325099945068 2.266711235046387 11.92394542694092 2.803044557571411 12.10286140441895 C 7.412491798400879 13.63925647735596 9.505008697509766 18.04307746887207 9.909123420715332 18.99248504638672 C 10.23607635498047 19.68669891357422 14.04398155212402 27.6153621673584 19.91110038757324 33.32533264160156 C 22.8527946472168 36.18908309936523 24.46551704406738 36.92491912841797 26.50729370117188 37.85649871826172 C 28.77051734924316 38.88916778564453 31.58693313598633 40.17422103881836 36.04912948608398 44.04150009155273 C 40.53457260131836 47.92897415161133 42.77429580688477 50.71488952636719 44.94026565551758 53.40908432006836 C 46.90654373168945 55.85486221313477 48.76346206665039 58.16461181640625 52.43074035644531 61.50216674804688 C 56.19857406616211 64.93119812011719 59.42426681518555 67.65628051757812 62.01812744140625 69.60166931152344 C 65.1585693359375 71.95698547363281 66.43914031982422 72.46441650390625 66.74313354492188 72.56162261962891 C 68.21003723144531 72.86688232421875 77.5260009765625 73.56880950927734 87.20915222167969 73.56880950927734 C 93.88182067871094 73.56880950927734 98.97756958007812 73.20619201660156 101.1898193359375 72.57391357421875 C 108.2936859130859 70.54452514648438 112.3549880981445 68.0479736328125 122.9183807373047 59.21727752685547 C 131.2835388183594 52.22360992431641 133.2036590576172 49.78794479370117 138.3352661132812 43.27847290039062 C 139.7526550292969 41.48047256469727 141.359130859375 39.44261169433594 143.3991546630859 36.93188858032227 C 149.9907684326172 28.81933403015137 150.9598846435547 26.9198055267334 153.0831909179688 22.75788879394531 C 153.9374542236328 21.0833625793457 154.9057464599609 19.18538856506348 156.42431640625 16.47725105285645 C 158.6296844482422 12.54413986206055 159.8433990478516 7.985167026519775 160.7295989990234 4.656389713287354 C 161.2007598876953 2.886528253555298 161.6076354980469 1.358139514923096 162.0937042236328 0.1314172595739365 C 162.4591827392578 -0.7909716367721558 162.8484039306641 -1.493471622467041 163.3185424804688 -2.079332828521729 C 164.3124847412109 -3.317888259887695 165.6759338378906 -3.999999523162842 167.1577453613281 -3.999999523162842 C 168.6602172851562 -3.999999523162842 170.0274963378906 -3.327221632003784 171.2215728759766 -2.000388383865356 C 172.4009399414062 -0.6901382803916931 173.254150390625 0.8218339085578918 173.8297882080078 2.621695041656494 C 174.3367614746094 4.206917285919189 174.6434020996094 6.043417453765869 174.7947387695312 8.401223182678223 C 175.0615234375 12.55766773223877 174.8370971679688 18.21216773986816 174.4974365234375 26.77130699157715 L 174.4194641113281 28.74019432067871 C 173.9078826904297 41.73422241210938 173.1685180664062 46.92675018310547 171.6955108642578 57.27169418334961 C 171.0643768310547 61.70413970947266 170.279296875 67.21769714355469 169.3167114257812 74.75255584716797 C 168.2106628417969 83.41352844238281 168.1932067871094 89.27841949462891 168.1777954101562 94.45288848876953 C 168.1632385253906 99.35919189453125 168.150634765625 103.5958633422852 167.2940673828125 108.9650573730469 C 166.3691558837891 114.7624206542969 164.5220794677734 121.2219467163086 161.4811553955078 129.2935791015625 C 156.3164672851562 143.0037841796875 152.9178009033203 151.8043365478516 148.3229064941406 159.6368560791016 C 145.9073181152344 163.7544708251953 143.2699584960938 167.4226989746094 140.0229339599609 171.1809997558594 C 136.8415985107422 174.8632507324219 133.0709686279297 178.6337432861328 128.1565399169922 183.0470581054688 C 121.5953750610352 188.9392547607422 116.1869583129883 193.4306335449219 111.1179885864258 196.1985778808594 C 106.2387924194336 198.8628692626953 101.6393203735352 199.9997253417969 95.73848724365234 200 Z M 21.94189071655273 65.26799011230469 C 23.5888500213623 69.80026245117188 25.77490997314453 74.85186004638672 27.83098983764648 78.40322113037109 C 29.5580997467041 81.38652801513672 31.76046180725098 85.51883697509766 34.09212875366211 89.89377593994141 C 37.24893188476562 95.81669616699219 40.82685089111328 102.5297470092773 44.11943435668945 108.0859146118164 C 45.72157287597656 110.7895584106445 47.27465438842773 114.1618041992188 48.91890716552734 117.7320556640625 C 51.14715576171875 122.5703048706055 53.67251586914062 128.0536041259766 56.65676498413086 132.5031433105469 C 59.78524017333984 137.167724609375 62.92568206787109 139.990478515625 66.25751495361328 141.1326904296875 C 73.05860137939453 143.4647827148438 75.78774261474609 145.3324737548828 77.59365844726562 146.5683898925781 C 78.40985107421875 147.1269989013672 78.8250732421875 147.4044189453125 79.34254455566406 147.6070251464844 C 80.00526428222656 147.8664703369141 80.96818542480469 148.0496673583984 82.37284851074219 148.1834716796875 C 84.61460113525391 148.3968048095703 86.80254364013672 148.5050048828125 88.87543487548828 148.5050048828125 C 94.02262878417969 148.5050048828125 98.59770965576172 147.8500823974609 102.4735412597656 146.5584106445312 C 103.1837692260742 146.3217010498047 105.3266525268555 145.2261962890625 109.8728256225586 140.1790771484375 C 113.0487976074219 136.6531677246094 116.2780456542969 132.4586944580078 118.8727951049805 129.0883941650391 C 120.291877746582 127.2451095581055 121.5170440673828 125.6537475585938 122.4306030273438 124.5742492675781 C 125.8994064331055 120.4754180908203 131.1834106445312 110.8313369750977 135.5791320800781 100.5762481689453 C 139.4647979736328 91.50836181640625 146.6765441894531 76.09469604492188 150.1423187255859 68.68727874755859 C 150.5681610107422 67.77711486816406 150.9303436279297 67.00294494628906 151.2149658203125 66.39316558837891 C 152.3356323242188 63.99100112915039 153.8558197021484 59.79364013671875 155.0875396728516 55.70044326782227 C 155.4322814941406 54.55483245849609 155.7231597900391 53.51999282836914 155.9660797119141 52.59719467163086 C 154.2464447021484 56.08104705810547 152.0510711669922 59.96108245849609 150.1492614746094 63.09341812133789 C 147.8622741699219 66.86016845703125 145.6862182617188 70.09416961669922 143.8562927246094 72.44577789306641 C 141.4996032714844 75.474365234375 139.7738494873047 77.02855682373047 138.0858154296875 77.64260864257812 C 136.6770172119141 78.15472412109375 134.1976623535156 79.65863800048828 131.7684936523438 81.47430419921875 C 128.8699645996094 83.64077758789062 127.4003219604492 85.22766876220703 127.1427383422852 85.65672302246094 C 126.6454925537109 86.52647399902344 124.7332382202148 89.61100006103516 121.0641555786133 92.68399810791016 C 118.9333801269531 94.46855926513672 116.5726013183594 95.94391632080078 114.0473251342773 97.06911468505859 C 110.9551010131836 98.44689178466797 107.6048812866211 99.30271911621094 104.0897369384766 99.61283111572266 C 101.0488204956055 99.88114166259766 97.69651794433594 100.4866943359375 94.14737701416016 101.1278076171875 C 88.76445770263672 102.1001129150391 83.19857025146484 103.1054992675781 77.80901336669922 103.1055526733398 C 71.57595825195312 103.1056137084961 66.61257171630859 101.7244415283203 62.63518524169922 98.88311004638672 C 58.78265762329102 96.13163757324219 54.17971038818359 93.10980987548828 49.72835159301758 90.18744659423828 C 41.03276824951172 84.47877502441406 35.59135055541992 80.85491943359375 33.35610198974609 78.37225341796875 C 30.68053817749023 75.39886474609375 25.45069313049316 69.49647521972656 21.94189071655273 65.26799011230469 Z" stroke="none" fill="#530000"/></g><g transform="translate(21.814 42.56)" clip-path="url(#r)"><path d="M243.834,59.32s9.423,11.96,10.872,15.584,4.983,4.349,16.309,10.872,16.309,13.047,16.309,17.4,13.409,11.235,15.946,11.96,28.993,2.174,36.6,0S352.016,110.24,363.069,101s11.6-11.235,21.02-22.832,7.973-11.325,13.409-21.02,5.074-21.383,8.336-17.758,2.9,9.513,2.174,27.906-1.9,20.839-5.074,45.664,2.356,27.181-7.611,53.638-13.591,35.426-32.255,52.188-22.832,17.305-42.4,14.859S295.3,220.777,284.787,209s-11.054-14.044-16.671-27.544-7.883-16.671-13.409-35.154-6.161-30.805-8.7-38.778-6.523-32.255-6.886-36.6-3.262-17.4,0-16.309S243.834,59.32,243.834,59.32Z" transform="translate(-238.876 -68.068)" fill="url(#s)"/></g></g></g></svg>