<svg xmlns="http://www.w3.org/2000/svg" xmlns:xlink="http://www.w3.org/1999/xlink" width="190" height="248" viewBox="0 0 190 248"><defs><radialGradient id="a" cx="0.334" cy="0.75" r="0.339" gradientTransform="matrix(0.014, -1, 2.431, 0.034, -1.494, 1.059)" gradientUnits="objectBoundingBox"><stop offset="0" stop-color="#b7b7b7"/><stop offset="0.491"/><stop offset="1"/></radialGradient><clipPath id="d"><rect width="190" height="248"/></clipPath></defs><g id="c" clip-path="url(#d)"><g transform="translate(228.058 895)"><path d="M -152.2391510009766 -663.5908813476562 L -152.2391815185547 -663.5908813476562 C -160.0796813964844 -663.5908203125 -168.0567321777344 -665.8035278320312 -175.3079681396484 -669.9899291992188 C -179.9166564941406 -672.65087890625 -183.9758911132812 -675.956298828125 -187.3730010986328 -679.814453125 C -190.6768798828125 -683.5667114257812 -193.2221527099609 -687.6854248046875 -194.9381256103516 -692.0562133789062 C -196.6775360107422 -696.4867553710938 -197.4796447753906 -700.9578857421875 -197.3222351074219 -705.3453979492188 C -197.1568603515625 -709.9547729492188 -195.9376831054688 -714.2581176757812 -193.6985931396484 -718.1359252929688 C -192.3409729003906 -720.4874267578125 -190.6344146728516 -722.619384765625 -188.6264190673828 -724.4724731445312 C -186.6877136230469 -726.2616577148438 -184.4635620117188 -727.7952880859375 -182.0156860351562 -729.0308227539062 C -177.2853240966797 -731.41845703125 -171.7044982910156 -732.6805419921875 -165.8765258789062 -732.6805419921875 C -158.0359954833984 -732.6805419921875 -150.0590057373047 -730.4678955078125 -142.8078918457031 -726.2818603515625 C -138.8861236572266 -724.017333984375 -135.341796875 -721.2681884765625 -132.2731475830078 -718.110595703125 C -130.5615081787109 -716.3493041992188 -129.0177612304688 -714.4822998046875 -127.655158996582 -712.5277709960938 L -74.98779296875 -803.7510375976562 L -73.48770904541016 -806.3492431640625 L -70.88956451416016 -804.8490600585938 L -58.76473617553711 -797.847900390625 L -56.16688537597656 -796.3478393554688 L -57.66682434082031 -793.7499389648438 L -124.6673583984375 -677.7030029296875 L -126.1942672729492 -675.0582885742188 L -126.3962173461914 -675.1797485351562 C -127.4090194702148 -673.864501953125 -128.5451507568359 -672.6409301757812 -129.7928771972656 -671.5232543945312 C -131.7242126464844 -669.7933349609375 -133.9290313720703 -668.3110961914062 -136.3461456298828 -667.1178588867188 C -141.0197601318359 -664.810546875 -146.5154724121094 -663.5910034179688 -152.2391510009766 -663.5908813476562 Z M -165.9424438476562 -751.3285522460938 C -168.9896240234375 -751.328369140625 -171.9646148681641 -751.7120361328125 -174.7848510742188 -752.46875 C -177.6104125976562 -753.2269287109375 -180.2322387695312 -754.3462524414062 -182.5774993896484 -755.7955932617188 C -187.5588226318359 -758.8740234375 -191.0340881347656 -763.256103515625 -192.6276245117188 -768.4680786132812 C -193.6735382080078 -771.8890380859375 -193.8493804931641 -775.4562377929688 -193.1502990722656 -779.0706787109375 C -192.4873199462891 -782.4983520507812 -191.0682067871094 -785.8158569335938 -188.9323577880859 -788.9310913085938 C -186.832763671875 -791.9933471679688 -184.1412048339844 -794.71240234375 -180.9324493408203 -797.0127563476562 C -177.6392059326172 -799.3736572265625 -173.9367065429688 -801.1922607421875 -169.9278259277344 -802.4180908203125 C -166.2652740478516 -803.5376586914062 -162.5245056152344 -804.1053466796875 -158.8092346191406 -804.1053466796875 C -157.4910430908203 -804.1053466796875 -156.1868591308594 -804.0335693359375 -154.9029235839844 -803.8909301757812 L -178.4292144775391 -880.8439331054688 L -179.3063201904297 -883.7128295898438 L -176.4373779296875 -884.5899047851562 L -167.063232421875 -887.455810546875 L -166.4216766357422 -888.1668090820312 L -164.8797302246094 -887.983154296875 C -164.6982421875 -887.9615478515625 -160.3673248291016 -887.4312744140625 -154.4624176025391 -885.4769287109375 C -151.0016174316406 -884.3316040039062 -147.6963806152344 -882.92724609375 -144.6386260986328 -881.302978515625 C -140.7859191894531 -879.2564697265625 -137.3139495849609 -876.8514404296875 -134.3191528320312 -874.15478515625 C -131.3480072021484 -871.4793701171875 -128.3806457519531 -868.0960083007812 -125.4995574951172 -864.0985107421875 C -123.224739074707 -860.942138671875 -120.9929428100586 -857.3912353515625 -118.8661804199219 -853.5442504882812 C -115.2533264160156 -847.00927734375 -113.2053833007812 -841.9156494140625 -113.1199722290039 -841.7020263671875 L -112.4268569946289 -839.9683837890625 L -113.6761474609375 -838.5809326171875 L -120.9256820678711 -830.529541015625 L -124.4531784057617 -826.6118774414062 L -126.0196228027344 -831.6455078125 C -126.0347061157227 -831.6937866210938 -127.6037063598633 -836.6796875 -130.614501953125 -842.906494140625 C -134.5296478271484 -851.003662109375 -139.10302734375 -857.538330078125 -143.8402404785156 -861.803955078125 C -148.0427551269531 -865.5879516601562 -153.0416412353516 -868.2105712890625 -157.5078582763672 -869.9923706054688 L -132.0113830566406 -786.5960693359375 L -131.2746124267578 -784.1861572265625 L -131.456298828125 -784.0938110351562 C -131.0311889648438 -781.460205078125 -131.1004943847656 -778.7616577148438 -131.6656799316406 -776.0421752929688 C -132.369384765625 -772.6561889648438 -133.8102111816406 -769.3837280273438 -135.9481201171875 -766.31591796875 C -140.2474365234375 -760.1464233398438 -146.9509429931641 -755.423095703125 -154.8237152099609 -753.0159301757812 C -158.4856719970703 -751.896484375 -162.2265319824219 -751.3287353515625 -165.9424438476562 -751.3285522460938 Z" stroke="none"/><path d="M -152.2392120361328 -666.5908813476562 C -141.7019195556641 -666.591064453125 -132.2594451904297 -670.9644165039062 -127.2699127197266 -679.2056884765625 L -127.2654190063477 -679.2030029296875 L -60.2648811340332 -795.2499389648438 L -72.38971710205078 -802.2510375976562 L -127.5849151611328 -706.6494140625 C -131.0534820556641 -713.2706909179688 -136.7810821533203 -719.337646484375 -144.3078155517578 -723.6837158203125 C -162.0054016113281 -733.9006958007812 -182.9547119140625 -730.7451171875 -191.1005859375 -716.6358032226562 C -199.2474212646484 -702.5264892578125 -191.5046844482422 -682.8057250976562 -173.8079833984375 -672.5880126953125 C -166.7959136962891 -668.5397338867188 -159.2737426757812 -666.5908203125 -152.2392120361328 -666.5908813476562 M -165.9425811767578 -754.3285522460938 C -162.6155090332031 -754.3287353515625 -159.1541137695312 -754.8291625976562 -155.7008819580078 -755.8848266601562 C -140.7330169677734 -760.4613037109375 -131.4972229003906 -773.7543334960938 -134.8838806152344 -785.7171020507812 L -134.8803100585938 -785.7189331054688 L -162.0998840332031 -874.7514038085938 C -155.9277191162109 -872.9262084960938 -148.1058197021484 -869.6817016601562 -141.8328094482422 -864.0333251953125 C -129.5010223388672 -852.9291381835938 -123.1551132202148 -832.5369262695312 -123.1551132202148 -832.5369262695312 L -115.9056167602539 -840.5883178710938 C -115.9056167602539 -840.5883178710938 -123.9948196411133 -860.8212280273438 -136.3265838623047 -871.9254150390625 C -148.6584167480469 -883.0296020507812 -165.234619140625 -885.0042114257812 -165.234619140625 -885.0042114257812 L -165.3921203613281 -884.8296508789062 L -175.5603179931641 -881.7210083007812 L -150.5834808349609 -800.0234985351562 C -156.1616668701172 -801.5552978515625 -162.6173858642578 -801.5157470703125 -169.0505828857422 -799.5491943359375 C -184.1733093261719 -794.925048828125 -193.4450836181641 -781.4025268554688 -189.7586822509766 -769.34521484375 C -186.9140167236328 -760.041015625 -177.1865844726562 -754.3280029296875 -165.9425811767578 -754.3285522460938 M -152.2391204833984 -660.5908813476562 L -152.2391510009766 -660.5908813476562 C -160.6055450439453 -660.5908203125 -169.1012878417969 -662.9425048828125 -176.8079223632812 -667.391845703125 C -186.5393218994141 -673.0105590820312 -193.9697418212891 -681.3804931640625 -197.7306213378906 -690.9598999023438 C -201.6779174804688 -701.0142211914062 -201.1686553955078 -711.1982421875 -196.2966156005859 -719.6360473632812 C -190.4963836669922 -729.6824951171875 -179.1243438720703 -735.6805419921875 -165.8765563964844 -735.6805419921875 C -157.5101776123047 -735.6805419921875 -149.0145111083984 -733.3289184570312 -141.3080139160156 -728.8800048828125 C -136.1590728759766 -725.9069213867188 -131.6713256835938 -722.1911010742188 -128.0142669677734 -717.9058227539062 L -74.58574676513672 -810.447509765625 L -52.06884765625 -797.44580078125 L -122.0692825317383 -676.2029418945312 C -128.0183868408203 -666.3861694335938 -139.2724456787109 -660.591064453125 -152.2391204833984 -660.5908813476562 Z M -165.9422760009766 -748.3285522460938 L -165.9425811767578 -754.3285522460938 L -165.9422760009766 -748.3285522460938 C -180.0967864990234 -748.327880859375 -191.9737091064453 -756.0687866210938 -195.4964752197266 -767.5909423828125 C -200.1441802978516 -782.7923583984375 -189.0676422119141 -799.7026977539062 -170.8050537109375 -805.2869262695312 C -166.9277191162109 -806.4722290039062 -162.9650268554688 -807.08349609375 -159.0225219726562 -807.104736328125 L -183.0523529052734 -885.7047119140625 L -168.7344818115234 -890.0819091796875 L -167.7664184570312 -891.1549072265625 L -164.5248870849609 -890.9620971679688 C -163.7708892822266 -890.872314453125 -145.9020233154297 -888.62158203125 -132.3116760253906 -876.3841552734375 C -119.0940170288086 -864.4822998046875 -110.6858520507812 -843.69482421875 -110.3343811035156 -842.8157348632812 L -108.9481811523438 -839.3485107421875 L -125.7357482910156 -820.7039794921875 L -128.8824462890625 -830.7487182617188 C -128.9415893554688 -830.9374389648438 -134.9212188720703 -849.7357788085938 -145.8477172851562 -859.5745239257812 C -147.9556579589844 -861.4725952148438 -150.2914428710938 -863.0604858398438 -152.6559143066406 -864.3832397460938 L -129.1424865722656 -787.47314453125 C -124.7854843139648 -772.0692138671875 -135.6964569091797 -755.7271118164062 -153.9465179443359 -750.1470336914062 C -157.8930816650391 -748.9405517578125 -161.928955078125 -748.3287353515625 -165.9422760009766 -748.3285522460938 Z" stroke="none" fill="#000"/></g><rect width="190" height="248" fill="rgba(255,255,255,0)"/><g transform="translate(-157.987 956.017) rotate(30)" fill="url(#a)"><path d="M -182.9997100830078 -739.4389038085938 C -188.2124176025391 -739.4389038085938 -193.2729797363281 -740.254150390625 -198.0408477783203 -741.8619995117188 C -202.6677093505859 -743.4223022460938 -206.8290863037109 -745.660888671875 -210.4094085693359 -748.5155029296875 C -214.0231475830078 -751.396728515625 -216.8659057617188 -754.7623901367188 -218.8587646484375 -758.5189819335938 C -220.94287109375 -762.4476318359375 -221.9996032714844 -766.6264038085938 -221.9996032714844 -770.9391479492188 C -221.9996032714844 -775.251708984375 -220.94287109375 -779.4302368164062 -218.8587341308594 -783.3587646484375 C -216.8658905029297 -787.115234375 -214.0231323242188 -790.4808349609375 -210.4093933105469 -793.3619995117188 C -206.8290710449219 -796.2164916992188 -202.6676940917969 -798.4550170898438 -198.0408325195312 -800.0153198242188 C -193.2729797363281 -801.6231689453125 -188.2124176025391 -802.4384155273438 -182.9997100830078 -802.4384155273438 C -178.5633239746094 -802.4384155273438 -174.2109069824219 -801.8425903320312 -170.0633697509766 -800.6675415039062 C -167.2257232666016 -799.8636474609375 -164.5259399414062 -798.8014526367188 -162.0001983642578 -797.4971313476562 L -162.0001983642578 -904.4388427734375 L -162.0001983642578 -906.4388427734375 L -160.0001983642578 -906.4388427734375 L -145.9998016357422 -906.4388427734375 L -143.9998016357422 -906.4388427734375 L -143.9998016357422 -904.4388427734375 L -143.9998016357422 -770.438720703125 L -143.9998016357422 -768.438720703125 L -144.1199188232422 -768.438720703125 C -144.4629821777344 -764.8800048828125 -145.5389556884766 -761.4337158203125 -147.3289947509766 -758.169677734375 C -149.3553314208984 -754.4747314453125 -152.2083282470703 -751.1683349609375 -155.8087310791016 -748.3423461914062 C -159.3791656494141 -745.5398559570312 -163.5149993896484 -743.3434448242188 -168.101318359375 -741.8141479492188 C -172.8278961181641 -740.238037109375 -177.8404388427734 -739.4389038085938 -182.9997100830078 -739.4389038085938 Z" stroke="none"/><path d="M -182.9997253417969 -741.4389038085938 C -162.7747497558594 -741.4389038085938 -146.3399505615234 -754.3767700195312 -146.0050506591797 -770.438720703125 L -145.9997863769531 -770.438720703125 L -145.9997863769531 -904.4388427734375 L -160.0001983642578 -904.4388427734375 L -160.0001983642578 -794.048095703125 C -166.3149871826172 -798.0482177734375 -174.3077850341797 -800.4384155273438 -182.9997253417969 -800.4384155273438 C -203.4341888427734 -800.4384155273438 -219.9996032714844 -787.2308959960938 -219.9996032714844 -770.9391479492188 C -219.9996032714844 -754.6464233398438 -203.4341888427734 -741.4389038085938 -182.9997253417969 -741.4389038085938 M -182.9997253417969 -737.4389038085938 C -188.43017578125 -737.4389038085938 -193.7057647705078 -738.2894287109375 -198.679931640625 -739.9668579101562 C -203.5277404785156 -741.6016845703125 -207.8936004638672 -743.9517211914062 -211.6562194824219 -746.95166015625 C -215.4856872558594 -750.0049438476562 -218.5034027099609 -753.5813598632812 -220.6255493164062 -757.5817260742188 C -222.8644104003906 -761.8020629882812 -223.9996032714844 -766.2962036132812 -223.9996032714844 -770.9391479492188 C -223.9996032714844 -775.5819091796875 -222.8643798828125 -780.0758666992188 -220.6255035400391 -784.2960815429688 C -218.5033569335938 -788.2962646484375 -215.4856414794922 -791.8726196289062 -211.6561889648438 -794.92578125 C -207.8935546875 -797.9256591796875 -203.5277252197266 -800.2756958007812 -198.679931640625 -801.9104614257812 C -193.7057495117188 -803.587890625 -188.4301452636719 -804.4384155273438 -182.9997253417969 -804.4384155273438 C -178.3789520263672 -804.4384155273438 -173.8431243896484 -803.817138671875 -169.5181884765625 -802.5918579101562 C -167.6173400878906 -802.0532836914062 -165.7744750976562 -801.4033203125 -164.0001983642578 -800.6466674804688 L -164.0001983642578 -908.4388427734375 L -141.9997863769531 -908.4388427734375 L -141.9997863769531 -766.438720703125 L -142.3630218505859 -766.438720703125 C -142.8825073242188 -763.2501831054688 -143.9573211669922 -760.1585083007812 -145.5754089355469 -757.2080078125 C -147.7323150634766 -753.2749633789062 -150.7598419189453 -749.7628173828125 -154.5738677978516 -746.7691040039062 C -158.3254547119141 -743.8244018554688 -162.6638793945312 -741.5189819335938 -167.4686737060547 -739.9168090820312 C -172.3995971679688 -738.2725830078125 -177.625 -737.4389038085938 -182.9997253417969 -737.4389038085938 Z" stroke="none" fill="#f8f8f8"/></g><g transform="translate(482.923 827.486) rotate(-17)" fill="url(#a)"><path d="M -191.3657836914062 -776.3304443359375 C -195.4490661621094 -776.3304443359375 -199.4140167236328 -776.9692993164062 -203.1504516601562 -778.2293701171875 C -206.7810821533203 -779.4537353515625 -210.0477752685547 -781.2113037109375 -212.8597564697266 -783.4533081054688 C -215.7051849365234 -785.7219848632812 -217.9447174072266 -788.374267578125 -219.5161895751953 -791.3366088867188 C -221.1640625 -794.44287109375 -221.9996032714844 -797.748046875 -221.9996032714844 -801.1603393554688 C -221.9996032714844 -804.5724487304688 -221.1640472412109 -807.8775024414062 -219.5161743164062 -810.983642578125 C -217.9447021484375 -813.9458618164062 -215.7051544189453 -816.59814453125 -212.8597564697266 -818.86669921875 C -210.0477600097656 -821.1087036132812 -206.7810668945312 -822.8662719726562 -203.1504516601562 -824.090576171875 C -199.4140014648438 -825.3506469726562 -195.4490509033203 -825.989501953125 -191.3657836914062 -825.989501953125 C -187.8908386230469 -825.989501953125 -184.4810638427734 -825.5226440429688 -181.2312164306641 -824.6019287109375 C -179.2511291503906 -824.0409545898438 -177.3563995361328 -823.3194580078125 -175.5667419433594 -822.4462280273438 L -175.5667419433594 -904.4742431640625 L -175.5667419433594 -906.4742431640625 L -173.5667419433594 -906.4742431640625 L -163.4882202148438 -906.4742431640625 L -162.8734283447266 -906.8435668945312 L -161.9250640869141 -906.4253540039062 C -161.7616119384766 -906.3533325195312 -157.864501953125 -904.6195068359375 -152.8704223632812 -901.0817260742188 C -149.9414825439453 -899.0068969726562 -147.2346343994141 -896.7340698242188 -144.8250122070312 -894.3263549804688 C -141.7967224121094 -891.3004760742188 -139.2301788330078 -888.0501708984375 -137.1966400146484 -884.6656494140625 C -135.1739959716797 -881.2993774414062 -133.3556365966797 -877.2611694335938 -131.7920074462891 -872.6632690429688 C -130.5521545410156 -869.017333984375 -129.4667205810547 -865.0078125 -128.5658569335938 -860.74609375 C -127.034309387207 -853.5007934570312 -126.5702896118164 -848.0914916992188 -126.55126953125 -847.86474609375 L -126.4473266601562 -846.6243896484375 L -127.5141983032227 -845.9833374023438 L -136.8013305664062 -840.4029541015625 L -139.81396484375 -838.5927734375 L -139.8313903808594 -842.107421875 C -139.8316802978516 -842.1592407226562 -139.8729858398438 -847.432861328125 -140.9394989013672 -854.3349609375 C -141.9124298095703 -860.6314086914062 -143.9615631103516 -869.6171875 -148.1983795166016 -876.668701171875 C -151.6095886230469 -882.3460083007812 -156.4808197021484 -886.83544921875 -160.7319946289062 -890.02099609375 L -160.7319946289062 -800.7730712890625 L -160.7319946289062 -798.7730712890625 L -160.8705444335938 -798.7730712890625 C -161.1820831298828 -796.102783203125 -162.0175628662109 -793.5161743164062 -163.3641357421875 -791.0607299804688 C -164.9617919921875 -788.1474609375 -167.2091674804688 -785.5421752929688 -170.0437927246094 -783.3171997070312 C -175.7838439941406 -778.8117065429688 -183.3561401367188 -776.3304443359375 -191.3657836914062 -776.3304443359375 Z" stroke="none"/><path d="M -191.3657836914062 -778.3304443359375 C -175.7139282226562 -778.3304443359375 -162.9952392578125 -788.3428955078125 -162.7360687255859 -800.7730712890625 L -162.7319946289062 -800.7730712890625 L -162.7319946289062 -893.8741455078125 C -157.3630676269531 -890.32421875 -150.8314819335938 -884.9342651367188 -146.4840393066406 -877.69873046875 C -137.9372863769531 -863.4740600585938 -137.8314208984375 -842.1173095703125 -137.8314208984375 -842.1173095703125 L -128.5442810058594 -847.6976928710938 C -128.5442810058594 -847.6976928710938 -130.3642425537109 -869.4110717773438 -138.9109802246094 -883.6356201171875 C -147.4577178955078 -897.8602294921875 -162.7319946289062 -904.5953979492188 -162.7319946289062 -904.5953979492188 L -162.9336853027344 -904.4742431640625 L -173.5667419433594 -904.4742431640625 L -173.5667419433594 -819.0440673828125 C -178.4536895751953 -822.1397094726562 -184.6392211914062 -823.989501953125 -191.3657836914062 -823.989501953125 C -207.1798095703125 -823.989501953125 -219.9996032714844 -813.768310546875 -219.9996032714844 -801.1603393554688 C -219.9996032714844 -788.5515747070312 -207.1798095703125 -778.3304443359375 -191.3657836914062 -778.3304443359375 M -191.3657836914062 -774.3304443359375 C -195.6668243408203 -774.3304443359375 -199.8467864990234 -775.004638671875 -203.7895355224609 -776.334228515625 C -207.6411285400391 -777.6331176757812 -211.1122894287109 -779.5021362304688 -214.1065826416016 -781.8895263671875 C -217.167724609375 -784.3302001953125 -219.5822296142578 -787.1932983398438 -221.2829895019531 -790.3992919921875 C -223.0856018066406 -793.7973022460938 -223.9996032714844 -797.4178466796875 -223.9996032714844 -801.1603393554688 C -223.9996032714844 -804.9026489257812 -223.0855865478516 -808.5230712890625 -221.282958984375 -811.9209594726562 C -219.5821838378906 -815.1268920898438 -217.1676788330078 -817.9899291992188 -214.1065368652344 -820.4305419921875 C -211.1122436523438 -822.81787109375 -207.6410980224609 -824.6868896484375 -203.7895355224609 -825.9857177734375 C -199.8467559814453 -827.3153686523438 -195.6668090820312 -827.989501953125 -191.3657836914062 -827.989501953125 C -187.7064819335938 -827.989501953125 -184.1132965087891 -827.4971923828125 -180.6860656738281 -826.5261840820312 C -179.6226043701172 -826.224853515625 -178.5818023681641 -825.8795166015625 -177.5667419433594 -825.4915161132812 L -177.5667419433594 -908.4742431640625 L -164.0426635742188 -908.4742431640625 L -163.0147399902344 -909.0916748046875 L -161.1181488037109 -908.25537109375 C -160.9471435546875 -908.1799926757812 -156.8711395263672 -906.3668212890625 -151.7143249511719 -902.7137451171875 C -148.6938629150391 -900.5740356445312 -145.9003448486328 -898.2281494140625 -143.4113616943359 -895.7411499023438 C -140.2676239013672 -892.5999145507812 -137.5998840332031 -889.2200927734375 -135.4822845458984 -885.6957397460938 C -133.3865051269531 -882.2076416015625 -131.5078582763672 -878.03955078125 -129.8985290527344 -873.3071899414062 C -128.6331024169922 -869.5861206054688 -127.5263824462891 -865.4991455078125 -126.6090850830078 -861.1597290039062 C -125.052001953125 -853.7936401367188 -124.5776824951172 -848.2636108398438 -124.5582656860352 -848.0317993164062 L -124.350341796875 -845.5511474609375 L -141.7965240478516 -835.0682373046875 L -141.8313751220703 -842.0974731445312 C -141.8316802978516 -842.1465454101562 -141.8755035400391 -847.3263549804688 -142.9260864257812 -854.0943603515625 C -144.2838745117188 -862.8413696289062 -146.6998443603516 -870.291259765625 -149.9127349853516 -875.6386108398438 C -152.3390045166016 -879.6766967773438 -155.5562896728516 -883.0971069335938 -158.7319946289062 -885.84619140625 L -158.7319946289062 -796.7730712890625 L -159.1617431640625 -796.7730712890625 C -159.6182250976562 -794.4725952148438 -160.4368438720703 -792.2391967773438 -161.6105346679688 -790.0990600585938 C -163.3387756347656 -786.9476318359375 -165.7606811523438 -784.1365966796875 -168.8089447021484 -781.7439575195312 C -174.8995971679688 -776.9633178710938 -182.9104461669922 -774.3304443359375 -191.3657836914062 -774.3304443359375 Z" stroke="none" fill="#f8f8f8"/></g></g></svg>