<svg xmlns="http://www.w3.org/2000/svg" xmlns:xlink="http://www.w3.org/1999/xlink" width="190" height="248" viewBox="0 0 190 248"><defs><clipPath id="b"><rect width="190" height="248"/></clipPath></defs><g id="a" clip-path="url(#b)"><rect width="190" height="248" fill="rgba(255,255,255,0)"/><g transform="translate(-17.74 -24.667)"><g transform="translate(30.514 31.667)" fill="#00b561" stroke-linecap="square" stroke-linejoin="round"><path d="M 70.63948059082031 231.2520751953125 L 68.13678741455078 230.6022033691406 L 49.25710296630859 225.6995697021484 L 47.32975769042969 225.1990661621094 L 47.82182312011719 223.2695770263672 L 51.05916595458984 210.5743865966797 L 51.44313430786133 209.0685729980469 L 52.99713516235352 209.0685729980469 L 68.63948059082031 209.0685729980469 L 70.63948059082031 209.0685729980469 L 70.63948059082031 211.0685729980469 L 70.63948059082031 228.6663818359375 L 70.63948059082031 231.2520751953125 Z M 25.49135208129883 225.5068511962891 L 23.0808219909668 225.5068511962891 L 0.5071967244148254 225.5068511962891 L -1.880209565162659 225.5068511962891 L -1.461865782737732 223.1563873291016 L 2.144196748733521 202.8962860107422 L 2.489821672439575 200.9545135498047 L 4.436227798461914 201.2730102539062 L 20.07991600036621 203.8327941894531 L 21.46379089355469 204.0592346191406 L 21.72260284423828 205.4374237060547 L 25.04647827148438 223.1377258300781 L 25.49135208129883 225.5068511962891 Z M 117.9800720214844 218.9336395263672 L 115.5691680908203 218.9336395263672 L 99.92550659179688 218.9336395263672 L 97.92550659179688 218.9336395263672 L 97.92550659179688 216.9336395263672 L 97.92550659179688 199.3358306884766 L 97.92550659179688 198.1741027832031 L 98.93460083007812 197.5985412597656 L 110.0763549804688 191.2436065673828 L 112.5143814086914 189.8530120849609 L 113.0328521728516 192.6114501953125 L 117.5347595214844 216.5641937255859 L 117.9800720214844 218.9336395263672 Z M 166.8233795166016 205.2467651367188 L 164.4516906738281 205.2467651367188 L 148.8093566894531 205.2467651367188 L 146.8093566894531 205.2467651367188 L 146.8093566894531 203.2467651367188 L 146.8093566894531 192.7240142822266 L 146.8093566894531 192.1685485839844 L 147.0957946777344 191.6926727294922 L 152.9621276855469 181.9459533691406 L 154.0776977539062 180.0924530029297 L 155.8381042480469 181.3497924804688 L 163.0210418701172 186.4800720214844 L 163.6909484863281 186.9585113525391 L 163.8299102783203 187.7699127197266 L 166.4229736328125 202.9091033935547 L 166.8233795166016 205.2467651367188 Z M 114.4401931762695 188.6882934570312 L 115.278694152832 185.1835784912109 L 119.4891357421875 167.5844116210938 L 119.8562622070312 166.0497589111328 L 121.4342269897461 166.0497589111328 L 137.0779418945312 166.0497589111328 L 138.735107421875 166.0497589111328 L 139.0431060791016 167.6780395507812 L 140.9931945800781 177.9878540039062 L 141.3175964355469 179.7029418945312 L 139.6621704101562 180.2563934326172 L 117.8579177856445 187.5457305908203 L 114.4401931762695 188.6882934570312 Z M 20.87791633605957 185.1089782714844 L 20.26710319519043 183.5253295898438 L -1.8659907579422 126.1420440673828 L -2.144647121429443 125.4196701049805 L -1.864209532737732 124.6979522705078 L 25.6309700012207 53.93782806396484 L 25.24588394165039 53.36019897460938 L 26.18078994750977 52.52284240722656 L 27.40119743347168 49.38207244873047 L 28.25595664978027 50.66421508789062 L 73.67338562011719 9.986042022705078 L 73.80319976806641 9.869791984558105 L 73.95116424560547 9.777729988098145 L 92.39553833007812 -1.698113918304443 L 94.08063507080078 -2.746582746505737 L 95.14204406738281 -1.069613933563232 L 115.6364440917969 31.31063652038574 L 115.9465103149414 31.80051040649414 L 115.9465103149414 32.3802604675293 L 115.9465103149414 94.95089721679688 L 116.0691375732422 94.96523284912109 L 115.9465103149414 96.79751586914062 L 115.9465103149414 98.97810363769531 L 115.8017272949219 98.961181640625 L 112.6407928466797 146.1993865966797 L 112.6205749511719 146.5016021728516 L 112.5117568969727 146.7842864990234 L 102.6519470214844 172.3995971679688 L 102.1586685180664 173.6811676025391 L 100.7854461669922 173.6811676025391 L 75.89874267578125 173.6811676025391 L 75.82441711425781 173.6966094970703 L 22.53982162475586 184.7638244628906 L 20.87791633605957 185.1089782714844 Z M 158.6312255859375 164.1847229003906 L 156.6312255859375 164.1847229003906 L 140.9875030517578 164.1847229003906 L 138.2962036132812 164.1847229003906 L 139.072509765625 161.6078186035156 L 143.7821044921875 145.9747924804688 L 144.1359100341797 144.8003540039062 L 145.3431701660156 144.5832672119141 L 156.2772979736328 142.6171722412109 L 158.6312255859375 142.1939239501953 L 158.6312255859375 144.5856018066406 L 158.6312255859375 162.1847229003906 L 158.6312255859375 164.1847229003906 Z" stroke="none"/><path d="M 68.63948822021484 228.6663970947266 L 68.63948822021484 211.0685577392578 L 52.99711990356445 211.0685577392578 L 49.75978469848633 223.7637634277344 L 68.63948822021484 228.6663970947266 M 23.08082008361816 223.5068664550781 L 19.7569522857666 205.8065643310547 L 4.11328649520874 203.2467651367188 L 0.5071862936019897 223.5068664550781 L 23.08082008361816 223.5068664550781 M 115.5691528320312 216.9336242675781 L 111.067253112793 192.9808959960938 L 99.92548370361328 199.3358306884766 L 99.92548370361328 216.9336242675781 L 115.5691528320312 216.9336242675781 M 164.4517211914062 203.2467651367188 L 161.8586578369141 188.1075592041016 L 154.6757202148438 182.977294921875 L 148.8093566894531 192.7240295410156 L 148.8093566894531 203.2467651367188 L 164.4517211914062 203.2467651367188 M 117.2237854003906 185.64892578125 L 139.0280456542969 178.3595581054688 L 137.0779571533203 168.0497589111328 L 121.4342498779297 168.0497589111328 L 117.2237854003906 185.64892578125 M 22.13308715820312 182.8056030273438 L 75.41768646240234 171.7384033203125 L 78.34612274169922 139.0056304931641 L 75.47495269775391 171.6811676025391 L 100.7854232788086 171.6811676025391 L 110.6452560424805 146.0658721923828 L 113.9464874267578 96.73076629638672 L 82.45745086669922 93.05056762695312 L 113.9464874267578 96.73076629638672 L 113.9464874267578 32.38026428222656 L 93.45211791992188 -1.452636752219405e-06 L 75.00772094726562 11.47586536407471 L 27.87165260314941 53.69333267211914 L 66.40045166015625 111.4865646362305 L 1.963297472684644e-05 125.4223327636719 L 22.13308715820312 182.8056030273438 M 156.6312255859375 162.1847381591797 L 156.6312255859375 144.5856018066406 L 145.6971130371094 146.5516967773438 L 140.9875183105469 162.1847381591797 L 156.6312255859375 162.1847381591797 M 1.963297472684644e-05 125.4223327636719 L 66.40045166015625 111.4865646362305 L 27.87165260314941 53.69333267211914 L 1.963297472684644e-05 125.4223327636719 M 68.63930511474609 232.6664428710938 C 68.30361938476562 232.6664428710938 67.96596527099609 232.6241760253906 67.63411712646484 232.5379943847656 L 48.75442123413086 227.6353607177734 C 46.62281799316406 227.0818328857422 45.33965301513672 224.9093627929688 45.88381958007812 222.7753601074219 L 49.12115478515625 210.0801696777344 C 49.57295227050781 208.3084259033203 51.16865158081055 207.0685577392578 52.99711990356445 207.0685577392578 L 68.63948822021484 207.0685577392578 C 70.84861755371094 207.0685577392578 72.63948822021484 208.8594360351562 72.63948822021484 211.0685577392578 L 72.63948822021484 228.6663970947266 C 72.63948822021484 229.9045257568359 72.06611633300781 231.0728607177734 71.08678436279297 231.8303680419922 C 70.37862396240234 232.3781280517578 69.51585388183594 232.6664428710938 68.63930511474609 232.6664428710938 Z M 23.08082008361816 227.5068664550781 L 0.5071862936019897 227.5068664550781 C -0.6763136982917786 227.5068664550781 -1.799046993255615 226.9827728271484 -2.559046983718872 226.0755310058594 C -3.319080352783203 225.1683349609375 -3.638313770294189 223.9710998535156 -3.430913686752319 222.8059387207031 L 0.1751863062381744 202.5458374023438 C 0.55848628282547 200.3923034667969 2.600547552108765 198.9459075927734 4.759219646453857 199.2992706298828 L 20.40288543701172 201.8590698242188 C 22.0642204284668 202.1309051513672 23.3775520324707 203.4138336181641 23.68825340270996 205.0683288574219 L 27.01211929321289 222.7686309814453 C 27.23175239562988 223.9382934570312 26.91915321350098 225.1450653076172 26.15921974182129 226.0610046386719 C 25.3992862701416 226.9768981933594 24.27095222473145 227.5068664550781 23.08082008361816 227.5068664550781 Z M 115.5691528320312 220.9336242675781 L 99.92548370361328 220.9336242675781 C 97.71635437011719 220.9336242675781 95.92548370361328 219.1427612304688 95.92548370361328 216.9336242675781 L 95.92548370361328 199.3358306884766 C 95.92548370361328 197.8992614746094 96.69585418701172 196.5730285644531 97.94368743896484 195.8612670898438 L 109.08544921875 189.5063323974609 C 110.2089920043945 188.8655090332031 111.5729751586914 188.8074951171875 112.7468566894531 189.3506011962891 C 113.9207229614258 189.8936920166016 114.759521484375 190.9709014892578 114.998420715332 192.2420349121094 L 119.5003204345703 216.1947631835938 C 119.7201843261719 217.3645324707031 119.4076843261719 218.5714263916016 118.6477508544922 219.4875030517578 C 117.8878173828125 220.403564453125 116.7593841552734 220.9336242675781 115.5691528320312 220.9336242675781 Z M 164.4517211914062 207.2467651367188 L 148.8093566894531 207.2467651367188 C 146.6002197265625 207.2467651367188 144.8093566894531 205.4559020996094 144.8093566894531 203.2467651367188 L 144.8093566894531 192.7240295410156 C 144.8093566894531 191.9971618652344 145.0074157714844 191.2840576171875 145.3822174072266 190.6613006591797 L 151.2485809326172 180.9145660400391 C 151.8237457275391 179.9589996337891 152.7717132568359 179.2869262695312 153.8638153076172 179.0605621337891 C 154.9559631347656 178.834228515625 156.0929718017578 179.0740356445312 157.0005493164062 179.7222595214844 L 164.1834869384766 184.8525390625 C 165.041748046875 185.4655303955078 165.6231842041016 186.3927001953125 165.8012542724609 187.4322662353516 L 168.3943176269531 202.5714721679688 C 168.5933532714844 203.7335052490234 168.2696228027344 204.9241333007812 167.5095825195312 205.8253936767578 C 166.7495880126953 206.7266693115234 165.6306457519531 207.2467651367188 164.4517211914062 207.2467651367188 Z M 117.2242736816406 189.6490173339844 C 116.2388610839844 189.6490173339844 115.2712020874023 189.2847137451172 114.522216796875 188.5987701416016 C 113.4504852294922 187.6172332763672 112.9954223632812 186.1316375732422 113.3335494995117 184.7182312011719 L 117.5440216064453 167.1190643310547 C 117.9746170043945 165.3192291259766 119.5836181640625 164.0497589111328 121.4342498779297 164.0497589111328 L 137.0779571533203 164.0497589111328 C 137.2060852050781 164.0497589111328 137.3329772949219 164.0558319091797 137.4584045410156 164.0677337646484 C 136.9645080566406 163.1421508789062 136.850341796875 162.0506439208984 137.1575469970703 161.0309295654297 L 141.8671569824219 145.3979034423828 C 142.3013153076172 143.9566650390625 143.5077819824219 142.8812255859375 144.9892120361328 142.6148376464844 L 155.9233245849609 140.6487274169922 C 157.0892791748047 140.4391021728516 158.2883453369141 140.7570953369141 159.1971893310547 141.5170593261719 C 160.1060180664062 142.2770690917969 160.6312255859375 143.4008636474609 160.6312255859375 144.5856018066406 L 160.6312255859375 162.1847381591797 C 160.6312255859375 164.3938598632812 158.8403472900391 166.1847381591797 156.6312255859375 166.1847381591797 L 140.9875183105469 166.1847381591797 C 140.8599395751953 166.1847381591797 140.7332153320312 166.1786499023438 140.6075286865234 166.1666717529297 C 140.7942810058594 166.5167083740234 140.9312896728516 166.8994750976562 141.0082550048828 167.3063354492188 L 142.9583587646484 177.6161346435547 C 143.3300933837891 179.5813293457031 142.1931457519531 181.5190582275391 140.2962799072266 182.1531982421875 L 118.4920196533203 189.4425659179688 C 118.0769500732422 189.5813293457031 117.6489028930664 189.6490173339844 117.2242736816406 189.6490173339844 Z M 22.13107872009277 186.8060455322266 C 20.50637054443359 186.8060455322266 19.00546455383301 185.8120422363281 18.40105247497559 184.2450714111328 L -3.72395658493042 126.8826904296875 C -3.769886016845703 126.7655334472656 -3.810132503509521 126.6465911865234 -3.844720363616943 126.5260543823242 C -3.844935655593872 126.5252990722656 -3.845155954360962 126.5245361328125 -3.845371007919312 126.5237808227539 C -3.845704317092896 126.5226211547852 -3.846065759658813 126.521354675293 -3.846398115158081 126.5201873779297 C -3.846904516220093 126.5184173583984 -3.847446203231812 126.5165100097656 -3.847949981689453 126.5147399902344 C -3.848044633865356 126.514404296875 -3.848140001296997 126.5140686035156 -3.848234415054321 126.5137405395508 C -3.92265796661377 126.2513809204102 -3.969573020935059 125.9837951660156 -3.989276647567749 125.7150344848633 C -3.989295721054077 125.7147750854492 -3.989319324493408 125.7144622802734 -3.989338397979736 125.7142028808594 C -3.989471197128296 125.7123870849609 -3.989596366882324 125.7106475830078 -3.989726781845093 125.7088317871094 C -4.026203632354736 125.2014617919922 -3.966169357299805 124.6850967407227 -3.804795026779175 124.1879959106445 C -3.804555892944336 124.187255859375 -3.804372787475586 124.1866912841797 -3.804133176803589 124.1859588623047 C -3.803693294525146 124.1846084594727 -3.803215742111206 124.1831359863281 -3.802774429321289 124.1817855834961 C -3.802096843719482 124.1797103881836 -3.801411151885986 124.1776123046875 -3.800730228424072 124.175537109375 C -3.800702571868896 124.1754531860352 -3.80063271522522 124.1752395629883 -3.800605058670044 124.1751556396484 C -3.777333974838257 124.1042404174805 -3.752051591873169 124.0338973999023 -3.724733352661133 123.9641265869141 L 24.12383651733398 52.29448318481445 C 24.32778739929199 51.74711227416992 24.65400314331055 51.23845672607422 25.09666442871094 50.81241607666016 C 25.09844589233398 50.81069946289062 25.10030746459961 50.80891418457031 25.10208702087402 50.80720520019531 C 25.13767623901367 50.77306365966797 25.17395210266113 50.73952865600586 25.21074867248535 50.70674896240234 L 72.33901977539062 8.496265411376953 C 72.51178741455078 8.341531753540039 72.69768524169922 8.202098846435547 72.89458465576172 8.079598426818848 L 91.3389892578125 -3.396268129348755 C 93.20448303222656 -4.556971549987793 95.65699005126953 -3.995732307434082 96.83201599121094 -2.139234781265259 L 117.3263854980469 30.24103164672852 C 117.7314529418945 30.88103103637695 117.9464874267578 31.62286567687988 117.9464874267578 32.38026428222656 L 117.9464874267578 96.69540405273438 C 117.9470672607422 96.76959228515625 117.9456100463867 96.84430694580078 117.9420471191406 96.91925048828125 C 117.9406204223633 96.94952392578125 117.9388580322266 96.97962951660156 117.9367523193359 97.00979614257812 L 114.6363220214844 146.3329315185547 C 114.6095199584961 146.7336273193359 114.5225219726562 147.1280059814453 114.3782501220703 147.5027618408203 L 104.5184173583984 173.1180725097656 C 103.9240188598633 174.6623382568359 102.4401168823242 175.6811676025391 100.7854232788086 175.6811676025391 L 76.10417175292969 175.6811676025391 L 22.94651985168457 186.7220001220703 C 22.67375946044922 186.7786560058594 22.40057182312012 186.8060455322266 22.13107872009277 186.8060455322266 Z" stroke="none" fill="#00301a"/></g><g transform="translate(30.514 31.667)"><path d="M538.731,450.014l15.985-18.445L547.339,350,500.2,392.221Z" transform="translate(-472.331 -338.527)" fill="#00b561"/><path d="M571.01,374.624v64.351l-31.56-3.689-7.378-81.566,18.444-11.477Z" transform="translate(-457.064 -342.244)" fill="#00fb86"/><path d="M567.558,458.174l3.3-49.334-31.56-3.689-6.91,78.64H557.7Z" transform="translate(-456.913 -312.108)" fill="#00b561"/><path d="M547.759,436.34l-66.4,13.936,27.872-71.728Z" transform="translate(-481.359 -324.853)" fill="#00e178"/><path d="M547.759,417.621l-66.4,13.936,22.133,57.383,53.284-11.067Z" transform="translate(-481.359 -306.134)" fill="#00b561"/><path d="M526.252,423.672l16.08-18.681-7.062,78.933Z" transform="translate(-459.852 -312.185)" fill="#00723d"/></g><path d="M4.709,1.965,15.643,0V17.6H0Z" transform="translate(171.502 176.253)" fill="#00b561"/><path d="M2.057,0H17.7l1.95,10.309L-2.153,17.6Z" transform="translate(149.891 199.717)" fill="#00fb86"/><path d="M0,8.381,5.866-1.366l7.183,5.13L15.643,18.9H0Z" transform="translate(179.323 216.01)" fill="#00b561"/><path d="M0,3.1,11.142-3.25l4.5,23.953H0Z" transform="translate(130.439 227.898)" fill="#00b561"/><path d="M1.762,0,17.4,2.56l3.325,17.7H-1.844Z" transform="translate(32.865 234.914)" fill="#00b561"/><path d="M1.582,0H17.225V17.6L-1.656,12.7Z" transform="translate(81.929 242.735)" fill="#00e178"/></g></g></svg>