<svg xmlns="http://www.w3.org/2000/svg" xmlns:xlink="http://www.w3.org/1999/xlink" width="190" height="248" viewBox="0 0 190 248"><defs><radialGradient id="a" cx="0.433" cy="0.306" r="0.692" gradientTransform="matrix(0.676, -0.737, 0.724, 0.664, -0.081, 0.422)" gradientUnits="objectBoundingBox"><stop offset="0" stop-color="#ffd36d"/><stop offset="0.318" stop-color="#e99b26"/><stop offset="1"/></radialGradient><radialGradient id="f" cx="0.353" cy="0.289" r="1.101" gradientTransform="matrix(1, -0.026, 0.028, 1.076, -0.008, -0.013)" gradientUnits="objectBoundingBox"><stop offset="0" stop-color="#f8f8f8"/><stop offset="0.297" stop-color="#fff"/><stop offset="1" stop-color="#7c7c7c"/></radialGradient><clipPath id="o"><rect width="190" height="248"/></clipPath></defs><g id="n" clip-path="url(#o)"><rect width="190" height="248" fill="rgba(255,255,255,0)"/><g transform="translate(1120.663 317.8)"><path d="M -1067.545776367188 -102.4228897094727 L -1067.546020507812 -102.4228897094727 L -1067.548095703125 -102.4228897094727 C -1069.50634765625 -102.4228897094727 -1071.455200195312 -102.7151260375977 -1073.340454101562 -103.2914657592773 C -1076.460083007812 -104.2451019287109 -1079.265014648438 -105.6770477294922 -1081.677490234375 -107.5475234985352 C -1084.042602539062 -109.3812026977539 -1085.965087890625 -111.5824127197266 -1087.3916015625 -114.0899429321289 C -1090.280883789062 -119.1686782836914 -1090.900512695312 -125.1437301635742 -1089.136474609375 -130.9143829345703 C -1088.382568359375 -133.3803405761719 -1087.102294921875 -135.7770538330078 -1085.331298828125 -138.0381011962891 C -1083.655639648438 -140.1775970458984 -1081.615112304688 -142.1033172607422 -1079.266723632812 -143.7617340087891 C -1074.376831054688 -147.21484375 -1068.704223632812 -149.1165466308594 -1063.293701171875 -149.1165466308594 C -1061.125 -149.1165466308594 -1059.01953125 -148.8090972900391 -1057.036010742188 -148.2027587890625 C -1050.825073242188 -146.3035736083984 -1046.3681640625 -142.5990142822266 -1044.147094726562 -137.4895172119141 C -1042.1357421875 -132.8628082275391 -1042.03369140625 -127.2735214233398 -1043.851806640625 -121.3259124755859 C -1044.60107421875 -118.8751525878906 -1045.751220703125 -116.4878387451172 -1047.270141601562 -114.2300491333008 C -1048.777709960938 -111.9891815185547 -1050.579833984375 -109.9778366088867 -1052.62646484375 -108.2518615722656 C -1054.763427734375 -106.4497299194336 -1057.08154296875 -105.0330963134766 -1059.516479492188 -104.0413131713867 C -1062.152221679688 -102.9676818847656 -1064.853759765625 -102.4231796264648 -1067.545776367188 -102.4228897094727 Z M -978.0645751953125 -154.7263336181641 C -980.7362060546875 -154.7262878417969 -983.2619018554688 -155.084228515625 -985.571533203125 -155.7902526855469 C -988.771728515625 -156.7685546875 -991.565673828125 -158.4636840820312 -993.8757934570312 -160.8285522460938 C -995.974609375 -162.9771575927734 -997.6104736328125 -165.6102905273438 -998.738037109375 -168.6548309326172 C -1000.810668945312 -174.2515258789062 -1000.973999023438 -180.8150177001953 -999.18603515625 -186.6624145507812 C -998.4750366210938 -188.9882049560547 -997.3675537109375 -191.1516265869141 -995.8942260742188 -193.0923614501953 C -994.4777221679688 -194.9583587646484 -992.7476196289062 -196.5873565673828 -990.751953125 -197.9341583251953 C -988.7980346679688 -199.2527008056641 -986.6304321289062 -200.2734985351562 -984.3092041015625 -200.9681549072266 C -981.9761962890625 -201.6663360595703 -979.5358276367188 -202.0203399658203 -977.0557250976562 -202.0203399658203 C -974.4390258789062 -202.0203399658203 -971.821533203125 -201.6256713867188 -969.2759399414062 -200.8472900390625 C -963.15478515625 -198.9760437011719 -957.6055297851562 -194.69677734375 -954.0513305664062 -189.1067504882812 C -952.2847290039062 -186.328369140625 -951.1033325195312 -183.3985137939453 -950.5399169921875 -180.398681640625 C -949.9324951171875 -177.16455078125 -950.080810546875 -174.0319213867188 -950.9807739257812 -171.0877838134766 C -951.7293701171875 -168.6395263671875 -953.1005859375 -166.3205261230469 -955.0562744140625 -164.1950225830078 C -956.826904296875 -162.2706756591797 -959.0234985351562 -160.5602264404297 -961.5850219726562 -159.1111755371094 C -964.0350952148438 -157.7252349853516 -966.7085571289062 -156.6388702392578 -969.5311889648438 -155.8822631835938 C -972.3923950195312 -155.1153106689453 -975.263427734375 -154.7264099121094 -978.0645751953125 -154.7263336181641 Z M -1035.323852539062 -159.6019134521484 C -1035.323974609375 -159.6019134521484 -1035.323974609375 -159.6019134521484 -1035.323974609375 -159.6019134521484 C -1038.592651367188 -159.6016998291016 -1042.169921875 -160.1884918212891 -1045.956176757812 -161.3459625244141 C -1049.169921875 -162.3286590576172 -1051.649047851562 -163.6619110107422 -1053.535400390625 -165.4220275878906 C -1055.390869140625 -167.1531829833984 -1056.632568359375 -169.2951507568359 -1057.226196289062 -171.7884368896484 C -1057.728271484375 -173.8968353271484 -1057.781005859375 -176.2673950195312 -1057.3876953125 -179.0355987548828 C -1057.081298828125 -181.1921234130859 -1056.503173828125 -183.6207122802734 -1055.568359375 -186.678466796875 C -1053.962036132812 -191.9320220947266 -1051.400512695312 -196.743408203125 -1048.355590820312 -200.2265167236328 C -1046.534545898438 -202.3097381591797 -1044.533569335938 -203.9449157714844 -1042.408325195312 -205.0866241455078 C -1039.987426757812 -206.3871765136719 -1037.4130859375 -207.046630859375 -1034.757080078125 -207.046630859375 C -1033.08251953125 -207.046630859375 -1031.36474609375 -206.7810211181641 -1029.651611328125 -206.2571716308594 C -1026.355590820312 -205.2496337890625 -1023.570434570312 -203.2756805419922 -1021.37353515625 -200.3902587890625 C -1019.500061035156 -197.9294738769531 -1018.108642578125 -194.8719482421875 -1017.238159179688 -191.3025970458984 C -1016.480651855469 -188.19677734375 -1016.141052246094 -184.7201232910156 -1016.256042480469 -181.2485198974609 C -1016.365600585938 -177.9395446777344 -1016.880676269531 -174.6954345703125 -1017.745544433594 -171.8669738769531 C -1019.003356933594 -167.7521514892578 -1021.284484863281 -164.5969085693359 -1024.525512695312 -162.4892120361328 C -1027.471069335938 -160.5735778808594 -1031.104248046875 -159.6021575927734 -1035.323974609375 -159.6019134521484 L -1035.323852539062 -159.6019134521484 Z M -1076.686401367188 -201.4559631347656 L -1076.686645507812 -201.4559631347656 L -1076.688598632812 -201.4559631347656 C -1078.143432617188 -201.4559631347656 -1079.652954101562 -201.6919708251953 -1081.175170898438 -202.1574096679688 C -1087.343017578125 -204.0428619384766 -1092.376586914062 -208.0118865966797 -1095.348510742188 -213.3333435058594 C -1096.7939453125 -215.9213562011719 -1097.693359375 -218.7103881835938 -1098.021850585938 -221.6229400634766 C -1098.358520507812 -224.6075134277344 -1098.079467773438 -227.5921783447266 -1097.1923828125 -230.4939880371094 C -1095.586059570312 -235.7475280761719 -1093.024658203125 -240.5588836669922 -1089.979858398438 -244.0419616699219 C -1088.15869140625 -246.1251525878906 -1086.157836914062 -247.7603149414062 -1084.032592773438 -248.9019927978516 C -1081.611694335938 -250.2025146484375 -1079.037475585938 -250.8619384765625 -1076.381469726562 -250.8619384765625 C -1074.707153320312 -250.8619384765625 -1072.989624023438 -250.596435546875 -1071.276733398438 -250.0728302001953 C -1068.157958984375 -249.1191864013672 -1065.449584960938 -247.7659606933594 -1063.226684570312 -246.0507049560547 C -1061.00146484375 -244.3336486816406 -1059.262573242188 -242.2586212158203 -1058.058349609375 -239.8833160400391 C -1055.75048828125 -235.3309936523438 -1055.482543945312 -229.8117065429688 -1057.283447265625 -223.9220733642578 C -1059.160522460938 -217.7816009521484 -1061.22900390625 -213.0823669433594 -1063.607299804688 -209.5561218261719 C -1065.244384765625 -207.1288146972656 -1067.06396484375 -205.2211456298828 -1069.015502929688 -203.8861236572266 C -1071.372192382812 -202.2740020751953 -1073.953125 -201.4563903808594 -1076.686401367188 -201.4559631347656 Z M -974.6697998046875 -248.5568389892578 C -976.1253662109375 -248.5567626953125 -977.6351928710938 -248.7926788330078 -979.1572875976562 -249.2579956054688 C -985.3253173828125 -251.1439971923828 -990.3588256835938 -255.1132354736328 -993.3307495117188 -260.4346008300781 C -994.7761840820312 -263.0226135253906 -995.6756591796875 -265.8116149902344 -996.0042114257812 -268.7240600585938 C -996.3408813476562 -271.7085266113281 -996.0618286132812 -274.6930236816406 -995.1748046875 -277.5946655273438 C -993.568359375 -282.8482360839844 -991.0068969726562 -287.6596069335938 -987.9620361328125 -291.1427001953125 C -986.1409301757812 -293.2259521484375 -984.1400146484375 -294.8611145019531 -982.0147705078125 -296.0028076171875 C -979.5938110351562 -297.3033752441406 -977.01953125 -297.9627990722656 -974.363525390625 -297.9627990722656 C -972.6889038085938 -297.9627990722656 -970.9711303710938 -297.6972045898438 -969.2579956054688 -297.1733703613281 C -966.1395874023438 -296.2200622558594 -963.43115234375 -294.8669738769531 -961.208251953125 -293.1516723632812 C -958.9830932617188 -291.4346618652344 -957.2443237304688 -289.359619140625 -956.0402221679688 -286.9842224121094 C -953.7326049804688 -282.4319458007812 -953.46484375 -276.9128112792969 -955.2657470703125 -271.0235290527344 C -957.14306640625 -264.8822631835938 -959.2116088867188 -260.1827697753906 -961.5895385742188 -256.6567687988281 C -963.2266845703125 -254.2292785644531 -965.0463256835938 -252.3215484619141 -966.9981079101562 -250.9865417480469 C -969.35498046875 -249.3744354248047 -971.9360961914062 -248.5569610595703 -974.6697998046875 -248.5568389892578 Z" stroke="none"/><path d="M -1067.546142578125 -105.4228820800781 C -1058.020141601562 -105.4238815307617 -1049.385498046875 -113.4880981445312 -1046.720703125 -122.2029113769531 C -1043.603149414062 -132.4016876220703 -1046.581176757812 -141.8687896728516 -1057.9130859375 -145.3337860107422 C -1069.244873046875 -148.7978973388672 -1083.149169921875 -140.2362060546875 -1086.267578125 -130.0373840332031 C -1089.38525390625 -119.8386001586914 -1083.795288085938 -109.6245040893555 -1072.46337890625 -106.1603775024414 C -1070.814575195312 -105.6563491821289 -1069.168334960938 -105.4226913452148 -1067.546142578125 -105.4228820800781 M -978.0646362304688 -157.726318359375 C -967.7978515625 -157.7265930175781 -956.3964233398438 -163.6359405517578 -953.8497314453125 -171.9647827148438 C -950.7321166992188 -182.1636047363281 -958.8213500976562 -194.5142822265625 -970.1531982421875 -197.9784088134766 C -981.4852294921875 -201.443359375 -993.1995239257812 -195.9840240478516 -996.317138671875 -185.7851867675781 C -999.4356079101562 -175.5864105224609 -996.0264282226562 -162.1233215332031 -984.6945190429688 -158.6591949462891 C -982.6168212890625 -158.0240631103516 -980.36962890625 -157.7262573242188 -978.0646362304688 -157.726318359375 M -1035.324096679688 -162.6019134521484 C -1028.326538085938 -162.6023254394531 -1022.790100097656 -165.6266937255859 -1020.614440917969 -172.7441864013672 C -1017.495910644531 -182.9430084228516 -1019.196899414062 -199.9242248535156 -1030.52880859375 -203.3883209228516 C -1041.859619140625 -206.8531341552734 -1049.580810546875 -196.0002593994141 -1052.699462890625 -185.8014068603516 C -1055.817016601562 -175.6035003662109 -1056.411010742188 -167.6799163818359 -1045.0791015625 -164.2149047851562 C -1041.655517578125 -163.1683197021484 -1038.353393554688 -162.6017608642578 -1035.324096679688 -162.6019134521484 M -1076.688598632812 -204.4559783935547 C -1076.688110351562 -204.4559783935547 -1076.6875 -204.4559783935547 -1076.686889648438 -204.4559783935547 C -1067.719482421875 -204.4573211669922 -1062.91943359375 -215.7471313476562 -1060.15234375 -224.7992858886719 C -1057.033813476562 -234.9980926513672 -1060.821899414062 -243.7389068603516 -1072.15380859375 -247.2039184570312 C -1083.484497070312 -250.6676940917969 -1091.204956054688 -239.81591796875 -1094.323486328125 -229.6170043945312 C -1097.441162109375 -219.4182281494141 -1091.6298828125 -208.4904174804688 -1080.297973632812 -205.0263214111328 C -1079.024536132812 -204.6369476318359 -1077.824096679688 -204.4559783935547 -1076.688598632812 -204.4559783935547 M -974.669921875 -251.5568542480469 C -965.7012939453125 -251.5572509765625 -960.9019165039062 -262.8479614257812 -958.1346435546875 -271.9008178710938 C -955.01611328125 -282.0986938476562 -958.8033447265625 -290.8403930664062 -970.13525390625 -294.3045043945312 C -981.4672241210938 -297.76953125 -989.1873168945312 -286.9164123535156 -992.3058471679688 -276.7176208496094 C -995.4234008789062 -266.5197143554688 -989.6121215820312 -255.5919189453125 -978.2802124023438 -252.1269073486328 C -977.0068969726562 -251.7376556396484 -975.8052368164062 -251.5567932128906 -974.669921875 -251.5568542480469 M -1067.547973632812 -99.42288208007812 C -1069.8037109375 -99.42288208007812 -1072.047607421875 -99.75918579101562 -1074.217407226562 -100.4225082397461 C -1088.4912109375 -104.7859115600586 -1096.138305664062 -118.2716293334961 -1092.005493164062 -131.7914123535156 C -1088.57861328125 -142.9988861083984 -1075.69873046875 -152.1165313720703 -1063.293701171875 -152.1165313720703 C -1060.827392578125 -152.1165313720703 -1058.427001953125 -151.7649993896484 -1056.159057617188 -151.0716552734375 C -1042.52734375 -146.9034729003906 -1036.570434570312 -134.8833770751953 -1040.982788085938 -120.4489440917969 C -1044.099365234375 -110.2567901611328 -1054.467895507812 -99.42425537109375 -1067.545532226562 -99.42288208007812 L -1067.54541015625 -99.42288208007812 C -1067.546264648438 -99.42288208007812 -1067.547119140625 -99.42288208007812 -1067.547973632812 -99.42288208007812 Z M -978.064453125 -151.726318359375 C -981.0335693359375 -151.7262268066406 -983.8543701171875 -152.1282806396484 -986.448486328125 -152.9212799072266 C -993.4744873046875 -155.0691070556641 -998.8380737304688 -160.2866973876953 -1001.55126953125 -167.6129455566406 C -1003.847595214844 -173.8134765625 -1004.031127929688 -181.0764770507812 -1002.054931640625 -187.5396270751953 C -998.8587646484375 -197.9951934814453 -988.8123779296875 -205.0203247070312 -977.0557250976562 -205.0203247070312 C -974.1415405273438 -205.0203247070312 -971.2289428710938 -204.58154296875 -968.3987426757812 -203.7161865234375 C -953.5256958007812 -199.1695098876953 -944.045654296875 -183.5127258300781 -948.11181640625 -170.2107849121094 C -951.6495971679688 -158.6406555175781 -966.1192626953125 -151.7266235351562 -978.064453125 -151.726318359375 Z M -1035.32373046875 -156.6019134521484 L -1035.323852539062 -156.6019134521484 C -1038.89013671875 -156.6017303466797 -1042.762451171875 -157.2326049804688 -1046.833129882812 -158.4770355224609 C -1065.574829101562 -164.207763671875 -1060.389404296875 -181.1699676513672 -1058.437377929688 -187.5555114746094 C -1055.112548828125 -198.4286041259766 -1047.145874023438 -210.046630859375 -1034.757080078125 -210.046630859375 C -1032.784790039062 -210.046630859375 -1030.77197265625 -209.7369079589844 -1028.774291992188 -209.1260681152344 C -1021.613220214844 -206.9369812011719 -1016.481018066406 -200.8595428466797 -1014.323547363281 -192.0134429931641 C -1012.691162109375 -185.3202819824219 -1012.89794921875 -177.4609680175781 -1014.876708984375 -170.9897308349609 C -1017.671447753906 -161.8468475341797 -1025.124145507812 -156.6025085449219 -1035.32373046875 -156.6019134521484 Z M -1076.68603515625 -198.4559783935547 L -1076.686889648438 -198.4559783935547 C -1078.4404296875 -198.4559783935547 -1080.24560546875 -198.7360992431641 -1082.052368164062 -199.2885437011719 C -1096.317138671875 -203.6492004394531 -1104.227783203125 -217.7415313720703 -1100.061401367188 -231.3710327148438 C -1096.73681640625 -242.2440338134766 -1088.770385742188 -253.8619689941406 -1076.381469726562 -253.8619689941406 C -1074.40966796875 -253.8619689941406 -1072.397094726562 -253.5523834228516 -1070.399780273438 -252.9417877197266 C -1056.440673828125 -248.6735076904297 -1050.166381835938 -236.9382934570312 -1054.41455078125 -223.0448455810547 C -1056.273315429688 -216.9640960693359 -1061.930297851562 -198.4581909179688 -1076.68603515625 -198.4559783935547 Z M -974.6695556640625 -245.5568542480469 C -974.6696166992188 -245.5568542480469 -974.6696166992188 -245.5568542480469 -974.6696166992188 -245.5568542480469 C -976.4226684570312 -245.5567626953125 -978.2276000976562 -245.8367309570312 -980.0342407226562 -246.3890380859375 C -994.2994384765625 -250.7509460449219 -1002.2099609375 -264.8432922363281 -998.0437622070312 -278.4717102050781 C -994.718994140625 -289.3448181152344 -986.7523193359375 -300.9628295898438 -974.363525390625 -300.9628295898438 C -972.3912963867188 -300.9628295898438 -970.37841796875 -300.6531066894531 -968.3807373046875 -300.0422668457031 C -961.3477783203125 -297.8922729492188 -956.155029296875 -293.8458862304688 -953.3643798828125 -288.3406372070312 C -950.6992797851562 -283.0831604003906 -950.36474609375 -276.7916259765625 -952.3969116210938 -270.1462097167969 C -954.2557983398438 -264.0650634765625 -959.9132080078125 -245.5575103759766 -974.6696166992188 -245.5568542480469 L -974.6695556640625 -245.5568542480469 Z" stroke="none" fill="#000"/></g><path d="M-1073.048-104.248a24.854,24.854,0,0,1-8.016-4.09,21.075,21.075,0,0,1-5.458-6.246,20.18,20.18,0,0,1-1.658-16.038,21.325,21.325,0,0,1,3.65-6.815,7.032,7.032,0,0,1-.132-1.362,7,7,0,0,1,7-7,6.975,6.975,0,0,1,2.777.573,27.567,27.567,0,0,1,7.881-2.588,21.271,21.271,0,0,1,9.675.568,21.633,21.633,0,0,1,7.671,4.024,16.6,16.6,0,0,1,4.594,6.132c1.915,4.406,2,9.756.256,15.473a26.391,26.391,0,0,1-4.052,7.9,27.839,27.839,0,0,1-6.522,6.305,21.525,21.525,0,0,1-12.159,3.984A18.788,18.788,0,0,1-1073.048-104.248Zm87.769-52.5a18.409,18.409,0,0,1-7.881-4.781A21.051,21.051,0,0,1-997.8-169a27.685,27.685,0,0,1-.429-17.368,19.479,19.479,0,0,1,3.572-6.677,6,6,0,0,1,5.994-5.752,6.027,6.027,0,0,1,1.207.122l.3-.14a23.648,23.648,0,0,1,8.443-2.146,25.358,25.358,0,0,1,9.149,1.074A27.133,27.133,0,0,1-954.9-188.57a23.736,23.736,0,0,1,3.373,8.356,18.358,18.358,0,0,1-.415,8.834,17.694,17.694,0,0,1-5.094,7.75,28.893,28.893,0,0,1-8.385,5.285,33.831,33.831,0,0,1-9.936,2.495q-1.393.126-2.736.126A24.547,24.547,0,0,1-985.28-156.747Zm-51.758-3.91a37.688,37.688,0,0,1-8.627-1.646,17.988,17.988,0,0,1-7.189-3.851,11.534,11.534,0,0,1-3.4-5.866c-1.061-4.457.235-9.764,1.642-14.367a38.551,38.551,0,0,1,5.163-10.821,7.463,7.463,0,0,1-1.214-4.092,7.5,7.5,0,0,1,7.5-7.5,7.488,7.488,0,0,1,5.965,2.953,15.742,15.742,0,0,1,7.253.545,15.254,15.254,0,0,1,7.775,5.516,23.443,23.443,0,0,1,3.96,8.719,36.794,36.794,0,0,1,.954,9.784,35.752,35.752,0,0,1-1.446,9.122,16.436,16.436,0,0,1-4.046,6.954,15.161,15.161,0,0,1-6.446,3.765,21.361,21.361,0,0,1-6.132.838Q-1036.167-160.6-1037.038-160.656Zm-43.845-42.457a23.1,23.1,0,0,1-13.593-10.707,20.96,20.96,0,0,1-2.552-7.914,20.815,20.815,0,0,1,.792-8.466c1.85-6.054,4.883-11.3,8.539-14.782,4.716-4.488,10.293-5.917,16.128-4.134a24.123,24.123,0,0,1,7.732,3.857,17.169,17.169,0,0,1,4.817,5.692,5.99,5.99,0,0,1,2.357,4.768,5.981,5.981,0,0,1-.472,2.337,23.849,23.849,0,0,1-1.1,8.248c-2.135,6.984-4.534,12.108-7.334,15.663a16.267,16.267,0,0,1-6.474,5.181,12.1,12.1,0,0,1-4.639.914A14.32,14.32,0,0,1-1080.883-203.114Zm102.018-47.1a23.1,23.1,0,0,1-13.593-10.707,20.969,20.969,0,0,1-2.552-7.915,20.813,20.813,0,0,1,.792-8.466,39.8,39.8,0,0,1,4.095-9.2,7.479,7.479,0,0,1-.54-2.8,7.5,7.5,0,0,1,7.5-7.5,7.468,7.468,0,0,1,3.445.836,15.277,15.277,0,0,1,10.167-.254,24.124,24.124,0,0,1,7.732,3.857,17.139,17.139,0,0,1,4.887,5.828c2.189,4.317,2.435,9.579.711,15.216-2.136,6.985-4.535,12.109-7.335,15.663a16.278,16.278,0,0,1-6.474,5.182,12.11,12.11,0,0,1-4.639.914A14.333,14.333,0,0,1-978.865-250.214Z" transform="translate(1120.663 317.8)" fill="#f4b84b" stroke="#f4b84b" stroke-width="4"/><path d="M21.456,0c11.85,0,23.2,9.446,23.2,20.11S30.9,41.853,19.045,41.853,0,29.975,0,19.31,9.606,0,21.456,0Z" transform="translate(129.992 113.548) rotate(17)" fill="url(#a)"/><path d="M22.643,0c11.85,0,17.466,8.183,17.466,18.848S32.031,41.716,20.182,41.716,0,33.582,0,22.918,10.793,0,22.643,0Z" transform="translate(41.096 165.846) rotate(17)" fill="url(#a)"/><path d="M16.059,0C27.909,0,34.5,15.742,34.5,26.407S25.448,41.716,13.6,41.716,0,33.965,0,23.3,4.21,0,16.059,0Z" transform="translate(74.776 109.716) rotate(17)" fill="url(#a)"/><path d="M16.059,0c11.85,0,18.027,7.252,18.027,17.916s-1.635,24.8-13.485,24.8S0,33.965,0,23.3,4.21,0,16.059,0Z" transform="translate(33.152 65.901) rotate(17)" fill="url(#a)"/><path d="M16.059,0c11.85,0,18.027,7.252,18.027,17.916s-1.635,24.8-13.485,24.8S0,33.965,0,23.3,4.21,0,16.059,0Z" transform="translate(135.17 18.8) rotate(17)" fill="url(#a)"/><circle cx="7.5" cy="7.5" r="7.5" transform="translate(70 109)" fill="url(#f)"/><circle cx="6" cy="6" r="6" transform="translate(76 112)" fill="url(#f)"/><circle cx="6" cy="6" r="6" transform="translate(52 77)" fill="url(#f)"/><circle cx="7" cy="7" r="7" transform="translate(36 172)" fill="url(#f)"/><circle cx="8" cy="8" r="8" transform="translate(38 178)" fill="url(#f)"/><circle cx="6" cy="6" r="6" transform="translate(126 119)" fill="url(#f)"/><circle cx="7.5" cy="7.5" r="7.5" transform="translate(123 124)" fill="url(#f)"/><circle cx="7.5" cy="7.5" r="7.5" transform="translate(130 21)" fill="url(#f)"/></g></svg>