<svg xmlns="http://www.w3.org/2000/svg" xmlns:xlink="http://www.w3.org/1999/xlink" width="190" height="248" viewBox="0 0 190 248"><defs><linearGradient id="a" x1="0.332" y1="0.423" x2="0.634" y2="0.419" gradientUnits="objectBoundingBox"><stop offset="0" stop-color="#9f3600"/><stop offset="1" stop-color="#501b00"/></linearGradient><linearGradient id="b" x1="0.964" y1="0.553" x2="0" y2="0.548" gradientUnits="objectBoundingBox"><stop offset="0" stop-color="#ffa150"/><stop offset="0.494" stop-color="#fa7600"/><stop offset="0.522" stop-color="#ff7800"/><stop offset="0.527" stop-color="#d46400"/><stop offset="1" stop-color="#924500"/></linearGradient><clipPath id="d"><rect width="190" height="248"/></clipPath></defs><g id="c" clip-path="url(#d)"><rect width="190" height="248" fill="rgba(255,255,255,0)"/><g transform="translate(-220 -297.846)" stroke-linecap="round"><path d="M 263.4114990234375 467.7655944824219 L 261.9066467285156 466.5993347167969 L 228.7833251953125 440.9287719726562 L 225.5107574462891 438.3925170898438 L 228.9401092529297 436.0726623535156 L 257.0949096679688 417.0267639160156 L 257.8564453125 416.5116271972656 L 258.7758483886719 416.5116271972656 L 274.1561279296875 416.5116271972656 L 240.0631103515625 381.4407043457031 L 239.3344421386719 380.691162109375 L 239.2293853759766 379.6510925292969 L 235.0889587402344 338.6610412597656 L 234.5962066650391 333.7826232910156 L 239.1641082763672 335.564697265625 L 264.834716796875 345.5794677734375 L 265.5466613769531 345.8572082519531 L 266.0389404296875 346.4416809082031 L 279.2579040527344 362.13671875 L 281.6046752929688 346.1787719726562 L 281.6046752929688 332.9769897460938 L 281.6046752929688 331.4945983886719 L 282.7821655273438 330.5940551757812 L 305.5675964355469 313.1676025390625 L 307.4478454589844 311.7295532226562 L 309.2837829589844 313.2237548828125 L 330.6957702636719 330.6502075195312 L 331.8020935058594 331.5505981445312 L 331.8020935058594 332.9769897460938 L 331.8020935058594 347.7763977050781 L 338.0897827148438 362.92578125 L 354.3430480957031 346.2785339355469 L 354.674072265625 345.9395141601562 L 355.0934143066406 345.718994140625 L 374.1393127441406 335.7042541503906 L 378.5355224609375 333.3926086425781 L 378.5355224609375 338.3595275878906 L 378.5355224609375 377.2794189453125 L 378.5355224609375 378.4410400390625 L 377.7532348632812 379.2997741699219 L 344.500732421875 415.8001403808594 L 363.2479553222656 414.0404968261719 L 363.9270935058594 413.9767761230469 L 364.5669860839844 414.2129211425781 L 399.3464660644531 427.0482177734375 L 404.624267578125 428.9959716796875 L 400.066162109375 432.2933349609375 L 361.1462707519531 460.4481506347656 L 359.9334106445312 461.3255615234375 L 358.5030517578125 460.8840026855469 L 307.6686096191406 445.1920166015625 L 265.1074523925781 466.9005432128906 L 263.4114990234375 467.7655944824219 Z" stroke="none"/><path d="M 307.3900756835938 315.550537109375 L 284.6046752929688 332.9769897460938 L 284.6046752929688 346.3981323242188 L 281.2563781738281 369.16650390625 L 263.7443542480469 348.3742980957031 L 238.0737915039062 338.3595275878906 L 242.2142028808594 379.349609375 L 281.2563781738281 419.5116271972656 L 258.7758483886719 419.5116271972656 L 230.6210327148438 438.5575256347656 L 263.7443542480469 464.2280883789062 L 307.3900756835938 441.9663696289062 L 359.3879089355469 458.0174865722656 L 398.3078002929688 429.8626708984375 L 363.5283203125 417.0273742675781 L 337.0612182617188 419.5116271972656 L 375.5355224609375 377.2794189453125 L 375.5355224609375 338.3595275878906 L 356.4896240234375 348.3742980957031 L 337.0612182617188 368.2736206054688 L 328.8020935058594 348.3742980957031 L 328.8020935058594 332.9769897460938 L 307.3900756835938 315.550537109375 M 307.5055847167969 307.9085693359375 L 334.8020935058594 330.1241760253906 L 334.8020935058594 347.1786193847656 L 339.1182861328125 357.5779724121094 L 352.8584594726562 343.5046997070312 L 381.5355224609375 328.4256896972656 L 381.5355224609375 379.6026916503906 L 351.9402160644531 412.0886840820312 L 364.3258361816406 410.9261474609375 L 410.9407958984375 428.1292724609375 L 360.4788818359375 464.6336059570312 L 307.9470825195312 448.4176635742188 L 263.0785827636719 471.3030700683594 L 220.4004821777344 438.2275695800781 L 256.9370422363281 413.5116271972656 L 267.0558471679688 413.5116271972656 L 236.4546813964844 382.0327453613281 L 231.1186218261719 329.2057189941406 L 267.3489074707031 343.340087890625 L 277.2594299316406 355.10693359375 L 278.6684875488281 345.525146484375 L 278.6046752929688 330.0121765136719 L 307.5055847167969 307.9085693359375 Z" stroke="none" fill="#000"/></g><path d="M303.567,445.835s3.952,32.41,3.233,55.561.719,45.374,0,84.267-9.7,39.819-3.233,44.448,13.292,2.778,14.729,0,1.078-2.778-2.515-22.224-6.107-32.41-5.748-68.525-1.437-67.6,0-75.933,3.233-8.334,0-17.594S303.567,445.835,303.567,445.835Z" transform="translate(-220 -416.03)" stroke="#3e1500" stroke-width="4" fill="url(#a)"/><g transform="translate(-220 -297.846)" stroke-linecap="round" fill="url(#b)"><path d="M 263.5224304199219 466.5863952636719 L 262.5192260742188 465.8089294433594 L 229.3958892822266 440.1383666992188 L 227.2141723632812 438.447509765625 L 229.5004119873047 436.9009399414062 L 257.6552429199219 417.8550720214844 L 258.1629028320312 417.5116271972656 L 258.7758483886719 417.5116271972656 L 276.5228881835938 417.5116271972656 L 240.7801513671875 380.7436828613281 L 240.2943725585938 380.2439880371094 L 240.2243499755859 379.5505981445312 L 236.0839233398438 338.560546875 L 235.7553863525391 335.3082580566406 L 238.8006591796875 336.4963073730469 L 264.4712219238281 346.5110778808594 L 264.9458618164062 346.6962280273438 L 265.2740783691406 347.0859069824219 L 279.9240417480469 364.47998046875 L 282.6046752929688 346.2518005371094 L 282.6046752929688 332.9769897460938 L 282.6046752929688 331.9887084960938 L 283.3896789550781 331.3883666992188 L 306.1750793457031 313.9619140625 L 307.4285888671875 313.0032348632812 L 308.6525268554688 313.9993591308594 L 330.0645446777344 331.4258117675781 L 330.8020935058594 332.0260620117188 L 330.8020935058594 332.9769897460938 L 330.8020935058594 347.9757385253906 L 337.7468872070312 364.7084045410156 L 355.0585632324219 346.9771118164062 L 355.2792358398438 346.7510986328125 L 355.5588073730469 346.6040954589844 L 374.6047058105469 336.5893249511719 L 377.5355224609375 335.0482788085938 L 377.5355224609375 338.3595275878906 L 377.5355224609375 377.2794189453125 L 377.5355224609375 378.0538635253906 L 377.0139770507812 378.6263427734375 L 342.0208740234375 417.0373229980469 L 363.3414306640625 415.0361328125 L 363.7941589355469 414.9936218261719 L 364.2207946777344 415.1510925292969 L 399.000244140625 427.9863891601562 L 402.5187683105469 429.2848815917969 L 399.4800415039062 431.4831237792969 L 360.5601806640625 459.637939453125 L 359.7515869140625 460.2228698730469 L 358.7980041503906 459.9285278320312 L 307.5757446289062 444.1168212890625 L 264.653076171875 466.0097351074219 L 263.5224304199219 466.5863952636719 Z" stroke="none"/><path d="M 307.3900756835938 315.550537109375 L 284.6046752929688 332.9769897460938 L 284.6046752929688 346.3981323242188 L 281.2563781738281 369.16650390625 L 263.7443542480469 348.3742980957031 L 238.0737915039062 338.3595275878906 L 242.2142028808594 379.349609375 L 281.2563781738281 419.5116271972656 L 258.7758483886719 419.5116271972656 L 230.6210327148438 438.5575256347656 L 263.7443542480469 464.2280883789062 L 307.3900756835938 441.9663696289062 L 359.3879089355469 458.0174865722656 L 398.3078002929688 429.8626708984375 L 363.5283203125 417.0273742675781 L 337.0612182617188 419.5116271972656 L 375.5355224609375 377.2794189453125 L 375.5355224609375 338.3595275878906 L 356.4896240234375 348.3742980957031 L 337.0612182617188 368.2736206054688 L 328.8020935058594 348.3742980957031 L 328.8020935058594 332.9769897460938 L 307.3900756835938 315.550537109375 M 307.4670715332031 310.4559020996094 L 332.8020935058594 331.0751037597656 L 332.8020935058594 347.5771789550781 L 338.4325866699219 361.1431579589844 L 354.06884765625 345.1278991699219 L 379.5355224609375 331.7369995117188 L 379.5355224609375 378.8282775878906 L 346.9805297851562 414.56298828125 L 364.0599975585938 412.9598999023438 L 406.7297668457031 428.7070617675781 L 360.115234375 462.42822265625 L 307.7613830566406 446.2672424316406 L 263.3005065917969 468.9447326660156 L 223.8073425292969 438.3375244140625 L 257.5499572753906 415.5116271972656 L 271.7893676757812 415.5116271972656 L 238.37451171875 381.1383666992188 L 233.43701171875 332.2569885253906 L 266.1473999023438 345.0181579589844 L 278.5917358398438 359.7934875488281 L 280.6046752929688 346.1056823730469 L 280.6046752929688 331.0004577636719 L 307.4670715332031 310.4559020996094 Z" stroke="none" fill="#f70"/></g></g></svg>