<svg xmlns="http://www.w3.org/2000/svg" xmlns:xlink="http://www.w3.org/1999/xlink" width="190" height="248" viewBox="0 0 190 248"><defs><radialGradient id="a" cx="0.568" cy="0.472" r="0.733" gradientTransform="translate(0.103 1.046) rotate(-90.694)" gradientUnits="objectBoundingBox"><stop offset="0" stop-color="#ceffff"/><stop offset="1" stop-color="#005855"/></radialGradient><linearGradient id="b" x1="0.5" y1="0" x2="0.5" y2="1" gradientTransform="matrix(1, 0, 0, 1, 0, 0)" xlink:href="#a"/><clipPath id="d"><rect width="190" height="248"/></clipPath></defs><g id="c" clip-path="url(#d)"><rect width="190" height="248" fill="rgba(255,255,255,0)"/><g transform="matrix(0.848, 0.53, -0.53, 0.848, 71.229, -40.868)"><path d="M58.6,246.9c-2.791,0-5.427,0-7.511-1.53-2.175-1.6-3.682-4.737-4.885-10.183-1.359-6.153-.654-9.963.322-15.238a94.768,94.768,0,0,0,1.879-19.2,293.33,293.33,0,0,0-2.05-34.085,48.48,48.48,0,0,1-18.395-10.411,71.313,71.313,0,0,1-14.694-18.443A98.535,98.535,0,0,1,3.525,113.17,118.805,118.805,0,0,1,0,84.154,117.466,117.466,0,0,1,4.538,51.4,92.847,92.847,0,0,1,16.915,24.648,62.037,62.037,0,0,1,35.272,6.613a41.515,41.515,0,0,1,44.96,0A62.039,62.039,0,0,1,98.59,24.648,92.849,92.849,0,0,1,110.967,51.4,117.466,117.466,0,0,1,115.5,84.154a118.935,118.935,0,0,1-3.427,28.623,99.108,99.108,0,0,1-9.479,24.4,72.318,72.318,0,0,1-14.328,18.431A49.341,49.341,0,0,1,70.3,166.317a289.324,289.324,0,0,0-2.093,34.41A97.389,97.389,0,0,0,70.043,220c.95,5.259,1.636,9.058.361,15.188-1.14,5.479-2.539,8.62-4.535,10.185C63.919,246.9,61.453,246.9,58.6,246.9ZM37.952,77c-5.142,0-9.977,2.975-13.613,8.377S18.7,97.965,18.7,105.6s2,14.822,5.639,20.224,8.471,8.377,13.613,8.377,9.976-2.975,13.612-8.377S57.2,113.244,57.2,105.6s-2-14.822-5.638-20.224S43.094,77,37.952,77ZM79.2,35.2c-4.114,0-7.981,2.174-10.89,6.122A25,25,0,0,0,63.8,56.1a25,25,0,0,0,4.511,14.779C71.222,74.829,75.089,77,79.2,77s7.981-2.174,10.89-6.121A25,25,0,0,0,94.6,56.1a25,25,0,0,0-4.511-14.779C87.184,37.375,83.316,35.2,79.2,35.2Z" transform="translate(43.001 8)" stroke="#003b39" stroke-width="4" fill="url(#a)"/><path d="M-.056,0A62.08,62.08,0,0,0,9.713.855,77.144,77.144,0,0,0,20.148,0a335.66,335.66,0,0,0-1.837,34.916c0,19.212,3.842,22.718,1.837,34.16s-4.805,11.61-9.856,11.61-8.22-.174-10.347-11.61S1.781,54.155,1.781,34.943A336.54,336.54,0,0,0-.056,0Z" transform="translate(91.138 172.866)" fill="url(#b)"/></g></g></svg>