<svg xmlns="http://www.w3.org/2000/svg" xmlns:xlink="http://www.w3.org/1999/xlink" width="190" height="248" viewBox="0 0 190 248"><defs><radialGradient id="a" cx="0.351" cy="0.275" r="0.751" gradientTransform="translate(-0.011 0.015) rotate(-2.344)" gradientUnits="objectBoundingBox"><stop offset="0" stop-color="#f8f8f8"/><stop offset="1" stop-color="#7c7c7c"/></radialGradient><radialGradient id="c" cx="0.37" cy="0.35" r="0.775" gradientTransform="matrix(0.68, -0.734, 0.67, 0.621, -0.116, 0.404)" xlink:href="#a"/><radialGradient id="e" cx="0.63" cy="0.35" r="0.775" gradientTransform="matrix(-0.68, -0.734, -0.67, 0.621, 1.292, 0.595)" xlink:href="#a"/><radialGradient id="g" cx="0.37" cy="0.35" r="0.775" gradientTransform="matrix(0.68, -0.734, 0.67, 0.621, -0.116, 0.404)" xlink:href="#a"/><clipPath id="k"><rect width="190" height="248"/></clipPath></defs><g id="j" clip-path="url(#k)"><rect width="190" height="248" fill="rgba(255,255,255,0)"/><g transform="translate(0 -22.804)"><g transform="translate(13.374 66)"><path d="M 77.320556640625 163.1116180419922 C 73.47547912597656 163.1116180419922 69.76500701904297 162.4868316650391 66.29219818115234 161.254638671875 C 62.8974609375 160.0501098632812 59.79571914672852 158.2904663085938 57.07317352294922 156.0245666503906 C 54.36279296875 153.7687835693359 52.09484100341797 151.0672302246094 50.33229064941406 147.9949493408203 C 48.96129608154297 145.6051483154297 47.92105484008789 143.0330657958984 47.22688293457031 140.3215637207031 C 43.74954223632812 140.2644958496094 40.20204925537109 139.8102569580078 36.6700553894043 138.9690856933594 C 32.7535285949707 138.036376953125 28.93314933776855 136.6446380615234 25.31500625610352 134.8325347900391 C 21.49203109741211 132.9178466796875 17.93155479431152 130.5500183105469 14.73243522644043 127.7948303222656 C 11.3176736831665 124.8539199829102 8.314173698425293 121.4688262939453 5.805387496948242 117.7335891723633 C 3.529673337936401 114.3453521728516 1.659268617630005 110.5821380615234 0.2461257129907608 106.5485153198242 C -0.9183504581451416 103.2246627807617 -1.783874273300171 99.68716430664062 -2.326421976089478 96.03427886962891 C -3.244787454605103 89.85100555419922 -3.011947870254517 84.82559967041016 -2.835091114044189 82.67901611328125 C -2.845906019210815 82.53929901123047 -2.851350545883179 82.39957427978516 -2.851350545883179 82.26078033447266 C -2.851350545883179 80.60327911376953 -2.064779043197632 77.50087738037109 3.203220844268799 75.34575653076172 C 6.257768630981445 74.09613800048828 10.25424480438232 73.40794372558594 14.45648288726807 73.40794372558594 C 18.6582202911377 73.40794372558594 22.65436363220215 74.09613800048828 25.70876884460449 75.34577941894531 C 30.97657775878906 77.50094604492188 31.76312637329102 80.60330200195312 31.76312637329102 82.26078033447266 C 31.76312637329102 83.24394226074219 31.49350547790527 84.64253234863281 30.31606292724609 86.05974578857422 C 29.47676658630371 89.49706268310547 28.03923416137695 95.30988311767578 26.6941967010498 100.3914260864258 C 26.63404083251953 100.6186065673828 26.63261604309082 100.9618530273438 26.73257255554199 101.4169692993164 C 27.15156936645508 99.63822174072266 27.66724586486816 98.03765869140625 28.2777214050293 96.62428283691406 C 29.24388694763184 94.38739776611328 30.46591186523438 92.6092529296875 31.90983963012695 91.3392333984375 C 33.71533966064453 89.75122833251953 35.83212661743164 88.946044921875 38.20141220092773 88.946044921875 C 38.60012435913086 88.946044921875 39.00324630737305 88.94496917724609 39.40938949584961 88.94392395019531 C 39.82700729370117 88.94280242919922 40.24776840209961 88.94171142578125 40.67021942138672 88.94171142578125 C 42.17013549804688 88.94171142578125 43.69606399536133 88.95510101318359 45.19892120361328 89.03121948242188 C 43.67185974121094 87.37009429931641 41.98173141479492 86.19754791259766 40.06479263305664 85.44818115234375 C 38.48193359375 84.82949066162109 37.13465118408203 84.00096893310547 36.06045913696289 82.98566436767578 C 34.99726867675781 81.98073577880859 34.19533920288086 80.79158782958984 33.67693710327148 79.45125579833984 C 32.34903335571289 76.0179443359375 33.11720657348633 72.3194580078125 34.28535079956055 69.38869476318359 C 32.8402099609375 67.51546478271484 31.48795127868652 65.37595367431641 30.25217247009277 63.0054931640625 C 28.60481643676758 59.84556579589844 27.15300750732422 56.25156402587891 25.93707847595215 52.32332611083984 C 23.94210243225098 45.878662109375 22.59803009033203 38.36389923095703 21.94219779968262 29.9878978729248 C 21.43902587890625 23.56157302856445 21.46939277648926 18.1512508392334 21.54758834838867 15.22729778289795 C 21.36663818359375 14.56039714813232 21.27517318725586 13.8757381439209 21.27517318725586 13.1845178604126 C 21.27517318725586 11.88287448883057 21.59243583679199 10.62794589996338 22.21812629699707 9.454612731933594 C 22.79126930236816 8.379851341247559 23.59610176086426 7.427065372467041 24.61026763916016 6.622660636901855 C 26.55667304992676 5.078851222991943 29.10448265075684 4.228636741638184 31.78436470031738 4.228636741638184 C 34.46379089355469 4.228636741638184 37.01129150390625 5.078875064849854 38.95755386352539 6.622756004333496 C 39.97162628173828 7.427160739898682 40.77638626098633 8.379946708679199 41.34946060180664 9.454660415649414 C 41.97512435913086 10.62801742553711 42.29236221313477 11.88292217254639 42.29236221313477 13.1845178604126 C 42.29236221313477 14.06767654418945 42.14407730102539 14.93544769287109 41.85098648071289 15.77065849304199 C 41.4008674621582 19.79161071777344 40.57570266723633 27.07431602478027 39.815673828125 33.31235122680664 C 39.47695922851562 36.08832550048828 40.77636337280273 40.75530242919922 43.20676803588867 45.4925422668457 C 44.31112670898438 47.64511108398438 45.5853157043457 49.66070938110352 46.79465103149414 51.1680908203125 C 47.4539680480957 51.98990249633789 47.97979354858398 52.52449417114258 48.370361328125 52.86907958984375 C 51.53410720825195 46.87555313110352 58.96183013916016 28.03434753417969 61.65822219848633 20.80839920043945 C 62.73583984375 17.92051696777344 65.32136535644531 14.20377922058105 68.57448577880859 10.86616039276123 C 70.08119964599609 9.320280075073242 71.60438537597656 7.995279788970947 72.97931671142578 7.034398555755615 C 74.8406982421875 5.733565330505371 76.42798614501953 5.101232051849365 77.83184051513672 5.101232051849365 C 78.10500335693359 5.101232051849365 78.37519836425781 5.125017642974854 78.63493347167969 5.171969890594482 C 79.68157958984375 5.36111307144165 80.79353332519531 5.989660739898682 82.03417205810547 7.093517780303955 C 82.99698638916016 7.950208187103271 83.98407745361328 9.046184539794922 84.88869476318359 10.26294612884521 C 85.90214538574219 11.62608051300049 87.47879028320312 14.05426120758057 88.28237152099609 16.8731746673584 C 92.01332855224609 12.36626052856445 95.87026977539062 8.499238967895508 99.53257751464844 5.602993965148926 C 104.5692672729492 1.619851112365723 109.0718154907227 -0.3997679948806763 112.9151229858398 -0.3997679948806763 C 115.7420806884766 -0.3997679948806763 118.6721725463867 -0.9842917919158936 121.7743148803711 -1.603148937225342 C 125.2167663574219 -2.289886951446533 128.7764282226562 -3.000005960464478 132.5918579101562 -3.000005960464478 C 137.3840026855469 -3.000005960464478 141.7271270751953 -1.840553641319275 145.8694152832031 0.5446367859840393 C 150.7131958007812 3.333755731582642 155.3109893798828 7.789779663085938 159.9254608154297 14.16735076904297 C 161.9357757568359 16.94580268859863 163.2776489257812 19.85801696777344 163.9138946533203 22.82311248779297 C 164.5193634033203 25.64487457275391 164.4942016601562 28.54356575012207 163.8390502929688 31.43861389160156 C 162.6335601806641 36.76582717895508 159.3220520019531 42.07980346679688 153.99658203125 47.23294448852539 C 150.7255096435547 50.39814758300781 146.6830596923828 53.49135589599609 142.1355895996094 56.32201766967773 C 143.3983306884766 57.21699142456055 144.4125213623047 58.49932098388672 145.0077514648438 59.3569450378418 C 146.5063934326172 61.51630401611328 147.4612274169922 63.98735046386719 147.6963195800781 66.31489562988281 C 147.9248809814453 68.57761383056641 147.5022277832031 70.65830230712891 146.4400787353516 72.49911499023438 C 145.4808502197266 74.16155242919922 144.0334014892578 75.55159759521484 142.1261596679688 76.64503479003906 C 142.8871002197266 80.5987548828125 142.7328948974609 84.48109436035156 141.6629180908203 88.21827697753906 C 139.3923187255859 96.14720916748047 136.3734893798828 101.7128753662109 132.4338684082031 105.2335433959961 C 129.0991058349609 108.2136611938477 125.1977233886719 109.6627349853516 120.5067672729492 109.6635665893555 C 118.1351699829102 109.6635665893555 115.899055480957 109.2955169677734 114.0243911743164 108.9354934692383 C 113.1433410644531 108.7659912109375 112.2302703857422 108.6065902709961 111.2636032104492 108.4378280639648 C 108.4669189453125 107.9495391845703 105.3994903564453 107.4139785766602 102.3522415161133 106.4870376586914 C 101.8683471679688 108.7311477661133 101.330696105957 110.8884811401367 100.745719909668 112.9313735961914 C 100.5544738769531 113.599250793457 100.3562927246094 114.2639007568359 100.1533966064453 114.918083190918 C 102.1470108032227 119.1856155395508 103.0810317993164 124.6777267456055 103.0810317993164 132.0472869873047 C 103.0810317993164 136.3995666503906 102.6133880615234 140.4114227294922 101.6910781860352 143.9714660644531 C 100.6980285644531 147.8045959472656 99.17041015625 151.1412963867188 97.15065002441406 153.8889465332031 C 94.9693603515625 156.8563537597656 92.21117401123047 159.1471557617188 88.95269775390625 160.6977386474609 C 85.58672332763672 162.2994689941406 81.67310333251953 163.1116180419922 77.320556640625 163.1116180419922 Z M 117.4312744140625 81.46845245361328 C 117.8482284545898 81.84739685058594 118.2509613037109 82.24494171142578 118.6272659301758 82.65897369384766 C 119.516242980957 83.63709259033203 120.1855545043945 84.63059234619141 120.6166229248047 85.61190032958984 C 121.1904602050781 86.91828155517578 121.3612670898438 88.21844482421875 121.1243133544922 89.47630310058594 C 120.9283447265625 90.51654815673828 120.3672866821289 91.89989471435547 118.8884201049805 93.18320465087891 C 120.8355560302734 92.99018096923828 122.7153778076172 92.49892425537109 123.4968643188477 91.38868713378906 C 124.3007202148438 90.24663543701172 124.3001937866211 88.16942596435547 124.2996520996094 85.97025299072266 C 124.2992477416992 84.36170959472656 124.2988128662109 82.69837188720703 124.5866241455078 81.01530456542969 C 124.9079742431641 79.13629913330078 124.5559005737305 77.89244842529297 123.4942016601562 76.52596282958984 C 122.3291702270508 77.91392517089844 121.0017395019531 79.13285064697266 119.5234146118164 80.1700439453125 C 118.8614349365234 80.63448333740234 118.1655502319336 81.06657409667969 117.4312744140625 81.46845245361328 Z M 59.50935363769531 71.44512939453125 C 60.61632919311523 73.22796630859375 61.45657730102539 74.91934204101562 61.96940994262695 76.40573120117188 C 62.50730514526367 77.96393585205078 63.52902984619141 80.85726165771484 64.81689453125 84.42300415039062 C 65.23027801513672 83.70716094970703 65.70819091796875 83.0098876953125 66.24448394775391 82.34477996826172 C 66.95265960693359 81.46649169921875 68.70790863037109 79.50364685058594 70.76434326171875 78.77540588378906 C 73.79109954833984 76.77680969238281 77.0216064453125 75.76418304443359 80.37431335449219 75.76418304443359 C 81.07511901855469 75.76418304443359 81.78086090087891 75.80703735351562 82.49411010742188 75.89335632324219 C 80.98674774169922 72.914306640625 79.70504760742188 69.27597045898438 78.61865234375 64.90918731689453 C 78.19514465332031 63.20653533935547 77.93758392333984 61.45956039428711 77.84934234619141 59.69707489013672 C 76.30704498291016 58.52293014526367 75.06140899658203 57.21016311645508 74.13545989990234 55.78080368041992 C 72.78636169433594 53.69820785522461 72.10231781005859 51.36771011352539 72.10231781005859 48.85401916503906 C 72.10231781005859 45.16244506835938 73.56900787353516 40.38701629638672 76.461669921875 34.66037368774414 C 77.00032043457031 33.59400177001953 77.58596038818359 32.5039176940918 78.21218872070312 31.40009689331055 C 74.55857086181641 34.51176834106445 72.5933837890625 39.60769653320312 70.54109954833984 44.92999267578125 C 69.29800415039062 48.15370941162109 68.01262664794922 51.4871826171875 66.30534362792969 54.30944442749023 C 64.60886383056641 57.11359024047852 63.4727668762207 60.57232666015625 62.37407684326172 63.91718292236328 C 61.48609924316406 66.62049102783203 60.63682174682617 69.20592498779297 59.50935363769531 71.44512939453125 Z M 105.7990264892578 67.17144775390625 C 105.7990570068359 67.18184661865234 105.7990798950195 67.19221496582031 105.7990798950195 67.20261383056641 C 105.7990798950195 67.63285064697266 105.7684478759766 68.06149291992188 105.7075576782227 68.48630523681641 C 106.3376159667969 68.12367248535156 106.9783325195312 67.71145629882812 107.6265563964844 67.26222991943359 C 107.0142822265625 67.23634338378906 106.4045486450195 67.2060546875 105.7990264892578 67.17144775390625 Z" stroke="none"/><path d="M 77.320556640625 160.1116027832031 C 93.40763854980469 160.1116027832031 100.0810241699219 148.1343841552734 100.0810241699219 132.0472717285156 C 100.0810241699219 125.0828552246094 99.21330261230469 119.39013671875 96.92441558837891 115.1741104125977 C 97.2471923828125 114.1821365356445 97.55982971191406 113.159553527832 97.86164093017578 112.1055221557617 C 98.76477813720703 108.9515838623047 99.49805450439453 105.7117462158203 100.0918579101562 102.4874114990234 C 104.8710784912109 104.5210800170898 110.1532745361328 105.1358337402344 114.5901947021484 105.9893341064453 C 116.4736404418945 106.3510284423828 118.4729690551758 106.6635818481445 120.5062484741211 106.6635818481445 C 127.1773071289062 106.6623840332031 134.2205810546875 103.3098831176758 138.7787780761719 87.39255523681641 C 140.0071868896484 83.10205078125 139.7774505615234 78.91194152832031 138.6391906738281 74.96280670166016 C 138.9141998291016 74.86785888671875 139.1968078613281 74.75569152832031 139.4869689941406 74.62516784667969 C 149.8207244873047 69.97569274902344 142.2424774169922 58.93374633789062 139.4869689941406 58.31335830688477 C 138.3741149902344 57.42358016967773 137.2699432373047 56.7726936340332 136.1715850830078 56.32730484008789 C 152.7492828369141 47.28458023071289 168.9694671630859 31.78496932983398 157.4949493408203 15.92597007751465 C 139.6520233154297 -8.734332084655762 126.2221221923828 2.600247859954834 112.9151077270508 2.600247859954834 C 99.60930633544922 2.600247859954834 75.10233306884766 35.54702377319336 75.10233306884766 48.85402679443359 C 75.10233306884766 52.86913681030273 77.3338623046875 55.87430191040039 80.81577301025391 58.11347198486328 C 80.79902648925781 60.10369110107422 81.01963806152344 62.13349914550781 81.52991485595703 64.18488311767578 C 83.28878021240234 71.254638671875 85.473388671875 75.84580230712891 87.86636352539062 78.76560974121094 C 87.93222045898438 79.38338470458984 87.9993896484375 80.01146697998047 88.06777954101562 80.64855194091797 C 82.87189483642578 78.27323150634766 77.54430389404297 77.71199035644531 72.06002807617188 81.52097320556641 C 69.00685882568359 82.11808013916016 60.81205368041992 92.36919403076172 70.80652618408203 97.28324890136719 C 69.83277893066406 98.42555236816406 68.79682922363281 99.63236236572266 67.72349548339844 100.8717193603516 C 64.129638671875 91.49694061279297 60.40494155883789 81.06749725341797 59.13347244262695 77.38419342041016 C 58.52486038208008 75.62021636962891 57.39230346679688 73.58332824707031 56.001220703125 71.56299591064453 C 58.99513626098633 66.87779998779297 60.11061096191406 58.75327682495117 63.73847198486328 52.75666427612305 C 68.85033416748047 44.30633163452148 70.06771850585938 30.30869293212891 81.02305603027344 26.34752655029297 C 91.97836303710938 22.38630294799805 81.02305603027344 8.652109146118164 78.10133361816406 8.124136924743652 C 75.18058776855469 7.596222877502441 66.53846740722656 16.31108093261719 64.46891784667969 21.85721969604492 C 62.39933395385742 27.40335845947266 53.27008056640625 50.90835952758789 50.22663879394531 55.6619987487793 C 47.18430328369141 60.41569900512695 35.7420539855957 41.92893600463867 36.83769226074219 32.94952392578125 C 37.63835906982422 26.37796974182129 38.50458145141602 18.70255279541016 38.91194152832031 15.05858135223389 C 39.15891647338867 14.46977519989014 39.2923583984375 13.83883094787598 39.2923583984375 13.18452548980713 C 39.2923583984375 9.89519214630127 35.93050003051758 7.228636741638184 31.78435897827148 7.228636741638184 C 27.63705444335938 7.228636741638184 24.27519226074219 9.89519214630127 24.27519226074219 13.18452548980713 C 24.27519226074219 13.74988651275635 24.37469291687012 14.29771995544434 24.56080436706543 14.81624794006348 C 24.38755416870117 20.32849884033203 24.31263732910156 36.93061065673828 28.80294227600098 51.43627548217773 C 31.20808219909668 59.20647048950195 34.36469268798828 64.99038696289062 37.77766418457031 68.92252349853516 C 35.28177642822266 73.95899963378906 34.55527496337891 80.07366180419922 41.15708160400391 82.65408325195312 C 46.03502655029297 84.56099700927734 49.13475036621094 88.44783020019531 51.47749710083008 93.05485534667969 C 47.8123893737793 91.81060791015625 42.72509384155273 91.94601440429688 38.201416015625 91.94602203369141 C 31.36519241333008 91.94602203369141 29.12977600097656 101.6779403686523 28.5681095123291 109.6927185058594 C 25.20710945129395 106.1265258789062 23.06583213806152 102.3738555908203 23.79408264160156 99.623779296875 C 25.21280479431152 94.26377868652344 26.7380542755127 88.07613372802734 27.58672142028809 84.58902740478516 C 28.34408187866211 83.87616729736328 28.76313781738281 83.08835601806641 28.76313781738281 82.26077270507812 C 28.76313781738281 79.02883148193359 22.35780334472656 76.40794372558594 14.45647048950195 76.40794372558594 C 6.553998947143555 76.40794372558594 0.1486376076936722 79.02883148193359 0.1486376076936722 82.26077270507812 C 0.1486376076936722 82.39071655273438 0.1591931730508804 82.51830291748047 0.179082065820694 82.64472198486328 C -0.1615568250417709 86.39169311523438 -0.9540290236473083 102.2891616821289 8.2957763671875 116.0608901977539 C 18.46784591674805 131.2056579589844 35.60786056518555 137.8667449951172 49.64524841308594 137.2938842773438 C 51.95266723632812 150.6697235107422 63.03813934326172 160.1116027832031 77.320556640625 160.1116027832031 M 56.92716598510742 106.9143295288086 C 57.46741485595703 108.351806640625 58.02516555786133 109.7474670410156 58.62771987915039 111.0699996948242 C 58.12422180175781 111.6131057739258 57.62744140625 112.1442794799805 57.13991546630859 112.6602172851562 C 57.17574691772461 110.8356399536133 57.06424713134766 108.8686676025391 56.92716598510742 106.9143295288086 M 123.1236114501953 71.82608032226562 C 126.1262512207031 74.62863922119141 128.3226318359375 76.96630096435547 127.5436935424805 81.52097320556641 C 126.433967590332 88.01061248779297 130.3623809814453 96.29232788085938 116.4911956787109 96.29232788085938 C 113.819221496582 96.29232788085938 111.119140625 95.33341217041016 108.3873596191406 93.86430358886719 C 108.6001358032227 93.82633209228516 108.8133316040039 93.78952789306641 109.0299987792969 93.75338745117188 C 123.6237182617188 91.32110595703125 118.0623321533203 84.74610900878906 111.3671112060547 80.75505065917969 C 115.8116683959961 79.37346649169922 120.1591339111328 77.00396728515625 123.1236114501953 71.82608032226562 M 101.8087768554688 63.86111068725586 C 105.8293075561523 64.24521636962891 109.6991119384766 64.37452697753906 112.9151077270508 64.37452697753906 C 113.572998046875 64.37452697753906 114.319694519043 64.31619262695312 115.1401901245117 64.20269012451172 C 115.3353881835938 64.35572052001953 115.5306091308594 64.51194000244141 115.7255783081055 64.67144012451172 C 111.227668762207 68.45191192626953 106.8347244262695 72.1466064453125 102.5296936035156 72.93194580078125 C 102.5233612060547 71.42346954345703 102.4980850219727 70.15293884277344 102.4701690673828 69.17385864257812 C 102.6831893920898 68.54874420166016 102.7990798950195 67.88739013671875 102.7990798950195 67.20260620117188 C 102.7990798950195 65.99241638183594 102.4401397705078 64.85380554199219 101.8087768554688 63.86111068725586 M 77.320556640625 166.1116027832031 C 62.12273025512695 166.1116027832031 49.44913101196289 156.9248504638672 44.95392608642578 143.2306976318359 C 31.48898696899414 142.3774566650391 14.31955337524414 135.7905120849609 3.314970970153809 119.4062728881836 C -6.578727245330811 104.6758651733398 -6.273211479187012 88.09587097167969 -5.839058399200439 82.60553741455078 L -5.851362228393555 82.26077270507812 C -5.851362228393555 75.17121887207031 2.309720993041992 70.40794372558594 14.45647048950195 70.40794372558594 C 21.04250335693359 70.40794372558594 26.45709800720215 71.80869293212891 30.03388786315918 74.22116088867188 C 30.14924812316895 72.82026672363281 30.44499778747559 71.37014770507812 30.91962623596191 69.88472747802734 C 27.75121879577637 65.41410827636719 25.11818885803223 59.82345199584961 23.07124900817871 53.21044158935547 C 18.59089851379395 38.73695755004883 18.36909484863281 22.66933631896973 18.53826904296875 15.55366325378418 C 18.36341667175293 14.77678871154785 18.27519226074219 13.98404598236084 18.27519226074219 13.18452548980713 C 18.27519226074219 6.592025756835938 24.33538818359375 1.228636741638184 31.78435897827148 1.228636741638184 C 39.23269271850586 1.228636741638184 45.2923583984375 6.592025756835938 45.2923583984375 13.18452548980713 C 45.2923583984375 14.28597927093506 45.126220703125 15.3690242767334 44.79744338989258 16.41627883911133 C 44.36336898803711 20.2894172668457 43.54941177368164 27.4722900390625 42.79363632202148 33.67519378662109 C 42.38077926635742 37.05891418457031 45.1587028503418 43.3061637878418 47.70639419555664 47.30516052246094 C 51.06957244873047 39.79914093017578 56.24885177612305 26.72360038757324 58.84755325317383 19.75955390930176 C 61.1031379699707 13.71480369567871 70.67108154296875 2.10122013092041 77.83186340332031 2.10122013092041 L 78.36941528320312 2.10122013092041 L 79.16786193847656 2.219692230224609 C 82.61934661865234 2.843384981155396 86.55489349365234 6.686715602874756 89.09949493408203 11.22917747497559 C 96.81993103027344 2.822308301925659 105.5486907958984 -3.399752140045166 112.9151077270508 -3.399752140045166 C 115.4457473754883 -3.399752140045166 118.2346954345703 -3.956113338470459 121.187385559082 -4.545168876647949 C 124.6057205200195 -5.227085590362549 128.4801025390625 -6.000001907348633 132.5918579101562 -6.000001907348633 C 143.8109741210938 -6.000001907348633 153.2687225341797 -0.1504743248224258 162.3559722900391 12.40880298614502 C 166.7739105224609 18.51485824584961 168.2985534667969 25.32422065734863 166.7650756835938 32.10074615478516 C 164.3600616455078 42.72866058349609 155.1304931640625 51.17570877075195 146.8723754882812 56.81500244140625 C 148.8770141601562 59.37324905395508 150.3480377197266 62.71581268310547 150.6811370849609 66.01341247558594 C 151.1756591796875 70.90898895263672 149.2757568359375 75.15087127685547 145.3890838623047 78.08209228515625 C 145.8474426269531 81.81089019775391 145.5669097900391 85.48184204101562 144.5469970703125 89.04405212402344 C 139.9962005615234 104.9355850219727 132.1327819824219 112.6614990234375 120.5073318481445 112.6635818481445 C 117.8838577270508 112.6635818481445 115.472053527832 112.2683029174805 113.4586410522461 111.8816680908203 L 110.7476654052734 111.3931350708008 C 108.7932586669922 111.0519027709961 106.7118988037109 110.6885070800781 104.5781173706055 110.1874160766602 C 104.283447265625 111.3854370117188 103.9677276611328 112.5771484375 103.6298065185547 113.7572479248047 C 103.5363006591797 114.0838317871094 103.4418334960938 114.4075088500977 103.3463745117188 114.7284545898438 C 105.2055053710938 119.2277755737305 106.0810241699219 124.8173446655273 106.0810241699219 132.0472717285156 C 106.0810241699219 153.3772735595703 95.32944488525391 166.1116027832031 77.320556640625 166.1116027832031 Z M 34.18260192871094 85.33500671386719 C 33.97842788696289 85.86290740966797 33.72194290161133 86.37682342529297 33.41545486450195 86.87153625488281 C 34.06250762939453 86.60506439208984 34.70220184326172 86.40811920166016 35.32298278808594 86.26605224609375 C 34.91082000732422 85.96450805664062 34.53174591064453 85.65305328369141 34.18260192871094 85.33500671386719 Z M 62.89855194091797 71.27883148193359 C 63.71753311157227 72.73629760742188 64.35565185546875 74.12382507324219 64.80535888671875 75.42724609375 C 65.06093597412109 76.16763305664062 65.41653442382812 77.18301391601562 65.85076141357422 78.40888977050781 C 66.96190643310547 77.40619659423828 68.15609741210938 76.61012268066406 69.36269378662109 76.1080322265625 C 72.08084869384766 74.36071014404297 74.95237731933594 73.29222869873047 77.93376159667969 72.91658782958984 C 77.11205291748047 70.72798919677734 76.37210845947266 68.30521392822266 75.70741271972656 65.63344573974609 C 75.34651947021484 64.18259429931641 75.09416198730469 62.70339584350586 74.95200347900391 61.20979690551758 C 72.26322937011719 58.88012313842773 70.74551391601562 56.3502311706543 69.93400573730469 53.96340560913086 C 69.59841156005859 54.61032104492188 69.24582672119141 55.24462127685547 68.87222290039062 55.86222076416016 C 67.35247039794922 58.37427520751953 66.27055358886719 61.66805267333984 65.22425079345703 64.85338592529297 C 64.48723602294922 67.09712219238281 63.77548980712891 69.26390075683594 62.89855194091797 71.27883148193359 Z" stroke="none" fill="#000"/></g><g transform="translate(13.374 66)" fill="url(#a)"><path d="M 77.32054138183594 162.1116180419922 C 73.58969879150391 162.1116180419922 69.99174499511719 161.5062103271484 66.6265869140625 160.3121795654297 C 63.34342575073242 159.1472778320312 60.34442520141602 157.4460906982422 57.7128791809082 155.2559356689453 C 55.09419631958008 153.0764770507812 52.90285873413086 150.4661102294922 51.19969940185547 147.497314453125 C 49.74880599975586 144.9682464599609 48.68061065673828 142.2268524169922 48.01456069946289 139.3276824951172 C 48.00117874145508 139.3276977539062 47.98782730102539 139.3276977539062 47.97444915771484 139.3276977539062 C 44.33676528930664 139.3276977539062 40.61135864257812 138.8797454833984 36.9017219543457 137.9962921142578 C 33.0599250793457 137.0813598632812 29.3122673034668 135.7160949707031 25.7628345489502 133.9384155273438 C 22.01340293884277 132.060546875 18.52178955078125 129.7386169433594 15.38501644134521 127.0370941162109 C 12.03812980651855 124.1546401977539 9.094380378723145 120.8368835449219 6.635516166687012 117.176025390625 C 4.407130241394043 113.8582534790039 2.574948310852051 110.17138671875 1.189857363700867 106.2178649902344 C 0.04624367505311966 102.9535446166992 -0.8040063381195068 99.47786712646484 -1.337279081344604 95.88736724853516 C -2.253078699111938 89.72135925292969 -2.005742311477661 84.734619140625 -1.831528186798096 82.67805480957031 C -1.844703316688538 82.53866577148438 -1.851347208023071 82.39910888671875 -1.851347208023071 82.26079559326172 C -1.851347208023071 80.85402679443359 -1.145483613014221 78.20525360107422 3.581857204437256 76.27127075195312 C 6.519039154052734 75.06967926025391 10.38103866577148 74.40792846679688 14.45647048950195 74.40792846679688 C 18.53140258789062 74.40792846679688 22.39306259155273 75.06967926025391 25.33010673522949 76.27129364013672 C 30.05728912353516 78.20529937744141 30.76313018798828 80.85404968261719 30.76313018798828 82.26079559326172 C 30.76313018798828 83.10908508300781 30.51401329040527 84.33712005615234 29.4015064239502 85.58932495117188 C 28.57243728637695 88.98818206787109 27.10147285461426 94.94461822509766 25.72749328613281 100.1355209350586 C 25.44290542602539 101.2102355957031 25.95666694641113 102.8111114501953 27.11908149719238 104.6530380249023 C 27.5889778137207 101.6881256103516 28.28357315063477 99.13269805908203 29.19574356079102 97.02079772949219 C 31.72138023376465 91.17345428466797 35.48708343505859 89.946044921875 38.2014045715332 89.946044921875 C 38.60097122192383 89.946044921875 39.0049934387207 89.94497680664062 39.41204071044922 89.94390869140625 C 39.82878875732422 89.94281768798828 40.24869918823242 89.94172668457031 40.6702880859375 89.94172668457031 C 42.92979431152344 89.94172668457031 45.248291015625 89.97210693359375 47.4373893737793 90.20479583740234 C 45.43440628051758 87.42288208007812 43.15140151977539 85.58111572265625 40.42890167236328 84.51681518554688 C 37.52044677734375 83.37999725341797 35.56251525878906 81.5543212890625 34.60958480834961 79.09052276611328 C 33.31499481201172 75.74331665039062 34.22057723999023 72.05716705322266 35.43262100219727 69.23078155517578 C 33.88979721069336 67.29963684082031 32.44874572753906 65.05574798583984 31.13890266418457 62.54322814941406 C 29.51928901672363 59.4365234375 28.09056091308594 55.89856719970703 26.89235687255859 52.02766036987305 C 24.91924285888672 45.65361404418945 23.58919906616211 38.21211242675781 22.93915367126465 29.90984153747559 C 22.43058776855469 23.41473388671875 22.47084045410156 17.96659851074219 22.5514030456543 15.10243606567383 C 22.36795043945312 14.47765254974365 22.27517509460449 13.83432197570801 22.27517509460449 13.1845235824585 C 22.27517509460449 12.04875087738037 22.5528564453125 10.9521369934082 23.10051727294922 9.925159454345703 C 23.60865211486816 8.972249984741211 24.32569885253906 8.124727249145508 25.23167610168457 7.406136989593506 C 27.00203895568848 6.001955032348633 29.32917594909668 5.228636741638184 31.78435707092285 5.228636741638184 C 34.23908615112305 5.228636741638184 36.56587982177734 6.001977920532227 38.33608627319336 7.406205177307129 C 39.24199295043945 8.124795913696289 39.95895004272461 8.972318649291992 40.46706008911133 9.925205230712891 C 41.01469802856445 10.95218181610107 41.2923583984375 12.04877281188965 41.2923583984375 13.1845235824585 C 41.2923583984375 13.99050045013428 41.15048217773438 14.78236198425293 40.87026214599609 15.54274272918701 C 40.42340469360352 19.5361442565918 39.59000015258789 26.89624786376953 38.82301712036133 33.19141006469727 C 38.44535827636719 36.2864990234375 39.88528823852539 41.36863708496094 42.58083343505859 46.45488739013672 C 43.78612899780273 48.7291374206543 45.15288162231445 50.80311584472656 46.42935562133789 52.29475021362305 C 47.51976013183594 53.56897735595703 48.29523086547852 54.12750625610352 48.69738006591797 54.33268737792969 C 49.96268081665039 52.22136306762695 52.49134063720703 46.56450653076172 55.86103820800781 38.30156707763672 C 58.74885559082031 31.22029495239258 61.52413177490234 24.02806854248047 62.59510803222656 21.15802383422852 C 63.62660598754883 18.39375114440918 66.12958526611328 14.80727291107178 69.29060363769531 11.56413650512695 C 70.75421905517578 10.0625 72.22783660888672 8.77959156036377 73.55215454101562 7.854091167449951 C 75.23990631103516 6.674591541290283 76.63980865478516 6.101227760314941 77.83185577392578 6.101227760314941 C 78.04551696777344 6.101227760314941 78.25588226318359 6.119659423828125 78.45706176757812 6.156023025512695 C 80.74251556396484 6.569000244140625 83.34346771240234 9.860590934753418 84.08617401123047 10.85956859588623 C 85.29071044921875 12.47970199584961 87.33082580566406 15.673095703125 87.72417449951172 19.14986419677734 C 91.81795501708984 13.9924898147583 96.10908508300781 9.585291862487793 100.1528778076172 6.387363910675049 C 105.0086288452148 2.547295808792114 109.3024673461914 0.6002277135848999 112.9151077270508 0.6002277135848999 C 115.8408355712891 0.6002277135848999 118.8179702758789 0.006318598054349422 121.9699249267578 -0.6224768757820129 C 125.3647689819336 -1.299704074859619 128.8751831054688 -1.999999642372131 132.5918273925781 -1.999999642372131 C 137.2040863037109 -1.999999642372131 141.3839874267578 -0.8841813802719116 145.3703765869141 1.411227703094482 C 150.0892944335938 4.128432273864746 154.5852966308594 8.49275016784668 159.1152954101562 14.75356864929199 C 162.8932189941406 19.97506904602051 164.1543579101562 25.51445579528809 162.8637237548828 31.21788597106934 C 161.7018585205078 36.35222625732422 158.4845581054688 41.49868392944336 153.3011932373047 46.51429748535156 C 149.7455139160156 49.95491790771484 145.2590789794922 53.31223678588867 140.1938934326172 56.33443832397461 C 140.2770690917969 56.39589691162109 140.3599548339844 56.45828247070312 140.4427185058594 56.52171325683594 C 142.1384887695312 57.18377304077148 143.6004638671875 59.08316421508789 144.1862030029297 59.9271354675293 C 145.5897827148438 61.94950103759766 146.4830322265625 64.25375366210938 146.7013854980469 66.41541290283203 C 146.9496612548828 68.87346649169922 146.5093688964844 73.31541442871094 140.9964141845703 76.11943817138672 C 141.8897552490234 80.16573333740234 141.791748046875 84.13527679443359 140.7015380859375 87.94304656982422 C 139.5706787109375 91.89206695556641 138.2212677001953 95.30370330810547 136.6908111572266 98.08327484130859 C 135.2486724853516 100.7024078369141 133.5922393798828 102.8572540283203 131.7675323486328 104.487907409668 C 128.6242370605469 107.2969131469727 124.9407653808594 108.6627731323242 120.5066070556641 108.6635665893555 C 118.2191772460938 108.6635665893555 116.0415420532227 108.3045883178711 114.2129974365234 107.9534301757812 C 113.3237915039062 107.7823638916016 112.406608581543 107.6222534179688 111.4355621337891 107.4527053833008 C 108.3491592407227 106.9138336181641 104.9287414550781 106.3167114257812 101.6019439697266 105.1967086791992 C 101.0656051635742 107.8083419799805 100.4564590454102 110.308967590332 99.78435516357422 112.6560897827148 C 99.55860137939453 113.444465637207 99.32316589355469 114.2280426025391 99.08168792724609 114.9949645996094 C 100.0954742431641 117.0678176879883 100.8333892822266 119.4442901611328 101.3299942016602 122.228889465332 C 101.8353805541992 125.0627059936523 102.0810394287109 128.2743225097656 102.0810394287109 132.0473022460938 C 102.0810394287109 136.3150024414062 101.624153137207 140.2425079345703 100.7230377197266 143.7206878662109 C 99.76201629638672 147.4301147460938 98.28899383544922 150.6519622802734 96.34490203857422 153.2966766357422 C 94.26247406005859 156.1296081542969 91.63079071044922 158.3158874511719 88.52299499511719 159.7947692871094 C 85.29231262207031 161.3321075439453 81.52326965332031 162.1116180419922 77.32054138183594 162.1116180419922 Z M 115.1877136230469 94.20275115966797 C 115.6339416503906 94.26258850097656 116.0680999755859 94.29234313964844 116.4911956787109 94.29234313964844 C 120.6528778076172 94.29234313964844 123.2119445800781 93.53081512451172 124.3146057128906 91.96427154541016 C 125.3008117675781 90.56317901611328 125.3002700805664 88.33209228515625 125.2996520996094 85.97000122070312 C 125.2992630004883 84.40325164794922 125.2988357543945 82.78313446044922 125.5723114013672 81.18388366699219 C 126.030632019043 78.50401306152344 125.3140487670898 76.93027496337891 123.4601135253906 74.95761871337891 C 122.1852416992188 76.66859436035156 120.6748046875 78.14065551757812 118.9490814208984 79.35140991210938 C 117.9357604980469 80.06236267089844 116.8372116088867 80.69487762451172 115.6354675292969 81.25748443603516 C 118.2728271484375 83.35056304931641 120.724235534668 86.19830322265625 120.1415863037109 89.29118347167969 C 119.8267440795898 90.96257019042969 118.6929244995117 92.36051940917969 116.7716293334961 93.44620513916016 C 116.2931365966797 93.71659088134766 115.7661819458008 93.96845245361328 115.1877136230469 94.20275115966797 Z M 58.35712814331055 71.49330139160156 C 59.57533264160156 73.38932037353516 60.48957443237305 75.18263244628906 61.02410888671875 76.73186492919922 C 61.67229080200195 78.60959625244141 63.02185440063477 82.42276763916016 64.69295501708984 87.01505279541016 C 65.21073150634766 85.61981964111328 66.003662109375 84.23657989501953 67.02294921875 82.97248077392578 C 67.68870544433594 82.14680480957031 69.35723876953125 80.27330780029297 71.21260833740234 79.67823791503906 C 74.10328674316406 77.74420928955078 77.18368530273438 76.76418304443359 80.37433624267578 76.76418304443359 C 81.68034362792969 76.76418304443359 83.00807952880859 76.92271423339844 84.37549591064453 77.24412536621094 C 82.46757507324219 74.04878234863281 80.89037322998047 69.89832305908203 79.58906555175781 64.66774749755859 C 79.14366912841797 62.87718200683594 78.88883209228516 61.03544235229492 78.82878112792969 59.17864227294922 C 77.20433044433594 58.00434112548828 75.91069030761719 56.68188858032227 74.97476959228516 55.23709106445312 C 73.73231506347656 53.31913757324219 73.10233306884766 51.17156982421875 73.10233306884766 48.85402297973633 C 73.10233306884766 44.45275115966797 75.41455841064453 38.95133972167969 77.35426330566406 35.11125183105469 C 78.44100189208984 32.95981979370117 79.72113037109375 30.71117782592773 81.14295959472656 28.44526481628418 C 74.81707000732422 31.06114959716797 72.17024230957031 37.92557907104492 69.60803985595703 44.57022857666016 C 68.38058471679688 47.75345611572266 67.11133575439453 51.04506683349609 65.44972229003906 53.79183959960938 C 63.6943359375 56.69336318969727 62.54017639160156 60.20709228515625 61.42401504516602 63.60513687133789 C 60.48069763183594 66.47694396972656 59.58180999755859 69.21332550048828 58.35712814331055 71.49330139160156 Z M 104.478515625 69.45320129394531 C 104.4851989746094 69.70947265625 104.4912567138672 69.96880340576172 104.4966888427734 70.23072052001953 C 106.435417175293 69.38697052001953 108.4526596069336 67.98959350585938 110.5362014770508 66.35140991210938 C 108.5814971923828 66.31365203857422 106.6252059936523 66.22996520996094 104.7231750488281 66.10292816162109 C 104.773567199707 66.466796875 104.7990875244141 66.83406829833984 104.7990875244141 67.20261383056641 C 104.7990875244141 67.96328735351562 104.6913909912109 68.71857452392578 104.478515625 69.45320129394531 Z" stroke="none"/><path d="M 77.32054901123047 160.1116180419922 C 93.40764617919922 160.1116180419922 100.0810241699219 148.1343841552734 100.0810241699219 132.0472869873047 C 100.0810241699219 125.0828399658203 99.21329498291016 119.3901138305664 96.92442321777344 115.1740875244141 C 97.2471923828125 114.1821136474609 97.55982208251953 113.159538269043 97.86164855957031 112.1055145263672 C 98.7647705078125 108.9515609741211 99.498046875 105.7117385864258 100.0918426513672 102.487434387207 C 104.8710708618164 104.5210876464844 110.1532745361328 105.1358337402344 114.5901947021484 105.9893341064453 C 116.4736480712891 106.3510360717773 118.4729690551758 106.6635589599609 120.5062484741211 106.6635589599609 C 127.1772994995117 106.6623840332031 134.2205657958984 103.3098831176758 138.7787780761719 87.39253997802734 C 140.0072021484375 83.10205841064453 139.7774505615234 78.91193389892578 138.6391906738281 74.96278381347656 C 138.9141998291016 74.86785888671875 139.1968231201172 74.75568389892578 139.4869689941406 74.62516021728516 C 149.8207244873047 69.9757080078125 142.2424774169922 58.93373489379883 139.4869689941406 58.31336212158203 C 138.3741149902344 57.42356109619141 137.2699279785156 56.77271270751953 136.1716003417969 56.32731246948242 C 152.749267578125 47.28458786010742 168.9694671630859 31.78496170043945 157.4949493408203 15.9259614944458 C 139.6520233154297 -8.734347343444824 126.2221145629883 2.600236892700195 112.9151229858398 2.600236892700195 C 99.60929870605469 2.600236892700195 75.10231781005859 35.54701232910156 75.10231781005859 48.85401153564453 C 75.10231781005859 52.86913681030273 77.33384704589844 55.87428665161133 80.8157958984375 58.11346054077148 C 80.79901885986328 60.10368728637695 81.01964569091797 62.13351058959961 81.52989959716797 64.18488311767578 C 83.28877258300781 71.254638671875 85.47339630126953 75.84580993652344 87.86634826660156 78.76560974121094 C 87.93222045898438 79.38338470458984 87.99937438964844 80.01145935058594 88.06777191162109 80.64853668212891 C 82.87187957763672 78.27320861816406 77.54429626464844 77.71201324462891 72.06002044677734 81.52096557617188 C 69.00687408447266 82.11808776855469 60.81204605102539 92.36918640136719 70.80654907226562 97.28323364257812 C 69.83277130126953 98.425537109375 68.79684448242188 99.63236236572266 67.72349548339844 100.8717346191406 C 64.12962341308594 91.49693298339844 60.40494537353516 81.06751251220703 59.13347244262695 77.38418579101562 C 58.52484512329102 75.6202392578125 57.39229583740234 73.58333587646484 56.001220703125 71.56301116943359 C 58.99512100219727 66.87778472900391 60.110595703125 58.75326156616211 63.73847198486328 52.75666046142578 C 68.85034942626953 44.30631256103516 70.06771850585938 30.30868721008301 81.02304840087891 26.34751129150391 C 91.97837066650391 22.38631248474121 81.02304840087891 8.652087211608887 78.101318359375 8.124136924743652 C 75.18075561523438 7.596219539642334 66.53847503662109 16.31108474731445 64.46891784667969 21.85723686218262 C 62.39934539794922 27.40336227416992 53.27009582519531 50.90836334228516 50.22661972045898 55.6619873046875 C 47.18436050415039 60.41561508178711 35.74204254150391 41.92893981933594 36.83769607543945 32.94953536987305 C 37.63837051391602 26.37796211242676 38.50457000732422 18.70256233215332 38.91194534301758 15.05856132507324 C 39.15892028808594 14.46978664398193 39.2923698425293 13.83883666992188 39.2923698425293 13.1845121383667 C 39.2923698425293 9.895212173461914 35.93049621582031 7.228636741638184 31.78437042236328 7.228636741638184 C 27.63704681396484 7.228636741638184 24.27517127990723 9.895212173461914 24.27517127990723 13.1845121383667 C 24.27517127990723 13.74988651275635 24.37467002868652 14.29771137237549 24.5607967376709 14.81623649597168 C 24.38754653930664 20.32848739624023 24.31264686584473 36.93058776855469 28.80292129516602 51.43626022338867 C 31.20809555053711 59.20646286010742 34.36469650268555 64.99038696289062 37.77767181396484 68.92250823974609 C 35.28179550170898 73.95901489257812 34.5552978515625 80.07366180419922 41.15707015991211 82.65408325195312 C 46.0350456237793 84.56101226806641 49.13474655151367 88.44783782958984 51.47749710083008 93.05484008789062 C 47.81237030029297 91.81060791015625 42.72505569458008 91.94602203369141 38.20139694213867 91.94603729248047 C 31.36519622802734 91.94603729248047 29.12977027893066 101.6779403686523 28.5681209564209 109.6927108764648 C 25.20712089538574 106.1265335083008 23.06582069396973 102.3738632202148 23.79407119750977 99.62378692626953 C 25.21279525756836 94.26376342773438 26.73804664611816 88.07616424560547 27.58672142028809 84.58903503417969 C 28.34407043457031 83.87615966796875 28.76312065124512 83.08833312988281 28.76312065124512 82.26078796386719 C 28.76312065124512 79.02880859375 22.35779571533203 76.40793609619141 14.45647048950195 76.40793609619141 C 6.553996086120605 76.40793609619141 0.1486459523439407 79.02880859375 0.1486459523439407 82.26078796386719 C 0.1486459523439407 82.39070892333984 0.1591709405183792 82.518310546875 0.1790709495544434 82.64471435546875 C -0.1615540534257889 86.39170837402344 -0.9540290236473083 102.2891845703125 8.295796394348145 116.0608901977539 C 18.06767082214355 130.6098175048828 34.26479721069336 137.3277130126953 47.97444534301758 137.3277130126953 C 48.53589630126953 137.3277130126953 49.09299468994141 137.3164367675781 49.64524459838867 137.2938842773438 C 51.95267105102539 150.6697387695312 63.03814697265625 160.1116180419922 77.32054901123047 160.1116180419922 M 56.92716979980469 106.9143371582031 C 57.46742248535156 108.3517837524414 58.02516937255859 109.7474594116211 58.62771987915039 111.0700149536133 C 58.12424468994141 111.6131134033203 57.62742233276367 112.144287109375 57.13989639282227 112.6602096557617 C 57.17574691772461 110.8356399536133 57.06427001953125 108.8686599731445 56.92716979980469 106.9143371582031 M 123.1235961914062 71.82606506347656 C 126.1262435913086 74.62863922119141 128.3226470947266 76.96630859375 127.5436935424805 81.52096557617188 C 126.4339981079102 88.01058959960938 130.3623962402344 96.29233551025391 116.4911956787109 96.29233551025391 C 113.819221496582 96.29233551025391 111.1191177368164 95.33341217041016 108.3873672485352 93.86428833007812 C 108.6001205444336 93.82633972167969 108.8133239746094 93.78953552246094 109.0299987792969 93.75338745117188 C 123.6237182617188 91.32111358642578 118.0623474121094 84.74610900878906 111.3671188354492 80.75505828857422 C 115.8116683959961 79.37348937988281 120.1591491699219 77.00395965576172 123.1235961914062 71.82606506347656 M 101.8087692260742 63.86111068725586 C 105.8292922973633 64.24520874023438 109.6991195678711 64.37451171875 112.9151229858398 64.37451171875 C 113.572998046875 64.37451171875 114.3196716308594 64.31621551513672 115.1401977539062 64.20269012451172 C 115.3353729248047 64.355712890625 115.5305938720703 64.51194000244141 115.7255706787109 64.67144012451172 C 111.2276458740234 68.45191192626953 106.8347244262695 72.14658355712891 102.5296936035156 72.93193817138672 C 102.5233688354492 71.4234619140625 102.4980926513672 70.15293884277344 102.4701690673828 69.17385864257812 C 102.6831970214844 68.54875946044922 102.7990951538086 67.88739013671875 102.7990951538086 67.20261383056641 C 102.7990951538086 65.99243927001953 102.4401473999023 64.85381317138672 101.8087692260742 63.86111068725586 M 77.32054901123047 164.1116180419922 C 73.36124420166016 164.1116180419922 69.53826904296875 163.4674682617188 65.95782470703125 162.1970672607422 C 62.45146942138672 160.9529571533203 59.24702072143555 159.1348419189453 56.4334716796875 156.7931823730469 C 53.63137054443359 154.4610595703125 51.28679656982422 151.6683349609375 49.46489715576172 148.4925689697266 C 48.17308044433594 146.2407684326172 47.16574096679688 143.8329620361328 46.45496368408203 141.3029479980469 C 43.14781951904297 141.1955413818359 39.78562164306641 140.7390441894531 36.43836975097656 139.9418792724609 C 32.44712066650391 138.9913635253906 28.55402183532715 137.5731658935547 24.86719512939453 135.7266693115234 C 20.97067070007324 133.7751312255859 17.34129524230957 131.3614044189453 14.07987117767334 128.5525360107422 C 10.59722137451172 125.5531616210938 7.533996105194092 122.1007385253906 4.975270748138428 118.2911376953125 C 2.652195930480957 114.8324356079102 0.7435709238052368 110.9928894042969 -0.6976540684700012 106.8791351318359 C -1.882979035377502 103.4957885742188 -2.763779163360596 99.89646148681641 -3.315578937530518 96.18119049072266 C -4.237898826599121 89.97129058837891 -4.017145156860352 84.90253448486328 -3.837959289550781 82.67376708984375 C -3.846871137619019 82.53582000732422 -3.851354122161865 82.39793395996094 -3.851354122161865 82.26078796386719 C -3.851354122161865 80.35256195068359 -2.984054088592529 76.79648590087891 2.824570894241333 74.42018890380859 C 5.996495723724365 73.12255859375 10.12744617462158 72.40793609619141 14.45647048950195 72.40793609619141 C 18.78502082824707 72.40793609619141 22.91564559936523 73.12258911132812 26.08742141723633 74.42021179199219 C 31.89584541320801 76.79658508300781 32.76312255859375 80.35258483886719 32.76312255859375 82.26078796386719 C 32.76312255859375 83.37393951416016 32.47383117675781 84.936279296875 31.23416328430176 86.51531219482422 C 30.868408203125 88.01187896728516 30.39815521240234 89.92201995849609 29.87558364868164 92.01100921630859 C 30.3090705871582 91.48708343505859 30.76739501953125 91.01231384277344 31.2493953704834 90.58836364746094 C 33.21474456787109 88.85973358154297 35.61869430541992 87.94603729248047 38.20139694213867 87.94603729248047 C 38.59912109375 87.94603729248047 39.00141906738281 87.94498443603516 39.40677261352539 87.94390869140625 C 40.44058990478516 87.94120025634766 41.49155044555664 87.93852996826172 42.5468635559082 87.95207977294922 C 41.66301727294922 87.29633331298828 40.71990203857422 86.77797698974609 39.7006950378418 86.37953948974609 C 35.40052032470703 84.69873809814453 33.54424667358398 81.88034057617188 32.74427032470703 79.81198883056641 C 31.59857368469238 76.84976959228516 31.74448204040527 73.33895874023438 33.15110778808594 69.54842376708984 C 31.79864501953125 67.73881530761719 30.53046035766602 65.7025146484375 29.36542129516602 63.4677848815918 C 27.69034576416016 60.25466156005859 26.2154712677002 56.60461044311523 24.98179626464844 52.61903762817383 C 22.96494674682617 46.10368728637695 21.60684585571289 38.51571273803711 20.94524574279785 30.06596183776855 C 20.44668769836426 23.69864654541016 20.46834373474121 18.32025718688965 20.54422378540039 15.3433780670166 C 20.36546516418457 14.63735580444336 20.27517127990723 13.9142541885376 20.27517127990723 13.1845121383667 C 20.27517127990723 10.38836193084717 21.62874603271484 7.711086750030518 23.98884582519531 5.839186668395996 C 26.11129570007324 4.155736923217773 28.87979507446289 3.228636741638184 31.78437042236328 3.228636741638184 C 34.68849563598633 3.228636741638184 37.45669555664062 4.155786991119385 39.57902145385742 5.839311599731445 C 41.93889617919922 7.711286544799805 43.2923698425293 10.38848686218262 43.2923698425293 13.1845121383667 C 43.2923698425293 14.14242172241211 43.13793563842773 15.08380603790283 42.83250427246094 15.99154758453369 C 42.37938690185547 20.03752708435059 41.56162643432617 27.25069808959961 40.80831909179688 33.43331146240234 C 40.50712203979492 35.90183639526367 41.73159408569336 40.32533645629883 43.9277458190918 44.70338821411133 C 44.9578971862793 46.75701141357422 46.15969467163086 48.71183776855469 47.31177139282227 50.20773696899414 C 47.60204696655273 50.58464813232422 47.8658447265625 50.90335464477539 48.10242080688477 51.1721305847168 C 49.17948150634766 48.96595764160156 51.00067901611328 44.92343902587891 54.00914764404297 37.54633712768555 C 56.88862228393555 30.48551177978516 59.65439605712891 23.31806182861328 60.72134780883789 20.45881271362305 C 61.84509658813477 17.44728660583496 64.51314544677734 13.60031223297119 67.85836791992188 10.16818714141846 C 69.40819549560547 8.578086853027344 70.98091888427734 7.210986614227295 72.406494140625 6.214736938476562 C 74.46977233886719 4.772811889648438 76.19371795654297 4.101236820220947 77.83184814453125 4.101236820220947 C 78.16454315185547 4.101236820220947 78.49456787109375 4.130411624908447 78.81279754638672 4.187911987304688 C 80.04564666748047 4.41068696975708 81.31687164306641 5.116761684417725 82.69889831542969 6.346436977386475 C 83.71182250976562 7.247711658477783 84.74654388427734 8.395687103271484 85.69119262695312 9.666286468505859 C 86.53910064697266 10.80677127838135 87.76326751708984 12.66171169281006 88.65287780761719 14.88177680969238 C 92.07048797607422 10.89818477630615 95.56911468505859 7.462480068206787 98.91229248046875 4.818636894226074 C 104.1298980712891 0.6924117803573608 108.8411483764648 -1.399763226509094 112.9151229858398 -1.399763226509094 C 115.6433181762695 -1.399763226509094 118.5263442993164 -1.974913239479065 121.5786743164062 -2.583813190460205 C 125.0687484741211 -3.280038118362427 128.6776428222656 -3.999988317489624 132.5918426513672 -3.999988317489624 C 137.5638732910156 -3.999988317489624 142.0702209472656 -2.796888113021851 146.3683929443359 -0.3219632208347321 C 151.3370971679688 2.539086818695068 156.0366516113281 7.086836814880371 160.7356262207031 13.58118724822998 C 162.8278198242188 16.47281265258789 164.2260894775391 19.51163673400879 164.8916168212891 22.61331176757812 C 165.5278015136719 25.57808685302734 165.5018157958984 28.62158584594727 164.8143920898438 31.65931129455566 C 163.5652465820312 37.17941284179688 160.1595764160156 42.66091156005859 154.6919708251953 47.95158767700195 C 151.6536560058594 50.89154434204102 147.9639434814453 53.76789474487305 143.8294067382812 56.43272399902344 C 144.6885070800781 57.24423217773438 145.3733520507812 58.12987518310547 145.8292694091797 58.78678512573242 C 147.4229736328125 61.08311080932617 148.4393768310547 63.72096252441406 148.6912384033203 66.21438598632812 C 148.9378204345703 68.65518951416016 148.4588775634766 71.00123596191406 147.3062133789062 72.99888610839844 C 146.3626556396484 74.63418579101562 144.9972229003906 76.02265930175781 143.2322082519531 77.14521789550781 C 143.8784027099609 81.01594543457031 143.6759490966797 84.82034301757812 142.6242523193359 88.49356079101562 C 140.3001403808594 96.60943603515625 137.184814453125 102.3289642333984 133.1002197265625 105.9791870117188 C 131.2149200439453 107.6639862060547 129.0996246337891 108.909309387207 126.813117980957 109.680534362793 C 124.8532180786133 110.3416137695312 122.7904739379883 110.6631622314453 120.5069427490234 110.6635589599609 C 118.051399230957 110.6635589599609 115.756721496582 110.2864608764648 113.835823059082 109.9175643920898 C 112.9628677368164 109.7496337890625 112.0539474487305 109.590934753418 111.0916442871094 109.4229354858398 C 108.578857421875 108.9842224121094 105.8503112792969 108.5078125 103.0986022949219 107.7454071044922 C 102.6716384887695 109.6365585327148 102.2064895629883 111.4626235961914 101.7070922851562 113.2066345214844 C 101.5493850708008 113.7574005126953 101.3869857788086 114.3060684204102 101.2211380004883 114.8485946655273 C 103.1675109863281 119.1998672485352 104.0810241699219 124.7275695800781 104.0810241699219 132.0472869873047 C 104.0810241699219 136.4841156005859 103.6026229858398 140.5803680419922 102.6590957641602 144.2222595214844 C 101.6340179443359 148.1790313720703 100.0517959594727 151.6306610107422 97.95636749267578 154.4812316894531 C 95.67624664306641 157.5830841064453 92.79154968261719 159.9784393310547 89.38236999511719 161.6007080078125 C 85.88111877441406 163.2668151855469 81.82292175292969 164.1116180419922 77.32054901123047 164.1116180419922 Z M 119.0705108642578 81.66831970214844 C 119.1708984375 81.77318572998047 119.2699813842773 81.87931823730469 119.3672943115234 81.98638916015625 C 120.3291702270508 83.04468536376953 121.0575485229492 84.12918853759766 121.5321960449219 85.20973968505859 C 122.1885986328125 86.70406341552734 122.3819961547852 88.20183563232422 122.1070175170898 89.66143798828125 C 121.9957046508789 90.25236511230469 121.7847442626953 90.93791198730469 121.4006652832031 91.65542602539062 C 122.0098648071289 91.42911529541016 122.4446105957031 91.14627838134766 122.6791458129883 90.81308746337891 C 123.3006744384766 89.93008422851562 123.3001480102539 87.91716003417969 123.2996444702148 85.97048950195312 C 123.2992477416992 84.39701080322266 123.2987976074219 82.61360931396484 123.6009216308594 80.84676361083984 C 123.7850952148438 79.76988220214844 123.7433319091797 78.97572326660156 123.3656311035156 78.17104339599609 C 122.3724670410156 79.21705627441406 121.2814483642578 80.15817260742188 120.097770690918 80.98863983154297 C 119.7636337280273 81.22306060791016 119.4213027954102 81.44960021972656 119.0705108642578 81.66831970214844 Z M 60.64991760253906 71.39022064208984 C 61.6572151184082 73.06394958496094 62.41617202758789 74.63458251953125 62.91472244262695 76.07951354980469 C 63.35393905639648 77.35190582275391 64.11628723144531 79.51592254638672 65.08293151855469 82.20984649658203 C 65.20732116699219 82.04383087158203 65.33501434326172 81.87955474853516 65.46599578857422 81.71710968017578 C 66.39495086669922 80.56500244140625 68.16558074951172 78.67533111572266 70.31597137451172 77.87352752685547 C 73.47908782958984 75.80979919433594 76.85990142822266 74.76416015625 80.37434387207031 74.76416015625 C 80.53380584716797 74.76416015625 80.69321441650391 74.76625061035156 80.85311126708984 74.77043914794922 C 79.63099670410156 72.04350280761719 78.5687255859375 68.85055541992188 77.64822387695312 65.15061187744141 C 77.24601745605469 63.5335807800293 76.98817443847656 61.878173828125 76.87738037109375 60.20743179321289 C 72.15616607666016 56.43753814697266 71.10231781005859 52.03310012817383 71.10231781005859 48.85401153564453 C 71.10231781005859 47.75907897949219 71.22397613525391 46.57658386230469 71.46616363525391 45.31047058105469 C 70.2099609375 48.56816864013672 68.91017913818359 51.93547821044922 67.16097259521484 54.8270378112793 C 65.52339935302734 57.53383636474609 64.40534973144531 60.9376106262207 63.3240966796875 64.22930908203125 C 62.48884582519531 66.77214813232422 61.68716430664062 69.21263885498047 60.64991760253906 71.39022064208984 Z" stroke="none" fill="#f8f8f8"/></g><g transform="translate(13.374 66)"><path d="M27.629,2.7c13.306,0,26.737-11.334,44.579,13.325S40.936,64.476,27.629,64.476s-37.813-2.215-37.813-15.521S14.323,2.7,27.629,2.7Z" transform="translate(85.286 -0.102)" fill="url(#a)"/><g transform="translate(24.275 7.228)"><path d="M42.024,434.486s-1.315,20.812,4.162,38.507,14.85,25.089,22.276,23.769,7.547-14,12.659-22.448,6.33-22.449,17.285-26.41,0-17.695-2.921-18.223-11.564,8.187-13.633,13.733-11.2,29.051-14.242,33.8-14.485-13.733-13.39-22.712,2.313-20.02,2.313-20.02Z" transform="translate(-41.658 -428.785)" fill="url(#c)"/><ellipse cx="7.509" cy="5.955" rx="7.509" ry="5.955" transform="translate(0 0)" fill="#fff"/></g><g transform="translate(80.815 23.942)"><path d="M57.283,434.664s-24.528,18.433-19.361,39.2,14.008,20.147,21.012,18.6,16.435-2.313,21.257-12.234,5.354,8.728,15.688,4.078,2.756-15.692,0-16.312c-13.844-11.069-26.547,14.772-38.6,14.772s-8.637-8.283-9.6-14.772,3.318-8.479,7.4-13.722A35.443,35.443,0,0,1,65.2,445.854Z" transform="translate(-37.207 -433.626)" fill="url(#c)"/><ellipse cx="7.085" cy="6.991" rx="7.085" ry="6.991" transform="translate(16.669 0)" fill="#fff"/></g><g transform="translate(65.995 47.15)"><path d="M87.7,434.664s28.236,18.433,22.288,39.2-16.126,20.147-24.189,18.6-18.919-2.313-24.47-12.234-6.163,8.728-18.06,4.078-3.172-15.692,0-16.312c15.937-11.069,30.56,14.772,44.431,14.772S97.645,474.486,98.755,468s-3.819-8.479-8.515-13.722a40.408,40.408,0,0,0-11.651-8.421Z" transform="translate(-37.207 -433.626)" fill="url(#e)"/><ellipse cx="8.156" cy="6.991" rx="8.156" ry="6.991" transform="translate(38.106 0)" fill="#fff"/></g><path d="M9.043,1.219C17.274,1.219,27.372.771,27.372,9S30.582,30.6,22.35,30.6s-23.1,1.2-23.1-7.03S.811,1.219,9.043,1.219Z" transform="translate(29.158 90.727)" fill="url(#a)"/><g transform="translate(0 76.408)"><path d="M42.153,433.95s-2.538,18.5,8.029,34.237,28.647,22.307,42.971,21.133,14.558-12.445,24.42-19.959,12.21-19.959,33.343-23.481,0-15.732-5.635-16.2-22.307,7.279-26.3,12.21-21.6,25.829-27.473,30.056-27.943-12.21-25.829-20.194,4.461-17.8,4.461-17.8Z" transform="translate(-41.885 -428.535)" fill="url(#g)"/><ellipse cx="14.307" cy="5.853" rx="14.307" ry="5.853" transform="translate(0.149 0)" fill="#fff"/></g><g transform="translate(35.98 60.212)"><path d="M108.286,435.325s1.428,24.431-4.52,45.2-16.126,29.451-24.189,27.9S71.383,492,65.831,482.077s-6.873-26.351-18.769-31,0-20.771,3.172-21.391,12.557,9.61,14.8,16.121,12.16,34.1,15.465,39.682,15.729-16.121,14.54-26.661-2.511-23.5-2.511-23.5Z" transform="translate(-41.885 -428.634)" fill="url(#e)"/><ellipse cx="8.156" cy="6.991" rx="8.156" ry="6.991" transform="translate(50.507 0)" fill="#fff"/></g><path d="M30.164,1.607c16.087,0,20.715,9.3,20.715,25.384S44.2,55.056,28.118,55.056,0,43.078,0,26.991,14.076,1.607,30.164,1.607Z" transform="translate(49.203 105.056)" fill="url(#a)"/></g></g></g></svg>