<svg xmlns="http://www.w3.org/2000/svg" xmlns:xlink="http://www.w3.org/1999/xlink" width="190" height="248" viewBox="0 0 190 248"><defs><radialGradient id="a" cx="0.453" cy="0.214" r="0.81" gradientTransform="matrix(0.679, -0.734, 0.757, 0.7, -0.017, 0.397)" gradientUnits="objectBoundingBox"><stop offset="0" stop-color="#ff0101"/><stop offset="1" stop-color="#800101"/></radialGradient><linearGradient id="b" x2="1.068" gradientUnits="objectBoundingBox"><stop offset="0" stop-color="#c4c936"/><stop offset="1" stop-color="#48651b"/></linearGradient><linearGradient id="e" x1="0.5" x2="0.5" y2="1" gradientUnits="objectBoundingBox"><stop offset="0" stop-color="#ffa100"/><stop offset="0.285" stop-color="#a26300"/><stop offset="1" stop-color="#341600"/></linearGradient><clipPath id="h"><rect width="190" height="248"/></clipPath></defs><g id="g" clip-path="url(#h)"><g transform="translate(899 590)"><path d="M -721.9996337890625 -504.9997253417969 L -723.9996337890625 -504.9997253417969 L -778.933837890625 -504.9997253417969 L -781.05859375 -504.9997253417969 L -780.93017578125 -507.12060546875 L -776.7518310546875 -576.1209106445312 L -776.6380615234375 -578 L -774.7554931640625 -578 L -737.0001220703125 -578 C -732.9932861328125 -578 -729.226318359375 -576.4397583007812 -726.3931274414062 -573.606689453125 C -723.5599365234375 -570.7736206054688 -721.9996337890625 -567.0068969726562 -721.9996337890625 -563.0004272460938 L -721.9996337890625 -506.9997253417969 L -721.9996337890625 -504.9997253417969 Z" stroke="none"/><path d="M -723.9996337890625 -506.9997253417969 L -723.9996337890625 -563.0004272460938 C -723.9996337890625 -570.1796875 -729.8199462890625 -576 -737.0001220703125 -576 L -774.7554931640625 -576 L -778.933837890625 -506.9997253417969 L -723.9996337890625 -506.9997253417969 M -719.9996337890625 -502.9997253417969 L -783.1834106445312 -502.9997253417969 L -778.5205688476562 -580 L -737.0001220703125 -580 C -734.7068481445312 -580 -732.47998046875 -579.5499877929688 -730.3815307617188 -578.6624755859375 C -728.3566284179688 -577.8060302734375 -726.5389404296875 -576.5808715820312 -724.9789428710938 -575.0209350585938 C -723.4189453125 -573.4609985351562 -722.1937255859375 -571.6434326171875 -721.3372802734375 -569.61865234375 C -720.4496459960938 -567.520263671875 -719.9996337890625 -565.2935791015625 -719.9996337890625 -563.0004272460938 L -719.9996337890625 -502.9997253417969 Z" stroke="none" fill="#000"/></g><g transform="translate(897.98 611)"><path d="M -720.9799194335938 -437.0002136230469 L -722.9799194335938 -437.0002136230469 L -781.9136962890625 -437.0002136230469 L -783.9957885742188 -437.0002136230469 L -783.9120483398438 -439.0806274414062 L -780.4921264648438 -524.0802001953125 L -780.4148559570312 -525.9998168945312 L -778.4937133789062 -525.9998168945312 L -722.9799194335938 -525.9998168945312 L -720.9799194335938 -525.9998168945312 L -720.9799194335938 -523.9998168945312 L -720.9799194335938 -439.0002136230469 L -720.9799194335938 -437.0002136230469 Z" stroke="none"/><path d="M -722.9799194335938 -439.0002136230469 L -722.9799194335938 -523.9998168945312 L -778.4937133789062 -523.9998168945312 L -781.9136962890625 -439.0002136230469 L -722.9799194335938 -439.0002136230469 M -718.9799194335938 -435.0002136230469 L -786.077880859375 -435.0002136230469 L -782.3359985351562 -527.9998168945312 L -718.9799194335938 -527.9998168945312 L -718.9799194335938 -435.0002136230469 Z" stroke="none" fill="#000"/></g><g transform="translate(895 611)"><path d="M -732.9996337890625 -382.0003051757812 L -783.0138549804688 -382.0003051757812 L -785.1913452148438 -382.0003051757812 L -785.0066528320312 -384.169921875 L -780.6655883789062 -435.1693420410156 L -780.509765625 -436.9997253417969 L -778.6727905273438 -436.9997253417969 L -720 -436.9997253417969 L -718 -436.9997253417969 L -718 -434.9997253417969 L -718 -396.9999084472656 C -718 -392.9934692382812 -719.5602416992188 -389.2267456054688 -722.3933715820312 -386.3936462402344 C -725.2264404296875 -383.560546875 -728.9931640625 -382.0003051757812 -732.9996337890625 -382.0003051757812 Z" stroke="none"/><path d="M -732.9996337890625 -384.0003051757812 C -725.8203125 -384.0003051757812 -720 -389.8206176757812 -720 -396.9999084472656 L -720 -434.9997253417969 L -778.6727905273438 -434.9997253417969 L -783.0138549804688 -384.0003051757812 L -732.9996337890625 -384.0003051757812 M -732.9996337890625 -380.0003051757812 L -787.3687744140625 -380.0003051757812 L -782.3468017578125 -438.9997253417969 L -716 -438.9997253417969 L -716 -396.9999084472656 C -716 -394.7067565917969 -716.4500122070312 -392.4800720214844 -717.3375854492188 -390.3817138671875 C -718.1940307617188 -388.3569641113281 -719.419189453125 -386.5393676757812 -720.9791259765625 -384.9794311523438 C -722.5390625 -383.4195251464844 -724.356689453125 -382.1943054199219 -726.3814086914062 -381.337890625 C -728.4797973632812 -380.4503479003906 -730.7064819335938 -380.0003051757812 -732.9996337890625 -380.0003051757812 Z" stroke="none" fill="#000"/></g><g transform="matrix(0.799, -0.602, 0.602, 0.799, 1067.598, 39.547)"><path d="M -825.2754516601562 -457.5757446289062 L -827.8397827148438 -461.7994689941406 L -875.1589965820312 -539.7391357421875 C -877.6305541992188 -542.9230346679688 -879.5587768554688 -546.4602661132812 -880.8914184570312 -550.2555541992188 C -882.290771484375 -554.2408447265625 -883.0003051757812 -558.4230346679688 -883.0003051757812 -562.6859741210938 C -883.0003051757812 -567.7198486328125 -882.0200805664062 -572.6047973632812 -880.0869750976562 -577.2052001953125 C -878.2198486328125 -581.6483764648438 -875.5472412109375 -585.6383666992188 -872.1434326171875 -589.0643920898438 C -868.73828125 -592.4917602539062 -864.7717895507812 -595.18310546875 -860.3541870117188 -597.063720703125 C -855.7777099609375 -599.011962890625 -850.9179077148438 -599.9998168945312 -845.90966796875 -599.9998168945312 C -841.7802734375 -599.9998168945312 -837.723388671875 -599.3212890625 -833.851806640625 -597.9830932617188 C -830.8160400390625 -596.933837890625 -827.9396362304688 -595.495849609375 -825.2750854492188 -593.6974487304688 C -822.6102294921875 -595.4960327148438 -819.7342529296875 -596.9337158203125 -816.6983642578125 -597.9830932617188 C -812.8268432617188 -599.3212890625 -808.7702026367188 -599.9998168945312 -804.6410522460938 -599.9998168945312 C -799.6328735351562 -599.9998168945312 -794.7730102539062 -599.011962890625 -790.1965942382812 -597.063720703125 C -785.7789916992188 -595.18310546875 -781.8125 -592.4917602539062 -778.4073486328125 -589.0643920898438 C -775.0034790039062 -585.6383666992188 -772.3309326171875 -581.6483764648438 -770.4638061523438 -577.2052001953125 C -768.5307006835938 -572.6047973632812 -767.5504760742188 -567.7198486328125 -767.5504760742188 -562.6859741210938 C -767.5504760742188 -558.4256591796875 -768.2594604492188 -554.2454223632812 -769.6576538085938 -550.261474609375 C -770.9891357421875 -546.4676513671875 -772.9154052734375 -542.9317626953125 -775.3846435546875 -539.7484741210938 L -822.7110595703125 -461.7994384765625 L -825.2754516601562 -457.5757446289062 Z" stroke="none"/><path d="M -845.90966796875 -596.9998168945312 C -864.7369384765625 -596.9998168945312 -880.0003051757812 -581.6382446289062 -880.0003051757812 -562.6859741210938 C -880.0003051757812 -554.6658935546875 -877.2666015625 -547.28857421875 -872.6857299804688 -541.4461059570312 L -825.275390625 -463.3563842773438 L -777.8582763671875 -541.454833984375 C -773.2822265625 -547.2957763671875 -770.5504760742188 -554.6705322265625 -770.5504760742188 -562.6859741210938 C -770.5504760742188 -581.6382446289062 -785.8138427734375 -596.9998168945312 -804.6410522460938 -596.9998168945312 C -812.3966674804688 -596.9998168945312 -819.5468139648438 -594.3931884765625 -825.2750854492188 -590.0028076171875 C -831.0031127929688 -594.3931884765625 -838.1535034179688 -596.9998168945312 -845.90966796875 -596.9998168945312 M -845.90966796875 -602.9998168945312 C -838.5381469726562 -602.9998168945312 -831.485107421875 -601.0275268554688 -825.2750244140625 -597.2611083984375 C -819.0645751953125 -601.0280151367188 -812.0125732421875 -602.9998168945312 -804.6410522460938 -602.9998168945312 C -782.5350341796875 -602.9998168945312 -764.5504760742188 -584.9151000976562 -764.5504760742188 -562.6859741210938 C -764.5504760742188 -553.5442504882812 -767.5189819335938 -544.923095703125 -773.1351928710938 -537.7545166015625 L -825.2754516601562 -451.7951049804688 L -877.8145141601562 -538.332275390625 C -883.0289306640625 -544.9136962890625 -886.0003051757812 -553.5385131835938 -886.0003051757812 -562.6859741210938 C -886.0003051757812 -584.9151000976562 -868.0156860351562 -602.9998168945312 -845.90966796875 -602.9998168945312 Z" stroke="none" fill="#000"/></g><rect width="190" height="248" fill="rgba(255,255,255,0)"/><g transform="matrix(0.799, -0.602, 0.602, 0.799, 1067.598, 39.547)" fill="url(#a)"><path d="M -825.275390625 -459.5026245117188 L -826.9849853515625 -462.3184509277344 L -874.3341064453125 -540.307373046875 C -876.7562866210938 -543.4176635742188 -878.644775390625 -546.8755493164062 -879.9478759765625 -550.5868530273438 C -881.3097534179688 -554.4654541015625 -882.0003051757812 -558.5361938476562 -882.0003051757812 -562.6859741210938 C -882.0003051757812 -567.5861206054688 -881.04638671875 -572.3407592773438 -879.1650390625 -576.8178100585938 C -877.3479614257812 -581.1419067382812 -874.7468872070312 -585.025146484375 -871.4340209960938 -588.359619140625 C -868.1203002929688 -591.6948852539062 -864.2607421875 -594.3137817382812 -859.9624633789062 -596.1436157226562 C -855.5105590820312 -598.038818359375 -850.7825317382812 -598.9998168945312 -845.90966796875 -598.9998168945312 C -841.8916625976562 -598.9998168945312 -837.9447631835938 -598.3397827148438 -834.178466796875 -597.0379638671875 C -831.0115966796875 -595.943359375 -828.0228881835938 -594.4138793945312 -825.2750244140625 -592.4832763671875 C -822.5271606445312 -594.4138793945312 -819.5384521484375 -595.943359375 -816.3717041015625 -597.0379638671875 C -812.6055297851562 -598.3397827148438 -808.6587524414062 -598.9998168945312 -804.6410522460938 -598.9998168945312 C -799.7681884765625 -598.9998168945312 -795.0401611328125 -598.038818359375 -790.5882568359375 -596.1436157226562 C -786.2900390625 -594.3137817382812 -782.4304809570312 -591.6948852539062 -779.1167602539062 -588.359619140625 C -775.8038940429688 -585.025146484375 -773.2028198242188 -581.1419067382812 -771.3857421875 -576.8178100585938 C -769.50439453125 -572.3407592773438 -768.5504760742188 -567.5861206054688 -768.5504760742188 -562.6859741210938 C -768.5504760742188 -558.5386962890625 -769.2404174804688 -554.4699096679688 -770.6011962890625 -550.5926513671875 C -771.9031372070312 -546.8829956054688 -773.7898559570312 -543.4262084960938 -776.2095336914062 -540.316650390625 L -823.5657958984375 -462.3184204101562 L -825.275390625 -459.5026245117188 Z" stroke="none"/><path d="M -845.90966796875 -596.9998168945312 C -864.7369384765625 -596.9998168945312 -880.0003051757812 -581.6382446289062 -880.0003051757812 -562.6859741210938 C -880.0003051757812 -554.6658935546875 -877.2666015625 -547.28857421875 -872.6857299804688 -541.4461059570312 L -825.275390625 -463.3563842773438 L -777.8582763671875 -541.454833984375 C -773.2822265625 -547.2957763671875 -770.5504760742188 -554.6705322265625 -770.5504760742188 -562.6859741210938 C -770.5504760742188 -581.6382446289062 -785.8138427734375 -596.9998168945312 -804.6410522460938 -596.9998168945312 C -812.3966674804688 -596.9998168945312 -819.5468139648438 -594.3931884765625 -825.2750854492188 -590.0028076171875 C -831.0031127929688 -594.3931884765625 -838.1535034179688 -596.9998168945312 -845.90966796875 -596.9998168945312 M -845.90966796875 -600.9998168945312 C -841.6688232421875 -600.9998168945312 -837.5020751953125 -600.3028564453125 -833.5250854492188 -598.92822265625 C -830.6180419921875 -597.9234619140625 -827.8535766601562 -596.5718383789062 -825.2750244140625 -594.8967895507812 C -822.6964721679688 -596.57177734375 -819.9320068359375 -597.9234619140625 -817.0250854492188 -598.92822265625 C -813.0482177734375 -600.3028564453125 -808.8816528320312 -600.9998168945312 -804.6410522460938 -600.9998168945312 C -799.4974975585938 -600.9998168945312 -794.505859375 -599.985107421875 -789.8048706054688 -597.9838256835938 C -785.2678833007812 -596.0523681640625 -781.194580078125 -593.28857421875 -777.697998046875 -589.7692260742188 C -774.203125 -586.2515869140625 -771.458984375 -582.15478515625 -769.5419311523438 -577.5925903320312 C -767.5569458007812 -572.868896484375 -766.5504760742188 -567.8536376953125 -766.5504760742188 -562.6859741210938 C -766.5504760742188 -558.3126220703125 -767.2783813476562 -554.02099609375 -768.7140502929688 -549.9302978515625 C -770.0748901367188 -546.0528564453125 -772.0408935546875 -542.4376220703125 -774.559326171875 -539.1809692382812 L -825.2754516601562 -455.6488647460938 L -875.9843139648438 -539.171630859375 C -878.505126953125 -542.4288940429688 -880.4729614257812 -546.0452880859375 -881.8349609375 -549.9242553710938 C -883.2717895507812 -554.0162353515625 -884.0003051757812 -558.3099365234375 -884.0003051757812 -562.6859741210938 C -884.0003051757812 -567.8536376953125 -882.9938354492188 -572.868896484375 -881.0088500976562 -577.5925903320312 C -879.091796875 -582.15478515625 -876.34765625 -586.2515869140625 -872.852783203125 -589.7692260742188 C -869.356201171875 -593.28857421875 -865.2828369140625 -596.0523681640625 -860.745849609375 -597.9838256835938 C -856.0448608398438 -599.985107421875 -851.05322265625 -600.9998168945312 -845.90966796875 -600.9998168945312 Z" stroke="none" fill="red"/></g><path d="M-778.934-507l4.178-69H-737a13,13,0,0,1,13,13v56Z" transform="translate(899 590)" stroke="#f0ff00" stroke-width="4" fill="url(#b)"/><path d="M-781.914-439l3.42-85h55.514v85Z" transform="translate(897.98 611)" stroke="#f0ff00" stroke-width="4" fill="url(#b)"/><path d="M-783.014-384l4.341-51H-720v38a13,13,0,0,1-13,13Z" transform="translate(895 611)" stroke="#f0ff00" stroke-width="4" fill="url(#b)"/><path d="M5,0H67a0,0,0,0,1,0,0V10a0,0,0,0,1,0,0H5A5,5,0,0,1,0,5V5A5,5,0,0,1,5,0Z" transform="translate(108 169)" stroke="#fb9e00" stroke-width="4" fill="url(#e)"/><path d="M5,0H62a0,0,0,0,1,0,0V10a0,0,0,0,1,0,0H5A5,5,0,0,1,0,5V5A5,5,0,0,1,5,0Z" transform="translate(113 80)" stroke="#fb9e00" stroke-width="4" fill="url(#e)"/></g></svg>