<svg xmlns="http://www.w3.org/2000/svg" xmlns:xlink="http://www.w3.org/1999/xlink" width="190" height="248" viewBox="0 0 190 248"><defs><radialGradient id="a" cx="0.412" cy="0.276" r="0.75" gradientTransform="matrix(0.539, 0.842, -0.652, 0.417, 0.37, -0.187)" gradientUnits="objectBoundingBox"><stop offset="0" stop-color="#d6ff00"/><stop offset="1" stop-color="#6b8000"/></radialGradient><clipPath id="c"><rect width="190" height="248"/></clipPath></defs><g id="b" clip-path="url(#c)"><g transform="translate(7.767 22.904)"><line x1="29.557" y1="57.348" transform="translate(22.176 20.248)" fill="none" stroke="#000" stroke-linecap="round" stroke-width="12"/><line x2="11" y2="65.74" transform="translate(62.733 2.857)" fill="none" stroke="#000" stroke-linecap="round" stroke-width="12"/><line x1="1.937" y2="66.596" transform="translate(87.733)" fill="none" stroke="#000" stroke-linecap="round" stroke-width="12"/><line x1="12" y2="60" transform="translate(101.233 6.096)" fill="none" stroke="#000" stroke-linecap="round" stroke-width="12"/><line x1="23.11" y2="53.169" transform="translate(115.733 15.427)" fill="none" stroke="#000" stroke-linecap="round" stroke-width="12"/><line x2="22.201" y2="61.954" transform="translate(39.532 9.642)" fill="none" stroke="#000" stroke-linecap="round" stroke-width="12"/><line x1="27.394" y2="40.814" transform="translate(130.733 32.782)" fill="none" stroke="#000" stroke-linecap="round" stroke-width="12"/><line x1="23" y2="21.817" transform="translate(145.733 59.78)" fill="none" stroke="#000" stroke-linecap="round" stroke-width="12"/><line x2="34.019" y2="45.957" transform="translate(7.714 36.639)" fill="none" stroke="#000" stroke-linecap="round" stroke-width="12"/><line x2="31.733" y2="27.888" transform="translate(0 61.708)" fill="none" stroke="#000" stroke-linecap="round" stroke-width="12"/></g><rect width="190" height="248" fill="rgba(255,255,255,0)"/><g transform="translate(40.286 107.042)"><path d="M 65.31074523925781 118.1954956054688 C 57.54006576538086 118.1954956054688 49.89499664306641 117.3367462158203 42.58792877197266 115.6431045532227 C 35.93906402587891 114.1020431518555 29.42424583435059 111.8362197875977 23.22445106506348 108.9086074829102 C 12.80335998535156 103.9876556396484 3.076700687408447 97.13404083251953 -5.685344696044922 88.53815460205078 C -13.45964050292969 80.91129302978516 -19.02461814880371 73.28917694091797 -22.32407188415527 68.23801422119141 C -25.92420768737793 62.72658538818359 -27.67427635192871 59.02888107299805 -27.74700355529785 58.87415313720703 L -28.4041862487793 57.47633361816406 L -27.64818572998047 56.12940216064453 C -27.5621395111084 55.9760856628418 -25.4946174621582 52.3112678527832 -21.49843597412109 46.83060836791992 C -17.83064079284668 41.80031204223633 -11.76023101806641 34.20924377441406 -3.669958353042603 26.61197090148926 C 5.455541610717773 18.04256248474121 15.24135971069336 11.2078800201416 25.41570091247559 6.297811985015869 C 38.19990539550781 0.12822125852108 51.62254333496094 -3.000005960464478 65.31074523925781 -3.000005960464478 C 79.09370422363281 -3.000005960464478 91.38311004638672 0.171062171459198 101.8375396728516 6.425153255462646 C 110.2102661132812 11.43388080596924 117.3984069824219 18.4029483795166 123.2022705078125 27.13872146606445 C 125.46875 30.5501537322998 127.5264739990234 34.24249267578125 129.3183441162109 38.11315155029297 C 130.7491607666016 41.20394897460938 132.0153350830078 44.41646957397461 133.0817413330078 47.66149520874023 C 134.9094696044922 53.22312927246094 135.521728515625 56.96501541137695 135.5469055175781 57.12158584594727 L 135.6016387939453 57.46210861206055 L 135.5776824951172 57.80615234375 C 135.5666809082031 57.96403884887695 135.2921600341797 61.73738098144531 133.8783111572266 67.33238220214844 C 133.0537872314453 70.5953369140625 132.0066528320312 73.82585906982422 130.7659759521484 76.93415069580078 C 129.2117462158203 80.82808685302734 127.3467025756836 84.54285430908203 125.22265625 87.97526550292969 C 119.7875671386719 96.75829315185547 112.6544036865234 103.7608108520508 104.0212936401367 108.7882919311523 C 98.91043090820312 111.7646102905273 93.21983337402344 114.0655364990234 87.10758972167969 115.6272201538086 C 80.43756103515625 117.3314056396484 73.10404205322266 118.1954956054688 65.31074523925781 118.1954956054688 Z" stroke="none"/><path d="M 65.31074523925781 7.62939453125e-06 C 7.295722961425781 7.62939453125e-06 -25.03208923339844 57.59774398803711 -25.03208923339844 57.59774398803711 C -25.03208923339844 57.59774398803711 2.047378540039062 115.1954803466797 65.31074523925781 115.1954803466797 C 128.5741119384766 115.1954803466797 132.5848999023438 57.59774398803711 132.5848999023438 57.59774398803711 C 132.5848999023438 57.59774398803711 123.3257751464844 7.62939453125e-06 65.31074523925781 7.62939453125e-06 M 65.31074523925781 -5.999992370605469 C 127.7163772583008 -5.999992370605469 138.4081420898438 56.01898193359375 138.5088500976562 56.64542770385742 L 138.6183319091797 57.32645416259766 L 138.5704040527344 58.01453399658203 C 138.5263977050781 58.6463508605957 133.3834075927734 121.1954803466797 65.31074523925781 121.1954803466797 C -0.999359130859375 121.1954803466797 -29.29006958007812 62.64311218261719 -30.46192932128906 60.15055847167969 L -31.77627563476562 57.35495376586914 L -30.26431274414062 54.66106033325195 C -28.87409973144531 52.1841926574707 4.482276916503906 -5.999992370605469 65.31074523925781 -5.999992370605469 Z" stroke="none" fill="#000"/></g><g transform="translate(7.767 22.904)"><line x1="29.557" y1="57.348" transform="translate(22.176 20.248)" fill="none" stroke="#d5fe00" stroke-linecap="round" stroke-width="8"/><line x2="11" y2="65.74" transform="translate(62.733 2.857)" fill="none" stroke="#d5fe00" stroke-linecap="round" stroke-width="8"/><line x1="1.937" y2="66.596" transform="translate(87.733)" fill="none" stroke="#d5fe00" stroke-linecap="round" stroke-width="8"/><line x1="12" y2="60" transform="translate(101.233 6.096)" fill="none" stroke="#d5fe00" stroke-linecap="round" stroke-width="8"/><line x1="23.11" y2="53.169" transform="translate(115.733 15.427)" fill="none" stroke="#d5fe00" stroke-linecap="round" stroke-width="8"/><line x2="22.201" y2="61.954" transform="translate(39.532 9.642)" fill="none" stroke="#d5fe00" stroke-linecap="round" stroke-width="8"/><line x1="27.394" y2="40.814" transform="translate(130.733 32.782)" fill="none" stroke="#d5fe00" stroke-linecap="round" stroke-width="8"/><line x1="23" y2="21.817" transform="translate(145.733 59.78)" fill="none" stroke="#d5fe00" stroke-linecap="round" stroke-width="8"/><line x2="34.019" y2="45.957" transform="translate(7.714 36.639)" fill="none" stroke="#d5fe00" stroke-linecap="round" stroke-width="8"/><line x2="31.733" y2="27.888" transform="translate(0 61.708)" fill="none" stroke="#d5fe00" stroke-linecap="round" stroke-width="8"/></g><g transform="translate(40.286 107.042)" fill="url(#a)"><path d="M 65.31075286865234 117.1954803466797 C 57.61594772338867 117.1954803466797 50.0468635559082 116.3454208374023 42.8137321472168 114.6689376831055 C 36.23412322998047 113.1438980102539 29.7869930267334 110.901611328125 23.65144920349121 108.0043334960938 C 13.33170986175537 103.1312408447266 3.69699239730835 96.34169769287109 -4.985051155090332 87.82431030273438 C -12.69526863098145 80.26028442382812 -18.21450805664062 72.7008056640625 -21.48685646057129 67.69113159179688 C -25.04931259155273 62.23737335205078 -26.7705078125 58.600830078125 -26.8420295715332 58.44867706298828 L -27.28015899658203 57.51680755615234 L -26.77615928649902 56.61885452270508 C -26.6912899017334 56.46763610839844 -24.65202903747559 52.85300445556641 -20.69042015075684 47.4197883605957 C -17.04779052734375 42.42400360107422 -11.01924705505371 34.88522338867188 -2.985399007797241 27.34094047546387 C 6.065905570983887 18.84119987487793 15.76764488220215 12.06426525115967 25.85033988952637 7.198439598083496 C 31.85383987426758 4.301178932189941 38.06012344360352 2.058352708816528 44.29679489135742 0.5322222709655762 C 51.16338348388672 -1.148038625717163 58.23349380493164 -1.999995112419128 65.31075286865234 -1.999995112419128 C 72.40481567382812 -1.999995112419128 79.15766906738281 -1.143842935562134 85.38175201416016 0.5446787476539612 C 91.06155395507812 2.085548400878906 96.42538452148438 4.352744102478027 101.3241653442383 7.283330917358398 C 109.5679931640625 12.21494007110596 116.6485977172852 19.08146095275879 122.3693389892578 27.69211387634277 C 124.6076889038086 31.06122207641602 126.6403427124023 34.70870208740234 128.4108428955078 38.53326416015625 C 129.8254699707031 41.58909225463867 131.0773620605469 44.76530838012695 132.1317291259766 47.97370147705078 C 133.9349975585938 53.46091842651367 134.5349273681641 57.12693786621094 134.5595855712891 57.28030776977539 L 134.5960540771484 57.50730895996094 L 134.5800933837891 57.73667907714844 C 134.5693664550781 57.89093780517578 134.3010101318359 61.57791900634766 132.9087982177734 67.08737182617188 C 132.0950317382812 70.30774688720703 131.0615997314453 73.49596405029297 129.8372344970703 76.56343841552734 C 128.3044891357422 80.40350341796875 126.4658203125 84.06594085693359 124.3723220825195 87.44905090332031 C 119.0243835449219 96.09120178222656 112.0079956054688 102.9800262451172 103.5180587768555 107.9241333007812 C 98.48716735839844 110.8538513183594 92.88259887695312 113.1195678710938 86.86003875732422 114.658332824707 C 80.27084350585938 116.3418502807617 73.02062225341797 117.1954803466797 65.31075286865234 117.1954803466797 Z" stroke="none"/><path d="M 65.31073760986328 7.62939453125e-06 C 7.29571533203125 7.62939453125e-06 -25.03211975097656 57.59774398803711 -25.03211975097656 57.59774398803711 C -25.03211975097656 57.59774398803711 2.047355651855469 115.1954803466797 65.31073760986328 115.1954803466797 C 128.5741271972656 115.1954803466797 132.5848999023438 57.59774398803711 132.5848999023438 57.59774398803711 C 132.5848999023438 57.59774398803711 123.3257904052734 7.62939453125e-06 65.31073760986328 7.62939453125e-06 M 65.31073760986328 -3.999992370605469 C 79.27702331542969 -3.999992370605469 91.73914337158203 -0.7811813354492188 102.3509063720703 5.566978454589844 C 110.8525466918945 10.65283966064453 118.148193359375 17.72445678710938 124.0351867675781 26.58536529541016 C 126.3297882080078 30.03910064697266 128.41259765625 33.77629089355469 130.2257843017578 37.69307708740234 C 131.6728057861328 40.81884002685547 132.9533081054688 44.06767272949219 134.03173828125 47.34928894042969 C 135.8839111328125 52.9853401184082 136.5085296630859 56.8031005859375 136.5341949462891 56.96288681030273 L 136.6071929931641 57.41688537597656 L 136.5752410888672 57.87560272216797 C 136.5639953613281 58.03712463378906 136.2832641601562 61.8968391418457 134.8478393554688 67.57736206054688 C 134.0125274658203 70.8829345703125 132.95166015625 74.15574645996094 131.6947174072266 77.30484008789062 C 130.1189727783203 81.25264739990234 128.2275543212891 85.01974487304688 126.072998046875 88.50145721435547 C 120.5507354736328 97.42536163330078 113.3007888793945 104.5415802001953 104.5244979858398 109.6524353027344 C 99.33366394042969 112.6753158569336 93.55704498291016 115.0115051269531 87.35511779785156 116.596076965332 C 80.60426330566406 118.3209075927734 73.18745422363281 119.1954803466797 65.31073760986328 119.1954803466797 C 50.28545379638672 119.1954803466797 35.98192596435547 116.0386962890625 22.79743194580078 109.8128356933594 C 12.27500152587891 104.8440322875977 2.456382751464844 97.92636108398438 -6.385688781738281 89.25198364257812 C -14.22404479980469 81.56227111816406 -19.83476257324219 73.87750244140625 -23.16131591796875 68.78488159179688 C -26.79911804199219 63.21576690673828 -28.57804870605469 59.4569091796875 -28.65199279785156 59.29962539672852 L -29.52824401855469 57.43588638305664 L -28.520263671875 55.63995742797852 C -28.43299865722656 55.48453140258789 -26.33721923828125 51.76950454711914 -22.30647277832031 46.241455078125 C -18.61350250244141 41.17662811279297 -12.50123596191406 33.53329467773438 -4.354522705078125 25.88300323486328 C 4.845169067382812 17.24393463134766 14.71507263183594 10.35150909423828 24.98107147216797 5.397216796875 C 37.90193176269531 -0.8383255004882812 51.47078704833984 -3.999992370605469 65.31073760986328 -3.999992370605469 Z" stroke="none" fill="#d5fe00"/></g></g></svg>