<svg xmlns="http://www.w3.org/2000/svg" xmlns:xlink="http://www.w3.org/1999/xlink" width="190" height="248" viewBox="0 0 190 248"><defs><linearGradient id="a" x1="0.5" x2="0.5" y2="1" gradientUnits="objectBoundingBox"><stop offset="0" stop-color="#60c"/><stop offset="1" stop-color="#07000e"/></linearGradient><radialGradient id="b" cx="0.395" cy="0.308" r="0.613" gradientTransform="translate(-0.045 0.07) rotate(-9.532)" gradientUnits="objectBoundingBox"><stop offset="0" stop-color="#7a00cb"/><stop offset="1" stop-color="#320044"/></radialGradient><linearGradient id="r" y1="0.477" x2="1" y2="0.477" gradientUnits="objectBoundingBox"><stop offset="0" stop-color="#fff" stop-opacity="0.478"/><stop offset="0.339" stop-color="#fff" stop-opacity="0.278"/><stop offset="0.385" stop-color="#fff" stop-opacity="0"/><stop offset="1" stop-color="#fff" stop-opacity="0"/></linearGradient><linearGradient id="s" y1="0.5" x2="1" y2="0.5" gradientUnits="objectBoundingBox"><stop offset="0" stop-color="#e9e9e9"/><stop offset="1" stop-color="#818181"/></linearGradient><clipPath id="u"><rect width="190" height="248"/></clipPath></defs><g id="t" clip-path="url(#u)"><g transform="translate(1115 611)" fill="none"><path d="M-1087-384a13,13,0,0,1-13-13V-553a13,13,0,0,1,13-13,13,13,0,0,1-13-13v-5a13,13,0,0,1,13-13h134a13,13,0,0,1,13,13v5a13,13,0,0,1-13,13,13,13,0,0,1,13,13v156a13,13,0,0,1-13,13Z" stroke="none"/><path d="M -953.0001220703125 -384.0003051757812 C -945.8199462890625 -384.0003051757812 -939.9996337890625 -389.8206176757812 -939.9996337890625 -396.9999084472656 L -939.9996337890625 -552.9996337890625 C -939.9996337890625 -560.1798095703125 -945.8199462890625 -566.0001220703125 -953.0001220703125 -566.0001220703125 C -945.8199462890625 -566.0001220703125 -939.9996337890625 -571.8204345703125 -939.9996337890625 -578.9996948242188 L -939.9996337890625 -584.0001220703125 C -939.9996337890625 -591.179443359375 -945.8199462890625 -596.9996948242188 -953.0001220703125 -596.9996948242188 L -1087.000244140625 -596.9996948242188 C -1094.179565429688 -596.9996948242188 -1099.999877929688 -591.179443359375 -1099.999877929688 -584.0001220703125 L -1099.999877929688 -578.9996948242188 C -1099.999877929688 -571.8204345703125 -1094.179565429688 -566.0001220703125 -1087.000244140625 -566.0001220703125 C -1094.179565429688 -566.0001220703125 -1099.999877929688 -560.1798095703125 -1099.999877929688 -552.9996337890625 L -1099.999877929688 -396.9999084472656 C -1099.999877929688 -389.8206176757812 -1094.179565429688 -384.0003051757812 -1087.000244140625 -384.0003051757812 L -953.0001220703125 -384.0003051757812 M -953.0001220703125 -380.0003051757812 L -1087.000244140625 -380.0003051757812 C -1089.293334960938 -380.0003051757812 -1091.52001953125 -380.4503479003906 -1093.618408203125 -381.3379211425781 C -1095.643188476562 -382.1943359375 -1097.460815429688 -383.4195251464844 -1099.020751953125 -384.9794311523438 C -1100.580688476562 -386.5393676757812 -1101.805908203125 -388.3569641113281 -1102.662231445312 -390.3817138671875 C -1103.5498046875 -392.4801025390625 -1103.999877929688 -394.706787109375 -1103.999877929688 -396.9999084472656 L -1103.999877929688 -552.9996337890625 C -1103.999877929688 -555.2929077148438 -1103.5498046875 -557.519775390625 -1102.662353515625 -559.6182250976562 C -1101.805908203125 -561.6431274414062 -1100.580688476562 -563.4608154296875 -1099.020751953125 -565.0208129882812 C -1098.678100585938 -565.3634643554688 -1098.322998046875 -565.6900634765625 -1097.955932617188 -566.0000610351562 C -1098.322998046875 -566.31005859375 -1098.678100585938 -566.6365966796875 -1099.020751953125 -566.979248046875 C -1100.580688476562 -568.5391845703125 -1101.805908203125 -570.3567504882812 -1102.662231445312 -572.3814697265625 C -1103.5498046875 -574.4798583984375 -1103.999877929688 -576.70654296875 -1103.999877929688 -578.9996948242188 L -1103.999877929688 -584.0001220703125 C -1103.999877929688 -586.2932739257812 -1103.5498046875 -588.5199584960938 -1102.662231445312 -590.6183471679688 C -1101.805908203125 -592.64306640625 -1100.580688476562 -594.4606323242188 -1099.020751953125 -596.0205688476562 C -1097.460815429688 -597.5805053710938 -1095.643188476562 -598.8056640625 -1093.618408203125 -599.662109375 C -1091.52001953125 -600.5496826171875 -1089.293334960938 -600.9996948242188 -1087.000244140625 -600.9996948242188 L -953.0001220703125 -600.9996948242188 C -950.7068481445312 -600.9996948242188 -948.47998046875 -600.5496826171875 -946.3815307617188 -599.6621704101562 C -944.356689453125 -598.8057250976562 -942.5390014648438 -597.58056640625 -940.9789428710938 -596.0206298828125 C -939.4189453125 -594.460693359375 -938.1937255859375 -592.6431274414062 -937.3372802734375 -590.6183471679688 C -936.4496459960938 -588.5199584960938 -935.9996337890625 -586.2932739257812 -935.9996337890625 -584.0001220703125 L -935.9996337890625 -578.9996948242188 C -935.9996337890625 -576.70654296875 -936.4496459960938 -574.4798583984375 -937.3372802734375 -572.3814697265625 C -938.1937255859375 -570.356689453125 -939.4189453125 -568.5391235351562 -940.9789428710938 -566.9791870117188 C -941.3215942382812 -566.6365356445312 -941.6766357421875 -566.31005859375 -942.043701171875 -566.0000610351562 C -941.6766357421875 -565.6900634765625 -941.321533203125 -565.363525390625 -940.9788818359375 -565.0208740234375 C -939.4188842773438 -563.4608764648438 -938.1936645507812 -561.6431884765625 -937.3372192382812 -559.6182250976562 C -936.4496459960938 -557.519775390625 -935.9996337890625 -555.29296875 -935.9996337890625 -552.9996337890625 L -935.9996337890625 -396.9999084472656 C -935.9996337890625 -394.7067565917969 -936.4496459960938 -392.4800720214844 -937.3372802734375 -390.3816833496094 C -938.1937255859375 -388.3569030761719 -939.4189453125 -386.539306640625 -940.9789428710938 -384.9793701171875 C -942.5389404296875 -383.4194641113281 -944.3566284179688 -382.1942749023438 -946.3815307617188 -381.3378601074219 C -948.47998046875 -380.4503479003906 -950.7068481445312 -380.0003051757812 -953.0001220703125 -380.0003051757812 Z" stroke="none" fill="#000"/></g><rect width="190" height="248" fill="rgba(255,255,255,0)"/><path d="M0,0H160a0,0,0,0,1,0,0V134a13,13,0,0,1-13,13H13A13,13,0,0,1,0,134V0A0,0,0,0,1,0,0Z" transform="translate(15 80)" fill="url(#a)"/><g transform="translate(8.008 218) rotate(-90)"><g transform="translate(68 63.992)" stroke="#b400ff" stroke-width="4" fill="url(#b)"><circle cx="9.5" cy="9.5" r="9.5" stroke="none"/><circle cx="9.5" cy="9.5" r="7.5" fill="none"/></g><g transform="translate(95 47.992)" stroke="#b400ff" stroke-width="4" fill="url(#b)"><circle cx="9.5" cy="9.5" r="9.5" stroke="none"/><circle cx="9.5" cy="9.5" r="7.5" fill="none"/></g><g transform="translate(98 90.992)" stroke="#b400ff" stroke-width="4" fill="url(#b)"><circle cx="9.5" cy="9.5" r="9.5" stroke="none"/><circle cx="9.5" cy="9.5" r="7.5" fill="none"/></g><g transform="translate(28 128.992)" stroke="#b400ff" stroke-width="4" fill="url(#b)"><circle cx="9.5" cy="9.5" r="9.5" stroke="none"/><circle cx="9.5" cy="9.5" r="7.5" fill="none"/></g><g transform="translate(53 56.992)" stroke="#b400ff" stroke-width="4" fill="url(#b)"><circle cx="6.5" cy="6.5" r="6.5" stroke="none"/><circle cx="6.5" cy="6.5" r="4.5" fill="none"/></g><g transform="translate(98 21.992)" stroke="#b400ff" stroke-width="4" fill="url(#b)"><circle cx="6.5" cy="6.5" r="6.5" stroke="none"/><circle cx="6.5" cy="6.5" r="4.5" fill="none"/></g><g transform="translate(107 142.992)" stroke="#b400ff" stroke-width="4" fill="url(#b)"><circle cx="6.5" cy="6.5" r="6.5" stroke="none"/><circle cx="6.5" cy="6.5" r="4.5" fill="none"/></g><g transform="translate(68 91.992)" stroke="#b400ff" stroke-width="4" fill="url(#b)"><circle cx="11" cy="11" r="11" stroke="none"/><circle cx="11" cy="11" r="9" fill="none"/></g><g transform="translate(36 87.992)" stroke="#b400ff" stroke-width="4" fill="url(#b)"><circle cx="9" cy="9" r="9" stroke="none"/><circle cx="9" cy="9" r="7" fill="none"/></g><g transform="translate(40 35.992)" stroke="#b400ff" stroke-width="4" fill="url(#b)"><circle cx="9.5" cy="9.5" r="9.5" stroke="none"/><circle cx="9.5" cy="9.5" r="7.5" fill="none"/></g><g transform="translate(72 128.992)" stroke="#b400ff" stroke-width="4" fill="url(#b)"><circle cx="9" cy="9" r="9" stroke="none"/><circle cx="9" cy="9" r="7" fill="none"/></g><g transform="translate(28 58.992)" stroke="#b400ff" stroke-width="4" fill="url(#b)"><ellipse cx="10.5" cy="11" rx="10.5" ry="11" stroke="none"/><ellipse cx="10.5" cy="11" rx="8.5" ry="9" fill="none"/></g><g transform="translate(46 111.992)" stroke="#b400ff" stroke-width="4" fill="url(#b)"><ellipse cx="11" cy="10.5" rx="11" ry="10.5" stroke="none"/><ellipse cx="11" cy="10.5" rx="9" ry="8.5" fill="none"/></g><g transform="translate(24 21.992)" stroke="#b400ff" stroke-width="4" fill="url(#b)"><circle cx="7" cy="7" r="7" stroke="none"/><circle cx="7" cy="7" r="5" fill="none"/></g><g transform="translate(93 114.992)" stroke="#b400ff" stroke-width="4" fill="url(#b)"><ellipse cx="7" cy="7.5" rx="7" ry="7.5" stroke="none"/><ellipse cx="7" cy="7.5" rx="5" ry="5.5" fill="none"/></g><g transform="translate(68 28.992)" stroke="#b400ff" stroke-width="4" fill="url(#b)"><circle cx="9.5" cy="9.5" r="9.5" stroke="none"/><circle cx="9.5" cy="9.5" r="7.5" fill="none"/></g></g><rect width="160" height="182" rx="13" transform="translate(15 45)" fill="url(#r)"/><rect width="160" height="182" rx="13" transform="translate(15 45)" fill="none" stroke="#f8f8f8" stroke-width="4"/><rect width="160" height="31" rx="13" transform="translate(15 14)" stroke="#f8f8f8" stroke-width="4" fill="url(#s)"/></g></svg>