<svg xmlns="http://www.w3.org/2000/svg" xmlns:xlink="http://www.w3.org/1999/xlink" width="190" height="248" viewBox="0 0 190 248"><defs><radialGradient id="a" cx="0.393" cy="0.299" r="0.771" gradientUnits="objectBoundingBox"><stop offset="0" stop-color="#ffcb7d"/><stop offset="0.552" stop-color="#f90"/><stop offset="1" stop-color="#824e00"/></radialGradient><clipPath id="d"><rect width="190" height="248"/></clipPath></defs><g id="c" clip-path="url(#d)"><g transform="translate(15 14)"><g transform="translate(0 77)"><path d="M 132.705322265625 136.9999084472656 L 131.9290313720703 136.9999084472656 L 15.00030899047852 136.9999084472656 C 10.72640037536621 136.9999084472656 6.70836353302002 135.3357696533203 3.686381816864014 132.3140258789062 C 0.6643272638320923 129.2922210693359 -1 125.2743301391602 -1 121.0004959106445 L -1 19.98482322692871 L -1 19.30729675292969 L -0.3707636296749115 19.05609703063965 C 11.35674571990967 14.37435150146484 23.76199913024902 12.00049686431885 36.50040054321289 12.00049686431885 C 43.2507438659668 12.00049686431885 49.99714660644531 12.68062400817871 56.55218124389648 14.02196979522705 C 62.94112777709961 15.32933330535889 69.22549438476562 17.28011512756348 75.23072814941406 19.82011413574219 C 81.126708984375 22.31389617919922 86.81330871582031 25.40047836303711 92.13256072998047 28.99411582946777 C 97.40101623535156 32.55342483520508 102.3552017211914 36.64102554321289 106.8574905395508 41.14335250854492 C 111.3597793579102 45.64566040039062 115.4473419189453 50.59986114501953 119.0066146850586 55.86833190917969 C 122.6001968383789 61.18758773803711 125.6867446899414 66.87419128417969 128.1805114746094 72.77014923095703 C 130.7204742431641 78.77535247802734 132.6712188720703 85.05967712402344 133.9785614013672 91.44858551025391 C 135.3198852539062 98.00354766845703 136 104.7498626708984 136 111.5000991821289 C 136 119.878547668457 134.9562683105469 128.2049102783203 132.8978118896484 136.2478637695312 L 132.705322265625 136.9999084472656 Z" stroke="none"/><path d="M 131.9290466308594 135.9999084472656 C 133.9335174560547 128.1678314208984 135 119.9570236206055 135 111.5001068115234 C 135 57.10050582885742 90.90090179443359 13.00050640106201 36.50040054321289 13.00050640106201 C 23.60440063476562 13.00050640106201 11.2880802154541 15.47848606109619 0 19.98482513427734 L 0 121.0005035400391 C 0 129.2850036621094 6.715799808502197 135.9999084472656 15.00030040740967 135.9999084472656 L 131.9290466308594 135.9999084472656 M 133.4816436767578 137.9999084472656 L 15.00030040740967 137.9999084472656 C 12.7061595916748 137.9999084472656 10.47957992553711 137.5502014160156 8.38245964050293 136.6632995605469 C 6.3578200340271 135.8070526123047 4.539939880371094 134.5816650390625 2.979300022125244 133.0211639404297 C 1.418660044670105 131.4606475830078 0.1931400001049042 129.6428680419922 -0.6632000207901001 127.6183090209961 C -1.550240039825439 125.5212249755859 -2 123.2946624755859 -2 121.0005035400391 L -2 18.6297664642334 L -0.7415199875831604 18.12736511230469 C 11.10439968109131 13.39832592010498 23.6343994140625 11.00050640106201 36.50040054321289 11.00050640106201 C 43.31793975830078 11.00050640106201 50.13177871704102 11.68746566772461 56.75263977050781 13.04228591918945 C 63.20626068115234 14.36288642883301 69.55426025390625 16.33340644836426 75.62027740478516 18.89912605285645 C 81.57573699951172 21.41806602478027 87.31961822509766 24.53572654724121 92.6923828125 28.16550636291504 C 98.01355743408203 31.76044654846191 103.0173034667969 35.8889274597168 107.5645980834961 40.43624496459961 C 112.1119003295898 44.98356628417969 116.2403411865234 49.98732757568359 119.8352432250977 55.30852508544922 C 123.4649810791016 60.6812858581543 126.5826034545898 66.42516326904297 129.1015167236328 72.38060760498047 C 131.6672058105469 78.44660949707031 133.6376800537109 84.79454803466797 134.9582672119141 91.24812316894531 C 136.3130645751953 97.86892700195312 137 104.6826629638672 137 111.5001068115234 C 137 119.9620895385742 135.9457550048828 128.3718414306641 133.8665924072266 136.4957885742188 L 133.4816436767578 137.9999084472656 Z" stroke="none" fill="#000"/></g><g transform="translate(45.999 0)"><path d="M 98.50050354003906 127.9999008178711 C 93.03923797607422 127.9999008178711 87.58112335205078 127.4496536254883 82.27777099609375 126.3644485473633 C 77.10867309570312 125.3067169189453 72.02419281005859 123.7284317016602 67.16555786132812 121.6734313964844 C 62.39533996582031 119.6558303833008 57.7945556640625 117.1586303710938 53.49097442626953 114.2512359619141 C 49.22853851318359 111.3716354370117 45.22039031982422 108.0646362304688 41.57782363891602 104.4221038818359 C 37.93527221679688 100.7795639038086 34.62825775146484 96.77145385742188 31.74862289428711 92.50906372070312 C 28.84120750427246 88.20553588867188 26.34400749206543 83.60478210449219 24.32638931274414 78.83463287353516 C 22.27139091491699 73.97606658935547 20.69309043884277 68.89164733886719 19.63535690307617 63.72264862060547 C 18.55015754699707 58.41936874389648 17.99990653991699 52.96134948730469 17.99990653991699 47.50020217895508 C 17.99990653991699 38.67696762084961 19.4184741973877 30.0039005279541 22.21622276306152 21.72195053100586 C 24.92148971557617 13.71371746063232 28.86704063415527 6.204183578491211 33.94327163696289 -0.5980829000473022 L 34.24320602416992 -0.9999995827674866 L 34.74470520019531 -0.9999995827674866 L 99.00000762939453 -0.9999995827674866 C 103.2738723754883 -0.9999995827674866 107.2919082641602 0.6643170714378357 110.3139572143555 3.686350345611572 C 113.3359909057617 6.708400249481201 115.0003051757812 10.72643375396729 115.0003051757812 15.00030040740967 L 115.0003051757812 125.4897155761719 L 115.0003051757812 126.3114471435547 L 114.1941604614258 126.4707489013672 C 109.0591735839844 127.4854202270508 103.7790603637695 127.9999008178711 98.50050354003906 127.9999008178711 Z" stroke="none"/><path d="M 34.74470520019531 7.62939453125e-06 C 24.85488891601562 13.25257110595703 18.99990844726562 29.69265747070312 18.99990844726562 47.50020599365234 C 18.99990844726562 91.40669250488281 54.59310913085938 126.9998931884766 98.50050354003906 126.9998931884766 C 103.8039093017578 126.9998931884766 108.9875640869141 126.4802398681641 114.0003051757812 125.4897155761719 L 114.0003051757812 15.00029754638672 C 114.0003051757812 6.715789794921875 107.2845077514648 7.62939453125e-06 99 7.62939453125e-06 L 34.74470520019531 7.62939453125e-06 M 33.74170684814453 -1.999992370605469 L 99 -1.999992370605469 C 101.2941589355469 -1.999992370605469 103.5207443237305 -1.550224304199219 105.6179275512695 -0.6632156372070312 C 107.6425476074219 0.193115234375 109.4604339599609 1.418624877929688 111.0210494995117 2.979240417480469 C 112.5816879272461 4.539878845214844 113.8071975708008 6.357749938964844 114.6635284423828 8.382369995117188 C 115.5505447387695 10.47955322265625 116.0003051757812 12.70613098144531 116.0003051757812 15.00029754638672 L 116.0003051757812 127.133186340332 L 114.3880157470703 127.4517669677734 C 109.1893768310547 128.4790344238281 103.8440551757812 128.9998931884766 98.50050354003906 128.9998931884766 C 92.97205352783203 128.9998931884766 87.44648742675781 128.4428253173828 82.07728576660156 127.3441467285156 C 76.84354400634766 126.2731857299805 71.6954345703125 124.6751480102539 66.77601623535156 122.5944442749023 C 61.94632720947266 120.5516815185547 57.28825378417969 118.0234069824219 52.93118286132812 115.0798568725586 C 48.61599731445312 112.1646270751953 44.55828857421875 108.8167343139648 40.8707275390625 105.1292037963867 C 37.18315887451172 101.4416809082031 33.83525085449219 97.38398742675781 30.91999816894531 93.06886291503906 C 27.97643280029297 88.71183776855469 25.44815826416016 84.05380249023438 23.4053955078125 79.22418212890625 C 21.32466888427734 74.30482482910156 19.72663116455078 69.15679931640625 18.65565490722656 63.92313385009766 C 17.55697631835938 58.55402374267578 16.99990844726562 53.02854919433594 16.99990844726562 47.50020599365234 C 16.99990844726562 38.56791687011719 18.43618011474609 29.78717041015625 21.26881408691406 21.40189361572266 C 24.00785064697266 13.29371643066406 28.00251007080078 5.690643310546875 33.14183044433594 -1.196159362792969 L 33.74170684814453 -1.999992370605469 Z" stroke="none" fill="#000"/></g></g><rect width="190" height="248" fill="rgba(255,255,255,0)"/><g transform="translate(15 14)"><g transform="translate(0 77)" fill="url(#a)"><path d="M 130.3634338378906 133.9999084472656 L 15.00030040740967 133.9999084472656 C 11.52768039703369 133.9999084472656 8.262980461120605 132.6477813720703 5.807620048522949 130.192626953125 C 3.352240085601807 127.7374496459961 2 124.4729461669922 2 121.0005035400391 L 2 21.35004997253418 C 12.99982166290283 17.13601112365723 24.599365234375 15.00050640106201 36.50040054321289 15.00050640106201 C 43.04916000366211 15.00050640106201 49.59320068359375 15.66014575958252 55.95074081420898 16.9610652923584 C 62.14569854736328 18.22874641418457 68.23921966552734 20.12026596069336 74.06205749511719 22.58312606811523 C 79.77964019775391 25.00146675109863 85.29440307617188 27.99480628967285 90.45314025878906 31.4799861907959 C 95.56337738037109 34.93242645263672 100.3688812255859 38.89734649658203 104.7361602783203 43.26466751098633 C 109.1034393310547 47.63196563720703 113.0683364868164 52.43748474121094 116.5207366943359 57.54774475097656 C 120.0058975219727 62.70648574829102 122.9991989135742 68.22124481201172 125.4175033569336 73.93880462646484 C 127.8803176879883 79.76162719726562 129.7718200683594 85.85512542724609 131.0394592285156 92.05000305175781 C 132.3403778076172 98.40748596191406 133 104.9514465332031 133 111.5001068115234 C 133 119.1064529418945 132.1134185791016 126.6678771972656 130.3634338378906 133.9999084472656 Z" stroke="none"/><path d="M 128.7709655761719 131.9999084472656 C 130.2510375976562 125.3015213012695 131 118.4204254150391 131 111.5000991821289 C 131 105.0858306884766 130.3540344238281 98.67676544189453 129.0800628662109 92.45095825195312 C 127.8388977050781 86.38539123535156 125.9868774414062 80.41914367675781 123.5754776000977 74.7178955078125 C 121.2074813842773 69.11927032470703 118.2763519287109 63.71908187866211 114.8635025024414 58.66735076904297 C 111.4823532104492 53.66255950927734 107.5992050170898 48.9561653137207 103.3219604492188 44.67887115478516 C 99.04467010498047 40.40156173706055 94.33829498291016 36.51839447021484 89.33351898193359 33.13722610473633 C 84.28179168701172 29.72433090209961 78.88160705566406 26.79316520690918 73.282958984375 24.42514419555664 C 67.58171081542969 22.01370620727539 61.61539459228516 20.16166496276855 55.5497932434082 18.92045593261719 C 49.32391738891602 17.64647674560547 42.91477203369141 17.00049781799316 36.50039672851562 17.00049781799316 C 25.30746459960938 17.00049781799316 14.38790416717529 18.92885971069336 4 22.73628044128418 L 4 121.0004959106445 C 4 123.9387054443359 5.144187450408936 126.7009353637695 7.221770763397217 128.7783508300781 C 9.299416542053223 130.8558044433594 12.06187534332275 131.9999084472656 15.00031280517578 131.9999084472656 L 128.7709655761719 131.9999084472656 M 131.9290466308594 135.9999084472656 L 15.00031280517578 135.9999084472656 C 6.715812683105469 135.9999084472656 1.4210854715202e-14 129.2850036621094 1.4210854715202e-14 121.0004959106445 L 1.4210854715202e-14 19.98483085632324 C 11.28808307647705 15.47849750518799 23.60439491271973 13.00049781799316 36.50039672851562 13.00049781799316 C 90.90089416503906 13.00049781799316 135 57.10049819946289 135 111.5000991821289 C 135 119.9570159912109 133.9335174560547 128.1678314208984 131.9290466308594 135.9999084472656 Z" stroke="none" fill="#f90"/></g><g transform="translate(45.999 0)" fill="url(#a)"><path d="M 98.50050354003906 124.9998931884766 C 88.03699493408203 124.9998931884766 77.88759613037109 122.9510955810547 68.33419799804688 118.9104080200195 C 63.74239730834961 116.96826171875 59.31345367431641 114.5643157958984 55.17037963867188 111.7653503417969 C 51.066162109375 108.9926223754883 47.20668792724609 105.8082809448242 43.69914245605469 102.3007659912109 C 40.19159698486328 98.79325866699219 37.00723266601562 94.93380737304688 34.23448944091797 90.82962036132812 C 31.43550682067871 86.68662261962891 29.03156089782715 82.25772857666016 27.08939743041992 77.66596984863281 C 23.0487060546875 68.11273193359375 20.99990653991699 57.96349716186523 20.99990653991699 47.50020599365234 C 20.99990653991699 39.00411224365234 22.36539840698242 30.65407752990723 25.05843353271484 22.68207740783691 C 27.55624771118164 15.28796100616455 31.15328788757324 8.334501266479492 35.75566101074219 2.000005006790161 L 99 2.000005006790161 C 102.472541809082 2.000005006790161 105.7372131347656 3.352259397506714 108.1926345825195 5.807677745819092 C 110.6480560302734 8.263095855712891 112.0003051757812 11.5277681350708 112.0003051757812 15.00029563903809 L 112.0003051757812 123.8283157348633 C 107.5666885375977 124.6061019897461 103.0332489013672 124.9998931884766 98.50050354003906 124.9998931884766 Z" stroke="none"/><path d="M 36.78305816650391 3.999992370605469 C 32.58161163330078 9.947929382324219 29.27838134765625 16.439208984375 26.95322418212891 23.32217407226562 C 24.33000946044922 31.08754730224609 22.99990844726562 39.22221374511719 22.99990844726562 47.50021362304688 C 22.99990844726562 57.69438934326172 24.99554443359375 67.58148956298828 28.93140411376953 76.88687133789062 C 30.82326507568359 81.35966491699219 33.16504669189453 85.67401123046875 35.8917236328125 89.71000671386719 C 38.59320831298828 93.70870971679688 41.69580841064453 97.46903228759766 45.11334991455078 100.8865509033203 C 48.5308837890625 104.3040466308594 52.29124450683594 107.4066314697266 56.28998565673828 110.1080932617188 C 60.3260498046875 112.8347702026367 64.64042663574219 115.1765518188477 69.11328125 117.0683898925781 C 78.4188232421875 121.0042495727539 88.30612182617188 122.9998931884766 98.50050354003906 122.9998931884766 C 102.355339050293 122.9998931884766 106.2102127075195 122.7077026367188 110.0003051757812 122.1296234130859 L 110.0003051757812 15.00028991699219 C 110.0003051757812 12.06197357177734 108.856086730957 9.299552917480469 106.7784271240234 7.221870422363281 C 104.7007446289062 5.144210815429688 101.9383239746094 3.999992370605469 99.00000762939453 3.999992370605469 L 36.78305816650391 3.999992370605469 M 34.74470520019531 -7.62939453125e-06 L 99.00000762939453 -7.62939453125e-06 C 107.2845077514648 -7.62939453125e-06 114.0003051757812 6.715789794921875 114.0003051757812 15.00028991699219 L 114.0003051757812 125.4897079467773 C 108.987548828125 126.4802322387695 103.8039093017578 126.9998931884766 98.50050354003906 126.9998931884766 C 54.59310913085938 126.9998931884766 18.99990844726562 91.40669250488281 18.99990844726562 47.50021362304688 C 18.99990844726562 29.69267272949219 24.85488891601562 13.25257110595703 34.74470520019531 -7.62939453125e-06 Z" stroke="none" fill="#f90"/></g></g></g></svg>