<svg xmlns="http://www.w3.org/2000/svg" xmlns:xlink="http://www.w3.org/1999/xlink" width="190" height="248" viewBox="0 0 190 248"><defs><clipPath id="b"><rect width="190" height="248"/></clipPath></defs><g id="a" clip-path="url(#b)"><g transform="translate(245.832 616.683)" stroke-miterlimit="10"><path d="M -138.2908477783203 -405.219970703125 L -139.9766387939453 -406.3505249023438 C -141.6375122070312 -407.46435546875 -142.5521850585938 -409.1904602050781 -142.5521850585938 -411.2109069824219 C -142.5521850585938 -412.9189758300781 -142.1050109863281 -414.4605712890625 -141.2230377197266 -415.7928161621094 C -140.5751953125 -416.7713928222656 -139.5712738037109 -417.9908447265625 -138.1539001464844 -419.5208740234375 C -136.6877899169922 -421.1023864746094 -136.0028228759766 -422.0042724609375 -135.6862640380859 -422.4825134277344 C -135.4812469482422 -422.7921752929688 -135.3704833984375 -423.2252807617188 -135.3564300537109 -423.7712707519531 C -135.4140625 -423.8442993164062 -135.5487976074219 -423.9898681640625 -135.8301391601562 -424.1903686523438 C -138.3284759521484 -425.80419921875 -140.2561340332031 -427.6563110351562 -141.5604858398438 -429.6961364746094 C -142.9531097412109 -431.8739929199219 -143.6592254638672 -434.2815551757812 -143.6592254638672 -436.8518981933594 C -143.6592254638672 -440.7109985351562 -142.3026428222656 -444.0634155273438 -139.6271362304688 -446.8160705566406 C -136.9285888671875 -449.5924377441406 -133.5970306396484 -451.0002136230469 -129.7250823974609 -451.0002136230469 C -127.8519515991211 -451.0002136230469 -126.1315841674805 -450.67431640625 -124.6117706298828 -450.0315856933594 C -123.0293273925781 -449.3623352050781 -121.6526412963867 -448.3485412597656 -120.5199584960938 -447.0183715820312 C -118.391716003418 -444.5175170898438 -117.3129043579102 -441.2846984863281 -117.3129043579102 -437.4089965820312 C -117.3129043579102 -434.9139709472656 -117.7777709960938 -432.2512817382812 -118.6946411132812 -429.4947814941406 C -119.5782165527344 -426.8383178710938 -120.9092178344727 -424.0134582519531 -122.6506118774414 -421.0986633300781 C -126.1362457275391 -415.2669372558594 -130.8342437744141 -410.3097534179688 -136.6143951416016 -406.3643188476562 L -138.2908477783203 -405.219970703125 Z M -212.4833526611328 -412.1992797851562 L -214.1616668701172 -413.3185119628906 C -217.6336975097656 -415.6339111328125 -219.4689025878906 -419.0915832519531 -219.4689025878906 -423.3177185058594 C -219.4689025878906 -427.4343872070312 -218.4085845947266 -431.1125183105469 -216.3173980712891 -434.2497863769531 C -214.4434814453125 -437.0606689453125 -211.4569854736328 -440.6509094238281 -207.1870880126953 -445.2258605957031 C -203.1988525390625 -449.4990234375 -200.3307647705078 -452.9340515136719 -198.6625823974609 -455.4355163574219 C -197.2201995849609 -457.59912109375 -196.5189056396484 -460.2309875488281 -196.5189056396484 -463.4811096191406 C -196.5189056396484 -465.6796875 -197.9585571289062 -467.7506103515625 -200.9196624755859 -469.8109741210938 C -204.4990234375 -472.0994567871094 -207.6853485107422 -474.5534362792969 -210.3903198242188 -477.1050109863281 C -213.1476135253906 -479.7059020996094 -215.4846343994141 -482.4831237792969 -217.3364562988281 -485.3595275878906 C -221.09423828125 -491.1963806152344 -222.9995880126953 -497.6453857421875 -222.9995880126953 -504.5274047851562 C -222.9995880126953 -509.7495422363281 -222.0713500976562 -514.6778564453125 -220.2406616210938 -519.17529296875 C -218.4092407226562 -523.674560546875 -215.6341705322266 -527.8424072265625 -211.9924621582031 -531.5630493164062 C -204.6718444824219 -539.0433349609375 -195.6348724365234 -542.8362426757812 -185.1326904296875 -542.8362426757812 C -174.8459625244141 -542.8362426757812 -166.6548767089844 -539.3655395507812 -160.7870330810547 -532.5205078125 C -157.8936157226562 -529.144775390625 -155.6960144042969 -525.2008056640625 -154.2551727294922 -520.798095703125 C -152.8386383056641 -516.4696655273438 -152.1204071044922 -511.5895385742188 -152.1204071044922 -506.293212890625 C -152.1204071044922 -499.0863647460938 -153.4905395507812 -491.3410949707031 -156.1927185058594 -483.2726135253906 C -158.8611907958984 -475.3048095703125 -162.9070587158203 -466.7893371582031 -168.2179565429688 -457.9627075195312 C -173.5297241210938 -449.1346435546875 -179.8084869384766 -440.9022521972656 -186.8797760009766 -433.4942626953125 C -193.9454345703125 -426.0921936035156 -201.9979553222656 -419.3084106445312 -210.8136596679688 -413.3313598632812 L -212.4833526611328 -412.1992797851562 Z M -108.8239822387695 -489.0699462890625 L -110.4996643066406 -490.184814453125 C -112.442138671875 -491.4771728515625 -113.5119018554688 -493.4848327636719 -113.5119018554688 -495.8379211425781 C -113.5119018554688 -497.9208068847656 -112.966194152832 -499.7932434082031 -111.8899002075195 -501.4031372070312 C -111.0475311279297 -502.6641235351562 -109.7311401367188 -504.2466735839844 -107.8660888671875 -506.2403259277344 C -106.24755859375 -507.9712524414062 -105.0978240966797 -509.3414306640625 -104.4492721557617 -510.312255859375 C -104.038215637207 -510.9271240234375 -103.8386917114258 -511.7174072265625 -103.8386917114258 -512.7291259765625 C -103.8386917114258 -513.0078735351562 -104.2619781494141 -513.4822998046875 -104.921012878418 -513.9446411132812 C -108.1636123657227 -516.0181274414062 -110.658088684082 -518.38720703125 -112.3354797363281 -520.9866333007812 C -114.1038513183594 -523.72705078125 -115.0005111694336 -526.756591796875 -115.0005111694336 -529.9910888671875 C -115.0005111694336 -534.868896484375 -113.272216796875 -539.104248046875 -109.8636627197266 -542.5795288085938 C -106.4380874633789 -546.0709838867188 -102.2126693725586 -547.8411254882812 -97.30440521240234 -547.8411254882812 C -94.92900848388672 -547.8411254882812 -92.75498199462891 -547.434814453125 -90.84272003173828 -546.6333618164062 C -88.86579895019531 -545.8048706054688 -87.14472198486328 -544.5481567382812 -85.72727203369141 -542.8981323242188 C -83.02445220947266 -539.7518310546875 -81.65400695800781 -535.6591186523438 -81.65400695800781 -530.733642578125 C -81.65400695800781 -527.51416015625 -82.26195526123047 -524.0704956054688 -83.46100616455078 -520.4983520507812 C -84.62613677978516 -517.0272827148438 -86.38513946533203 -513.330078125 -88.68919372558594 -509.5094604492188 C -90.99416351318359 -505.6873168945312 -93.71879577636719 -502.1229248046875 -96.78745269775391 -498.9152526855469 C -99.85066223144531 -495.7132263183594 -103.3394546508789 -492.7802429199219 -107.1569290161133 -490.1977233886719 L -108.8239822387695 -489.0699462890625 Z M -148.4644775390625 -554.2194213867188 L -150.1502990722656 -555.35009765625 C -151.8111419677734 -556.4639282226562 -152.7257995605469 -558.1900024414062 -152.7257995605469 -560.2103881835938 C -152.7257995605469 -561.9185180664062 -152.2785797119141 -563.4601440429688 -151.3965911865234 -564.7923583984375 C -150.7486724853516 -565.7710571289062 -149.7447662353516 -566.990478515625 -148.3275146484375 -568.5203857421875 C -146.8614501953125 -570.101806640625 -146.1764221191406 -571.0037841796875 -145.8597717285156 -571.4820556640625 C -145.6548614501953 -571.7916259765625 -145.5440979003906 -572.2247924804688 -145.5300445556641 -572.770751953125 C -145.5876770019531 -572.8438110351562 -145.722412109375 -572.9893798828125 -146.0037994384766 -573.18994140625 C -148.5021057128906 -574.8037719726562 -150.4297027587891 -576.6558227539062 -151.7340545654297 -578.6956176757812 C -153.1266937255859 -580.8734741210938 -153.8327941894531 -583.2810668945312 -153.8327941894531 -585.8514404296875 C -153.8327941894531 -589.71044921875 -152.4762115478516 -593.0629272460938 -149.8007659912109 -595.8155517578125 C -147.1021881103516 -598.5919799804688 -143.7706451416016 -599.9996948242188 -139.8986968994141 -599.9996948242188 C -138.0255584716797 -599.9996948242188 -136.3051910400391 -599.6737670898438 -134.7853698730469 -599.0310668945312 C -133.2028961181641 -598.36181640625 -131.8261871337891 -597.3480224609375 -130.6935577392578 -596.017822265625 C -128.5653533935547 -593.5170288085938 -127.4865112304688 -590.2841796875 -127.4865112304688 -586.4085083007812 C -127.4865112304688 -583.9135131835938 -127.9513778686523 -581.2507934570312 -128.8682403564453 -578.4943237304688 C -129.7518310546875 -575.8378295898438 -131.0827941894531 -573.0130004882812 -132.8241882324219 -570.0982055664062 C -136.3097381591797 -564.2666015625 -141.0077514648438 -559.3093872070312 -146.7879791259766 -555.3638305664062 L -148.4644775390625 -554.2194213867188 Z" stroke="none"/><path d="M -138.3057250976562 -408.8421020507812 C -132.8616027832031 -412.5581970214844 -128.5019836425781 -417.1563110351562 -125.2259902954102 -422.6372680664062 C -121.9509124755859 -428.1192016601562 -120.3129119873047 -433.0431213378906 -120.3129119873047 -437.4089660644531 C -120.3129119873047 -440.5680236816406 -121.1436080932617 -443.1221923828125 -122.8041076660156 -445.0734252929688 C -124.4654922485352 -447.0245971679688 -126.7721786499023 -448.0002136230469 -129.72509765625 -448.0002136230469 C -132.7697906494141 -448.0002136230469 -135.3536834716797 -446.9085083007812 -137.4759063720703 -444.72509765625 C -139.5980987548828 -442.5417175292969 -140.6592254638672 -439.9172973632812 -140.6592254638672 -436.8518981933594 C -140.6592254638672 -432.8568115234375 -138.4911041259766 -429.465576171875 -134.1539916992188 -426.67919921875 C -132.9542999267578 -425.8430786132812 -132.3549194335938 -424.9134521484375 -132.3549194335938 -423.8919067382812 C -132.3549194335938 -422.6841430664062 -132.6312255859375 -421.66259765625 -133.1847229003906 -420.8265075683594 C -133.7382202148438 -419.9903869628906 -134.6616058349609 -418.8752746582031 -135.9531097412109 -417.4821166992188 C -137.2445983886719 -416.0880126953125 -138.1679840087891 -414.972900390625 -138.7214965820312 -414.1368103027344 C -139.2749938964844 -413.3007202148438 -139.5521850585938 -412.3260192871094 -139.5521850585938 -411.2109069824219 C -139.5521850585938 -410.1885070800781 -139.1364135742188 -409.3992004394531 -138.3057250976562 -408.8421020507812 M -212.4972229003906 -415.8144226074219 C -195.1371002197266 -427.5846252441406 -181.2339172363281 -442.1493225097656 -170.7884826660156 -459.5093994140625 C -160.3431091308594 -476.8695068359375 -155.1204071044922 -492.4638366699219 -155.1204071044922 -506.293212890625 C -155.1204071044922 -516.297607421875 -157.7682189941406 -524.3886108398438 -163.0646820068359 -530.5679931640625 C -168.3612213134766 -536.7465209960938 -175.7169189453125 -539.8362426757812 -185.1327209472656 -539.8362426757812 C -194.8428039550781 -539.8362426757812 -203.0814056396484 -536.3793334960938 -209.8484954833984 -529.464599609375 C -216.6164855957031 -522.5499267578125 -219.9996032714844 -514.2374877929688 -219.9996032714844 -504.5274047851562 C -219.9996032714844 -491.8752136230469 -213.0858001708984 -481.1355285644531 -199.2564086914062 -472.3083190917969 C -195.4314117431641 -469.6605224609375 -193.5189056396484 -466.7174987792969 -193.5189056396484 -463.4810791015625 C -193.5189056396484 -459.6560974121094 -194.4009094238281 -456.4197082519531 -196.1666870117188 -453.7709655761719 C -197.9324951171875 -451.1231994628906 -200.8746032714844 -447.5924987792969 -204.9939117431641 -443.1789245605469 C -209.1132202148438 -438.7653198242188 -212.0552978515625 -435.234619140625 -213.8211059570312 -432.5859069824219 C -215.5859832763672 -429.9380798339844 -216.4689178466797 -426.848388671875 -216.4689178466797 -423.3177185058594 C -216.4689178466797 -420.0812683105469 -215.1449890136719 -417.5802001953125 -212.4972229003906 -415.8144226074219 M -108.8379135131836 -492.6825256347656 C -101.5209121704102 -497.6325073242188 -95.66098785400391 -503.7579040527344 -91.2581787109375 -511.0587158203125 C -86.85541534423828 -518.3594970703125 -84.65399169921875 -524.9177856445312 -84.65399169921875 -530.733642578125 C -84.65399169921875 -534.9411010742188 -85.76998901367188 -538.343994140625 -88.00291442871094 -540.9432373046875 C -90.23490905761719 -543.54150390625 -93.33541107177734 -544.8411254882812 -97.30441284179688 -544.8411254882812 C -101.3967208862305 -544.8411254882812 -104.8689117431641 -543.38671875 -107.7219161987305 -540.4788208007812 C -110.5739898681641 -537.5709228515625 -112.00048828125 -534.0753173828125 -112.00048828125 -529.9910888671875 C -112.00048828125 -524.6702880859375 -109.086296081543 -520.1541137695312 -103.2569885253906 -516.4415893554688 C -101.6451034545898 -515.3283081054688 -100.8386840820312 -514.0908203125 -100.8386840820312 -512.7291259765625 C -100.8386840820312 -511.1208190917969 -101.2104110717773 -509.7591247558594 -101.954719543457 -508.6458129882812 C -102.6989898681641 -507.5316162109375 -103.9391784667969 -506.0475158691406 -105.6753005981445 -504.1908264160156 C -107.4114151000977 -502.3350219726562 -108.6516036987305 -500.8500061035156 -109.3959121704102 -499.7358093261719 C -110.1402206420898 -498.6225280761719 -110.5119094848633 -497.3229064941406 -110.5119094848633 -495.8379516601562 C -110.5119094848633 -494.4771423339844 -109.9539108276367 -493.4250183105469 -108.8379135131836 -492.6825256347656 M -148.4792938232422 -557.8416137695312 C -143.0352172851562 -561.5577392578125 -138.6755981445312 -566.1558227539062 -135.3996124267578 -571.6368408203125 C -132.1244964599609 -577.1187133789062 -130.4864959716797 -582.0426025390625 -130.4864959716797 -586.4085083007812 C -130.4864959716797 -589.5675048828125 -131.3171844482422 -592.1217041015625 -132.9777221679688 -594.0729370117188 C -134.6390991210938 -596.0241088867188 -136.94580078125 -596.9996948242188 -139.898681640625 -596.9996948242188 C -142.9434204101562 -596.9996948242188 -145.5272979736328 -595.9080200195312 -147.6494903564453 -593.724609375 C -149.7716827392578 -591.5411987304688 -150.8327941894531 -588.9168090820312 -150.8327941894531 -585.8514404296875 C -150.8327941894531 -581.8563232421875 -148.6647186279297 -578.465087890625 -144.3276062011719 -575.6787109375 C -143.1279144287109 -574.8425903320312 -142.5284881591797 -573.9129028320312 -142.5284881591797 -572.8914184570312 C -142.5284881591797 -571.68359375 -142.8047943115234 -570.662109375 -143.3582916259766 -569.8259887695312 C -143.9118041992188 -568.9899291992188 -144.8352203369141 -567.8748168945312 -146.1267242431641 -566.4816284179688 C -147.4181823730469 -565.0875244140625 -148.3415985107422 -563.972412109375 -148.8951110839844 -563.1362915039062 C -149.4486083984375 -562.3002319335938 -149.7257995605469 -561.3255004882812 -149.7257995605469 -560.2103881835938 C -149.7257995605469 -559.18798828125 -149.3099822998047 -558.3987426757812 -148.4792938232422 -557.8416137695312 M -138.2760620117188 -401.5977783203125 L -141.6476745605469 -403.8590087890625 C -144.1290740966797 -405.5231628417969 -145.5521850585938 -408.2028198242188 -145.5521850585938 -411.2109069824219 C -145.5521850585938 -413.5181274414062 -144.9373016357422 -415.6168518066406 -143.7245635986328 -417.4488220214844 C -143.0469512939453 -418.472412109375 -141.9356079101562 -419.8530883789062 -140.3546447753906 -421.5596618652344 C -139.9093780517578 -422.0399780273438 -139.5169525146484 -422.474365234375 -139.1806335449219 -422.8656921386719 C -145.2921142578125 -427.4818115234375 -146.6592254638672 -432.9514465332031 -146.6592254638672 -436.8518981933594 C -146.6592254638672 -441.4532775878906 -144.9714508056641 -445.6218872070312 -141.7784118652344 -448.9070129394531 C -138.539794921875 -452.239013671875 -134.3718414306641 -454.0002136230469 -129.72509765625 -454.0002136230469 C -125.0145645141602 -454.0002136230469 -121.0416412353516 -452.2584838867188 -118.2358322143555 -448.9632873535156 C -115.6324157714844 -445.9040222167969 -114.3129119873047 -442.0170288085938 -114.3129119873047 -437.4089660644531 C -114.3129119873047 -431.96533203125 -116.2516403198242 -425.9600524902344 -120.0752182006836 -419.56005859375 C -123.7858352661133 -413.3519287109375 -128.7811889648438 -408.0789489746094 -134.9230651855469 -403.8865051269531 L -138.2760620117188 -401.5977783203125 Z M -212.4695739746094 -408.5841369628906 L -215.8261871337891 -410.8226318359375 C -220.1719055175781 -413.7207336425781 -222.4689178466797 -418.0414733886719 -222.4689178466797 -423.3177185058594 C -222.4689178466797 -428.0369873046875 -221.2391052246094 -432.2748718261719 -218.8136749267578 -435.9136657714844 C -216.8482208251953 -438.8619079589844 -213.7626037597656 -442.577392578125 -209.3802642822266 -447.2728271484375 C -205.5027923583984 -451.4272766113281 -202.7366027832031 -454.7335815429688 -201.158447265625 -457.1000061035156 C -200.055419921875 -458.7545776367188 -199.5189056396484 -460.8421630859375 -199.5189056396484 -463.4810791015625 C -199.5189056396484 -464.9703674316406 -201.4940643310547 -466.5599670410156 -202.6714477539062 -467.375 C -218.0880279541016 -477.2103271484375 -225.9996032714844 -489.7519836425781 -225.9996032714844 -504.5274047851562 C -225.9996032714844 -515.8169555664062 -222.0082244873047 -525.6190795898438 -214.1363677978516 -533.6614990234375 C -206.2304077148438 -541.739990234375 -196.4720611572266 -545.8362426757812 -185.1327209472656 -545.8362426757812 C -173.9304962158203 -545.8362426757812 -164.9730987548828 -542.0130615234375 -158.5093688964844 -534.4730224609375 C -152.2792205810547 -527.2042846679688 -149.1204071044922 -517.7233276367188 -149.1204071044922 -506.293212890625 C -149.1204071044922 -491.4233093261719 -154.6808776855469 -474.6422119140625 -165.6473693847656 -456.4160461425781 C -176.4953002929688 -438.386962890625 -191.1250305175781 -423.0557861328125 -209.1301422119141 -410.8482971191406 L -212.4695739746094 -408.5841369628906 Z M -108.8100662231445 -485.4573669433594 L -112.1614532470703 -487.6871337890625 C -114.966911315918 -489.5536193847656 -116.5119094848633 -492.4483337402344 -116.5119094848633 -495.8379516601562 C -116.5119094848633 -498.5250244140625 -115.7959518432617 -500.9584350585938 -114.3838729858398 -503.070556640625 C -113.5154113769531 -504.3705444335938 -112.0853729248047 -506.1214904785156 -110.0568771362305 -508.2898254394531 C -108.7288436889648 -509.7100830078125 -107.7331771850586 -510.8553161621094 -107.1003494262695 -511.751220703125 C -116.1027450561523 -517.8236083984375 -118.00048828125 -524.9804077148438 -118.00048828125 -529.9910888671875 C -118.00048828125 -535.6821899414062 -115.9834518432617 -540.6243286132812 -112.0054550170898 -544.68017578125 C -108.0507583618164 -548.7109375 -102.9674530029297 -550.8411254882812 -97.30441284179688 -550.8411254882812 C -91.60710144042969 -550.8411254882812 -86.81687164306641 -548.7704467773438 -83.45164489746094 -544.8529663085938 C -80.26818084716797 -541.147216796875 -78.65399169921875 -536.396728515625 -78.65399169921875 -530.733642578125 C -78.65399169921875 -523.8374633789062 -81.16599273681641 -516.1754150390625 -86.12014007568359 -507.960205078125 C -90.95498657226562 -499.9430541992188 -97.46717834472656 -493.130859375 -105.4759521484375 -487.712890625 L -108.8100662231445 -485.4573669433594 Z M -148.4496459960938 -550.5973510742188 L -151.8212585449219 -552.8585815429688 C -154.3026428222656 -554.522705078125 -155.7257995605469 -557.2023315429688 -155.7257995605469 -560.2103881835938 C -155.7257995605469 -562.5177612304688 -155.11083984375 -564.6165771484375 -153.8980255126953 -566.448486328125 C -153.2206115722656 -567.4718017578125 -152.1092529296875 -568.8525390625 -150.5283355712891 -570.5591430664062 C -150.0830841064453 -571.0394287109375 -149.6905822753906 -571.473876953125 -149.3542633056641 -571.8651733398438 C -155.4657135009766 -576.4813232421875 -156.8327941894531 -581.950927734375 -156.8327941894531 -585.8514404296875 C -156.8327941894531 -590.4528198242188 -155.1450347900391 -594.6213989257812 -151.9519958496094 -597.906494140625 C -148.7134552001953 -601.238525390625 -144.5454559326172 -602.9996948242188 -139.898681640625 -602.9996948242188 C -135.1881866455078 -602.9996948242188 -131.2152557373047 -601.2579956054688 -128.4094543457031 -597.9627685546875 C -125.8059921264648 -594.903564453125 -124.4864883422852 -591.0166015625 -124.4864883422852 -586.4085083007812 C -124.4864883422852 -580.9647827148438 -126.4252243041992 -574.9595336914062 -130.2488403320312 -568.5595703125 C -133.9593811035156 -562.3515014648438 -138.9547271728516 -557.0785522460938 -145.0966491699219 -552.8860473632812 L -148.4496459960938 -550.5973510742188 Z" stroke="none" fill="#000"/></g><rect width="190" height="248" fill="rgba(255,255,255,0)"/><g transform="translate(227.832 611)" fill="#230037" stroke-miterlimit="10"><path d="M -194.4879760742188 -407.7217102050781 L -195.6068572998047 -408.4678955078125 C -197.2040405273438 -409.5330200195312 -198.4276123046875 -410.854736328125 -199.2436218261719 -412.3963317871094 C -200.0566558837891 -413.9323120117188 -200.4689025878906 -415.6948852539062 -200.4689025878906 -417.6351013183594 C -200.4689025878906 -421.5509033203125 -199.4650726318359 -425.0423889160156 -197.4852905273438 -428.0126037597656 C -195.6418151855469 -430.7777404785156 -192.6883544921875 -434.3262023925781 -188.4560394287109 -438.8609313964844 C -184.4308776855469 -443.1736755371094 -181.5288696289062 -446.6515808105469 -179.8306274414062 -449.1980590820312 C -178.2967376708984 -451.4989318847656 -177.5189056396484 -454.3926086425781 -177.5189056396484 -457.7985229492188 C -177.5189056396484 -460.3527526855469 -179.1040191650391 -462.6956787109375 -182.3646850585938 -464.9604187011719 C -185.8981628417969 -467.2183227539062 -189.0404205322266 -469.6371765136719 -191.7041625976562 -472.1498413085938 C -194.4026184082031 -474.6952514648438 -196.6875915527344 -477.4098510742188 -198.4956512451172 -480.2182312011719 C -202.1477966308594 -485.8910217285156 -203.9996032714844 -492.1579284667969 -203.9996032714844 -498.8448181152344 C -203.9996032714844 -503.9371032714844 -203.09619140625 -508.738525390625 -201.3144683837891 -513.11572265625 C -199.5322113037109 -517.4942016601562 -196.8282928466797 -521.5535278320312 -193.2778015136719 -525.1809692382812 C -189.7225952148438 -528.813720703125 -185.7155609130859 -531.5806884765625 -181.3681030273438 -533.405029296875 C -177.0218048095703 -535.2288818359375 -172.2323303222656 -536.1536254882812 -167.1327056884766 -536.1536254882812 C -162.1795654296875 -536.1536254882812 -157.6868896484375 -535.321533203125 -153.7795104980469 -533.680419921875 C -149.8294525146484 -532.0214233398438 -146.3864898681641 -529.5003051757812 -143.5462493896484 -526.1870727539062 C -140.7386627197266 -522.9114990234375 -138.6053924560547 -519.0818481445312 -137.20556640625 -514.804443359375 C -135.8219451904297 -510.5765991210938 -135.1203918457031 -505.8011169433594 -135.1203918457031 -500.6106262207031 C -135.1203918457031 -493.511962890625 -136.4731140136719 -485.8735656738281 -139.1409606933594 -477.9075927734375 C -141.7863006591797 -470.0088195800781 -145.8014221191406 -461.5599670410156 -151.0747833251953 -452.7956848144531 C -156.3486938476562 -444.0305480957031 -162.5825500488281 -435.8569946289062 -169.6031494140625 -428.5021362304688 C -176.6198577880859 -421.1513366699219 -184.6178131103516 -414.4137268066406 -193.3748321533203 -408.4764404296875 L -194.4879760742188 -407.7217102050781 Z" stroke="none"/><path d="M -194.4971923828125 -410.1318054199219 C -177.1371002197266 -421.9020080566406 -163.2339019775391 -436.4667053222656 -152.7884979248047 -453.8268127441406 C -142.3430938720703 -471.1869201660156 -137.1203918457031 -486.7812194824219 -137.1203918457031 -500.6106262207031 C -137.1203918457031 -510.6150207519531 -139.7682037353516 -518.7059936523438 -145.064697265625 -524.8854370117188 C -150.3611907958984 -531.0639038085938 -157.7169036865234 -534.1536254882812 -167.1326904296875 -534.1536254882812 C -176.8428039550781 -534.1536254882812 -185.0813903808594 -530.6967163085938 -191.8484954833984 -523.781982421875 C -198.6165008544922 -516.8673095703125 -201.9996032714844 -508.5549011230469 -201.9996032714844 -498.8448181152344 C -201.9996032714844 -486.192626953125 -195.0858001708984 -475.4529113769531 -181.2563934326172 -466.6257019042969 C -177.4314270019531 -463.9779052734375 -175.5188903808594 -461.034912109375 -175.5188903808594 -457.7985229492188 C -175.5188903808594 -453.9735107421875 -176.4008941650391 -450.7371215820312 -178.1667022705078 -448.0884094238281 C -179.9324951171875 -445.4406127929688 -182.8746032714844 -441.909912109375 -186.9939270019531 -437.4963073730469 C -191.1132049560547 -433.0827026367188 -194.0552978515625 -429.552001953125 -195.8210906982422 -426.9033203125 C -197.5859985351562 -424.2555236816406 -198.4689025878906 -421.1658020019531 -198.4689025878906 -417.6351013183594 C -198.4689025878906 -414.3987121582031 -197.1450042724609 -411.8976135253906 -194.4971923828125 -410.1318054199219 M -194.4787445068359 -405.3116149902344 L -196.7165222167969 -406.803955078125 C -200.4797515869141 -409.3136291503906 -202.4689025878906 -413.0589599609375 -202.4689025878906 -417.6351013183594 C -202.4689025878906 -421.9526672363281 -201.3520660400391 -425.8174133300781 -199.1494750976562 -429.1218872070312 C -197.2450408935547 -431.9784851074219 -194.2255249023438 -435.6104125976562 -189.9181671142578 -440.2255554199219 C -185.9668731689453 -444.4591369628906 -183.1327514648438 -447.8512573242188 -181.4945526123047 -450.3077392578125 C -180.1652526855469 -452.3016662597656 -179.5188903808594 -454.7521362304688 -179.5188903808594 -457.7985229492188 C -179.5188903808594 -459.6163024902344 -180.8500213623047 -461.4659423828125 -183.4753570556641 -463.2967224121094 C -198.4221343994141 -472.8579406738281 -205.9996032714844 -484.8172912597656 -205.9996032714844 -498.8448181152344 C -205.9996032714844 -509.5929260253906 -202.2002410888672 -518.9243774414062 -194.7070770263672 -526.5798950195312 C -187.1913909912109 -534.2595825195312 -177.9139404296875 -538.1536254882812 -167.1326904296875 -538.1536254882812 C -156.5408172607422 -538.1536254882812 -148.0943298339844 -534.5654296875 -142.0278167724609 -527.48876953125 C -139.0485229492188 -524.0128173828125 -136.78662109375 -519.95458984375 -135.3047485351562 -515.426513671875 C -133.8553161621094 -510.9975280761719 -133.1203918457031 -506.0127563476562 -133.1203918457031 -500.6106262207031 C -133.1203918457031 -493.2956237792969 -134.5079498291016 -485.4435119628906 -137.2444763183594 -477.2724609375 C -139.9360504150391 -469.2356567382812 -144.0126800537109 -460.653564453125 -149.3610687255859 -451.7645568847656 C -154.7107238769531 -442.87353515625 -161.0343933105469 -434.5823059082031 -168.1564178466797 -427.1211853027344 C -175.2710266113281 -419.6678161621094 -183.3781280517578 -412.8378601074219 -192.2524719238281 -406.8210144042969 L -194.4787445068359 -405.3116149902344 Z" stroke="none" fill="#ef61ff"/></g><g transform="translate(235 535.4)" fill="#230037" stroke-miterlimit="10"><path d="M -97.99620819091797 -408.9915161132812 L -99.11333465576172 -409.7347717285156 C -100.7921371459961 -410.8516845703125 -101.6795043945312 -412.5186157226562 -101.6795043945312 -414.5552978515625 C -101.6795043945312 -416.4368591308594 -101.1905288696289 -418.1222839355469 -100.2261581420898 -419.5647888183594 C -99.41423797607422 -420.7801818847656 -98.1309814453125 -422.3209533691406 -96.30345153808594 -424.2745361328125 C -94.64764404296875 -426.0453491210938 -93.46389007568359 -427.4584350585938 -92.78535461425781 -428.4741821289062 C -92.26100158691406 -429.2584838867188 -92.00629425048828 -430.2305603027344 -92.00629425048828 -431.4465026855469 C -92.00629425048828 -432.0992431640625 -92.51985931396484 -432.7879028320312 -93.53269195556641 -433.4935913085938 C -99.92613983154297 -437.576171875 -103.1681060791016 -442.6951599121094 -103.1681060791016 -448.70849609375 C -103.1681060791016 -453.315185546875 -101.5360794067383 -457.31494140625 -98.31735992431641 -460.5966491699219 C -95.08702087402344 -463.88916015625 -91.10173797607422 -465.5585021972656 -86.47200012207031 -465.5585021972656 C -81.91230010986328 -465.5585021972656 -78.27239990234375 -464.0126342773438 -75.65339660644531 -460.9638366699219 C -73.11080932617188 -458.004150390625 -71.82159423828125 -454.1306457519531 -71.82159423828125 -449.4510192871094 C -71.82159423828125 -446.3399047851562 -72.41207122802734 -443.0033569335938 -73.57661437988281 -439.5339965820312 C -74.71856689453125 -436.1319580078125 -76.44673919677734 -432.5014343261719 -78.713134765625 -428.7432861328125 C -80.98014068603516 -424.9841003417969 -83.6597900390625 -421.478515625 -86.67763519287109 -418.3239135742188 C -89.69185638427734 -415.1731262207031 -93.12604522705078 -412.2862243652344 -96.88483428955078 -409.7433471679688 L -97.99620819091797 -408.9915161132812 Z" stroke="none"/><path d="M -98.00550842285156 -411.39990234375 C -90.68849182128906 -416.3499145507812 -84.82860565185547 -422.4753112792969 -80.42580413818359 -429.776123046875 C -76.02301025390625 -437.076904296875 -73.82160949707031 -443.6352233886719 -73.82160949707031 -449.4510192871094 C -73.82160949707031 -453.6585083007812 -74.93759155273438 -457.0614013671875 -77.17050933837891 -459.6606140136719 C -79.40251159667969 -462.2589111328125 -82.50299072265625 -463.5585021972656 -86.47200775146484 -463.5585021972656 C -90.56430816650391 -463.5585021972656 -94.03649139404297 -462.1041259765625 -96.88951110839844 -459.1961975097656 C -99.74160766601562 -456.2882995605469 -101.1681060791016 -452.792724609375 -101.1681060791016 -448.70849609375 C -101.1681060791016 -443.3877258300781 -98.25389099121094 -438.8715209960938 -92.42459106445312 -435.1589965820312 C -90.81270599365234 -434.0457153320312 -90.00630950927734 -432.8081970214844 -90.00630950927734 -431.4465026855469 C -90.00630950927734 -429.8381958007812 -90.37800598144531 -428.4765014648438 -91.12229156494141 -427.3632202148438 C -91.86660766601562 -426.2490234375 -93.1068115234375 -424.7649230957031 -94.84291076660156 -422.908203125 C -96.57901000976562 -421.0523986816406 -97.81919097900391 -419.5674133300781 -98.56349182128906 -418.4532165527344 C -99.30780792236328 -417.3399047851562 -99.67950439453125 -416.0403137207031 -99.67950439453125 -414.5552978515625 C -99.67950439453125 -413.1945190429688 -99.12150573730469 -412.1423950195312 -98.00550842285156 -411.39990234375 M -97.98690795898438 -406.5831298828125 L -100.2211761474609 -408.0696105957031 C -102.4513092041016 -409.5533447265625 -103.6795043945312 -411.8566589355469 -103.6795043945312 -414.5552978515625 C -103.6795043945312 -416.8396301269531 -103.0770263671875 -418.8990783691406 -101.8887939453125 -420.6763610839844 C -101.0161209106445 -421.9827270507812 -99.6666259765625 -423.6070251464844 -97.76397705078125 -425.6408386230469 C -95.79400634765625 -427.7476806640625 -94.87355804443359 -428.94873046875 -94.44841003417969 -429.5851440429688 C -94.17620849609375 -429.9922790527344 -94.02875518798828 -430.5597839355469 -94.00868225097656 -431.2748107910156 C -94.08863830566406 -431.3738708496094 -94.27137756347656 -431.5671081542969 -94.64596557617188 -431.83154296875 C -98.00138854980469 -433.9800720214844 -100.5907821655273 -436.4459533691406 -102.3433227539062 -439.1618347167969 C -104.2177047729492 -442.0665283203125 -105.1681060791016 -445.2784729003906 -105.1681060791016 -448.70849609375 C -105.1681060791016 -451.2615661621094 -104.7084732055664 -453.6826477050781 -103.8019561767578 -455.9045104980469 C -102.8950424194336 -458.1273803710938 -101.530143737793 -460.17724609375 -99.74520874023438 -461.9971008300781 C -97.94962310791016 -463.8272094726562 -95.91270446777344 -465.2267761230469 -93.69058990478516 -466.1573486328125 C -91.47047424316406 -467.0870971679688 -89.04179382324219 -467.5585021972656 -86.47200775146484 -467.5585021972656 C -83.96317291259766 -467.5585021972656 -81.65912628173828 -467.1260070800781 -79.62382507324219 -466.2730407714844 C -77.50222778320312 -465.3839111328125 -75.65597534179688 -464.0361328125 -74.13630676269531 -462.26708984375 C -71.27330780029297 -458.9344177246094 -69.82160949707031 -454.6224365234375 -69.82160949707031 -449.4510192871094 C -69.82160949707031 -446.1231384277344 -70.44705963134766 -442.5724487304688 -71.68058776855469 -438.8975830078125 C -72.86892700195312 -435.3573303222656 -74.65879058837891 -431.5934448242188 -77.00047302246094 -427.71044921875 C -79.34337615966797 -423.8253784179688 -82.11300659179688 -420.2021484375 -85.23246002197266 -416.9413757324219 C -88.34462738037109 -413.6882019042969 -91.88802337646484 -410.7090759277344 -95.76419067382812 -408.0868225097656 L -97.98690795898438 -406.5831298828125 Z" stroke="none" fill="#ef61ff"/></g><g transform="translate(196.168 483.241)" fill="#230037" stroke-miterlimit="10"><path d="M -98.80471801757812 -421.9856567382812 L -99.92858123779297 -422.7393798828125 C -101.3037567138672 -423.66162109375 -102.0610961914062 -425.0927734375 -102.0610961914062 -426.7691955566406 C -102.0610961914062 -428.2775268554688 -101.6697998046875 -429.6334228515625 -100.8980712890625 -430.7991333007812 C -100.280517578125 -431.7319946289062 -99.30937957763672 -432.9097290039062 -97.92919158935547 -434.3995971679688 C -96.71543121337891 -435.7089233398438 -95.85160827636719 -436.7481384277344 -95.36128234863281 -437.4888000488281 C -95.02652740478516 -437.9944763183594 -94.86380004882812 -438.6360778808594 -94.86380004882812 -439.4502258300781 C -94.86380004882812 -439.8651733398438 -95.42436218261719 -440.326904296875 -95.77877807617188 -440.5773010253906 C -98.16445922851562 -442.1155090332031 -99.99724578857422 -443.8701782226562 -101.2268905639648 -445.7931518554688 C -102.5149917602539 -447.8075866699219 -103.1681060791016 -450.0338745117188 -103.1681060791016 -452.4102172851562 C -103.1681060791016 -455.9999694824219 -101.9067230224609 -459.1178894042969 -99.41896820068359 -461.6773681640625 C -96.91580963134766 -464.2527160644531 -93.82553863525391 -465.5585021972656 -90.23400115966797 -465.5585021972656 C -86.68218231201172 -465.5585021972656 -83.84127807617188 -464.3371276855469 -81.79022979736328 -461.9283142089844 C -79.82041168212891 -459.6136474609375 -78.82180023193359 -456.5988464355469 -78.82180023193359 -452.9673156738281 C -78.82180023193359 -450.5797424316406 -79.26947784423828 -448.0232238769531 -80.15241241455078 -445.3687438964844 C -81.01313781738281 -442.781005859375 -82.31371307373047 -440.0224914550781 -84.01798248291016 -437.1698608398438 C -87.42855834960938 -431.4636840820312 -92.02744293212891 -426.6117553710938 -97.68707275390625 -422.7485656738281 L -98.80471801757812 -421.9856567382812 Z" stroke="none"/><path d="M -98.81461334228516 -424.4004211425781 C -93.37050628662109 -428.1165161132812 -89.01090240478516 -432.714599609375 -85.73490142822266 -438.1956176757812 C -82.45979309082031 -443.6775207519531 -80.82179260253906 -448.6014099121094 -80.82179260253906 -452.9673156738281 C -80.82179260253906 -456.1263122558594 -81.65250396728516 -458.6805114746094 -83.31301116943359 -460.6317138671875 C -84.97439575195312 -462.5829162597656 -87.28110504150391 -463.5585021972656 -90.23399353027344 -463.5585021972656 C -93.27870178222656 -463.5585021972656 -95.86259460449219 -462.466796875 -97.98479461669922 -460.2834167480469 C -100.1069946289062 -458.1000061035156 -101.1681060791016 -455.4756164550781 -101.1681060791016 -452.4102172851562 C -101.1681060791016 -448.4151000976562 -98.99999237060547 -445.02392578125 -94.66290283203125 -442.2375183105469 C -93.46321105957031 -441.4013977050781 -92.86379241943359 -440.4717102050781 -92.86379241943359 -439.4502258300781 C -92.86379241943359 -438.2424011230469 -93.14010620117188 -437.2209167480469 -93.69361114501953 -436.3847961425781 C -94.24710083007812 -435.5487060546875 -95.17050170898438 -434.4336242675781 -96.46201324462891 -433.0404052734375 C -97.75350189208984 -431.6463012695312 -98.67690277099609 -430.5312194824219 -99.23039245605469 -429.6950988769531 C -99.78390502929688 -428.8590087890625 -100.0611038208008 -427.8843078613281 -100.0611038208008 -426.7691955566406 C -100.0611038208008 -425.7467956542969 -99.64530181884766 -424.95751953125 -98.81461334228516 -424.4004211425781 M -98.79483795166016 -419.5708923339844 L -101.0425796508789 -421.0783386230469 C -102.9891052246094 -422.3837890625 -104.0611038208008 -424.4048461914062 -104.0611038208008 -426.7691955566406 C -104.0611038208008 -428.6770324707031 -103.5579833984375 -430.4043579101562 -102.5657196044922 -431.9031677246094 C -101.8877334594727 -432.9273681640625 -100.8509979248047 -434.1885986328125 -99.39634704589844 -435.7587890625 C -97.97584533691406 -437.2911987304688 -97.32499694824219 -438.1456604003906 -97.02897644042969 -438.5928039550781 C -96.97682189941406 -438.6716003417969 -96.93613433837891 -438.7848205566406 -96.90819549560547 -438.9258728027344 C -99.51488494873047 -440.6140747070312 -101.5344390869141 -442.5616455078125 -102.9118576049805 -444.7157287597656 C -104.4089965820312 -447.0570373535156 -105.1681060791016 -449.6458435058594 -105.1681060791016 -452.4102172851562 C -105.1681060791016 -454.4520263671875 -104.8022232055664 -456.3922424316406 -104.0806274414062 -458.1769409179688 C -103.3576278686523 -459.9651184082031 -102.2717514038086 -461.61181640625 -100.8531494140625 -463.0713500976562 C -99.42218017578125 -464.5435791015625 -97.79345703125 -465.6716613769531 -96.01221466064453 -466.42431640625 C -94.23107147216797 -467.1769104003906 -92.28701019287109 -467.5585021972656 -90.23399353027344 -467.5585021972656 C -88.226318359375 -467.5585021972656 -86.37490081787109 -467.2060546875 -84.73117828369141 -466.5108947753906 C -83.00386047363281 -465.7804260253906 -81.50205993652344 -464.6748352050781 -80.2674560546875 -463.2248840332031 C -77.98085784912109 -460.5379943847656 -76.82179260253906 -457.0870971679688 -76.82179260253906 -452.9673156738281 C -76.82179260253906 -450.3648376464844 -77.30387115478516 -447.5959167480469 -78.254638671875 -444.7374877929688 C -79.16108703613281 -442.0122985839844 -80.52250671386719 -439.1210632324219 -82.30105590820312 -436.1441040039062 C -85.86162567138672 -430.1869812011719 -90.65873718261719 -425.1245422363281 -96.55951690673828 -421.0966796875 L -98.79483795166016 -419.5708923339844 Z" stroke="none" fill="#ef61ff"/></g><g transform="translate(206.341 632.241)" fill="#230037" stroke-miterlimit="10"><path d="M -98.80471801757812 -421.9856567382812 L -99.92858123779297 -422.7393798828125 C -101.3037567138672 -423.66162109375 -102.0610961914062 -425.0927734375 -102.0610961914062 -426.7691955566406 C -102.0610961914062 -428.2775268554688 -101.6697998046875 -429.6334228515625 -100.8980712890625 -430.7991333007812 C -100.280517578125 -431.7319946289062 -99.30937957763672 -432.9097290039062 -97.92919158935547 -434.3995971679688 C -96.71543121337891 -435.7089233398438 -95.85160827636719 -436.7481384277344 -95.36128234863281 -437.4888000488281 C -95.02652740478516 -437.9944763183594 -94.86380004882812 -438.6360778808594 -94.86380004882812 -439.4502258300781 C -94.86380004882812 -439.8651733398438 -95.42436218261719 -440.326904296875 -95.77877807617188 -440.5773010253906 C -98.16445922851562 -442.1155090332031 -99.99724578857422 -443.8701782226562 -101.2268905639648 -445.7931518554688 C -102.5149917602539 -447.8075866699219 -103.1681060791016 -450.0338745117188 -103.1681060791016 -452.4102172851562 C -103.1681060791016 -455.9999694824219 -101.9067230224609 -459.1178894042969 -99.41896820068359 -461.6773681640625 C -96.91580963134766 -464.2527160644531 -93.82553863525391 -465.5585021972656 -90.23400115966797 -465.5585021972656 C -86.68218231201172 -465.5585021972656 -83.84127807617188 -464.3371276855469 -81.79022979736328 -461.9283142089844 C -79.82041168212891 -459.6136474609375 -78.82180023193359 -456.5988464355469 -78.82180023193359 -452.9673156738281 C -78.82180023193359 -450.5797424316406 -79.26947784423828 -448.0232238769531 -80.15241241455078 -445.3687438964844 C -81.01313781738281 -442.781005859375 -82.31371307373047 -440.0224914550781 -84.01798248291016 -437.1698608398438 C -87.42855834960938 -431.4636840820312 -92.02744293212891 -426.6117553710938 -97.68707275390625 -422.7485656738281 L -98.80471801757812 -421.9856567382812 Z" stroke="none"/><path d="M -98.81461334228516 -424.4004211425781 C -93.37050628662109 -428.1165161132812 -89.01090240478516 -432.714599609375 -85.73490142822266 -438.1956176757812 C -82.45979309082031 -443.6775207519531 -80.82179260253906 -448.6014099121094 -80.82179260253906 -452.9673156738281 C -80.82179260253906 -456.1263122558594 -81.65250396728516 -458.6805114746094 -83.31301116943359 -460.6317138671875 C -84.97439575195312 -462.5829162597656 -87.28110504150391 -463.5585021972656 -90.23399353027344 -463.5585021972656 C -93.27870178222656 -463.5585021972656 -95.86259460449219 -462.466796875 -97.98479461669922 -460.2834167480469 C -100.1069946289062 -458.1000061035156 -101.1681060791016 -455.4756164550781 -101.1681060791016 -452.4102172851562 C -101.1681060791016 -448.4151000976562 -98.99999237060547 -445.02392578125 -94.66290283203125 -442.2375183105469 C -93.46321105957031 -441.4013977050781 -92.86379241943359 -440.4717102050781 -92.86379241943359 -439.4502258300781 C -92.86379241943359 -438.2424011230469 -93.14010620117188 -437.2209167480469 -93.69361114501953 -436.3847961425781 C -94.24710083007812 -435.5487060546875 -95.17050170898438 -434.4336242675781 -96.46201324462891 -433.0404052734375 C -97.75350189208984 -431.6463012695312 -98.67690277099609 -430.5312194824219 -99.23039245605469 -429.6950988769531 C -99.78390502929688 -428.8590087890625 -100.0611038208008 -427.8843078613281 -100.0611038208008 -426.7691955566406 C -100.0611038208008 -425.7467956542969 -99.64530181884766 -424.95751953125 -98.81461334228516 -424.4004211425781 M -98.79483795166016 -419.5708923339844 L -101.0425796508789 -421.0783386230469 C -102.9891052246094 -422.3837890625 -104.0611038208008 -424.4048461914062 -104.0611038208008 -426.7691955566406 C -104.0611038208008 -428.6770324707031 -103.5579833984375 -430.4043579101562 -102.5657196044922 -431.9031677246094 C -101.8877334594727 -432.9273681640625 -100.8509979248047 -434.1885986328125 -99.39634704589844 -435.7587890625 C -97.97584533691406 -437.2911987304688 -97.32499694824219 -438.1456604003906 -97.02897644042969 -438.5928039550781 C -96.97682189941406 -438.6716003417969 -96.93613433837891 -438.7848205566406 -96.90819549560547 -438.9258728027344 C -99.51488494873047 -440.6140747070312 -101.5344390869141 -442.5616455078125 -102.9118576049805 -444.7157287597656 C -104.4089965820312 -447.0570373535156 -105.1681060791016 -449.6458435058594 -105.1681060791016 -452.4102172851562 C -105.1681060791016 -454.4520263671875 -104.8022232055664 -456.3922424316406 -104.0806274414062 -458.1769409179688 C -103.3576278686523 -459.9651184082031 -102.2717514038086 -461.61181640625 -100.8531494140625 -463.0713500976562 C -99.42218017578125 -464.5435791015625 -97.79345703125 -465.6716613769531 -96.01221466064453 -466.42431640625 C -94.23107147216797 -467.1769104003906 -92.28701019287109 -467.5585021972656 -90.23399353027344 -467.5585021972656 C -88.226318359375 -467.5585021972656 -86.37490081787109 -467.2060546875 -84.73117828369141 -466.5108947753906 C -83.00386047363281 -465.7804260253906 -81.50205993652344 -464.6748352050781 -80.2674560546875 -463.2248840332031 C -77.98085784912109 -460.5379943847656 -76.82179260253906 -457.0870971679688 -76.82179260253906 -452.9673156738281 C -76.82179260253906 -450.3648376464844 -77.30387115478516 -447.5959167480469 -78.254638671875 -444.7374877929688 C -79.16108703613281 -442.0122985839844 -80.52250671386719 -439.1210632324219 -82.30105590820312 -436.1441040039062 C -85.86162567138672 -430.1869812011719 -90.65873718261719 -425.1245422363281 -96.55951690673828 -421.0966796875 L -98.79483795166016 -419.5708923339844 Z" stroke="none" fill="#ef61ff"/></g></g></svg>