<svg xmlns="http://www.w3.org/2000/svg" xmlns:xlink="http://www.w3.org/1999/xlink" width="190" height="248" viewBox="0 0 190 248"><defs><radialGradient id="a" cx="0.352" cy="0.71" r="0.689" gradientTransform="matrix(0.998, -0.063, 0.073, 1.146, -0.051, -0.081)" gradientUnits="objectBoundingBox"><stop offset="0"/><stop offset="1" stop-color="#4f2500"/></radialGradient><radialGradient id="f" cx="0.352" cy="0.71" r="0.689" gradientTransform="matrix(0.998, -0.063, 0.073, 1.146, -0.051, -0.081)" gradientUnits="objectBoundingBox"><stop offset="0" stop-color="#9d4900"/><stop offset="1" stop-color="#4f2500"/></radialGradient><radialGradient id="k" cx="0.433" cy="0.306" r="0.692" gradientTransform="matrix(0.676, -0.737, 0.724, 0.664, -0.081, 0.422)" gradientUnits="objectBoundingBox"><stop offset="0" stop-color="#ffc088"/><stop offset="1" stop-color="#703400"/></radialGradient><clipPath id="q"><rect width="190" height="248"/></clipPath></defs><g id="p" clip-path="url(#q)"><g transform="translate(105 46)" stroke="#000" stroke-width="6" fill="url(#a)"><ellipse cx="24.5" cy="22" rx="24.5" ry="22" stroke="none"/><ellipse cx="24.5" cy="22" rx="27.5" ry="25" fill="none"/></g><g transform="matrix(0.966, 0.259, -0.259, 0.966, 26.901, 18.774)" stroke="#000" stroke-width="6" fill="url(#a)"><ellipse cx="18.5" cy="16.5" rx="18.5" ry="16.5" stroke="none"/><ellipse cx="18.5" cy="16.5" rx="21.5" ry="19.5" fill="none"/></g><g transform="translate(85.723 177.523) rotate(47)" stroke="#000" stroke-width="6" fill="url(#a)"><ellipse cx="21.425" cy="19.108" rx="21.425" ry="19.108" stroke="none"/><ellipse cx="21.425" cy="19.108" rx="24.425" ry="22.108" fill="none"/></g><g transform="translate(33 109)" stroke="#000" stroke-width="6" fill="url(#a)"><ellipse cx="28" cy="24" rx="28" ry="24" stroke="none"/><ellipse cx="28" cy="24" rx="31" ry="27" fill="none"/></g><g transform="matrix(0.839, -0.545, 0.545, 0.839, 105.446, 136.122)" stroke="#000" stroke-width="6" fill="url(#a)"><ellipse cx="28" cy="24" rx="28" ry="24" stroke="none"/><ellipse cx="28" cy="24" rx="31" ry="27" fill="none"/></g><rect width="190" height="248" fill="rgba(255,255,255,0)"/><g transform="translate(105 46)" stroke="#d4965f" stroke-width="4" fill="url(#f)"><ellipse cx="24.5" cy="22" rx="24.5" ry="22" stroke="none"/><ellipse cx="24.5" cy="22" rx="26.5" ry="24" fill="none"/></g><g transform="matrix(0.966, 0.259, -0.259, 0.966, 26.901, 18.774)" stroke="#d4965f" stroke-width="4" fill="url(#f)"><ellipse cx="18.5" cy="16.5" rx="18.5" ry="16.5" stroke="none"/><ellipse cx="18.5" cy="16.5" rx="20.5" ry="18.5" fill="none"/></g><g transform="translate(85.723 177.523) rotate(47)" stroke="#d4965f" stroke-width="4" fill="url(#f)"><ellipse cx="21.425" cy="19.108" rx="21.425" ry="19.108" stroke="none"/><ellipse cx="21.425" cy="19.108" rx="23.425" ry="21.108" fill="none"/></g><g transform="translate(33 109)" stroke="#d4965f" stroke-width="4" fill="url(#f)"><ellipse cx="28" cy="24" rx="28" ry="24" stroke="none"/><ellipse cx="28" cy="24" rx="30" ry="26" fill="none"/></g><g transform="matrix(0.839, -0.545, 0.545, 0.839, 105.446, 136.122)" stroke="#d4965f" stroke-width="4" fill="url(#f)"><ellipse cx="28" cy="24" rx="28" ry="24" stroke="none"/><ellipse cx="28" cy="24" rx="30" ry="26" fill="none"/></g><ellipse cx="15" cy="13.5" rx="15" ry="13.5" transform="translate(112 59)" fill="url(#k)"/><ellipse cx="11.5" cy="10" rx="11.5" ry="10" transform="matrix(0.966, 0.259, -0.259, 0.966, 29.142, 29.727)" fill="url(#k)"/><ellipse cx="13.318" cy="11.581" rx="13.318" ry="11.581" transform="translate(81.203 189.656) rotate(47)" fill="url(#k)"/><ellipse cx="15" cy="13.5" rx="15" ry="13.5" transform="translate(40 126)" fill="url(#k)"/><ellipse cx="15" cy="13.5" rx="15" ry="13.5" transform="matrix(0.839, -0.545, 0.545, 0.839, 122.067, 134.848)" fill="url(#k)"/></g></svg>