<svg xmlns="http://www.w3.org/2000/svg" xmlns:xlink="http://www.w3.org/1999/xlink" width="190" height="248" viewBox="0 0 190 248"><defs><radialGradient id="a" cx="0.395" cy="0.308" r="0.613" gradientTransform="translate(-0.045 0.07) rotate(-9.532)" gradientUnits="objectBoundingBox"><stop offset="0" stop-color="#cb4b00"/><stop offset="1" stop-color="#441900"/></radialGradient><clipPath id="r"><rect width="190" height="248"/></clipPath></defs><g id="q" clip-path="url(#r)"><rect width="190" height="248" fill="rgba(255,255,255,0)"/><g transform="translate(24 619)"><path d="M 136.9998016357422 -391.0003967285156 C 134.0617218017578 -391.0003967285156 131.2994537353516 -392.1445007324219 129.2218780517578 -394.2219848632812 C 127.1441421508789 -396.2995910644531 125.9999084472656 -399.0619506835938 125.9999084472656 -402.0003051757812 C 125.9999084472656 -408.065673828125 130.9344329833984 -413.0002136230469 136.9998016357422 -413.0002136230469 C 139.9381408691406 -413.0002136230469 142.7005462646484 -411.85595703125 144.7781372070312 -409.7782592773438 C 146.8556213378906 -407.7006530761719 147.9997253417969 -404.9383850097656 147.9997253417969 -402.0003051757812 C 147.9997253417969 -399.0618896484375 146.8555908203125 -396.2994689941406 144.7781219482422 -394.2220153808594 C 142.7006225585938 -392.14453125 139.9382171630859 -391.0003967285156 136.9998016357422 -391.0003967285156 Z M 20.50019645690918 -404 C 16.35996055603027 -404 12.46759223937988 -405.6122741699219 9.540065765380859 -408.5397644042969 C 6.612565517425537 -411.46728515625 5.000302314758301 -415.3596801757812 5.000302314758301 -419.4999084472656 C 5.000302314758301 -423.64013671875 6.612565517425537 -427.5325317382812 9.540065765380859 -430.4600524902344 C 12.46759223937988 -433.3875732421875 16.35996055603027 -434.9998168945312 20.50019645690918 -434.9998168945312 C 24.64043426513672 -434.9998168945312 28.53282928466797 -433.3875732421875 31.46032905578613 -430.4600524902344 C 34.3878288269043 -427.5325317382812 36.00009155273438 -423.64013671875 36.00009155273438 -419.4999084472656 C 36.00009155273438 -415.3596801757812 34.3878288269043 -411.46728515625 31.46032905578613 -408.5397644042969 C 28.53282928466797 -405.6122741699219 24.64043426513672 -404 20.50019645690918 -404 Z M 87.00030517578125 -404.9999084472656 C 82.99369812011719 -404.9999084472656 79.22679901123047 -406.5602416992188 76.39353942871094 -409.3935241699219 C 73.56024932861328 -412.226806640625 71.99990844726562 -415.9936828613281 71.99990844726562 -420.0003051757812 C 71.99990844726562 -424.0068359375 73.56027984619141 -427.7736206054688 76.39356231689453 -430.6066589355469 C 79.22677612304688 -433.4396362304688 82.99366760253906 -434.9998168945312 87.00030517578125 -434.9998168945312 C 91.00690460205078 -434.9998168945312 94.77364349365234 -433.4396057128906 97.60662078857422 -430.6066284179688 C 100.4396209716797 -427.7736511230469 101.9998016357422 -424.0068969726562 101.9998016357422 -420.0003051757812 C 101.9998016357422 -415.99365234375 100.4396209716797 -412.2267761230469 97.60664367675781 -409.3935546875 C 94.77362060546875 -406.5602722167969 91.00685882568359 -404.9999084472656 87.00030517578125 -404.9999084472656 Z M 50.49990844726562 -425.9995727539062 C 48.13790893554688 -425.9995727539062 45.84601211547852 -426.4624938964844 43.68790817260742 -427.3753662109375 C 41.60396194458008 -428.2568969726562 39.73256683349609 -429.5187072753906 38.12572479248047 -431.1256408691406 C 36.5189323425293 -432.7325744628906 35.25727462768555 -434.6040649414062 34.37582778930664 -436.6881103515625 C 33.4630126953125 -438.8462829589844 33.00019836425781 -441.1382141113281 33.00019836425781 -443.5002136230469 C 33.00019836425781 -445.8622131347656 33.46303939819336 -448.1540832519531 34.37582778930664 -450.3121643066406 C 35.25727462768555 -452.3961486816406 36.5189323425293 -454.2675476074219 38.12575149536133 -455.8743591308594 C 39.73259353637695 -457.4811706542969 41.60396194458008 -458.7428283691406 43.68793487548828 -459.624267578125 C 45.84603881835938 -460.5370788574219 48.13790893554688 -460.9999084472656 50.49990844726562 -460.9999084472656 C 52.86190795898438 -460.9999084472656 55.15377426147461 -460.5370788574219 57.31188201904297 -459.624267578125 C 59.39582824707031 -458.7428283691406 61.2672233581543 -457.4811706542969 62.87403869628906 -455.8743591308594 C 64.48085784912109 -454.2675476074219 65.74251556396484 -452.3961486816406 66.62396240234375 -450.3121643066406 C 67.53677368164062 -448.1540832519531 67.99959564208984 -445.8622131347656 67.99959564208984 -443.5002136230469 C 67.99959564208984 -441.1382141113281 67.53677368164062 -438.8462829589844 66.62396240234375 -436.6881103515625 C 65.74251556396484 -434.6040649414062 64.48088073730469 -432.7325744628906 62.87406539916992 -431.1256408691406 C 61.26725006103516 -429.5187072753906 59.39585494995117 -428.2568969726562 57.31190872192383 -427.3753662109375 C 55.15377426147461 -426.4624938964844 52.86190795898438 -425.9995727539062 50.49990844726562 -425.9995727539062 Z M 116.0000915527344 -431 C 112.7948303222656 -431 109.7814331054688 -432.2482299804688 107.5149612426758 -434.5146789550781 C 105.2485122680664 -436.7811279296875 104.0003051757812 -439.7945556640625 104.0003051757812 -442.9998168945312 C 104.0003051757812 -446.2050476074219 105.2485122680664 -449.2184753417969 107.5149612426758 -451.4849243164062 C 109.7814331054688 -453.7514038085938 112.7948532104492 -454.9996032714844 116.0000915527344 -454.9996032714844 C 119.2053527832031 -454.9996032714844 122.2187728881836 -453.7514038085938 124.4852523803711 -451.4849243164062 C 126.7516937255859 -449.2184753417969 127.9999084472656 -446.2050476074219 127.9999084472656 -442.9998168945312 C 127.9999084472656 -439.7945556640625 126.7516937255859 -436.7811279296875 124.4852523803711 -434.5146789550781 C 122.2187728881836 -432.2482299804688 119.2053527832031 -431 116.0000915527344 -431 Z M 83.99969482421875 -455.0003051757812 C 81.57014465332031 -455.0003051757812 79.21275329589844 -455.476318359375 76.99301147460938 -456.4151000976562 C 74.84943389892578 -457.3217163085938 72.92451477050781 -458.6194152832031 71.27175140380859 -460.2720947265625 C 69.61895751953125 -461.9248657226562 68.32119750976562 -463.8497314453125 67.41456604003906 -465.9933166503906 C 66.47564697265625 -468.213134765625 65.99959564208984 -470.5706787109375 65.99959564208984 -473.0003967285156 C 65.99959564208984 -475.429931640625 66.47564697265625 -477.7872924804688 67.41456604003906 -480.0070190429688 C 68.32122039794922 -482.1504821777344 69.61895751953125 -484.0752563476562 71.27177429199219 -485.7279663085938 C 72.92453765869141 -487.3805847167969 74.84943389892578 -488.6782531738281 76.99301147460938 -489.5848083496094 C 79.21277618408203 -490.5236206054688 81.57016754150391 -490.9996032714844 83.99969482421875 -490.9996032714844 C 86.42925262451172 -490.9996032714844 88.78662109375 -490.5236206054688 91.00637817382812 -489.5848083496094 C 93.14996337890625 -488.6782531738281 95.07485198974609 -487.3805847167969 96.72764587402344 -485.7279663085938 C 98.38043212890625 -484.0752563476562 99.67816925048828 -482.1504821777344 100.584831237793 -480.0070190429688 C 101.5237503051758 -477.7872924804688 101.9998016357422 -475.429931640625 101.9998016357422 -473.0003967285156 C 101.9998016357422 -470.5706787109375 101.5237503051758 -468.213134765625 100.5848541259766 -465.9933166503906 C 99.67819976806641 -463.8497314453125 98.38046264648438 -461.9248657226562 96.72764587402344 -460.2720947265625 C 95.07488250732422 -458.6194152832031 93.14998626708984 -457.3217163085938 91.00640869140625 -456.4151000976562 C 88.78664398193359 -455.476318359375 86.42925262451172 -455.0003051757812 83.99969482421875 -455.0003051757812 Z M 127.5003051757812 -461.9996032714844 C 123.3601150512695 -461.9996032714844 119.4677200317383 -463.6120300292969 116.5401458740234 -466.5398559570312 C 113.6126480102539 -469.4676208496094 112.0004043579102 -473.3601379394531 112.0004043579102 -477.5003967285156 C 112.0004043579102 -481.6402893066406 113.6126708984375 -485.5325622558594 116.540168762207 -488.460205078125 C 119.4677734375 -491.387939453125 123.3601684570312 -493.0003051757812 127.5003051757812 -493.0003051757812 C 131.6404571533203 -493.0003051757812 135.5328216552734 -491.387939453125 138.4604644775391 -488.460205078125 C 141.3879547119141 -485.5325622558594 143.0001983642578 -481.6402893066406 143.0001983642578 -477.5003967285156 C 143.0001983642578 -473.3601379394531 141.3879547119141 -469.4676208496094 138.4604644775391 -466.5398559570312 C 135.5329132080078 -463.6120300292969 131.6405181884766 -461.9996032714844 127.5003051757812 -461.9996032714844 Z M 32.00040817260742 -467 C 27.99335479736328 -467 24.22635459899902 -468.5602416992188 21.39330291748047 -471.393310546875 C 18.56024932861328 -474.2263488769531 17.00001335144043 -477.9933776855469 17.00001335144043 -482.0003967285156 C 17.00001335144043 -486.0070495605469 18.56024932861328 -489.7738037109375 21.39330291748047 -492.6067504882812 C 24.22640800476074 -495.4397277832031 27.993408203125 -496.9999084472656 32.00040817260742 -496.9999084472656 C 36.00701141357422 -496.9999084472656 39.77375030517578 -495.4397277832031 42.60672378540039 -492.6067199707031 C 45.43972396850586 -489.7737426757812 46.99990844726562 -486.0070190429688 46.99990844726562 -482.0003967285156 C 46.99990844726562 -477.9934387207031 45.43972396850586 -474.2264404296875 42.60675048828125 -471.393310546875 C 39.7738037109375 -468.5602416992188 36.00706481933594 -467 32.00040817260742 -467 Z M 81.50040435791016 -503 C 77.36011505126953 -503 73.46759033203125 -504.6122436523438 70.53985595703125 -507.5397338867188 C 67.61201477050781 -510.4673156738281 65.99959564208984 -514.3597412109375 65.99959564208984 -518.4999389648438 C 65.99959564208984 -522.64013671875 67.61201477050781 -526.5325317382812 70.53985595703125 -529.4600830078125 C 73.46759033203125 -532.3875732421875 77.36011505126953 -533.9998168945312 81.50040435791016 -533.9998168945312 C 85.64030456542969 -533.9998168945312 89.53253936767578 -532.3875732421875 92.46017456054688 -529.4600830078125 C 95.38793182373047 -526.532470703125 97.00030517578125 -522.6400756835938 97.00030517578125 -518.4999389648438 C 97.00030517578125 -514.3597412109375 95.38793182373047 -510.4673767089844 92.46017456054688 -507.5397338867188 C 89.53256225585938 -504.6122436523438 85.64030456542969 -503 81.50040435791016 -503 Z M 22.50001335144043 -505.9997253417969 C 20.13801383972168 -505.9997253417969 17.84611892700195 -506.4625549316406 15.68803882598877 -507.3753356933594 C 13.60406589508057 -508.2568359375 11.73267078399658 -509.5184936523438 10.12585544586182 -511.1253967285156 C 8.519013404846191 -512.7322998046875 7.257355213165283 -514.603759765625 6.37593412399292 -516.6878051757812 C 5.463118076324463 -518.8460693359375 5.000302314758301 -521.1380615234375 5.000302314758301 -523.5003051757812 C 5.000302314758301 -525.8623046875 5.463144302368164 -528.1541748046875 6.37593412399292 -530.312255859375 C 7.257381439208984 -532.396240234375 8.519039154052734 -534.2676391601562 10.12585544586182 -535.8744506835938 C 11.73269748687744 -537.4812622070312 13.60406589508057 -538.742919921875 15.68803882598877 -539.6243896484375 C 17.84614372253418 -540.5371704101562 20.13801383972168 -541 22.50001335144043 -541 C 24.86201286315918 -541 27.15388107299805 -540.5371704101562 29.31198692321777 -539.6243896484375 C 31.39593315124512 -538.742919921875 33.26733016967773 -537.4812622070312 34.8741455078125 -535.8744506835938 C 36.48096084594727 -534.2676391601562 37.74261856079102 -532.396240234375 38.62406539916992 -530.312255859375 C 39.53688049316406 -528.1541748046875 39.99969863891602 -525.8623046875 39.99969863891602 -523.5003051757812 C 39.99969863891602 -521.1380615234375 39.53688049316406 -518.8460693359375 38.62409210205078 -516.6878051757812 C 37.74264526367188 -514.603759765625 36.48098754882812 -512.7322998046875 34.87417221069336 -511.1253967285156 C 33.26735687255859 -509.5184936523438 31.39595985412598 -508.2568359375 29.31198692321777 -507.3753356933594 C 27.15390777587891 -506.4625549316406 24.86201286315918 -505.9997253417969 22.50001335144043 -505.9997253417969 Z M 54.0000114440918 -521.9999389648438 C 47.93464279174805 -521.9999389648438 43.00009155273438 -526.9344482421875 43.00009155273438 -532.9998168945312 C 43.00009155273438 -535.9381713867188 44.14435577392578 -538.7005615234375 46.22206497192383 -540.7781372070312 C 48.2996711730957 -542.8555908203125 51.06193542480469 -543.9996948242188 54.0000114440918 -543.9996948242188 C 56.93809127807617 -543.9996948242188 59.70035552978516 -542.8555908203125 61.77793502807617 -540.7781372070312 C 63.85567092895508 -538.7005615234375 64.99990844726562 -535.9381713867188 64.99990844726562 -532.9998168945312 C 64.99990844726562 -526.9344482421875 60.06538009643555 -521.9999389648438 54.0000114440918 -521.9999389648438 Z M 122.4999084472656 -527.0003051757812 C 118.3596725463867 -527.0003051757812 114.4672775268555 -528.612548828125 111.5397796630859 -531.5400390625 C 108.6122741699219 -534.4675903320312 107.0000152587891 -538.3599853515625 107.0000152587891 -542.5001831054688 C 107.0000152587891 -546.6404418945312 108.6122741699219 -550.5328369140625 111.5397796630859 -553.4603271484375 C 114.4672775268555 -556.3878784179688 118.3596725463867 -558.0001220703125 122.4999084472656 -558.0001220703125 C 126.6401443481445 -558.0001220703125 130.5325317382812 -556.3878784179688 133.4600372314453 -553.4603271484375 C 136.3875427246094 -550.5328369140625 137.9998016357422 -546.6404418945312 137.9998016357422 -542.5001831054688 C 137.9998016357422 -538.3599853515625 136.3875427246094 -534.4675903320312 133.4600372314453 -531.5400390625 C 130.5325317382812 -528.612548828125 126.6401443481445 -527.0003051757812 122.4999084472656 -527.0003051757812 Z M 38.99969863891602 -546.0001831054688 C 34.99309158325195 -546.0001831054688 31.22638130187988 -547.5604248046875 28.39338111877441 -550.3933715820312 C 25.56038093566895 -553.2263793945312 24.00019645690918 -556.9931030273438 24.00019645690918 -560.9996948242188 C 24.00019645690918 -565.00634765625 25.56038093566895 -568.773193359375 28.39335441589355 -571.6064453125 C 31.22638130187988 -574.4397583007812 34.99314498901367 -576.0001220703125 38.99969863891602 -576.0001220703125 C 43.00630187988281 -576.0001220703125 46.77319717407227 -574.4397583007812 49.60646057128906 -571.6065063476562 C 52.43975067138672 -568.773193359375 54.00009155273438 -565.0062866210938 54.00009155273438 -560.9996948242188 C 54.00009155273438 -556.9931640625 52.43972396850586 -553.2263793945312 49.6064338684082 -550.3933715820312 C 46.77322387695312 -547.5603637695312 43.00632858276367 -546.0001831054688 38.99969863891602 -546.0001831054688 Z M 81.50040435791016 -556.0001220703125 C 77.36011505126953 -556.0001220703125 73.46759033203125 -557.6123657226562 70.53985595703125 -560.5398559570312 C 67.61201477050781 -563.4674072265625 65.99959564208984 -567.3598022460938 65.99959564208984 -571.5 C 65.99959564208984 -575.6401977539062 67.61201477050781 -579.5325927734375 70.53985595703125 -582.460205078125 C 73.46759033203125 -585.3876953125 77.36011505126953 -586.9999389648438 81.50040435791016 -586.9999389648438 C 85.64030456542969 -586.9999389648438 89.53256225585938 -585.3876953125 92.46017456054688 -582.460205078125 C 95.38793182373047 -579.5325317382812 97.00030517578125 -575.64013671875 97.00030517578125 -571.5 C 97.00030517578125 -567.35986328125 95.38793182373047 -563.4674682617188 92.46017456054688 -560.5398559570312 C 89.53253936767578 -557.6123657226562 85.64030456542969 -556.0001220703125 81.50040435791016 -556.0001220703125 Z M 10.9998025894165 -574.0001220703125 C 7.794539451599121 -574.0001220703125 4.781144618988037 -575.2483520507812 2.514670848846436 -577.5147705078125 C 0.2482234686613083 -579.78125 -0.9999870657920837 -582.794677734375 -0.9999870657920837 -585.9999389648438 C -0.9999870657920837 -589.2051391601562 0.2482234686613083 -592.2185668945312 2.514670848846436 -594.4850463867188 C 4.781144618988037 -596.75146484375 7.794565677642822 -597.9996948242188 10.9998025894165 -597.9996948242188 C 14.20503902435303 -597.9996948242188 17.21846008300781 -596.75146484375 19.48493385314941 -594.4850463867188 C 21.75138092041016 -592.2185668945312 22.99959182739258 -589.2051391601562 22.99959182739258 -585.9999389648438 C 22.99959182739258 -582.794677734375 21.75138092041016 -579.78125 19.48493385314941 -577.5147705078125 C 17.21846008300781 -575.2483520507812 14.20506572723389 -574.0001220703125 10.9998025894165 -574.0001220703125 Z M 123.0003051757812 -575.9999389648438 C 120.0619583129883 -575.9999389648438 117.2995681762695 -577.1441650390625 115.2219848632812 -579.2218627929688 C 113.1445159912109 -581.2994995117188 112.0004043579102 -584.061767578125 112.0004043579102 -586.9998168945312 C 112.0004043579102 -589.938232421875 113.1445388793945 -592.7006225585938 115.2220153808594 -594.7781372070312 C 117.2994842529297 -596.8555908203125 120.061882019043 -597.9996948242188 123.0003051757812 -597.9996948242188 C 125.9383850097656 -597.9996948242188 128.7006378173828 -596.8555908203125 130.7782287597656 -594.7781372070312 C 132.85595703125 -592.7005615234375 134.0001983642578 -589.9381713867188 134.0001983642578 -586.9998168945312 C 134.0001983642578 -580.9344482421875 129.065673828125 -575.9999389648438 123.0003051757812 -575.9999389648438 Z" stroke="none"/><path d="M 136.9998016357422 -392.0003967285156 C 142.5231018066406 -392.0003967285156 146.9997100830078 -396.4770202636719 146.9997100830078 -402.0003051757812 C 146.9997100830078 -407.522705078125 142.5231018066406 -412.0002136230469 136.9998016357422 -412.0002136230469 C 131.4774169921875 -412.0002136230469 126.9999084472656 -407.522705078125 126.9999084472656 -402.0003051757812 C 126.9999084472656 -396.4770202636719 131.4774169921875 -392.0003967285156 136.9998016357422 -392.0003967285156 M 20.50018882751465 -405 C 28.5084114074707 -405 35.00010681152344 -411.49169921875 35.00010681152344 -419.4999084472656 C 35.00010681152344 -427.5081176757812 28.5084114074707 -433.9998168945312 20.50018882751465 -433.9998168945312 C 12.49199390411377 -433.9998168945312 6.000299453735352 -427.5081176757812 6.000299453735352 -419.4999084472656 C 6.000299453735352 -411.49169921875 12.49199390411377 -405 20.50018882751465 -405 M 87.00029754638672 -405.9999084472656 C 94.73218536376953 -405.9999084472656 100.9998016357422 -412.2684020996094 100.9998016357422 -420.0003051757812 C 100.9998016357422 -427.7322082519531 94.73218536376953 -433.9998168945312 87.00029754638672 -433.9998168945312 C 79.26840972900391 -433.9998168945312 72.99990844726562 -427.7322082519531 72.99990844726562 -420.0003051757812 C 72.99990844726562 -412.2684020996094 79.26840972900391 -405.9999084472656 87.00029754638672 -405.9999084472656 M 50.49991226196289 -426.9996032714844 C 59.61241149902344 -426.9996032714844 66.99960327148438 -434.3877258300781 66.99960327148438 -443.5002136230469 C 66.99960327148438 -452.6127014160156 59.61241149902344 -459.9999084472656 50.49991226196289 -459.9999084472656 C 41.38740921020508 -459.9999084472656 34.00021743774414 -452.6127014160156 34.00021743774414 -443.5002136230469 C 34.00021743774414 -434.3877258300781 41.38740921020508 -426.9996032714844 50.49991226196289 -426.9996032714844 M 116.0001068115234 -432 C 122.0751037597656 -432 126.9999084472656 -436.9248046875 126.9999084472656 -442.9998168945312 C 126.9999084472656 -449.0747680664062 122.0751037597656 -453.9996032714844 116.0001068115234 -453.9996032714844 C 109.9251022338867 -453.9996032714844 105.0002975463867 -449.0747680664062 105.0002975463867 -442.9998168945312 C 105.0002975463867 -436.9248046875 109.9251022338867 -432 116.0001068115234 -432 M 83.99971771240234 -456.0003051757812 C 93.38849639892578 -456.0003051757812 100.9998016357422 -463.6107177734375 100.9998016357422 -473.0003967285156 C 100.9998016357422 -482.3892211914062 93.38849639892578 -489.9996032714844 83.99971771240234 -489.9996032714844 C 74.61090850830078 -489.9996032714844 66.99960327148438 -482.3892211914062 66.99960327148438 -473.0003967285156 C 66.99960327148438 -463.6107177734375 74.61090850830078 -456.0003051757812 83.99971771240234 -456.0003051757812 M 127.5002975463867 -462.9996032714844 C 135.5084991455078 -462.9996032714844 142.0001831054688 -469.4922180175781 142.0001831054688 -477.5003967285156 C 142.0001831054688 -485.5077209472656 135.5084991455078 -492.0003051757812 127.5002975463867 -492.0003051757812 C 119.4921035766602 -492.0003051757812 113.0004119873047 -485.5077209472656 113.0004119873047 -477.5003967285156 C 113.0004119873047 -469.4922180175781 119.4921035766602 -462.9996032714844 127.5002975463867 -462.9996032714844 M 32.00041198730469 -468 C 39.7322998046875 -468 45.99991226196289 -474.2676086425781 45.99991226196289 -482.0003967285156 C 45.99991226196289 -489.7322998046875 39.7322998046875 -495.9999084472656 32.00041198730469 -495.9999084472656 C 24.26760482788086 -495.9999084472656 17.9999942779541 -489.7322998046875 17.9999942779541 -482.0003967285156 C 17.9999942779541 -474.2676086425781 24.26760482788086 -468 32.00041198730469 -468 M 81.50041198730469 -504 C 89.50771331787109 -504 96.00029754638672 -510.49169921875 96.00029754638672 -518.4999389648438 C 96.00029754638672 -526.5081176757812 89.50771331787109 -532.9998168945312 81.50041198730469 -532.9998168945312 C 73.49221801757812 -532.9998168945312 66.99960327148438 -526.5081176757812 66.99960327148438 -518.4999389648438 C 66.99960327148438 -510.49169921875 73.49221801757812 -504 81.50041198730469 -504 M 22.4999942779541 -506.9997253417969 C 31.61249351501465 -506.9997253417969 38.99971771240234 -514.3869018554688 38.99971771240234 -523.5003051757812 C 38.99971771240234 -532.61279296875 31.61249351501465 -540 22.4999942779541 -540 C 13.38749408721924 -540 6.000299453735352 -532.61279296875 6.000299453735352 -523.5003051757812 C 6.000299453735352 -514.3869018554688 13.38749408721924 -506.9997253417969 22.4999942779541 -506.9997253417969 M 53.99999237060547 -522.9999389648438 C 59.52241134643555 -522.9999389648438 63.99991226196289 -527.4774169921875 63.99991226196289 -532.9998168945312 C 63.99991226196289 -538.5231323242188 59.52241134643555 -542.9996948242188 53.99999237060547 -542.9996948242188 C 48.47760391235352 -542.9996948242188 44.00010681152344 -538.5231323242188 44.00010681152344 -532.9998168945312 C 44.00010681152344 -527.4774169921875 48.47760391235352 -522.9999389648438 53.99999237060547 -522.9999389648438 M 122.4999084472656 -528.0003051757812 C 130.5081024169922 -528.0003051757812 136.9998016357422 -534.4920043945312 136.9998016357422 -542.5001831054688 C 136.9998016357422 -550.5084228515625 130.5081024169922 -557.0001220703125 122.4999084472656 -557.0001220703125 C 114.4916915893555 -557.0001220703125 107.9999923706055 -550.5084228515625 107.9999923706055 -542.5001831054688 C 107.9999923706055 -534.4920043945312 114.4916915893555 -528.0003051757812 122.4999084472656 -528.0003051757812 M 38.99971771240234 -547.0001831054688 C 46.73160552978516 -547.0001831054688 53.00010681152344 -553.267822265625 53.00010681152344 -560.9996948242188 C 53.00010681152344 -568.7316284179688 46.73160552978516 -575.0001220703125 38.99971771240234 -575.0001220703125 C 31.26779937744141 -575.0001220703125 25.00018882751465 -568.7316284179688 25.00018882751465 -560.9996948242188 C 25.00018882751465 -553.267822265625 31.26779937744141 -547.0001831054688 38.99971771240234 -547.0001831054688 M 81.50041198730469 -557.0001220703125 C 89.50771331787109 -557.0001220703125 96.00029754638672 -563.4918212890625 96.00029754638672 -571.5 C 96.00029754638672 -579.5082397460938 89.50771331787109 -585.9999389648438 81.50041198730469 -585.9999389648438 C 73.49221801757812 -585.9999389648438 66.99960327148438 -579.5082397460938 66.99960327148438 -571.5 C 66.99960327148438 -563.4918212890625 73.49221801757812 -557.0001220703125 81.50041198730469 -557.0001220703125 M 10.99979972839355 -575.0001220703125 C 17.07479858398438 -575.0001220703125 21.99960517883301 -579.9249267578125 21.99960517883301 -585.9999389648438 C 21.99960517883301 -592.0748901367188 17.07479858398438 -596.9996948242188 10.99979972839355 -596.9996948242188 C 4.92479944229126 -596.9996948242188 -6.06960702498327e-06 -592.0748901367188 -6.06960702498327e-06 -585.9999389648438 C -6.06960702498327e-06 -579.9249267578125 4.92479944229126 -575.0001220703125 10.99979972839355 -575.0001220703125 M 123.0002975463867 -576.9999389648438 C 128.5227203369141 -576.9999389648438 133.0001831054688 -581.4774169921875 133.0001831054688 -586.9998168945312 C 133.0001831054688 -592.5231323242188 128.5227203369141 -596.9996948242188 123.0002975463867 -596.9996948242188 C 117.4769973754883 -596.9996948242188 113.0004119873047 -592.5231323242188 113.0004119873047 -586.9998168945312 C 113.0004119873047 -581.4774169921875 117.4769973754883 -576.9999389648438 123.0002975463867 -576.9999389648438 M 136.9998016357422 -390.0003967285156 C 133.7946319580078 -390.0003967285156 130.7812652587891 -391.24853515625 128.5148010253906 -393.5148620605469 C 126.2481918334961 -395.7813415527344 124.9999084472656 -398.7948303222656 124.9999084472656 -402.0003051757812 C 124.9999084472656 -405.2053833007812 126.248161315918 -408.2187805175781 128.5147399902344 -410.4853515625 C 130.7813262939453 -412.751953125 133.7947235107422 -414.0002136230469 136.9998016357422 -414.0002136230469 C 140.2052764892578 -414.0002136230469 143.2187652587891 -412.7519226074219 145.4852447509766 -410.4853210449219 C 147.7515716552734 -408.2188415527344 148.9997100830078 -405.2054748535156 148.9997100830078 -402.0003051757812 C 148.9997100830078 -398.7947692871094 147.7515716552734 -395.78125 145.4852142333984 -393.514892578125 C 143.2188568115234 -391.24853515625 140.205322265625 -390.0003967285156 136.9998016357422 -390.0003967285156 Z M 20.50018882751465 -403 C 18.2735767364502 -403 16.11249351501465 -403.4365234375 14.07702159881592 -404.2974548339844 C 12.11199378967285 -405.1286010742188 10.34763240814209 -406.3179931640625 8.832965850830078 -407.8326721191406 C 7.318299293518066 -409.3473510742188 6.128882884979248 -411.1116943359375 5.297743797302246 -413.0767211914062 C 4.436827182769775 -415.1122131347656 4.000299453735352 -417.2732849121094 4.000299453735352 -419.4999084472656 C 4.000299453735352 -421.7265319824219 4.436827182769775 -423.8876037597656 5.297743797302246 -425.9230651855469 C 6.128882884979248 -427.8881225585938 7.318299293518066 -429.6524658203125 8.832965850830078 -431.1671447753906 C 10.34763240814209 -432.6818237304688 12.11199378967285 -433.8712158203125 14.07702159881592 -434.7023620605469 C 16.11249351501465 -435.5632934570312 18.2735767364502 -435.9998168945312 20.50018882751465 -435.9998168945312 C 22.72682762145996 -435.9998168945312 24.88788223266602 -435.5632934570312 26.92335510253906 -434.7023620605469 C 28.8884105682373 -433.8712158203125 30.65277099609375 -432.6818237304688 32.16743850708008 -431.1671447753906 C 33.68210601806641 -429.6524658203125 34.87152099609375 -427.8881225585938 35.70265960693359 -425.9230651855469 C 36.56357574462891 -423.8876037597656 37.00010681152344 -421.7265319824219 37.00010681152344 -419.4999084472656 C 37.00010681152344 -417.2732849121094 36.56357574462891 -415.1122131347656 35.70265960693359 -413.0767211914062 C 34.87152099609375 -411.1116943359375 33.68210601806641 -409.3473510742188 32.16743850708008 -407.8326721191406 C 30.65277099609375 -406.3179931640625 28.8884105682373 -405.1286010742188 26.92335510253906 -404.2974548339844 C 24.88788223266602 -403.4365234375 22.72682762145996 -403 20.50018882751465 -403 Z M 87.00029754638672 -403.9999084472656 C 84.84121704101562 -403.9999084472656 82.74560546875 -404.4232177734375 80.77171325683594 -405.2581787109375 C 78.86618804931641 -406.0641784667969 77.15524291992188 -407.2175903320312 75.68643951416016 -408.6864318847656 C 74.21760559082031 -410.1552429199219 73.06418609619141 -411.8661804199219 72.25818634033203 -413.7716979980469 C 71.42324066162109 -415.74560546875 70.99990844726562 -417.8412170410156 70.99990844726562 -420.0003051757812 C 70.99990844726562 -422.1593933105469 71.42324066162109 -424.2549743652344 72.25818634033203 -426.2287902832031 C 73.06421661376953 -428.1342163085938 74.21765899658203 -429.8450927734375 75.68649291992188 -431.3137817382812 C 77.15529632568359 -432.782470703125 78.86624145507812 -433.9358215332031 80.77179718017578 -434.7417297363281 C 82.74565887451172 -435.5765380859375 84.84121704101562 -435.9998168945312 87.00029754638672 -435.9998168945312 C 89.15938568115234 -435.9998168945312 91.25491333007812 -435.5765380859375 93.22869110107422 -434.74169921875 C 95.13416290283203 -433.935791015625 96.84502410888672 -432.7824401855469 98.31371307373047 -431.313720703125 C 99.78244018554688 -429.8450317382812 100.9357681274414 -428.1341857910156 101.7416915893555 -426.2286987304688 C 102.5765228271484 -424.2549133300781 102.9998016357422 -422.1593933105469 102.9998016357422 -420.0003051757812 C 102.9998016357422 -417.8412170410156 102.5765228271484 -415.7456359863281 101.7417144775391 -413.7717895507812 C 100.9357986450195 -411.8662414550781 99.78246307373047 -410.1553039550781 98.31377410888672 -408.6864929199219 C 96.84507751464844 -407.2176513671875 95.13421630859375 -406.064208984375 93.22877502441406 -405.2581787109375 C 91.25496673583984 -404.4232177734375 89.15938568115234 -403.9999084472656 87.00029754638672 -403.9999084472656 Z M 50.49991226196289 -424.9996032714844 C 48.00335693359375 -424.9996032714844 45.58038330078125 -425.4890747070312 43.2983283996582 -426.4544067382812 C 41.09516143798828 -427.3863525390625 39.11693954467773 -428.7200927734375 37.41860580444336 -430.4185485839844 C 35.72029876708984 -432.1170043945312 34.38668823242188 -434.0953369140625 33.45482635498047 -436.298583984375 C 32.48960494995117 -438.5806579589844 32.00021743774414 -441.0036315917969 32.00021743774414 -443.5002136230469 C 32.00021743774414 -445.9967651367188 32.48963165283203 -448.4197082519531 33.45482635498047 -450.7017211914062 C 34.38671493530273 -452.9049072265625 35.7203254699707 -454.8831176757812 37.41865921020508 -456.5814514160156 C 39.11699295043945 -458.27978515625 41.09521484375 -459.6134033203125 43.29838180541992 -460.5452880859375 C 45.58041000366211 -461.5104675292969 48.00335693359375 -461.9999084472656 50.49991226196289 -461.9999084472656 C 52.99646759033203 -461.9999084472656 55.41941070556641 -461.5104675292969 57.70143890380859 -460.5452880859375 C 59.90460586547852 -459.6134033203125 61.88282775878906 -458.27978515625 63.58116149902344 -456.5814514160156 C 65.27949523925781 -454.8831176757812 66.61310577392578 -452.9049072265625 67.54499053955078 -450.7017211914062 C 68.51018524169922 -448.4197082519531 68.99960327148438 -445.9967651367188 68.99960327148438 -443.5002136230469 C 68.99960327148438 -441.0036315917969 68.51021575927734 -438.5806579589844 67.54499053955078 -436.298583984375 C 66.61313629150391 -434.0953369140625 65.27951812744141 -432.1170043945312 63.58121490478516 -430.4185485839844 C 61.88288116455078 -428.7200927734375 59.90465927124023 -427.3863525390625 57.70149230957031 -426.4544067382812 C 55.41943740844727 -425.4890747070312 52.99646759033203 -424.9996032714844 50.49991226196289 -424.9996032714844 Z M 116.0001068115234 -430 C 112.5277404785156 -430 109.2632141113281 -431.3522338867188 106.8078536987305 -433.8075561523438 C 104.3525238037109 -436.2629089355469 103.0002975463867 -439.5274353027344 103.0002975463867 -442.9998168945312 C 103.0002975463867 -446.47216796875 104.3525238037109 -449.7366943359375 106.8078536987305 -452.1920471191406 C 109.2632141113281 -454.6473693847656 112.5277404785156 -455.9996032714844 116.0001068115234 -455.9996032714844 C 119.4724655151367 -455.9996032714844 122.7369918823242 -454.6473693847656 125.1923522949219 -452.1920471191406 C 127.6476898193359 -449.7366943359375 128.9999084472656 -446.47216796875 128.9999084472656 -442.9998168945312 C 128.9999084472656 -439.5274353027344 127.6476898193359 -436.2629089355469 125.1923522949219 -433.8075561523438 C 122.7369918823242 -431.3522338867188 119.4724655151367 -430 116.0001068115234 -430 Z M 83.99971771240234 -454.0003051757812 C 81.43560791015625 -454.0003051757812 78.94715881347656 -454.5028991699219 76.60349273681641 -455.4941101074219 C 74.34071350097656 -456.4511413574219 72.30896759033203 -457.8207702636719 70.56465911865234 -459.5649719238281 C 68.82035827636719 -461.3092651367188 67.45063018798828 -463.3409729003906 66.49355316162109 -465.603759765625 C 65.50224304199219 -467.9475402832031 64.99960327148438 -470.4361267089844 64.99960327148438 -473.0003967285156 C 64.99960327148438 -475.5645141601562 65.50224304199219 -478.0529174804688 66.49357604980469 -480.3965759277344 C 67.45066070556641 -482.6592407226562 68.82038116455078 -484.6908874511719 70.56468963623047 -486.4350891113281 C 72.30899047851562 -488.1792602539062 74.34074401855469 -489.548828125 76.60349273681641 -490.5058288574219 C 78.94718933105469 -491.4970397949219 81.43563079833984 -491.9996032714844 83.99971771240234 -491.9996032714844 C 86.56379699707031 -491.9996032714844 89.05224609375 -491.4970397949219 91.39591217041016 -490.5058288574219 C 93.65869140625 -489.548828125 95.69040679931641 -488.1792602539062 97.43471527099609 -486.4350891113281 C 99.17902374267578 -484.6908874511719 100.5487442016602 -482.6592407226562 101.5058288574219 -480.3965759277344 C 102.4971618652344 -478.0529174804688 102.9998016357422 -475.5645141601562 102.9998016357422 -473.0003967285156 C 102.9998016357422 -470.4361267089844 102.4971618652344 -467.9475402832031 101.5058517456055 -465.603759765625 C 100.5487747192383 -463.3409729003906 99.17904663085938 -461.3092651367188 97.43474578857422 -459.5649719238281 C 95.69046783447266 -457.8207702636719 93.65871429443359 -456.4511413574219 91.39593505859375 -455.4941101074219 C 89.05224609375 -454.5028991699219 86.56379699707031 -454.0003051757812 83.99971771240234 -454.0003051757812 Z M 127.5002975463867 -460.9996032714844 C 125.2736587524414 -460.9996032714844 123.1125793457031 -461.4361572265625 121.0770492553711 -462.2972106933594 C 119.1120223999023 -463.12841796875 117.3476867675781 -464.3179626464844 115.8329925537109 -465.8327941894531 C 114.3183517456055 -467.3475646972656 113.1289672851562 -469.1119995117188 112.2978286743164 -471.0771484375 C 111.4369354248047 -473.1127014160156 111.0004119873047 -475.2737731933594 111.0004119873047 -477.5003967285156 C 111.0004119873047 -479.726806640625 111.4369354248047 -481.8877563476562 112.2978515625 -483.9231872558594 C 113.1289901733398 -485.8882141113281 114.3184127807617 -487.652587890625 115.8330459594727 -489.1672973632812 C 117.3477172851562 -490.6820373535156 119.1120758056641 -491.8715209960938 121.0770797729492 -492.7027282714844 C 123.1126022338867 -493.563720703125 125.2736892700195 -494.0003051757812 127.5002975463867 -494.0003051757812 C 129.7269134521484 -494.0003051757812 131.8880004882812 -493.563720703125 133.9235229492188 -492.7027282714844 C 135.8885192871094 -491.8715209960938 137.6528778076172 -490.6820373535156 139.1675567626953 -489.1672973632812 C 140.6821899414062 -487.652587890625 141.8716125488281 -485.8882141113281 142.7027435302734 -483.9231872558594 C 143.5636596679688 -481.8877563476562 144.0001831054688 -479.726806640625 144.0001831054688 -477.5003967285156 C 144.0001831054688 -475.2737731933594 143.5636596679688 -473.1127014160156 142.7027740478516 -471.0771484375 C 141.8716278076172 -469.1119995117188 140.6822509765625 -467.3475646972656 139.1676025390625 -465.8327941894531 C 137.6529083251953 -464.3179626464844 135.8885803222656 -463.12841796875 133.9235534667969 -462.2972106933594 C 131.8880157470703 -461.4361572265625 129.7269439697266 -460.9996032714844 127.5002975463867 -460.9996032714844 Z M 32.00041198730469 -466 C 29.84110450744629 -466 27.74541091918945 -466.4232788085938 25.77152252197266 -467.2581176757812 C 23.86591148376465 -468.0640563964844 22.15496635437012 -469.2174072265625 20.68618774414062 -470.6861877441406 C 19.21741104125977 -472.1549682617188 18.06404876708984 -473.8659362792969 17.25810432434082 -475.7715148925781 C 16.42327117919922 -477.7453918457031 15.9999942779541 -479.8411254882812 15.9999942779541 -482.0003967285156 C 15.9999942779541 -484.1595153808594 16.42329978942871 -486.2550354003906 17.25813293457031 -488.2288208007812 C 18.06407737731934 -490.1343078613281 19.21743774414062 -491.8451843261719 20.68621635437012 -493.3138732910156 C 22.15499305725098 -494.7825927734375 23.86593818664551 -495.9359130859375 25.77152252197266 -496.7418518066406 C 27.74543762207031 -497.5766296386719 29.84113311767578 -497.9999084472656 32.00041198730469 -497.9999084472656 C 34.15949249267578 -497.9999084472656 36.25502014160156 -497.5766296386719 38.22879791259766 -496.7418212890625 C 40.13427352905273 -495.9358825683594 41.84513092041016 -494.7825622558594 43.31382751464844 -493.3138427734375 C 44.78255081176758 -491.8451232910156 45.93588256835938 -490.13427734375 46.74179840087891 -488.2288208007812 C 47.57663345336914 -486.2550354003906 47.99991226196289 -484.1594848632812 47.99991226196289 -482.0003967285156 C 47.99991226196289 -479.8411254882812 47.57663345336914 -477.7454223632812 46.74182891845703 -475.7715454101562 C 45.93590927124023 -473.8659362792969 44.78257751464844 -472.1549987792969 43.3138542175293 -470.6862182617188 C 41.84516143798828 -469.2174377441406 40.13430023193359 -468.0640869140625 38.22882843017578 -467.2581481933594 C 36.25505065917969 -466.4233093261719 34.15949249267578 -466 32.00041198730469 -466 Z M 81.50041198730469 -502 C 79.27379608154297 -502 77.11268615722656 -502.4365234375 75.07713317871094 -503.2974243164062 C 73.11202239990234 -504.1285705566406 71.34754943847656 -505.3179626464844 69.83277130126953 -506.8326110839844 C 68.31796264648438 -508.3472900390625 67.12844085693359 -510.1116333007812 66.29721832275391 -512.07666015625 C 65.43618774414062 -514.1121826171875 64.99960327148438 -516.2733154296875 64.99960327148438 -518.4999389648438 C 64.99960327148438 -520.7265625 65.43618774414062 -522.8876953125 66.29721832275391 -524.9231567382812 C 67.12844085693359 -526.88818359375 68.31796264648438 -528.652587890625 69.83277130126953 -530.167236328125 C 71.34754943847656 -531.681884765625 73.11202239990234 -532.8712768554688 75.07713317871094 -533.702392578125 C 77.11268615722656 -534.5632934570312 79.27379608154297 -534.9998168945312 81.50041198730469 -534.9998168945312 C 83.72682952880859 -534.9998168945312 85.88777160644531 -534.5632934570312 87.9232177734375 -533.702392578125 C 89.88821411132812 -532.8712158203125 91.65258026123047 -531.6818237304688 93.16727447509766 -530.1671752929688 C 94.68202209472656 -528.6525268554688 95.87152099609375 -526.88818359375 96.70271301269531 -524.9231567382812 C 97.56371307373047 -522.8876342773438 98.00029754638672 -520.7265625 98.00029754638672 -518.4999389648438 C 98.00029754638672 -516.2733154296875 97.56371307373047 -514.1122436523438 96.70271301269531 -512.0767211914062 C 95.87152099609375 -510.1116638183594 94.68202209472656 -508.3473510742188 93.16727447509766 -506.8326416015625 C 91.65258026123047 -505.3179931640625 89.88821411132812 -504.1286010742188 87.9232177734375 -503.2974548339844 C 85.88777160644531 -502.4365234375 83.72682952880859 -502 81.50041198730469 -502 Z M 22.4999942779541 -504.9997253417969 C 20.00341033935547 -504.9997253417969 17.58046531677246 -505.4891357421875 15.29846572875977 -506.4543762207031 C 13.09527206420898 -507.3862609863281 11.11704921722412 -508.7199096679688 9.418716430664062 -510.4183044433594 C 7.720382690429688 -512.11669921875 6.386771678924561 -514.0950317382812 5.454910755157471 -516.29833984375 C 4.489688396453857 -518.5804443359375 4.000299453735352 -521.0035400390625 4.000299453735352 -523.5003051757812 C 4.000299453735352 -525.9968872070312 4.489716053009033 -528.4197998046875 5.454910755157471 -530.7017822265625 C 6.386799335479736 -532.9049682617188 7.720410823822021 -534.8831787109375 9.418744087219238 -536.58154296875 C 11.1170768737793 -538.2799072265625 13.09529972076416 -539.613525390625 15.29846572875977 -540.5453491210938 C 17.58049392700195 -541.5105590820312 20.00343894958496 -542 22.4999942779541 -542 C 24.99654960632324 -542 27.41949462890625 -541.5105590820312 29.7015209197998 -540.5453491210938 C 31.90468788146973 -539.613525390625 33.88291168212891 -538.2799072265625 35.58124542236328 -536.58154296875 C 37.27960586547852 -534.8831787109375 38.61321640014648 -532.9049682617188 39.54507827758789 -530.7017822265625 C 40.51029968261719 -528.4197998046875 40.99971771240234 -525.9968872070312 40.99971771240234 -523.5003051757812 C 40.99971771240234 -521.0035400390625 40.51032638549805 -518.5804443359375 39.54510498046875 -516.29833984375 C 38.61324310302734 -514.0950317382812 37.27963256835938 -512.11669921875 35.58127212524414 -510.4183044433594 C 33.88293838500977 -508.7199096679688 31.90471649169922 -507.3862609863281 29.7015209197998 -506.4543762207031 C 27.41952133178711 -505.4891357421875 24.99657821655273 -504.9997253417969 22.4999942779541 -504.9997253417969 Z M 53.99999237060547 -520.9999389648438 C 50.7949104309082 -520.9999389648438 47.78152084350586 -522.2482299804688 45.51493835449219 -524.5147705078125 C 43.24835586547852 -526.7813110351562 42.00010681152344 -529.7947387695312 42.00010681152344 -532.9998168945312 C 42.00010681152344 -536.2052612304688 43.24838256835938 -539.2188110351562 45.51499557495117 -541.4852294921875 C 47.78143692016602 -543.7515869140625 50.79482650756836 -544.9996948242188 53.99999237060547 -544.9996948242188 C 57.2051887512207 -544.9996948242188 60.21854782104492 -543.7515869140625 62.48502349853516 -541.4852294921875 C 64.75163269042969 -539.2188110351562 65.99990844726562 -536.2052612304688 65.99990844726562 -532.9998168945312 C 65.99990844726562 -529.7947387695312 64.75166320800781 -526.7813110351562 62.48507690429688 -524.5147705078125 C 60.2184944152832 -522.2482299804688 57.20510482788086 -520.9999389648438 53.99999237060547 -520.9999389648438 Z M 122.4999084472656 -526.0003051757812 C 120.2733001708984 -526.0003051757812 118.1122131347656 -526.4368286132812 116.0767440795898 -527.2977294921875 C 114.111686706543 -528.1288452148438 112.3473281860352 -529.3182983398438 110.8326568603516 -530.8329467773438 C 109.3179931640625 -532.3475952148438 108.1285781860352 -534.1119995117188 107.2974395751953 -536.0770263671875 C 106.4365234375 -538.1124877929688 105.9999923706055 -540.2735595703125 105.9999923706055 -542.5001831054688 C 105.9999923706055 -544.726806640625 106.4365234375 -546.8878784179688 107.2974395751953 -548.92333984375 C 108.1285781860352 -550.888427734375 109.3179931640625 -552.6527709960938 110.8326568603516 -554.1674194335938 C 112.3473281860352 -555.68212890625 114.111686706543 -556.8715209960938 116.0767440795898 -557.7026977539062 C 118.1122131347656 -558.5635986328125 120.2732696533203 -559.0001220703125 122.4999084472656 -559.0001220703125 C 124.7265243530273 -559.0001220703125 126.8876037597656 -558.5635986328125 128.9230804443359 -557.7026977539062 C 130.8881072998047 -556.8715209960938 132.6524658203125 -555.68212890625 134.1671295166016 -554.1674194335938 C 135.6817932128906 -552.6527709960938 136.8712463378906 -550.888427734375 137.7023620605469 -548.92333984375 C 138.5632781982422 -546.8878784179688 138.9998016357422 -544.726806640625 138.9998016357422 -542.5001831054688 C 138.9998016357422 -540.2735595703125 138.5632781982422 -538.1124877929688 137.7023620605469 -536.0770263671875 C 136.8712158203125 -534.1119995117188 135.6817932128906 -532.34765625 134.1671295166016 -530.8330078125 C 132.6524658203125 -529.3182983398438 130.8881072998047 -528.12890625 128.9230804443359 -527.2977294921875 C 126.8876037597656 -526.4368286132812 124.7265243530273 -526.0003051757812 122.4999084472656 -526.0003051757812 Z M 38.99971771240234 -545.0001831054688 C 36.84063339233398 -545.0001831054688 34.74507904052734 -545.4234619140625 32.77130126953125 -546.25830078125 C 30.8658275604248 -547.064208984375 29.15499305725098 -548.2175903320312 27.68627166748047 -549.686279296875 C 26.21755027770996 -551.1549682617188 25.06421661376953 -552.8658447265625 24.25829887390137 -554.7713012695312 C 23.42346572875977 -556.7451171875 23.00018882751465 -558.8406372070312 23.00018882751465 -560.9996948242188 C 23.00018882751465 -563.1588134765625 23.42346572875977 -565.25439453125 24.25827217102051 -567.2282104492188 C 25.06418800354004 -569.1337280273438 26.21752166748047 -570.8447265625 27.68621635437012 -572.3135375976562 C 29.15493774414062 -573.7823486328125 30.86577224731445 -574.935791015625 32.77121734619141 -575.7418212890625 C 34.74504852294922 -576.5767822265625 36.84060668945312 -577.0001220703125 38.99971771240234 -577.0001220703125 C 41.15879821777344 -577.0001220703125 43.25440979003906 -576.5767822265625 45.22829818725586 -575.7418212890625 C 47.13382720947266 -574.9358520507812 48.84477233886719 -573.7824096679688 50.31357574462891 -572.3135986328125 C 51.78240966796875 -570.8447265625 52.93582916259766 -569.1338500976562 53.74182891845703 -567.2283325195312 C 54.5767707824707 -565.25439453125 55.00010681152344 -563.1588134765625 55.00010681152344 -560.9996948242188 C 55.00010681152344 -558.8406372070312 54.5767707824707 -556.7450561523438 53.74182891845703 -554.771240234375 C 52.93582916259766 -552.8657836914062 51.78235626220703 -551.1549072265625 50.31352233886719 -549.6862182617188 C 48.8447151184082 -548.217529296875 47.13376998901367 -547.064208984375 45.22821426391602 -546.25830078125 C 43.25435638427734 -545.4234619140625 41.15879821777344 -545.0001831054688 38.99971771240234 -545.0001831054688 Z M 81.50041198730469 -555.0001220703125 C 79.27379608154297 -555.0001220703125 77.11268615722656 -555.4366455078125 75.07713317871094 -556.2975463867188 C 73.11202239990234 -557.128662109375 71.34754943847656 -558.3180541992188 69.83277130126953 -559.8327026367188 C 68.31796264648438 -561.347412109375 67.12844085693359 -563.1117553710938 66.29721832275391 -565.0767822265625 C 65.43618774414062 -567.1123046875 64.99960327148438 -569.2733764648438 64.99960327148438 -571.5 C 64.99960327148438 -573.7266235351562 65.43618774414062 -575.8877563476562 66.29721832275391 -577.9232788085938 C 67.12844085693359 -579.8883056640625 68.31796264648438 -581.6526489257812 69.83277130126953 -583.1672973632812 C 71.34754943847656 -584.6820068359375 73.11202239990234 -585.871337890625 75.07713317871094 -586.7025146484375 C 77.11268615722656 -587.5634155273438 79.27379608154297 -587.9999389648438 81.50041198730469 -587.9999389648438 C 83.72682952880859 -587.9999389648438 85.88777160644531 -587.5634155273438 87.9232177734375 -586.7024536132812 C 89.88821411132812 -585.871337890625 91.65258026123047 -584.6819458007812 93.16727447509766 -583.1672973632812 C 94.68202209472656 -581.652587890625 95.87152099609375 -579.8882446289062 96.70271301269531 -577.9232177734375 C 97.56371307373047 -575.8877563476562 98.00029754638672 -573.7266235351562 98.00029754638672 -571.5 C 98.00029754638672 -569.2733764648438 97.56371307373047 -567.1123046875 96.70271301269531 -565.0767822265625 C 95.87152099609375 -563.1117553710938 94.68202209472656 -561.347412109375 93.16727447509766 -559.832763671875 C 91.65258026123047 -558.318115234375 89.88821411132812 -557.1287231445312 87.9232177734375 -556.2975463867188 C 85.88777160644531 -555.4366455078125 83.72682952880859 -555.0001220703125 81.50041198730469 -555.0001220703125 Z M 10.99979972839355 -573.0001220703125 C 7.527438163757324 -573.0001220703125 4.26291036605835 -574.3523559570312 1.807549476623535 -576.8076782226562 C -0.6477838754653931 -579.2630615234375 -2.000005960464478 -582.527587890625 -2.000005960464478 -585.9999389648438 C -2.000005960464478 -589.4722900390625 -0.6477838754653931 -592.73681640625 1.807549476623535 -595.192138671875 C 4.26291036605835 -597.6474609375 7.527438163757324 -598.9996948242188 10.99979972839355 -598.9996948242188 C 14.47216033935547 -598.9996948242188 17.7366886138916 -597.6474609375 20.19204902648926 -595.192138671875 C 22.64738273620605 -592.73681640625 23.99960517883301 -589.4722900390625 23.99960517883301 -585.9999389648438 C 23.99960517883301 -582.527587890625 22.64738273620605 -579.2630615234375 20.19204902648926 -576.8076782226562 C 17.7366886138916 -574.3523559570312 14.47216033935547 -573.0001220703125 10.99979972839355 -573.0001220703125 Z M 123.0002975463867 -574.9999389648438 C 119.7948303222656 -574.9999389648438 116.7813262939453 -576.2482299804688 114.5148544311523 -578.5148315429688 C 112.2485198974609 -580.7813110351562 111.0004119873047 -583.7946166992188 111.0004119873047 -586.9998168945312 C 111.0004119873047 -590.205322265625 112.2485504150391 -593.2188720703125 114.5149078369141 -595.4852294921875 C 116.7812423706055 -597.7515869140625 119.7947692871094 -598.9996948242188 123.0002975463867 -598.9996948242188 C 126.2054977416992 -598.9996948242188 129.2188568115234 -597.7515869140625 131.4853210449219 -595.4852294921875 C 133.7519073486328 -593.2188110351562 135.0001831054688 -590.2052612304688 135.0001831054688 -586.9998168945312 C 135.0001831054688 -583.7947387695312 133.7519378662109 -580.7813110351562 131.4853515625 -578.5147705078125 C 129.2187957763672 -576.2481689453125 126.2054138183594 -574.9999389648438 123.0002975463867 -574.9999389648438 Z" stroke="none" fill="#000"/></g><g transform="translate(91 86)" stroke="#ff5e00" stroke-width="4" fill="url(#a)"><circle cx="14.5" cy="14.5" r="14.5" stroke="none"/><circle cx="14.5" cy="14.5" r="12.5" fill="none"/></g><g transform="translate(132 62)" stroke="#ff5e00" stroke-width="4" fill="url(#a)"><circle cx="14.5" cy="14.5" r="14.5" stroke="none"/><circle cx="14.5" cy="14.5" r="12.5" fill="none"/></g><g transform="translate(137 127)" stroke="#ff5e00" stroke-width="4" fill="url(#a)"><circle cx="14.5" cy="14.5" r="14.5" stroke="none"/><circle cx="14.5" cy="14.5" r="12.5" fill="none"/></g><g transform="translate(30 185)" stroke="#ff5e00" stroke-width="4" fill="url(#a)"><circle cx="14.5" cy="14.5" r="14.5" stroke="none"/><circle cx="14.5" cy="14.5" r="12.5" fill="none"/></g><g transform="translate(68 76)" stroke="#ff5e00" stroke-width="4" fill="url(#a)"><circle cx="10" cy="10" r="10" stroke="none"/><circle cx="10" cy="10" r="8" fill="none"/></g><g transform="translate(137 22)" stroke="#ff5e00" stroke-width="4" fill="url(#a)"><circle cx="10" cy="10" r="10" stroke="none"/><circle cx="10" cy="10" r="8" fill="none"/></g><g transform="translate(151 207)" stroke="#ff5e00" stroke-width="4" fill="url(#a)"><circle cx="10" cy="10" r="10" stroke="none"/><circle cx="10" cy="10" r="8" fill="none"/></g><g transform="translate(91 129)" stroke="#ff5e00" stroke-width="4" fill="url(#a)"><circle cx="17" cy="17" r="17" stroke="none"/><circle cx="17" cy="17" r="15" fill="none"/></g><g transform="translate(42 123)" stroke="#ff5e00" stroke-width="4" fill="url(#a)"><circle cx="14" cy="14" r="14" stroke="none"/><circle cx="14" cy="14" r="12" fill="none"/></g><g transform="translate(49 44)" stroke="#ff5e00" stroke-width="4" fill="url(#a)"><circle cx="14" cy="14" r="14" stroke="none"/><circle cx="14" cy="14" r="12" fill="none"/></g><g transform="translate(97 185)" stroke="#ff5e00" stroke-width="4" fill="url(#a)"><circle cx="14" cy="14" r="14" stroke="none"/><circle cx="14" cy="14" r="12" fill="none"/></g><g transform="translate(30 79)" stroke="#ff5e00" stroke-width="4" fill="url(#a)"><circle cx="16.5" cy="16.5" r="16.5" stroke="none"/><circle cx="16.5" cy="16.5" r="14.5" fill="none"/></g><g transform="translate(58 159)" stroke="#ff5e00" stroke-width="4" fill="url(#a)"><circle cx="16.5" cy="16.5" r="16.5" stroke="none"/><circle cx="16.5" cy="16.5" r="14.5" fill="none"/></g><g transform="translate(24 22)" stroke="#ff5e00" stroke-width="4" fill="url(#a)"><circle cx="11" cy="11" r="11" stroke="none"/><circle cx="11" cy="11" r="9" fill="none"/></g><g transform="translate(129 165)" stroke="#ff5e00" stroke-width="4" fill="url(#a)"><circle cx="11" cy="11" r="11" stroke="none"/><circle cx="11" cy="11" r="9" fill="none"/></g><g transform="translate(91 33)" stroke="#ff5e00" stroke-width="4" fill="url(#a)"><circle cx="14.5" cy="14.5" r="14.5" stroke="none"/><circle cx="14.5" cy="14.5" r="12.5" fill="none"/></g></g></svg>