<svg xmlns="http://www.w3.org/2000/svg" xmlns:xlink="http://www.w3.org/1999/xlink" width="190" height="248" viewBox="0 0 190 248"><defs><radialGradient id="a" cx="0.286" cy="0.296" r="0.976" gradientTransform="translate(0 -0.014) scale(1 1.048)" gradientUnits="objectBoundingBox"><stop offset="0" stop-color="#fff"/><stop offset="1" stop-color="#fff" stop-opacity="0"/></radialGradient><linearGradient id="b" y1="0.361" x2="1" y2="0.361" gradientUnits="objectBoundingBox"><stop offset="0" stop-color="#fff"/><stop offset="1" stop-color="gray"/></linearGradient><clipPath id="h"><rect width="190" height="248"/></clipPath></defs><g id="g" clip-path="url(#h)"><rect width="190" height="248" fill="rgba(255,255,255,0)"/><g transform="translate(687.619 905.558)"><path d="M -577.0501098632812 -697.7164916992188 C -580.5928344726562 -697.7164916992188 -584.1072998046875 -698.2637939453125 -587.4959106445312 -699.34326171875 C -590.845458984375 -700.4102783203125 -594.0029907226562 -701.974609375 -596.8806762695312 -703.9928588867188 C -599.7947998046875 -706.0365600585938 -602.3610229492188 -708.503662109375 -604.5081176757812 -711.32568359375 C -606.7279052734375 -714.2432250976562 -608.4640502929688 -717.495849609375 -609.6682739257812 -720.9931640625 C -611.184326171875 -725.39599609375 -611.7926025390625 -729.9652709960938 -611.4762573242188 -734.5739135742188 C -611.1707763671875 -739.0242919921875 -610.0201416015625 -743.3223876953125 -608.0562744140625 -747.348876953125 C -606.0924072265625 -751.3753662109375 -603.4138793945312 -754.9282836914062 -600.094970703125 -757.908935546875 C -596.6580200195312 -760.9955444335938 -592.6829223632812 -763.329345703125 -588.280029296875 -764.8453369140625 C -584.6408081054688 -766.0984497070312 -580.8611450195312 -766.7338256835938 -577.0459594726562 -766.7338256835938 C -573.5032958984375 -766.7338256835938 -569.9888305664062 -766.1865234375 -566.6001586914062 -765.1070556640625 C -563.2506713867188 -764.0401000976562 -560.0931396484375 -762.4757080078125 -557.2153930664062 -760.45751953125 C -554.3013305664062 -758.4137573242188 -551.735107421875 -755.9466552734375 -549.5880126953125 -753.1246337890625 C -547.3682250976562 -750.2070922851562 -545.632080078125 -746.9544677734375 -544.4278564453125 -743.4571533203125 C -542.9118041992188 -739.0542602539062 -542.3035278320312 -734.4850463867188 -542.619873046875 -729.8763427734375 C -542.9253540039062 -725.426025390625 -544.0759887695312 -721.1278686523438 -546.0398559570312 -717.1014404296875 C -548.0037231445312 -713.074951171875 -550.6822509765625 -709.5220336914062 -554.0011596679688 -706.5414428710938 C -557.4381103515625 -703.4547729492188 -561.4132080078125 -701.1210327148438 -565.8161010742188 -699.60498046875 C -569.4553833007812 -698.3518676757812 -573.235107421875 -697.7164916992188 -577.0501098632812 -697.7164916992188 Z M -621.9039916992188 -777.2771606445312 L -621.9039916992188 -777.2771606445312 C -625.3134155273438 -777.2769165039062 -628.7109985351562 -777.7870483398438 -632.0023193359375 -778.7933349609375 C -636.4553833007812 -780.15478515625 -640.5094604492188 -782.348388671875 -644.052001953125 -785.3132934570312 C -647.472900390625 -788.1763305664062 -650.2738037109375 -791.633544921875 -652.376953125 -795.589111328125 C -654.4801025390625 -799.5446166992188 -655.780029296875 -803.7999877929688 -656.2406005859375 -808.2369995117188 C -656.717529296875 -812.8318481445312 -656.26904296875 -817.4194946289062 -654.9075927734375 -821.8726196289062 C -653.7963256835938 -825.50732421875 -652.1163940429688 -828.9003295898438 -649.9144897460938 -831.9573364257812 C -647.785400390625 -834.9131469726562 -645.2070922851562 -837.5038452148438 -642.251220703125 -839.6574096679688 C -639.3291625976562 -841.7862548828125 -636.1069946289062 -843.4385375976562 -632.6741333007812 -844.568359375 C -629.1932373046875 -845.7139892578125 -625.5770874023438 -846.2948608398438 -621.926025390625 -846.2948608398438 C -618.5160522460938 -846.2948608398438 -615.1187133789062 -845.7847900390625 -611.8283081054688 -844.77880859375 C -607.3753051757812 -843.4173583984375 -603.3211669921875 -841.2237548828125 -599.7786254882812 -838.2588500976562 C -596.3577270507812 -835.3958129882812 -593.556884765625 -831.9385986328125 -591.4536743164062 -827.9830322265625 C -589.3505249023438 -824.0275268554688 -588.0505981445312 -819.7721557617188 -587.5900268554688 -815.3351440429688 C -587.113037109375 -810.7402954101562 -587.5615234375 -806.1526489257812 -588.9230346679688 -801.6995239257812 C -590.0341796875 -798.06494140625 -591.714111328125 -794.6719970703125 -593.9161376953125 -791.6150512695312 C -596.0452270507812 -788.6593627929688 -598.6235961914062 -786.0687866210938 -601.5795288085938 -783.915283203125 C -604.5015258789062 -781.7864990234375 -607.7236938476562 -780.1342163085938 -611.156494140625 -779.0042724609375 C -614.6372680664062 -777.8585815429688 -618.2532348632812 -777.2774658203125 -621.9039916992188 -777.2771606445312 Z M -541.395751953125 -826.0479125976562 L -541.395751953125 -826.0479125976562 C -549.63525390625 -826.0473022460938 -557.6262817382812 -829.025146484375 -563.8969116210938 -834.432861328125 C -566.9970703125 -837.1064453125 -569.5704345703125 -840.27001953125 -571.5455932617188 -843.8357543945312 C -573.59033203125 -847.5271606445312 -574.9275512695312 -851.5358276367188 -575.5199584960938 -855.7503662109375 C -576.1680908203125 -860.3617553710938 -575.8934326171875 -864.9631958007812 -574.70361328125 -869.4268798828125 C -573.5546264648438 -873.7372436523438 -571.60498046875 -877.7369384765625 -568.908935546875 -881.3147583007812 C -566.2128295898438 -884.892578125 -562.905517578125 -887.8692016601562 -559.0787963867188 -890.161865234375 C -555.1160278320312 -892.5360717773438 -550.7685546875 -894.0685424804688 -546.1571655273438 -894.7166748046875 C -544.5530395507812 -894.9420776367188 -542.924072265625 -895.0563354492188 -541.3156127929688 -895.0563354492188 C -533.07568359375 -895.0563354492188 -525.0845336914062 -892.078369140625 -518.814208984375 -886.6709594726562 C -515.7139892578125 -883.9974365234375 -513.140625 -880.8339233398438 -511.1656494140625 -877.268310546875 C -509.1209716796875 -873.5769653320312 -507.7839660644531 -869.568359375 -507.1917419433594 -865.353759765625 C -506.5436096191406 -860.7424926757812 -506.8182678222656 -856.1410522460938 -508.0081481933594 -851.6773681640625 C -509.1571044921875 -847.3670043945312 -511.1067199707031 -843.3673095703125 -513.8027954101562 -839.7894897460938 C -516.4988403320312 -836.211669921875 -519.80615234375 -833.2350463867188 -523.6328735351562 -830.9423828125 C -527.5956420898438 -828.5681762695312 -531.943115234375 -827.0357055664062 -536.5545043945312 -826.3875732421875 C -538.157470703125 -826.162353515625 -539.7862548828125 -826.0480346679688 -541.395751953125 -826.0479125976562 Z" stroke="none"/><path d="M -577.0501098632812 -699.7164916992188 C -573.5407104492188 -699.7164916992188 -569.9714965820312 -700.2894287109375 -566.4672241210938 -701.4960327148438 C -549.4959106445312 -707.3397216796875 -540.4752197265625 -725.834716796875 -546.3189086914062 -742.8060302734375 C -552.16259765625 -759.77734375 -570.657470703125 -768.798095703125 -587.62890625 -762.954345703125 C -604.6002197265625 -757.110595703125 -613.6209106445312 -738.6156005859375 -607.7772216796875 -721.644287109375 C -603.14013671875 -708.1773071289062 -590.5369262695312 -699.7164916992188 -577.0501098632812 -699.7164916992188 M -621.9041748046875 -779.2771606445312 C -607.9907836914062 -779.2784423828125 -595.115234375 -788.2858276367188 -590.8356323242188 -802.2843017578125 C -585.5877075195312 -819.4490966796875 -595.248291015625 -837.6183471679688 -612.4130859375 -842.8662109375 C -629.57763671875 -848.1140747070312 -647.7471313476562 -838.4526977539062 -652.9949951171875 -821.287841796875 C -658.242919921875 -804.123046875 -648.5823364257812 -785.9537963867188 -631.4175415039062 -780.7059326171875 C -628.2504272460938 -779.7376098632812 -625.0521850585938 -779.2769165039062 -621.9041748046875 -779.2771606445312 M -541.3959350585938 -828.0479125976562 C -539.8910522460938 -828.0480346679688 -538.3657836914062 -828.1527099609375 -536.8328857421875 -828.3681030273438 C -519.0579223632812 -830.8665161132812 -506.6739196777344 -847.300537109375 -509.1723022460938 -865.0755004882812 C -511.4544067382812 -881.3167114257812 -525.3705444335938 -893.0563354492188 -541.3156127929688 -893.0563354492188 C -542.820556640625 -893.0563354492188 -544.3458251953125 -892.9515380859375 -545.8787841796875 -892.7361450195312 C -563.65380859375 -890.2377319335938 -576.037841796875 -873.8037109375 -573.5394287109375 -856.0287475585938 C -571.2564697265625 -839.7875366210938 -557.34033203125 -828.0467529296875 -541.3959350585938 -828.0479125976562 M -577.0501098632812 -695.7164916992188 C -580.799072265625 -695.7164916992188 -584.517822265625 -696.2955932617188 -588.1029663085938 -697.4376220703125 C -591.6456909179688 -698.566162109375 -594.9853515625 -700.2207641601562 -598.029052734375 -702.3553466796875 C -601.1122436523438 -704.5177001953125 -603.82763671875 -707.1282958984375 -606.0997924804688 -710.1146240234375 C -608.4487915039062 -713.2020263671875 -610.2855834960938 -716.6430053710938 -611.559326171875 -720.342041015625 C -613.1629638671875 -724.9993286132812 -613.8063354492188 -729.833740234375 -613.4715576171875 -734.7108764648438 C -613.1483764648438 -739.4194946289062 -611.9312133789062 -743.9664916992188 -609.8538818359375 -748.2256469726562 C -607.7765502929688 -752.4847412109375 -604.9428100585938 -756.2433471679688 -601.4313354492188 -759.3969116210938 C -597.794189453125 -762.6633911132812 -593.5885009765625 -765.1327514648438 -588.9312133789062 -766.7364501953125 C -585.0819091796875 -768.0618286132812 -581.0831909179688 -768.7338256835938 -577.0460205078125 -768.7338256835938 C -573.2969970703125 -768.7338256835938 -569.5783081054688 -768.15478515625 -565.9931640625 -767.0127563476562 C -562.4503784179688 -765.8841552734375 -559.1107788085938 -764.2296142578125 -556.0670166015625 -762.094970703125 C -552.98388671875 -759.9326782226562 -550.2684936523438 -757.3220825195312 -547.996337890625 -754.335693359375 C -545.6473388671875 -751.248291015625 -543.810546875 -747.807373046875 -542.5368041992188 -744.1083374023438 C -540.9331665039062 -739.4509887695312 -540.289794921875 -734.6165771484375 -540.6245727539062 -729.7394409179688 C -540.94775390625 -725.0308227539062 -542.1649169921875 -720.4837646484375 -544.2422485351562 -716.2246704101562 C -546.319580078125 -711.9655151367188 -549.1533813476562 -708.2069702148438 -552.664794921875 -705.0534057617188 C -556.3019409179688 -701.7869873046875 -560.5076293945312 -699.317626953125 -565.1649169921875 -697.7139892578125 C -569.0142822265625 -696.3885498046875 -573.0130615234375 -695.7164916992188 -577.0501098632812 -695.7164916992188 Z M -621.90380859375 -775.2771606445312 L -621.9038696289062 -775.2771606445312 C -625.5115966796875 -775.27685546875 -629.10595703125 -775.8163452148438 -632.5870971679688 -776.8807373046875 C -637.2974853515625 -778.3208618164062 -641.5867309570312 -780.6419677734375 -645.3356323242188 -783.779541015625 C -648.9550170898438 -786.8086547851562 -651.9181518554688 -790.4661254882812 -654.142822265625 -794.6502075195312 C -656.3674926757812 -798.834228515625 -657.7426147460938 -803.3360595703125 -658.2299194335938 -808.030517578125 C -658.7346801757812 -812.8930053710938 -658.2603759765625 -817.7469482421875 -656.8201904296875 -822.4573364257812 C -655.6448364257812 -826.3018188476562 -653.867431640625 -829.891357421875 -651.5372924804688 -833.1262817382812 C -649.2842407226562 -836.2542114257812 -646.5562133789062 -838.9954833984375 -643.4288940429688 -841.2738647460938 C -640.33837890625 -843.5255126953125 -636.9302978515625 -845.2731323242188 -633.2993774414062 -846.4681396484375 C -629.6163940429688 -847.6802368164062 -625.789794921875 -848.2948608398438 -621.9259643554688 -848.2948608398438 C -618.3176879882812 -848.2948608398438 -614.7235717773438 -847.7554321289062 -611.2435913085938 -846.69140625 C -606.5331420898438 -845.2512817382812 -602.243896484375 -842.93017578125 -598.4949340820312 -839.7926025390625 C -594.8756103515625 -836.7634887695312 -591.9124755859375 -833.1060180664062 -589.6878051757812 -828.9219360351562 C -587.4630737304688 -824.7379150390625 -586.0880126953125 -820.236083984375 -585.6007080078125 -815.5416259765625 C -585.095947265625 -810.6791381835938 -585.5702514648438 -805.8251953125 -587.0104370117188 -801.1148071289062 C -588.1857299804688 -797.2704467773438 -589.963134765625 -793.6809692382812 -592.2933349609375 -790.446044921875 C -594.54638671875 -787.3182983398438 -597.2744750976562 -784.5771484375 -600.4019165039062 -782.2987670898438 C -603.4923706054688 -780.0472412109375 -606.900390625 -778.2996826171875 -610.5311889648438 -777.1045532226562 C -614.2139892578125 -775.892333984375 -618.0403442382812 -775.2775268554688 -621.90380859375 -775.2771606445312 Z M -541.3955688476562 -824.0479125976562 L -541.3956298828125 -824.0479125976562 C -550.114501953125 -824.0473022460938 -558.5694580078125 -827.197509765625 -565.2030639648438 -832.9182739257812 C -568.4826049804688 -835.74658203125 -571.2052001953125 -839.0936889648438 -573.2951049804688 -842.8665771484375 C -575.458984375 -846.7730102539062 -576.8738403320312 -851.0140991210938 -577.50048828125 -855.471923828125 C -578.1861572265625 -860.349853515625 -577.8953247070312 -865.21826171875 -576.6361083984375 -869.9420166015625 C -575.4204711914062 -874.5025024414062 -573.3580932617188 -878.7338256835938 -570.5061645507812 -882.5184326171875 C -567.6543579101562 -886.302978515625 -564.1554565429688 -889.4518432617188 -560.106689453125 -891.8775024414062 C -555.9130249023438 -894.3900146484375 -551.3134155273438 -896.0115966796875 -546.435546875 -896.6972045898438 C -544.7394409179688 -896.935546875 -543.0169067382812 -897.0563354492188 -541.3156127929688 -897.0563354492188 C -532.596435546875 -897.0563354492188 -524.1414184570312 -893.906005859375 -517.508056640625 -888.185546875 C -514.2284545898438 -885.3572998046875 -511.5059204101562 -882.01025390625 -509.4161071777344 -878.2374267578125 C -507.2523498535156 -874.3310546875 -505.8376159667969 -870.0899658203125 -505.2112121582031 -865.632080078125 C -504.525634765625 -860.75439453125 -504.8164367675781 -855.885986328125 -506.0755920410156 -851.1622314453125 C -507.291259765625 -846.6016845703125 -509.3536682128906 -842.3704223632812 -512.2055053710938 -838.5858764648438 C -515.057373046875 -834.80126953125 -518.5562133789062 -831.6524047851562 -522.60498046875 -829.2267456054688 C -526.7986450195312 -826.7142333984375 -531.3982543945312 -825.0926513671875 -536.276123046875 -824.4070434570312 C -537.9710083007812 -824.1688842773438 -539.693359375 -824.048095703125 -541.3955688476562 -824.0479125976562 Z" stroke="none" fill="#000"/></g><g transform="translate(37.23 -20.025) rotate(17)"><g transform="translate(30 70)" fill="#fff" stroke="#ffb2b2" stroke-width="4"><circle cx="30.5" cy="30.5" r="30.5" stroke="none"/><circle cx="30.5" cy="30.5" r="32.5" fill="none"/></g><path d="M-643.67-840a30.661,30.661,0,0,1-8.1-9h52.548a30.664,30.664,0,0,1-8.1,9Zm-10.475-14a30.368,30.368,0,0,1-1.819-9h60.928a30.366,30.366,0,0,1-1.819,9Zm-1.657-14a30.28,30.28,0,0,1,2.472-9h55.658a30.28,30.28,0,0,1,2.473,9Zm5.318-14a30.645,30.645,0,0,1,9.873-9h30.22a30.646,30.646,0,0,1,9.874,9Z" transform="translate(686 965)" fill="#b50000"/><path d="M30.5,0A30.5,30.5,0,1,1,0,30.5,30.5,30.5,0,0,1,30.5,0Z" transform="translate(30 70)" fill="url(#a)"/><path d="M0,0H8V77.429L4.167,104,0,77.625Z" transform="translate(57 131)" fill="url(#b)"/></g><g transform="translate(20.647 98.005) rotate(-19)"><g transform="translate(30 70)" fill="#fff" stroke="#ffb2b2" stroke-width="4"><circle cx="30.5" cy="30.5" r="30.5" stroke="none"/><circle cx="30.5" cy="30.5" r="32.5" fill="none"/></g><path d="M-643.67-840a30.661,30.661,0,0,1-8.1-9h52.548a30.664,30.664,0,0,1-8.1,9Zm-10.475-14a30.368,30.368,0,0,1-1.819-9h60.928a30.366,30.366,0,0,1-1.819,9Zm-1.657-14a30.28,30.28,0,0,1,2.472-9h55.658a30.28,30.28,0,0,1,2.473,9Zm5.318-14a30.645,30.645,0,0,1,9.873-9h30.22a30.646,30.646,0,0,1,9.874,9Z" transform="translate(686 965)" fill="#b50000"/><path d="M30.5,0A30.5,30.5,0,1,1,0,30.5,30.5,30.5,0,0,1,30.5,0Z" transform="translate(30 70)" fill="url(#a)"/><path d="M0,0H8V28.835l-3.833,9.9L0,28.908Z" transform="translate(57 131)" fill="url(#b)"/></g><g transform="translate(72.365 -46.096) rotate(-8)"><g transform="translate(30 70)" fill="#fff" stroke="#ffb2b2" stroke-width="4"><circle cx="30.5" cy="30.5" r="30.5" stroke="none"/><circle cx="30.5" cy="30.5" r="32.5" fill="none"/></g><path d="M-643.67-840a30.661,30.661,0,0,1-8.1-9h52.548a30.664,30.664,0,0,1-8.1,9Zm-10.475-14a30.368,30.368,0,0,1-1.819-9h60.928a30.366,30.366,0,0,1-1.819,9Zm-1.657-14a30.28,30.28,0,0,1,2.472-9h55.658a30.28,30.28,0,0,1,2.473,9Zm5.318-14a30.645,30.645,0,0,1,9.873-9h30.22a30.646,30.646,0,0,1,9.874,9Z" transform="translate(686 965)" fill="#b50000"/><path d="M30.5,0A30.5,30.5,0,1,1,0,30.5,30.5,30.5,0,0,1,30.5,0Z" transform="translate(30 70)" fill="url(#a)"/><path d="M0,0H8V122.064L4.167,163.953,0,122.374Z" transform="translate(57 131)" fill="url(#b)"/></g></g></svg>