<svg xmlns="http://www.w3.org/2000/svg" xmlns:xlink="http://www.w3.org/1999/xlink" width="190" height="248" viewBox="0 0 190 248"><defs><radialGradient id="a" cx="0.233" cy="0.463" r="1.014" gradientTransform="matrix(0.717, 0.697, -0.674, 0.693, 0.378, -0.02)" gradientUnits="objectBoundingBox"><stop offset="0"/><stop offset="1" stop-color="#581500"/></radialGradient><radialGradient id="b" cx="0.5" cy="0.5" r="0.5" gradientUnits="objectBoundingBox"><stop offset="0" stop-color="#cb7a00"/><stop offset="1" stop-color="#662300"/></radialGradient><clipPath id="d"><rect width="190" height="248"/></clipPath></defs><g id="c" clip-path="url(#d)"><g transform="translate(60.083 16.826)" stroke="#000" stroke-width="2"><ellipse cx="34.917" cy="69.313" rx="34.917" ry="69.313" stroke="none"/><ellipse cx="34.917" cy="69.313" rx="35.917" ry="70.313" fill="none"/></g><rect width="190" height="248" fill="rgba(255,255,255,0)"/><g transform="translate(60.083 16.826)" stroke="#ab824b" stroke-width="4" fill="url(#a)"><ellipse cx="34.917" cy="69.313" rx="34.917" ry="69.313" stroke="none"/><ellipse cx="34.917" cy="69.313" rx="32.917" ry="67.313" fill="none"/></g><path d="M511.681,1025.911s16.378-5.88,27.18,7.378,17.849,17.171,22.514,34.6,6.723,33.862-3.22,46.384-30.6,11.951-40.408,3.962c-9.943-8.1-11.294-34.863,0-47.63s13.018-13.983,9.09-19.384-4.346-4.1-9.256-12.448S511.681,1025.911,511.681,1025.911Z" transform="translate(-440.658 -901.509)" opacity="0.76" fill="url(#b)"/></g></svg>