<svg xmlns="http://www.w3.org/2000/svg" xmlns:xlink="http://www.w3.org/1999/xlink" width="190" height="248" viewBox="0 0 190 248"><defs><clipPath id="b"><rect width="190" height="248"/></clipPath></defs><g id="a" clip-path="url(#b)"><rect width="190" height="248" fill="rgba(255,255,255,0)"/><rect width="160" height="213" rx="13" transform="translate(15 14)" fill="none" stroke="#f8f8f8" stroke-width="4"/><g transform="translate(15 14)" stroke="#000" stroke-width="4"><rect width="160" height="213" rx="13" stroke="none"/><rect x="-2" y="-2" width="164" height="217" rx="15" fill="none"/></g><rect width="160" height="213" rx="13" transform="translate(15 14)" fill="#fff" stroke="#f8f8f8" stroke-width="4"/><line x2="70.708" transform="translate(32.5 45.5)" fill="none" stroke="#707070" stroke-width="4"/><line x2="70.708" transform="translate(32.5 58.5)" fill="none" stroke="#707070" stroke-width="4"/><line x2="70.708" transform="translate(32.5 71.5)" fill="none" stroke="#707070" stroke-width="4"/><line x2="70.708" transform="translate(32.5 84.5)" fill="none" stroke="#707070" stroke-width="4"/><g transform="translate(41.914)"><line x2="84" transform="translate(32.5 173.5)" fill="none" stroke="#707070" stroke-width="4"/><line x2="84" transform="translate(32.5 186.5)" fill="none" stroke="#707070" stroke-width="4"/><line x2="84" transform="translate(32.5 199.5)" fill="none" stroke="#707070" stroke-width="4"/><line x2="84" transform="translate(32.5 212.5)" fill="none" stroke="#707070" stroke-width="4"/></g><g transform="translate(0 -2)"><line x2="125.914" transform="translate(32.5 110.5)" fill="none" stroke="#707070" stroke-width="4"/><line x2="125.914" transform="translate(32.5 123.5)" fill="none" stroke="#707070" stroke-width="4"/><line x2="125.914" transform="translate(32.5 136.5)" fill="none" stroke="#707070" stroke-width="4"/><line x2="125.914" transform="translate(32.5 149.5)" fill="none" stroke="#707070" stroke-width="4"/></g><circle cx="23" cy="23" r="23" transform="translate(115 41)" fill="#b70000"/></g></svg>