<svg xmlns="http://www.w3.org/2000/svg" xmlns:xlink="http://www.w3.org/1999/xlink" width="190" height="248" viewBox="0 0 190 248"><defs><clipPath id="b"><rect width="190" height="248"/></clipPath></defs><g id="a" clip-path="url(#b)"><rect width="190" height="248" fill="rgba(255,255,255,0)"/><g transform="translate(0 -5)"><g transform="translate(1064.823 1)" fill="#003237"><path d="M -908.2002563476562 232.0003051757812 L -908.7261962890625 232.0003051757812 L -968.522216796875 232.0003051757812 L -969.2725830078125 232.0003051757812 L -969.4823608398438 231.2798461914062 C -970.468017578125 227.8942260742188 -970.9678344726562 223.9948425292969 -970.9678344726562 219.6900177001953 C -970.9678344726562 215.6078643798828 -970.543701171875 211.2509460449219 -969.7072143554688 206.7402801513672 C -968.8790893554688 202.2740631103516 -967.6219482421875 197.5268402099609 -965.9707641601562 192.6305541992188 C -964.289306640625 187.6462860107422 -962.0653686523438 182.9327697753906 -959.3607177734375 178.6208343505859 C -956.6538696289062 174.3051147460938 -953.3922729492188 170.2736358642578 -949.66650390625 166.6383666992188 C -945.8202514648438 162.8843841552734 -941.4094848632812 160.0268859863281 -936.5568237304688 158.1453247070312 C -931.7354736328125 156.2760162353516 -926.3692626953125 155.3282012939453 -920.6072998046875 155.3282012939453 C -912.3098754882812 155.3282012939453 -905.938720703125 158.0331420898438 -901.6707763671875 163.3678894042969 C -899.5743408203125 165.9881591796875 -897.9915771484375 169.2662811279297 -896.9664916992188 173.1112060546875 C -896.168212890625 176.1046295166016 -895.6876831054688 179.5279388427734 -895.5355224609375 183.3003387451172 C -893.85986328125 183.2095947265625 -892.0289306640625 182.9047241210938 -890.0774536132812 182.3908538818359 L -888.8228149414062 182.0604705810547 L -888.8228149414062 183.3578948974609 L -888.8228149414062 217.9998016357422 C -888.8228149414062 221.6766967773438 -890.2371826171875 225.150146484375 -892.8053588867188 227.7802886962891 L -894.1864624023438 229.1947479248047 L -894.507568359375 227.2440795898438 C -894.89208984375 224.9079284667969 -895.0870361328125 222.3663940429688 -895.0870361328125 219.6900177001953 C -895.0870361328125 215.5578002929688 -894.6787719726562 211.1717224121094 -893.8735961914062 206.6535797119141 C -893.2901611328125 203.3787994384766 -892.4816284179688 199.9509429931641 -891.4653930664062 196.4408721923828 C -893.0259399414062 196.8492126464844 -894.6231689453125 197.2123718261719 -896.2383422851562 197.5259704589844 C -896.7380981445312 202.0737152099609 -897.5181274414062 206.4205322265625 -898.5592041015625 210.4564666748047 C -899.7850341796875 215.2110748291016 -901.4099731445312 219.6888885498047 -903.388916015625 223.7654113769531 C -904.7427978515625 226.5558319091797 -906.2612915039062 229.1806945800781 -907.9022216796875 231.5669250488281 L -908.2002563476562 232.0003051757812 Z M -919.2239990234375 171.8722076416016 C -920.5184936523438 171.8722076416016 -921.8760986328125 172.4239044189453 -923.2591552734375 173.5120086669922 C -924.7357177734375 174.6737060546875 -926.252197265625 176.45166015625 -927.7664184570312 178.7964935302734 C -931.1589965820312 184.0486755371094 -933.9437255859375 190.4643096923828 -936.0432739257812 197.8652191162109 C -938.1465454101562 205.2828674316406 -939.2129516601562 211.8697204589844 -939.2129516601562 217.4427032470703 C -939.2129516601562 223.8709259033203 -938.3375244140625 226.1445617675781 -937.815673828125 226.9276885986328 C -937.1353759765625 227.9473876953125 -935.6903076171875 228.4433135986328 -933.3981323242188 228.4433135986328 C -931.5502319335938 228.4433135986328 -929.51904296875 227.1898193359375 -927.3609619140625 224.7176818847656 C -924.84375 221.8330383300781 -922.5847778320312 217.7772216796875 -920.6469116210938 212.6630706787109 C -918.90380859375 208.0643463134766 -917.5656127929688 202.9294738769531 -916.6659545898438 197.3899383544922 C -917.7613525390625 196.7460327148438 -918.6692504882812 195.8706512451172 -919.37109375 194.7800598144531 C -920.4615478515625 193.08251953125 -921.0142211914062 190.8794555664062 -921.0142211914062 188.2314147949219 C -921.0142211914062 185.3490600585938 -920.4293212890625 182.8690185546875 -919.2758178710938 180.8601531982422 C -918.4195556640625 179.3682403564453 -917.2547607421875 178.1340942382812 -915.8078002929688 177.1842041015625 C -916.1363525390625 174.1469268798828 -916.681640625 173.008056640625 -916.9110717773438 172.6494293212891 C -916.9806518554688 172.5405426025391 -917.0758666992188 172.3916015625 -917.3345947265625 172.2419738769531 C -917.6262817382812 172.0732879638672 -918.1908569335938 171.8722076416016 -919.2239990234375 171.8722076416016 Z M -975.6871337890625 232.0003051757812 L -976.5545654296875 232.0003051757812 L -1005.487365722656 232.0003051757812 L -1006.640014648438 232.0003051757812 L -1006.477355957031 230.8592071533203 L -1000.859741210938 191.4485626220703 L -1017.582275390625 231.3865356445312 L -1017.839294433594 232.0003051757812 L -1018.504699707031 232.0003051757812 L -1036.822509765625 232.0003051757812 C -1040.562255859375 232.0003051757812 -1044.078125 230.5440368652344 -1046.722412109375 227.8997497558594 C -1049.36669921875 225.2554473876953 -1050.822998046875 221.7395782470703 -1050.822998046875 217.9998016357422 L -1050.822998046875 131.8738861083984 L -1050.822998046875 131.6949920654297 L -1050.822998046875 131.1315612792969 L -1050.822998046875 116.9587860107422 L -1050.822998046875 116.2165145874023 L -1050.112548828125 116.0016174316406 C -1049.499389648438 115.816162109375 -1048.880126953125 115.6400985717773 -1048.27197265625 115.4783096313477 C -1043.762451171875 114.2789306640625 -1039.192016601562 113.6708068847656 -1034.687744140625 113.6708068847656 C -1030.098510742188 113.6708068847656 -1025.337646484375 114.5444946289062 -1020.537536621094 116.2676162719727 L -1019.150756835938 116.7652816772461 L -1018.457092285156 117.0142211914062 L -1018.489501953125 117.7505111694336 L -1018.554321289062 119.2220153808594 L -1021.793823242188 193.4530792236328 L -990.2684936523438 117.9350738525391 L -989.7545166015625 116.7052612304688 L -989.4976806640625 116.0909118652344 L -988.8318481445312 116.0909118652344 L -987.4998168945312 116.0909118652344 L -962.6094360351562 116.0909118652344 L -960.3036499023438 116.0909118652344 L -959.1508178710938 116.0909118652344 L -959.3136596679688 117.2322006225586 L -959.6394653320312 119.5145950317383 L -975.5645751953125 231.1415405273438 L -975.6871337890625 232.0003051757812 Z" stroke="none"/><path d="M -908.7261962890625 231.0003204345703 C -907.1116333007812 228.6524047851562 -905.6256103515625 226.0845794677734 -904.2885131835938 223.3287048339844 C -902.3373413085938 219.3093109130859 -900.7362060546875 214.8948211669922 -899.5275268554688 210.2067108154297 C -898.4403076171875 205.9920196533203 -897.643798828125 201.4488220214844 -897.1542358398438 196.6815185546875 C -894.7017211914062 196.2297058105469 -892.3077392578125 195.6672058105469 -889.9920043945312 194.9985198974609 C -891.2421264648438 199.0755157470703 -892.2150268554688 203.04541015625 -892.8890991210938 206.8290100097656 C -893.683837890625 211.2884979248047 -894.0870361328125 215.6157073974609 -894.0870361328125 219.6900177001953 C -894.0870361328125 222.3247528076172 -893.8972778320312 224.7945709228516 -893.5208129882812 227.0816497802734 C -891.2327270507812 224.7383422851562 -889.8228149414062 221.5338134765625 -889.8228149414062 217.9998016357422 L -889.8228149414062 183.35791015625 C -892.2445678710938 183.99560546875 -894.4784545898438 184.3211212158203 -896.5026245117188 184.3290100097656 C -896.6033935546875 180.2349090576172 -897.0831298828125 176.5548095703125 -897.9327392578125 173.3687896728516 C -898.9218139648438 169.6589965820312 -900.44189453125 166.5045166015625 -902.4515991210938 163.9925994873047 C -906.5205078125 158.9067077636719 -912.6288452148438 156.3282012939453 -920.6072998046875 156.3282012939453 C -926.245849609375 156.3282012939453 -931.4901123046875 157.2534027099609 -936.1953125 159.0777130126953 C -940.9212036132812 160.9101257324219 -945.21875 163.6947021484375 -948.9681396484375 167.3541259765625 C -952.637451171875 170.9343109130859 -955.8486328125 174.9032897949219 -958.5135498046875 179.1522064208984 C -961.1775512695312 183.3993225097656 -963.3672485351562 188.0415191650391 -965.023193359375 192.9501037597656 C -966.6585083007812 197.7993011474609 -967.9041137695312 202.5009002685547 -968.7239990234375 206.9225921630859 C -969.54931640625 211.3730926513672 -969.9678344726562 215.6679077148438 -969.9678344726562 219.6900177001953 C -969.9678344726562 223.9069519042969 -969.4823608398438 227.7024536132812 -968.522216796875 231.0003204345703 L -908.7261962890625 231.0003204345703 M -919.2239990234375 170.8722076416016 C -916.8615112304688 170.8722076416016 -916.2648315429688 171.8037109375 -916.068603515625 172.1106262207031 C -915.6996459960938 172.6874847412109 -915.0732421875 174.1563110351562 -914.7510375976562 177.7068023681641 C -916.3052978515625 178.6068115234375 -917.5320434570312 179.830810546875 -918.4086303710938 181.3580932617188 C -919.4742431640625 183.2138977050781 -920.0142211914062 185.5259857177734 -920.0142211914062 188.2313995361328 C -920.0142211914062 190.6857147216797 -919.5147094726562 192.7062072753906 -918.5301513671875 194.2389068603516 C -917.7894287109375 195.3899841308594 -916.7966918945312 196.2602996826172 -915.56640625 196.8408203125 C -916.476318359375 202.7196044921875 -917.86865234375 208.1547088623047 -919.7117919921875 213.0174102783203 C -921.6918334960938 218.2427978515625 -924.0120239257812 222.4008026123047 -926.6076049804688 225.3753204345703 C -928.9638061523438 228.0744018554688 -931.248046875 229.4432983398438 -933.3981323242188 229.4432983398438 C -936.0504150390625 229.4432983398438 -937.7676391601562 228.8016052246094 -938.6478271484375 227.4822082519531 C -939.3615112304688 226.4112091064453 -940.2129516601562 223.7994079589844 -940.2129516601562 217.4427032470703 C -940.2129516601562 211.7781066894531 -939.1338500976562 205.0992126464844 -937.0053100585938 197.5923004150391 C -934.8795166015625 190.0989074707031 -932.054443359375 183.5919036865234 -928.6065063476562 178.2539978027344 C -925.4429931640625 173.3553009033203 -922.2867431640625 170.8722076416016 -919.2239990234375 170.8722076416016 M -976.5545654296875 231.0003204345703 L -960.3036499023438 117.0909042358398 L -988.8318481445312 117.0909042358398 L -989.345703125 118.3203201293945 L -1023.038146972656 199.0296020507812 L -1019.488525390625 117.7065124511719 L -1020.875427246094 117.2087936401367 C -1025.566284179688 115.52490234375 -1030.212890625 114.6707916259766 -1034.687744140625 114.6707916259766 C -1039.10498046875 114.6707916259766 -1043.588745117188 115.2675094604492 -1048.014892578125 116.444709777832 C -1048.616577148438 116.6047744750977 -1049.219360351562 116.7762069702148 -1049.822998046875 116.9587936401367 L -1049.822998046875 131.1315612792969 C -1049.714233398438 131.0833435058594 -1049.604858398438 131.0352935791016 -1049.495483398438 130.9878234863281 L -1049.822998046875 131.8738861083984 L -1049.822998046875 217.9998016357422 C -1049.822998046875 225.1800079345703 -1044.002685546875 231.0003204345703 -1036.822509765625 231.0003204345703 L -1018.504699707031 231.0003204345703 L -998.7687377929688 183.8655090332031 L -1005.487365722656 231.0003204345703 L -976.5545654296875 231.0003204345703 M -907.67431640625 233.0003204345703 L -970.0230102539062 233.0003204345703 L -970.4425048828125 231.5593872070312 C -971.4546508789062 228.0828857421875 -971.9678344726562 224.0894470214844 -971.9678344726562 219.6900177001953 C -971.9678344726562 215.546875 -971.5380859375 211.1286010742188 -970.6904907226562 206.5579223632812 C -969.853759765625 202.0453796386719 -968.5845947265625 197.2520141601562 -966.9183349609375 192.3109893798828 C -965.2117919921875 187.2524261474609 -962.9541015625 182.4676818847656 -960.2078247070312 178.0894622802734 C -957.4590454101562 173.7068176269531 -954.1473999023438 169.6132965087891 -950.3648681640625 165.9226379394531 C -946.4215698242188 162.0739898681641 -941.8974609375 159.1435852050781 -936.9183349609375 157.2129669189453 C -931.9813232421875 155.2987670898438 -926.4934692382812 154.3282012939453 -920.6072998046875 154.3282012939453 C -916.3680419921875 154.3282012939453 -912.558837890625 155.0288391113281 -909.2855224609375 156.41064453125 C -905.94970703125 157.8188323974609 -903.125 159.9494018554688 -900.889892578125 162.7431640625 C -898.7063598632812 165.4723663330078 -897.0612182617188 168.8739929199219 -896.000244140625 172.8535766601562 C -895.2572021484375 175.6399841308594 -894.7833251953125 178.7836608886719 -894.5867919921875 182.2227935791016 C -893.2576904296875 182.0863952636719 -891.8336791992188 181.8192138671875 -890.3320922851562 181.4238433837891 L -887.8228149414062 180.7630920410156 L -887.8228149414062 217.9998016357422 C -887.8228149414062 221.9393157958984 -889.3381958007812 225.6608581542969 -892.08984375 228.4788970947266 L -894.8521118164062 231.3078002929688 L -895.4942626953125 227.4064636230469 C -895.8875732421875 225.0168609619141 -896.0870361328125 222.4206695556641 -896.0870361328125 219.6900177001953 C -896.0870361328125 215.4990844726562 -895.6735229492188 211.0539398193359 -894.8580932617188 206.4781188964844 C -894.3612060546875 203.6893615722656 -893.703125 200.79150390625 -892.894287109375 197.8278350830078 C -893.6983032226562 198.0186920166016 -894.5101318359375 198.1977081298828 -895.3270263671875 198.3642272949219 C -895.8336181640625 202.6952209472656 -896.59375 206.8406524658203 -897.5909423828125 210.7062683105469 C -898.8333129882812 215.5250549316406 -900.4813842773438 220.0657958984375 -902.4893188476562 224.2021179199219 C -903.8649291992188 227.0373840332031 -905.408935546875 229.7060394287109 -907.0782470703125 232.1335601806641 L -907.67431640625 233.0003204345703 Z M -919.2239990234375 172.8722076416016 C -921.5308837890625 172.8722076416016 -924.1943359375 175.1083831787109 -926.9263916015625 179.3389892578125 C -930.26513671875 184.5078125 -933.0087280273438 190.8326873779297 -935.0812377929688 198.1381378173828 C -937.1592407226562 205.4668579101562 -938.2129516601562 211.9619445800781 -938.2129516601562 217.4427032470703 C -938.2129516601562 224.0172119140625 -937.2719116210938 225.9403381347656 -936.9835205078125 226.3731689453125 C -936.3935546875 227.2574920654297 -934.7080688476562 227.4432983398438 -933.3981323242188 227.4432983398438 C -931.8735961914062 227.4432983398438 -930.0464477539062 226.2733764648438 -928.1142578125 224.0600280761719 C -925.675537109375 221.2652740478516 -923.4777221679688 217.3114471435547 -921.58203125 212.3087310791016 C -919.9305419921875 207.9517059326172 -918.6468505859375 203.1024475097656 -917.7603759765625 197.876220703125 C -918.7315673828125 197.2007751464844 -919.5528564453125 196.3455352783203 -920.2120361328125 195.3212127685547 C -921.4081420898438 193.4590759277344 -922.0142211914062 191.0741882324219 -922.0142211914062 188.2313995361328 C -922.0142211914062 185.172119140625 -921.3846435546875 182.5245361328125 -920.14306640625 180.3621826171875 C -919.3113403320312 178.9131164550781 -918.2138671875 177.6871490478516 -916.87109375 176.7047576904297 C -917.1946411132812 174.1772003173828 -917.6539306640625 173.3438568115234 -917.7534790039062 173.188232421875 C -917.7644653320312 173.1709747314453 -917.7794189453125 173.1476440429688 -917.7841796875 173.1414184570312 C -917.8518676757812 173.0740356445312 -918.2684936523438 172.8722076416016 -919.2239990234375 172.8722076416016 Z M -974.8196411132812 233.0003204345703 L -1007.792663574219 233.0003204345703 L -1002.950744628906 199.0315551757812 L -1017.173889160156 233.0003204345703 L -1036.822509765625 233.0003204345703 C -1040.829345703125 233.0003204345703 -1044.596313476562 231.4400177001953 -1047.429565429688 228.6068420410156 C -1050.2626953125 225.773681640625 -1051.822998046875 222.0066833496094 -1051.822998046875 217.9998016357422 L -1051.822998046875 115.4742736816406 L -1050.401977539062 115.0444488525391 C -1049.778442382812 114.8558349609375 -1049.148315429688 114.6766662597656 -1048.529052734375 114.5119247436523 C -1043.935546875 113.2902297973633 -1039.278686523438 112.6707916259766 -1034.687744140625 112.6707916259766 C -1029.983032226562 112.6707916259766 -1025.108520507812 113.5642700195312 -1020.19970703125 115.3264007568359 L -1017.425598144531 116.3219451904297 L -1017.555236816406 119.2660140991211 L -1020.549499511719 187.8764801025391 L -990.16357421875 115.0909042358398 L -957.9979858398438 115.0909042358398 L -958.6494750976562 119.6558837890625 L -974.8196411132812 233.0003204345703 Z" stroke="none" fill="#000"/></g><g transform="translate(1053 -40.266)" fill="#003f46"><path d="M -885.4551391601562 170.4484100341797 C -891.2554321289062 170.4484100341797 -896.5469970703125 169.6849212646484 -901.1828002929688 168.17919921875 C -905.9126586914062 166.6424102783203 -910.0839233398438 164.2965545654297 -913.580810546875 161.206787109375 C -917.1514282226562 158.0506134033203 -919.8570556640625 153.9516296386719 -921.62255859375 149.0235900878906 C -923.3328857421875 144.2523651123047 -924.2001953125 138.5751190185547 -924.2001953125 132.1497039794922 C -924.2001953125 126.857780456543 -923.6771850585938 121.2407760620117 -922.6456909179688 115.4546966552734 C -921.8137817382812 110.7846145629883 -920.62646484375 105.8775329589844 -919.1114501953125 100.8442993164062 C -921.791015625 101.5940017700195 -924.558349609375 102.2372360229492 -927.3693237304688 102.7633895874023 C -928.0054321289062 108.8275299072266 -929.0291748046875 114.6216812133789 -930.4146728515625 119.9972763061523 C -931.9851684570312 126.0846557617188 -934.065185546875 131.8165740966797 -936.5970458984375 137.0340728759766 C -939.142578125 142.2792816162109 -942.1036987304688 147.0024108886719 -945.3981323242188 151.072265625 C -948.7186279296875 155.1736602783203 -952.4691772460938 158.7246551513672 -956.5457763671875 161.6266784667969 C -960.6489868164062 164.5455780029297 -964.9979858398438 166.7680358886719 -969.4722900390625 168.2325134277344 C -973.9616088867188 169.7028350830078 -978.691650390625 170.4484100341797 -983.5308227539062 170.4484100341797 C -989.3305053710938 170.4484100341797 -994.6217651367188 169.6849212646484 -999.2576293945312 168.17919921875 C -1003.987548828125 166.6423645019531 -1008.158813476562 164.2965240478516 -1011.655578613281 161.206787109375 C -1015.225830078125 158.0509643554688 -1017.931701660156 153.9520263671875 -1019.698181152344 149.0237426757812 C -1021.408081054688 144.2512817382812 -1022.275024414062 138.5740661621094 -1022.275024414062 132.1497039794922 C -1022.275024414062 126.9272766113281 -1021.732177734375 121.3504028320312 -1020.66162109375 115.5739669799805 C -1019.596313476562 109.8328247070312 -1017.981567382812 103.7372207641602 -1015.862243652344 97.456298828125 C -1013.712219238281 91.08188629150391 -1010.867492675781 85.05236053466797 -1007.407165527344 79.53533935546875 C -1003.947570800781 74.01853179931641 -999.7760620117188 68.86213684082031 -995.008544921875 64.20944976806641 C -992.8046875 62.05892562866211 -990.4256591796875 60.11684417724609 -987.9376220703125 58.43709182739258 L -987.6840209960938 58.26590347290039 L -987.3780517578125 58.26590347290039 L -936.1339111328125 58.26590347290039 L -935.6939697265625 58.26590347290039 L -935.396728515625 58.59023666381836 C -935.01025390625 59.01186370849609 -934.6320190429688 59.45352935791016 -934.2723999023438 59.90292739868164 C -931.638916015625 63.19463348388672 -929.64794921875 67.3233642578125 -928.3548583984375 72.17444610595703 C -927.2781372070312 76.21237945556641 -926.6560668945312 80.86878967285156 -926.5032348632812 86.02754211425781 C -922.20361328125 85.94058990478516 -917.1716918945312 84.75312805175781 -911.5310668945312 82.49366760253906 C -907.815185546875 75.84088897705078 -903.1366577148438 69.69692230224609 -897.6207885742188 64.22676086425781 C -895.4598388671875 62.0835075378418 -893.1178588867188 60.1468620300293 -890.6599731445312 58.47067642211914 L -890.3737182617188 58.27546691894531 L -890.028076171875 58.29919815063477 C -886.49609375 58.54163360595703 -883.2134399414062 60.10205078125 -880.78466796875 62.69298934936523 C -878.3443603515625 65.29630279541016 -877.0004272460938 68.69619750976562 -877.0004272460938 72.26640319824219 L -877.0004272460938 91.65383911132812 L -877.0004272460938 91.84403228759766 L -877.0702514648438 92.02095031738281 C -878.486328125 95.60892486572266 -879.7702026367188 99.49273681640625 -880.88623046875 103.5645294189453 C -883.558349609375 113.3135299682617 -884.9132080078125 121.9538192749023 -884.9132080078125 129.2454071044922 C -884.9132080078125 137.7860565185547 -883.6889038085938 140.8966522216797 -882.9591064453125 141.9906921386719 C -882.061279296875 143.3377838134766 -880.413330078125 144.0891723632812 -877.9208374023438 144.2881317138672 L -877.0004272460938 144.3616180419922 L -877.0004272460938 145.2849731445312 L -877.0004272460938 168.8412780761719 L -877.0004272460938 169.6890869140625 L -877.8367919921875 169.8278045654297 C -880.3197021484375 170.2396087646484 -882.8829345703125 170.4484100341797 -885.4551391601562 170.4484100341797 Z M -956.2752075195312 69.46840667724609 C -958.122314453125 69.46840667724609 -960.0340576171875 70.22650909423828 -961.9573364257812 71.72165679931641 C -963.9712524414062 73.28727722167969 -966.022216796875 75.67552947998047 -968.05322265625 78.820068359375 C -972.4873046875 85.68550872802734 -976.1222534179688 94.05690765380859 -978.8571166992188 103.7017135620117 C -981.5982055664062 113.3667831420898 -982.988037109375 121.9609069824219 -982.988037109375 129.2454071044922 C -982.988037109375 137.784912109375 -981.76416015625 140.8963623046875 -981.0346069335938 141.9910278320312 C -979.97998046875 143.5722198486328 -977.8734130859375 144.3410034179688 -974.5947265625 144.3410034179688 C -971.9408569335938 144.3410034179688 -969.0933837890625 142.6197662353516 -966.1312866210938 139.2250518798828 C -962.8082885742188 135.4174957275391 -959.834716796875 130.0862731933594 -957.2931518554688 123.3794479370117 C -954.955322265625 117.2101669311523 -953.177001953125 110.3080062866211 -952.0042724609375 102.8540802001953 C -953.562255859375 102.059700012207 -954.8229370117188 100.9119338989258 -955.7589111328125 99.43386077880859 C -957.0540771484375 97.38851165771484 -957.7108154296875 94.71595001220703 -957.7108154296875 91.49040222167969 C -957.7108154296875 87.92017364501953 -956.9945678710938 84.86183929443359 -955.5819091796875 82.40036010742188 C -954.4571533203125 80.44263458251953 -952.8941650390625 78.85198211669922 -950.93017578125 77.66431427001953 C -951.3464965820312 73.32183837890625 -952.1136474609375 71.55458831787109 -952.5463256835938 70.87863159179688 C -952.769775390625 70.52960968017578 -953.4490966796875 69.46840667724609 -956.2752075195312 69.46840667724609 Z M -1033.20458984375 169.5547027587891 L -1034.072143554688 169.5547027587891 L -1035.807373046875 169.5547027587891 L -1037.999755859375 169.5547027587891 L -1038.999755859375 169.5547027587891 L -1038.999755859375 168.5547027587891 L -1038.999755859375 72.26640319824219 C -1038.999755859375 68.52669525146484 -1037.54345703125 65.01081848144531 -1034.899291992188 62.36648941040039 C -1032.255126953125 59.72219467163086 -1028.739501953125 58.26590347290039 -1025.000122070312 58.26590347290039 L -1018.48095703125 58.26590347290039 L -1017.328186035156 58.26590347290039 L -1017.490966796875 59.40713500976562 L -1032.837280273438 166.9778442382812 L -1033.082153320312 168.69580078125 L -1033.20458984375 169.5547027587891 Z" stroke="none"/><path d="M -885.4551391601562 169.4484100341797 C -882.92578125 169.4484100341797 -880.4349365234375 169.2450714111328 -878.0004272460938 168.8412780761719 L -878.0004272460938 145.2849578857422 C -880.8145141601562 145.0603332519531 -882.7162475585938 144.158203125 -883.791015625 142.5456085205078 C -884.7593994140625 141.0938873291016 -885.9132080078125 137.6082000732422 -885.9132080078125 129.2454223632812 C -885.9132080078125 121.8636093139648 -884.546142578125 113.1345062255859 -881.8506469726562 103.3002014160156 C -880.719482421875 99.17311096191406 -879.4335327148438 95.28498077392578 -878.0004272460938 91.65383148193359 L -878.0004272460938 72.26639556884766 C -878.0004272460938 65.38991546630859 -883.338623046875 59.7607421875 -890.0965576171875 59.29685211181641 C -892.5106201171875 60.94315338134766 -894.7883911132812 62.82600402832031 -896.9166259765625 64.93680572509766 C -902.4525146484375 70.42680358886719 -907.1307373046875 76.59809112548828 -910.8287963867188 83.2886962890625 C -916.9443359375 85.77269744873047 -922.3875122070312 87.03269958496094 -927.009033203125 87.03269958496094 C -927.180908203125 87.03269958496094 -927.3375244140625 87.03089141845703 -927.479736328125 87.0281982421875 C -927.5778198242188 81.55441284179688 -928.1961059570312 76.65119934082031 -929.3211059570312 72.43199920654297 C -930.5784301757812 67.71511077880859 -932.5071411132812 63.71010971069336 -935.05322265625 60.5276985168457 C -935.4010620117188 60.09297943115234 -935.7613525390625 59.67241668701172 -936.1339111328125 59.26589584350586 L -987.3780517578125 59.26589584350586 C -989.8226928710938 60.91632843017578 -992.1383056640625 62.80591583251953 -994.3101196289062 64.92510986328125 C -999.0189208984375 69.52050018310547 -1003.140930175781 74.614501953125 -1006.559997558594 80.06669616699219 C -1009.979125976562 85.51800537109375 -1012.789794921875 91.47600555419922 -1014.914733886719 97.7760009765625 C -1017.020751953125 104.0175018310547 -1018.622741699219 110.0673065185547 -1019.678405761719 115.7561950683594 C -1020.737731933594 121.4720916748047 -1021.275024414062 126.9873046875 -1021.275024414062 132.1497039794922 C -1021.275024414062 138.4587249755859 -1020.428100585938 144.0216064453125 -1018.7568359375 148.6863098144531 C -1017.047729492188 153.4544982910156 -1014.435913085938 157.4145050048828 -1010.993408203125 160.4573974609375 C -1007.599548339844 163.4562225341797 -1003.546813964844 165.7341156005859 -998.94873046875 167.2281188964844 C -994.4127197265625 168.7014007568359 -989.2260131835938 169.4484100341797 -983.5308227539062 169.4484100341797 C -978.7977294921875 169.4484100341797 -974.1717529296875 168.7194213867188 -969.7833251953125 167.2821044921875 C -965.4030151367188 165.8484191894531 -961.1451416015625 163.6713104248047 -957.125732421875 160.8119964599609 C -953.1243286132812 157.9635009765625 -949.439697265625 154.4750823974609 -946.1754150390625 150.443115234375 C -942.9291381835938 146.4327239990234 -940.009521484375 141.7751922607422 -937.4967041015625 136.5975036621094 C -934.992919921875 131.4378051757812 -932.9364013671875 125.7686996459961 -931.3829956054688 119.7476959228516 C -929.9529418945312 114.1991958618164 -928.9125366210938 108.2070007324219 -928.2879028320312 101.9151077270508 C -924.6150512695312 101.2563095092773 -921.0419921875 100.4030914306641 -917.6103515625 99.36631011962891 C -919.375244140625 104.9786987304688 -920.7369384765625 110.4416961669922 -921.6611938476562 115.6301956176758 C -922.6827392578125 121.3605041503906 -923.2001953125 126.9179992675781 -923.2001953125 132.1497039794922 C -923.2001953125 138.4587249755859 -922.3533325195312 144.0216064453125 -920.68115234375 148.6863098144531 C -918.972900390625 153.4544982910156 -916.3611450195312 157.4145050048828 -912.9186401367188 160.4573974609375 C -909.5247192382812 163.4562225341797 -905.4720458984375 165.7341156005859 -900.8739013671875 167.2281188964844 C -896.3379516601562 168.7014007568359 -891.1503295898438 169.4484100341797 -885.4551391601562 169.4484100341797 M -956.2752075195312 68.46839141845703 C -952.901123046875 68.46839141845703 -952.000244140625 69.87689208984375 -951.7041015625 70.33950042724609 C -951.0732421875 71.32500457763672 -950.2704467773438 73.48589324951172 -949.8771362304688 78.21269989013672 C -951.9498291015625 79.34039306640625 -953.5734252929688 80.91180419921875 -954.714599609375 82.89810943603516 C -956.0394287109375 85.20661163330078 -956.7108154296875 88.097412109375 -956.7108154296875 91.49039459228516 C -956.7108154296875 98.11800384521484 -953.8560180664062 101.0276947021484 -950.9013061523438 102.2634124755859 C -952.0821533203125 110.0718078613281 -953.9154052734375 117.2880020141602 -956.3580322265625 123.7338104248047 C -958.94189453125 130.5522003173828 -961.9767456054688 135.9855041503906 -965.3778076171875 139.8825073242188 C -968.5386352539062 143.5050048828125 -971.6400146484375 145.3410034179688 -974.5947265625 145.3410034179688 C -978.2333984375 145.3410034179688 -980.6121215820312 144.4266052246094 -981.86669921875 142.5456085205078 C -982.834228515625 141.0938873291016 -983.988037109375 137.6082000732422 -983.988037109375 129.2454223632812 C -983.988037109375 121.8698959350586 -982.5858154296875 113.1840057373047 -979.8192138671875 103.4288940429688 C -977.05712890625 93.68820190429688 -973.380615234375 85.22550201416016 -968.8932495117188 78.27750396728516 C -964.6893310546875 71.76869964599609 -960.4440307617188 68.46839141845703 -956.2752075195312 68.46839141845703 M -1034.072143554688 168.5547027587891 L -1033.827270507812 166.8366088867188 L -1018.48095703125 59.26589584350586 L -1025.000122070312 59.26589584350586 C -1032.179443359375 59.26589584350586 -1037.999755859375 65.08619689941406 -1037.999755859375 72.26639556884766 L -1037.999755859375 168.5547027587891 L -1034.072143554688 168.5547027587891 M -885.4551391601562 171.4484100341797 C -891.3604125976562 171.4484100341797 -896.7559204101562 170.6684875488281 -901.4917602539062 169.1302795410156 C -906.3527221679688 167.5508728027344 -910.642822265625 165.1371765136719 -914.242919921875 161.9561614990234 C -917.9414672851562 158.6869659423828 -920.740966796875 154.4493560791016 -922.56396484375 149.3608551025391 C -924.3131713867188 144.4812622070312 -925.2001953125 138.6904754638672 -925.2001953125 132.1497039794922 C -925.2001953125 126.799201965332 -924.6719360351562 121.1231536865234 -923.630126953125 115.2791976928711 C -922.886474609375 111.1045227050781 -921.8616333007812 106.74365234375 -920.5750122070312 102.2743606567383 C -922.5009765625 102.7738723754883 -924.4661865234375 103.2192764282227 -926.454345703125 103.6066970825195 C -927.0999755859375 109.4516372680664 -928.1049194335938 115.0425567626953 -929.4462890625 120.2468490600586 C -931.033447265625 126.3987426757812 -933.1365966796875 132.1934967041016 -935.6973876953125 137.4706573486328 C -938.2761840820312 142.7844085693359 -941.2785034179688 147.5723266601562 -944.620849609375 151.7014617919922 C -947.9984741210938 155.8733520507812 -951.8154296875 159.4867401123047 -955.9658813476562 162.4413299560547 C -960.1516723632812 165.4189758300781 -964.5910034179688 167.6870422363281 -969.1611938476562 169.1828918457031 C -973.7509765625 170.6861267089844 -978.5857543945312 171.4484100341797 -983.5308227539062 171.4484100341797 C -989.4354858398438 171.4484100341797 -994.8306884765625 170.6684875488281 -999.5665283203125 169.1302795410156 C -1004.427673339844 167.5508575439453 -1008.717651367188 165.1371307373047 -1012.317687988281 161.9561309814453 C -1016.015747070312 158.6873474121094 -1018.815551757812 154.4498443603516 -1020.639526367188 149.3611602783203 C -1022.388366699219 144.4800262451172 -1023.275024414062 138.6893463134766 -1023.275024414062 132.1497039794922 C -1023.275024414062 126.8662872314453 -1022.7265625 121.2281112670898 -1021.644897460938 115.3917388916016 C -1020.570861816406 109.6038055419922 -1018.944091796875 103.4620208740234 -1016.809753417969 97.13656616210938 C -1014.634765625 90.6881103515625 -1011.756225585938 84.58734893798828 -1008.254272460938 79.00400543212891 C -1004.752685546875 73.42013549804688 -1000.531127929688 68.20169830322266 -995.7069702148438 63.4937629699707 C -993.4602661132812 61.3015022277832 -991.0346069335938 59.32139587402344 -988.4971313476562 57.60828399658203 L -987.989990234375 57.26589584350586 L -935.2539672851562 57.26589584350586 L -934.659423828125 57.91465377807617 C -934.2576904296875 58.35298156738281 -933.8648071289062 58.81174087524414 -933.4915771484375 59.2781982421875 C -930.7709350585938 62.67882919311523 -928.7175903320312 66.93106842041016 -927.3885498046875 71.9168701171875 C -926.3629760742188 75.76333618164062 -925.7426147460938 80.15238189697266 -925.5397338867188 84.98879241943359 C -921.6655883789062 84.76193237304688 -917.1988525390625 83.65717315673828 -912.2296752929688 81.69534301757812 C -908.4966430664062 75.08050537109375 -903.8211669921875 68.96738433837891 -898.324951171875 63.51671981811523 C -896.1207885742188 61.33065414428711 -893.7315063476562 59.35493850708008 -891.223388671875 57.64450454711914 L -890.65087890625 57.25408935546875 L -889.9595947265625 57.30154800415039 C -886.1746826171875 57.56135177612305 -882.6572265625 59.23320007324219 -880.0551147460938 62.00910949707031 C -877.4404296875 64.79843902587891 -876.0004272460938 68.44122314453125 -876.0004272460938 72.26639556884766 L -876.0004272460938 92.03421783447266 L -876.1400756835938 92.38804626464844 C -877.5429077148438 95.94256591796875 -878.8152465820312 99.79180908203125 -879.9217529296875 103.8288726806641 C -882.5703125 113.4917602539062 -883.9132080078125 122.0431137084961 -883.9132080078125 129.2454223632812 C -883.9132080078125 137.8314208984375 -882.6641845703125 140.6307373046875 -882.127197265625 141.4357452392578 C -881.4102172851562 142.5115661621094 -880.0084228515625 143.1183013916016 -877.84130859375 143.2913055419922 L -876.0004272460938 143.4382476806641 L -876.0004272460938 170.5368957519531 L -877.6732177734375 170.8143310546875 C -880.2099609375 171.2350921630859 -882.8281860351562 171.4484100341797 -885.4551391601562 171.4484100341797 Z M -956.2752075195312 70.46839141845703 C -957.8947143554688 70.46839141845703 -959.5999755859375 71.15567779541016 -961.3435668945312 72.51115417480469 C -963.2685546875 74.00761413574219 -965.243408203125 76.31276702880859 -967.2131958007812 79.36260986328125 C -971.5933837890625 86.14461517333984 -975.187255859375 94.42526245117188 -977.8950805664062 103.9745025634766 C -980.6109619140625 113.5508041381836 -981.988037109375 122.0531539916992 -981.988037109375 129.2454223632812 C -981.988037109375 137.8304595947266 -980.7393188476562 140.6308898925781 -980.2024536132812 141.4364166259766 C -979.3477783203125 142.7178344726562 -977.5133666992188 143.3410034179688 -974.5947265625 143.3410034179688 C -972.2425537109375 143.3410034179688 -969.6485595703125 141.7350006103516 -966.884765625 138.5675964355469 C -963.6400756835938 134.8497161865234 -960.7276000976562 129.6204986572266 -958.228271484375 123.0250701904297 C -955.9869995117188 117.1107330322266 -954.2647705078125 110.5113143920898 -953.102783203125 103.3894805908203 C -954.5283813476562 102.5387496948242 -955.7020263671875 101.392951965332 -956.6038208007812 99.96884918212891 C -958.0018920898438 97.76094055175781 -958.7108154296875 94.90837097167969 -958.7108154296875 91.49039459228516 C -958.7108154296875 87.74330902099609 -957.9498901367188 84.51752471923828 -956.4492797851562 81.90261077880859 C -955.3436279296875 79.97821044921875 -953.846435546875 78.38459014892578 -951.988037109375 77.15094757080078 C -952.407958984375 73.31864929199219 -953.0935668945312 71.87853240966797 -953.3885498046875 71.41776275634766 C -953.4841918945312 71.26832580566406 -953.5829467773438 71.11411285400391 -953.8638305664062 70.94580841064453 C -954.2273559570312 70.72800445556641 -954.9407958984375 70.46839141845703 -956.2752075195312 70.46839141845703 Z M -1032.337036132812 170.5547027587891 L -1039.999755859375 170.5547027587891 L -1039.999755859375 72.26639556884766 C -1039.999755859375 68.25956726074219 -1038.439453125 64.49259185791016 -1035.6064453125 61.65939331054688 C -1032.7734375 58.82619857788086 -1029.006591796875 57.26589584350586 -1025.000122070312 57.26589584350586 L -1016.175354003906 57.26589584350586 L -1032.337036132812 170.5547027587891 Z" stroke="none" fill="#000"/></g><g transform="translate(1093 1)" fill="#00e6ff"><path d="M -929.1339111328125 169.8805084228516 C -932.4688720703125 169.8805084228516 -935.5215454101562 169.4382934570312 -938.2069702148438 168.5661926269531 C -940.9841918945312 167.6638031005859 -943.4367065429688 166.2832794189453 -945.49658203125 164.4629364013672 C -947.6282958984375 162.5791778564453 -949.2405395507812 160.1416931152344 -950.2883911132812 157.2182159423828 C -951.2816162109375 154.4445648193359 -951.7852172851562 151.1668395996094 -951.7852172851562 147.4757995605469 C -951.7852172851562 142.6899871826172 -951.0269775390625 137.475341796875 -949.5294799804688 131.9517364501953 C -950.0609741210938 132.0768890380859 -950.5961303710938 132.1945343017578 -951.1324462890625 132.3041229248047 C -951.9444580078125 139.2088165283203 -953.6632080078125 145.4020538330078 -956.2449951171875 150.7213439941406 C -959.1603393554688 156.7311248779297 -963.0018310546875 161.4601287841797 -967.6627807617188 164.7767791748047 C -972.4222412109375 168.1633605957031 -977.6804809570312 169.8805084228516 -983.2914428710938 169.8805084228516 C -986.626708984375 169.8805084228516 -989.6790771484375 169.4382934570312 -992.3637084960938 168.5661773681641 C -995.1406860351562 167.663818359375 -997.5932006835938 166.2833251953125 -999.6531982421875 164.4629669189453 C -1001.784484863281 162.5803833007812 -1003.396728515625 160.1428375244141 -1004.444946289062 157.2182006835938 C -1005.438232421875 154.4472198486328 -1005.941833496094 151.1693878173828 -1005.941833496094 147.4757995605469 C -1005.941833496094 141.5909576416016 -1004.728393554688 135.0103759765625 -1002.335205078125 127.9168395996094 C -1001.115783691406 124.3035278320312 -999.5026245117188 120.8846130371094 -997.5405883789062 117.7549209594727 C -995.576416015625 114.6238174438477 -993.2099609375 111.6987991333008 -990.5067749023438 109.060905456543 C -987.6868896484375 106.3091278076172 -984.4513549804688 104.213508605957 -980.8900146484375 102.832275390625 C -977.3602905273438 101.46337890625 -973.4366455078125 100.7692947387695 -969.22802734375 100.7692947387695 C -963.0599975585938 100.7692947387695 -958.3099975585938 102.7971496582031 -955.110107421875 106.7965469360352 C -953.5460815429688 108.7525100708008 -952.3682250976562 111.1875305175781 -951.6090698242188 114.0342178344727 C -951.0831298828125 116.0064010620117 -950.7453002929688 118.2353286743164 -950.6021728515625 120.6723709106445 C -948.7660522460938 120.4772720336914 -946.6884765625 119.9336395263672 -944.4074096679688 119.0507354736328 C -942.334716796875 115.4259033203125 -939.7553100585938 112.0719451904297 -936.7366943359375 109.0774612426758 C -933.9542236328125 106.3174057006836 -930.7337036132812 104.2162170410156 -927.1644287109375 102.8322601318359 C -924.3815307617188 101.7529678344727 -921.32177734375 101.0895690917969 -918.0702514648438 100.8605499267578 L -917 100.7851486206055 L -917 101.8580703735352 L -917 114.8019866943359 L -917 115.2363815307617 L -917.3175048828125 115.5328598022461 C -918.1172485351562 116.2797317504883 -918.93994140625 117.3190689086914 -919.7626342773438 118.6220092773438 C -922.0645751953125 122.2662582397461 -923.9609985351562 126.7750930786133 -925.3992919921875 132.0234069824219 C -926.8453979492188 137.2985534667969 -927.57861328125 141.9581451416016 -927.57861328125 145.8729095458984 C -927.57861328125 150.5487518310547 -926.914306640625 151.9086151123047 -926.710693359375 152.2140045166016 C -926.393310546875 152.6900482177734 -925.5014038085938 152.9522094726562 -924.19921875 152.9522094726562 C -923.3968505859375 152.9522094726562 -922.5792236328125 152.5807800292969 -921.6996459960938 151.8166656494141 C -920.7620849609375 151.0007781982422 -919.806884765625 149.7740478515625 -918.8612670898438 148.1711578369141 L -917 145.0160522460938 L -917 148.6792602539062 L -917 166.3177947998047 L -917 166.9409027099609 L -917.559326171875 167.2154693603516 C -921.1616821289062 168.9838562011719 -925.055908203125 169.8805084228516 -929.1339111328125 169.8805084228516 Z M -968.24072265625 114.1191940307617 C -969.8659057617188 114.1191940307617 -971.7499389648438 115.706298828125 -973.6890258789062 118.7089004516602 C -976.0690307617188 122.3924865722656 -978.0249633789062 126.9012985229492 -979.5025024414062 132.1102905273438 C -980.9840087890625 137.3363800048828 -981.7352294921875 141.9668426513672 -981.7352294921875 145.8729095458984 C -981.7352294921875 150.5471038818359 -981.0711059570312 151.9088745117188 -980.8675537109375 152.2149047851562 C -980.55078125 152.6900634765625 -979.658935546875 152.9522094726562 -978.3567504882812 152.9522094726562 C -977.28564453125 152.9522094726562 -975.9969482421875 152.1242370605469 -974.6300048828125 150.5578002929688 C -972.8928833007812 148.5675506591797 -971.3276977539062 145.7514801025391 -969.9777221679688 142.1877593994141 C -968.8037109375 139.0913848876953 -967.889892578125 135.6434020996094 -967.25830078125 131.9288940429688 C -967.9493408203125 131.4428253173828 -968.5315551757812 130.8348999023438 -968.9945678710938 130.1147308349609 C -969.8541870117188 128.7780914306641 -970.2901000976562 127.0651321411133 -970.2901000976562 125.0235061645508 C -970.2901000976562 120.5491180419922 -968.4038696289062 118.0938949584961 -966.6231079101562 116.7736053466797 C -966.8596801757812 114.9594268798828 -967.1988525390625 114.3829193115234 -967.240234375 114.3181304931641 C -967.2434692382812 114.3131103515625 -967.2478637695312 114.3053588867188 -967.2542724609375 114.2967987060547 C -967.2542724609375 114.2968063354492 -967.2542724609375 114.2968063354492 -967.2542724609375 114.2968063354492 C -967.2548828125 114.2968215942383 -967.4588012695312 114.1191940307617 -968.24072265625 114.1191940307617 Z M -1009.631713867188 169.3872985839844 L -1010.499328613281 169.3872985839844 L -1012.158935546875 169.3872985839844 L -1029.923095703125 169.3872985839844 L -1032.128173828125 169.3872985839844 L -1033.281005859375 169.3872985839844 L -1033.1181640625 168.2460479736328 L -1032.806762695312 166.0635528564453 L -1028.118041992188 133.1699371337891 L -1042.534057617188 167.5990295410156 L -1043.025390625 168.7733001708984 L -1043.282348632812 169.3872985839844 L -1043.947875976562 169.3872985839844 L -1045.220458984375 169.3872985839844 L -1062.12158203125 169.3872985839844 L -1064.120483398438 169.3872985839844 L -1065.165649414062 169.3872985839844 L -1065.119506835938 168.3431701660156 L -1065.03125 166.3451690673828 L -1063.389404296875 129.3104705810547 L -1077.0625 166.2369232177734 L -1079.000244140625 165.8896789550781 L -1079.000244140625 128.1636505126953 L -1079.000244140625 127.9847183227539 L -1078.938232421875 127.8168640136719 L -1076.382446289062 120.904296875 L -1076.679077148438 120.904296875 C -1077.14013671875 120.904296875 -1077.599243164062 120.8945083618164 -1078.043701171875 120.8752136230469 L -1079.000244140625 120.8336715698242 L -1079.000244140625 119.8761520385742 L -1079.000244140625 82.48948669433594 L -1079.000244140625 82.01284027099609 L -1078.630004882812 81.71269226074219 C -1076.114624023438 79.67353057861328 -1073.322998046875 77.83563232421875 -1070.332641601562 76.25009155273438 C -1067.091430664062 74.53123474121094 -1063.79736328125 73.22035980224609 -1060.541870117188 72.35394287109375 C -1057.25634765625 71.4805908203125 -1053.927734375 71.03779602050781 -1050.648315429688 71.03779602050781 C -1047.283935546875 71.03779602050781 -1043.798583984375 71.67650604248047 -1040.288940429688 72.93619537353516 L -1038.96240234375 73.41227722167969 L -1038.268676757812 73.6612548828125 L -1038.301147460938 74.39761352539062 L -1038.36328125 75.80521392822266 L -1040.485961914062 124.4483947753906 L -1019.658020019531 74.55596160888672 L -1019.166564941406 73.37944030761719 L -1018.909851074219 72.76490020751953 L -1018.243835449219 72.76490020751953 L -1016.970336914062 72.76490020751953 L -999.2052001953125 72.76490020751953 L -997.000244140625 72.76490020751953 L -995.8475341796875 72.76490020751953 L -996.01025390625 73.90608978271484 L -996.3216552734375 76.08948516845703 L -1009.275329589844 166.8860321044922 L -1009.509338378906 168.5283660888672 L -1009.631713867188 169.3872985839844 Z M -1063.932250976562 87.22964477539062 C -1066.74462890625 88.92649078369141 -1069.089965820312 91.06348419189453 -1070.924560546875 93.60482025146484 C -1073.955688476562 97.80417633056641 -1075.49267578125 103.1452331542969 -1075.49267578125 109.4795913696289 C -1075.49267578125 113.1924667358398 -1075.067138671875 114.3317565917969 -1074.936767578125 114.5924835205078 C -1074.740844726562 114.9846496582031 -1074.574584960938 115.3290176391602 -1074.434448242188 115.63623046875 L -1063.932250976562 87.22964477539062 Z" stroke="none"/><path d="M -929.1339111328125 168.8805236816406 C -925.1966552734375 168.8805236816406 -921.4686279296875 168.0205383300781 -918 166.3178100585938 L -918 148.6792602539062 C -919.0014038085938 150.3767395019531 -920.0225830078125 151.6828765869141 -921.0438232421875 152.5716094970703 C -922.113037109375 153.5003967285156 -923.1453247070312 153.9522247314453 -924.19921875 153.9522247314453 C -925.8939208984375 153.9522247314453 -927.0189208984375 153.5543975830078 -927.542724609375 152.7687225341797 C -927.9297485351562 152.1882019042969 -928.57861328125 150.5204925537109 -928.57861328125 145.8729095458984 C -928.57861328125 141.8688049316406 -927.8334350585938 137.1204071044922 -926.3637084960938 131.7591094970703 C -924.8994140625 126.4158020019531 -922.9635009765625 121.8168029785156 -920.6082153320312 118.0881118774414 C -919.7354736328125 116.7059555053711 -918.86474609375 115.6095199584961 -918 114.8019790649414 L -918 101.8580627441406 C -921.154541015625 102.0802841186523 -924.1065673828125 102.7189102172852 -926.8029174804688 103.7646102905273 C -930.2427368164062 105.0984115600586 -933.3477172851562 107.1243057250977 -936.0324096679688 109.7873916625977 C -939.0735473632812 112.80419921875 -941.6547241210938 116.1873016357422 -943.7120971679688 119.8521118164062 C -946.6533203125 121.0221099853516 -949.2867431640625 121.6575012207031 -951.5529174804688 121.7439117431641 C -951.6510009765625 118.9764099121094 -951.9930419921875 116.4753036499023 -952.5753173828125 114.2918930053711 C -953.2989501953125 111.5783920288086 -954.4149169921875 109.2671966552734 -955.8909301757812 107.4213027954102 C -958.8915405273438 103.6709976196289 -963.37890625 101.7693023681641 -969.22802734375 101.7693023681641 C -973.3121948242188 101.7693023681641 -977.11474609375 102.4406967163086 -980.5284423828125 103.7646102905273 C -983.9628295898438 105.0966110229492 -987.0848999023438 107.1189117431641 -989.808349609375 109.776611328125 C -992.454345703125 112.3586959838867 -994.7709350585938 115.2216110229492 -996.6932983398438 118.2861099243164 C -998.6139526367188 121.3496932983398 -1000.193420410156 124.6976928710938 -1001.3876953125 128.2364959716797 C -1003.746643066406 135.2286071777344 -1004.941833496094 141.7013854980469 -1004.941833496094 147.4757995605469 C -1004.941833496094 151.0532989501953 -1004.45849609375 154.216796875 -1003.503601074219 156.8807983398438 C -1002.513610839844 159.6428985595703 -1000.996215820312 161.9423980712891 -998.9910278320312 163.7136077880859 C -997.0335083007812 165.4434204101562 -994.6998291015625 166.755615234375 -992.0547485351562 167.6151123046875 C -989.4699096679688 168.4548034667969 -986.5206298828125 168.8805236816406 -983.2914428710938 168.8805236816406 C -977.892333984375 168.8805236816406 -972.8289184570312 167.2254180908203 -968.2425537109375 163.9620056152344 C -963.720947265625 160.7445068359375 -959.98681640625 156.1437225341797 -957.1446533203125 150.2846984863281 C -954.5202026367188 144.8775024414062 -952.806640625 138.55322265625 -952.0443115234375 131.4647979736328 C -950.7015380859375 131.2091979980469 -949.3829956054688 130.9058837890625 -948.0960083007812 130.5585021972656 C -949.8807373046875 136.6137237548828 -950.7852172851562 142.29541015625 -950.7852172851562 147.4757995605469 C -950.7852172851562 151.0532989501953 -950.301025390625 154.216796875 -949.3470458984375 156.8807983398438 C -948.3569946289062 159.6428985595703 -946.8387451171875 161.9423980712891 -944.8344116210938 163.7136077880859 C -942.876953125 165.4434204101562 -940.543212890625 166.755615234375 -937.8981323242188 167.6151123046875 C -935.3124389648438 168.4548034667969 -932.364013671875 168.8805236816406 -929.1339111328125 168.8805236816406 M -968.24072265625 113.1191940307617 C -966.8196411132812 113.1191940307617 -966.501953125 113.6169128417969 -966.3975219726562 113.7798080444336 C -966.2112426757812 114.0714111328125 -965.7963256835938 114.9533920288086 -965.560546875 117.2565002441406 C -967.4703369140625 118.4670028686523 -969.2901000976562 120.7431106567383 -969.2901000976562 125.0234985351562 C -969.2901000976562 126.8703079223633 -968.9076538085938 128.4011993408203 -968.1534423828125 129.5738983154297 C -967.6494140625 130.3578033447266 -966.975341796875 130.9859924316406 -966.1635131835938 131.4360046386719 C -966.8079223632812 135.4671020507812 -967.7745361328125 139.1976013183594 -969.0426025390625 142.5420074462891 C -970.4349365234375 146.2176055908203 -972.0612182617188 149.1354064941406 -973.8765258789062 151.2153015136719 C -975.46142578125 153.031494140625 -976.9689331054688 153.9522247314453 -978.3567504882812 153.9522247314453 C -980.0514526367188 153.9522247314453 -981.1764526367188 153.5543975830078 -981.7001953125 152.7687225341797 C -982.0863037109375 152.1882019042969 -982.7352294921875 150.5204925537109 -982.7352294921875 145.8729095458984 C -982.7352294921875 141.8742218017578 -981.9711303710938 137.1518859863281 -980.4645385742188 131.8374176025391 C -978.9606323242188 126.5354995727539 -976.9644165039062 121.9356079101562 -974.529052734375 118.1664123535156 C -972.3663330078125 114.817497253418 -970.2513427734375 113.1191940307617 -968.24072265625 113.1191940307617 M -1010.499328613281 168.3872985839844 L -1010.265319824219 166.7448120117188 L -997.000244140625 73.76491546630859 L -1018.243835449219 73.76491546630859 L -1018.735229492188 74.94119262695312 L -1041.730224609375 130.0248107910156 L -1039.300170898438 74.35350036621094 L -1040.626831054688 73.87741088867188 C -1044.026977539062 72.65699768066406 -1047.399291992188 72.03780364990234 -1050.648315429688 72.03780364990234 C -1053.843383789062 72.03780364990234 -1057.085083007812 72.46980285644531 -1060.28466796875 73.32030487060547 C -1063.46337890625 74.16630554199219 -1066.687255859375 75.44880676269531 -1069.8642578125 77.13360595703125 C -1072.812133789062 78.69660949707031 -1075.529052734375 80.48610687255859 -1078.000244140625 82.48947906494141 L -1078.000244140625 119.8761520385742 C -1077.568969726562 119.894889831543 -1077.128540039062 119.9043045043945 -1076.679077148438 119.9043045043945 L -1074.946533203125 119.9043045043945 L -1078.000244140625 128.1636505126953 L -1078.000244140625 165.8896789550781 L -1062.107177734375 122.9679107666016 L -1064.120483398438 168.3872985839844 L -1043.947875976562 168.3872985839844 L -1043.456420898438 167.2127990722656 L -1026.026977539062 125.5869140625 L -1032.128173828125 168.3872985839844 L -1010.499328613281 168.3872985839844 M -1062.076538085938 85.09410858154297 L -1074.765625 119.4156112670898 L -1074.765625 117.9918060302734 C -1074.765625 117.4473037719727 -1074.931274414062 116.8406982421875 -1075.831176757812 115.0398025512695 C -1076.078735351562 114.544807434082 -1076.49267578125 113.1660003662109 -1076.49267578125 109.479606628418 C -1076.49267578125 102.9321060180664 -1074.892578125 97.39350128173828 -1071.7353515625 93.01950073242188 C -1069.31787109375 89.67060852050781 -1066.078857421875 87.01560974121094 -1062.076538085938 85.09410858154297 M -929.1339111328125 170.8805236816406 C -932.5738525390625 170.8805236816406 -935.73046875 170.421875 -938.515869140625 169.5173187255859 C -941.42431640625 168.5722351074219 -943.99560546875 167.1238708496094 -946.1587524414062 165.2122802734375 C -948.418212890625 163.2156524658203 -950.1243286132812 160.6395874023438 -951.229736328125 157.5556488037109 C -952.261962890625 154.6732177734375 -952.7852172851562 151.2820434570312 -952.7852172851562 147.4757995605469 C -952.7852172851562 146.4967956542969 -952.754150390625 145.5008850097656 -952.6921997070312 144.4882507324219 C -953.4432983398438 146.8364715576172 -954.3286743164062 149.0631866455078 -955.3453979492188 151.1579742431641 C -958.3346557617188 157.3202667236328 -962.2838134765625 162.1765441894531 -967.0830078125 165.5915374755859 C -972.0152587890625 169.1010589599609 -977.468505859375 170.8805236816406 -983.2914428710938 170.8805236816406 C -986.7317504882812 170.8805236816406 -989.8880615234375 170.4218444824219 -992.6726684570312 169.5172576904297 C -995.580810546875 168.5722808837891 -998.1521606445312 167.1239166259766 -1000.315368652344 165.2123107910156 C -1002.574340820312 163.2169342041016 -1004.280517578125 160.6407623291016 -1005.386291503906 157.5556030273438 C -1005.807800292969 156.3798065185547 -1006.144409179688 155.11865234375 -1006.395202636719 153.7786102294922 L -1008.764038085938 170.3872985839844 L -1034.433715820312 170.3872985839844 L -1030.208984375 140.7529602050781 L -1042.61669921875 170.3872985839844 L -1066.210693359375 170.3872985839844 L -1066.0302734375 166.3010711669922 L -1064.671508789062 135.6530456542969 L -1076.124633789062 166.5841522216797 L -1080.000244140625 165.8896789550781 L -1080.000244140625 127.8057632446289 L -1077.811157226562 121.8850021362305 C -1077.903686523438 121.8818130493164 -1077.99560546875 121.8782348632812 -1078.087036132812 121.8742599487305 L -1080.000244140625 121.791130065918 L -1080.000244140625 81.53619384765625 L -1079.259765625 80.93586730957031 C -1076.6943359375 78.85610961914062 -1073.848388671875 76.98232269287109 -1070.801147460938 75.36660766601562 C -1067.493041992188 73.61225891113281 -1064.127807617188 72.27349853515625 -1060.799072265625 71.38758850097656 C -1057.429443359375 70.49188995361328 -1054.014404296875 70.03780364990234 -1050.648315429688 70.03780364990234 C -1047.16845703125 70.03780364990234 -1043.569458007812 70.69630432128906 -1039.951171875 71.99500274658203 L -1037.237060546875 72.96895599365234 L -1037.3642578125 75.84930419921875 L -1039.241577148438 118.8718490600586 L -1019.575866699219 71.76491546630859 L -994.6947631835938 71.76491546630859 L -1002.268859863281 124.8556442260742 C -1001.187927246094 122.1739120483398 -999.8878784179688 119.6164703369141 -998.3878173828125 117.223762512207 C -996.3814697265625 114.025390625 -993.9649658203125 111.0383682250977 -991.2051391601562 108.34521484375 C -988.2882690429688 105.4987182617188 -984.9393920898438 103.330192565918 -981.2516479492188 101.8999328613281 C -977.606201171875 100.4861526489258 -973.5609130859375 99.76930236816406 -969.22802734375 99.76930236816406 C -966.0475463867188 99.76930236816406 -963.1819458007812 100.3002853393555 -960.7108764648438 101.3474807739258 C -958.1792602539062 102.4203491210938 -956.0321044921875 104.0435028076172 -954.3292236328125 106.1718292236328 C -952.6780395507812 108.2368240356445 -951.4378662109375 110.7952575683594 -950.6428833007812 113.7765426635742 C -950.1785888671875 115.5175094604492 -949.8564453125 117.447380065918 -949.6807861328125 119.5351638793945 C -948.2842407226562 119.2968597412109 -946.750732421875 118.8649063110352 -945.095947265625 118.2431182861328 C -943.0098266601562 114.6591339111328 -940.4370727539062 111.3397216796875 -937.44091796875 108.3675003051758 C -934.5601806640625 105.5099563598633 -931.2243041992188 103.3339385986328 -927.5259399414062 101.8998947143555 C -924.649658203125 100.7844161987305 -921.491943359375 100.0990905761719 -918.1405639648438 99.86299896240234 L -916 99.71221923828125 L -916 115.6707611083984 L -916.6349487304688 116.2637176513672 C -917.3721923828125 116.9521942138672 -918.1400756835938 117.9252853393555 -918.9171142578125 119.1559143066406 C -921.1663208007812 122.7166748046875 -923.022705078125 127.1347579956055 -924.434814453125 132.2877197265625 C -925.8573608398438 137.4768218994141 -926.57861328125 142.0475006103516 -926.57861328125 145.8729095458984 C -926.57861328125 150.347412109375 -925.9569702148438 151.5275726318359 -925.8842163085938 151.6501770019531 C -925.8412475585938 151.6848602294922 -925.4663696289062 151.9522247314453 -924.19921875 151.9522247314453 C -923.6483154296875 151.9522247314453 -923.0452270507812 151.6609344482422 -922.3554077148438 151.0617218017578 C -921.499755859375 150.3171081542969 -920.6134643554688 149.1732177734375 -919.7225952148438 147.6630401611328 L -916 141.3529510498047 L -916 167.5639953613281 L -917.11865234375 168.1131591796875 C -920.859375 169.9494323730469 -924.90185546875 170.8805236816406 -929.1339111328125 170.8805236816406 Z M -980.0413818359375 151.6504364013672 C -979.9971313476562 151.6859741210938 -979.6212158203125 151.9522247314453 -978.3567504882812 151.9522247314453 C -977.6051025390625 151.9522247314453 -976.5213623046875 151.2043304443359 -975.3834228515625 149.9002990722656 C -973.7247314453125 147.9998321533203 -972.2206420898438 145.2857971191406 -970.9129028320312 141.8335266113281 C -969.823974609375 138.9616546630859 -968.9627685546875 135.7775421142578 -968.347412109375 132.3517608642578 C -968.9227294921875 131.8681335449219 -969.4207153320312 131.3009796142578 -969.835693359375 130.6555633544922 C -970.8007202148438 129.1550445556641 -971.2901000976562 127.2600860595703 -971.2901000976562 125.0234985351562 C -971.2901000976562 120.5299682617188 -969.519287109375 117.8820571899414 -967.6967163085938 116.3473434448242 C -967.7966918945312 115.7470703125 -967.9016723632812 115.360221862793 -967.978271484375 115.1291732788086 C -968.0484619140625 115.1233062744141 -968.13525390625 115.1191940307617 -968.24072265625 115.1191940307617 C -969.473388671875 115.1191940307617 -971.1530151367188 116.6253280639648 -972.8489379882812 119.2514114379883 C -975.1751708984375 122.851692199707 -977.0899658203125 127.2697372436523 -978.5404663085938 132.3831939697266 C -979.9967651367188 137.5203704833984 -980.7352294921875 142.0590667724609 -980.7352294921875 145.8729095458984 C -980.7352294921875 150.3309783935547 -980.1181030273438 151.52001953125 -980.0413818359375 151.6504364013672 Z M -1065.970703125 89.85944366455078 C -1067.561279296875 91.12607574462891 -1068.9462890625 92.57292938232422 -1070.11376953125 94.19010925292969 C -1073.019409179688 98.21556854248047 -1074.49267578125 103.3596954345703 -1074.49267578125 109.479606628418 C -1074.49267578125 110.8483123779297 -1074.433227539062 111.8384475708008 -1074.357543945312 112.5443420410156 L -1065.970703125 89.85944366455078 Z" stroke="none" fill="#000"/></g></g></g></svg>