<svg xmlns="http://www.w3.org/2000/svg" xmlns:xlink="http://www.w3.org/1999/xlink" width="190" height="248" viewBox="0 0 190 248"><defs><radialGradient id="a" cx="0.322" cy="0.271" r="1.497" gradientTransform="translate(0 0.132) scale(1 0.513)" gradientUnits="objectBoundingBox"><stop offset="0" stop-color="#fff"/><stop offset="0.364" stop-color="#fff"/><stop offset="1" stop-color="gray"/></radialGradient><radialGradient id="d" cx="0.5" cy="0.713" r="0.841" gradientUnits="objectBoundingBox"><stop offset="0" stop-color="red"/><stop offset="1" stop-color="maroon"/></radialGradient><clipPath id="g"><rect width="190" height="248"/></clipPath></defs><g id="f" clip-path="url(#g)"><rect width="190" height="248" fill="rgba(255,255,255,0)"/><g transform="translate(889 312)"><path d="M -758.9996948242188 -84.00029754638672 C -763.4988403320312 -84.00029754638672 -767.7396240234375 -85.63717651367188 -770.940673828125 -88.60941314697266 C -772.5183715820312 -90.07432556152344 -773.7596435546875 -91.78579711914062 -774.6299438476562 -93.69626617431641 C -775.5391235351562 -95.69209289550781 -776.0001220703125 -97.81294250488281 -776.0001220703125 -99.99988555908203 C -776.0001220703125 -102.1870040893555 -775.5391235351562 -104.3079986572266 -774.6300048828125 -106.3039398193359 C -773.7597045898438 -108.2145614624023 -772.5184326171875 -109.9261169433594 -770.9407348632812 -111.3911209106445 C -767.7396850585938 -114.3634719848633 -763.4989624023438 -116.0004119873047 -758.9996948242188 -116.0004119873047 C -754.50048828125 -116.0004119873047 -750.2598876953125 -114.3634414672852 -747.05908203125 -111.3910293579102 C -745.4815063476562 -109.9260330200195 -744.2404174804688 -108.2144470214844 -743.3701782226562 -106.303825378418 C -742.461181640625 -104.3079147338867 -742.000244140625 -102.1869735717773 -742.000244140625 -99.99988555908203 C -742.000244140625 -97.81297302246094 -742.461181640625 -95.69217681884766 -743.3702392578125 -93.69638824462891 C -744.240478515625 -91.78588104248047 -745.4815673828125 -90.07441711425781 -747.0591430664062 -88.60950469970703 C -750.260009765625 -85.63720703125 -754.5005493164062 -84.00029754638672 -758.9996948242188 -84.00029754638672 Z M -735.0003051757812 -122.0000915527344 C -740.2906494140625 -122.0000915527344 -745.277587890625 -123.8905334472656 -749.0424194335938 -127.3231506347656 C -750.899658203125 -129.0165557861328 -752.3610229492188 -130.9952697753906 -753.3858642578125 -133.2043609619141 C -754.4572143554688 -135.5137023925781 -755.0004272460938 -137.9682922363281 -755.0004272460938 -140.4999084472656 C -755.0004272460938 -143.03173828125 -754.4572143554688 -145.4864501953125 -753.3858642578125 -147.7958221435547 C -752.3610229492188 -150.0049438476562 -750.899658203125 -151.9836730957031 -749.0423583984375 -153.6770324707031 C -745.2776489257812 -157.1094207763672 -740.290771484375 -158.9997100830078 -735.0003051757812 -158.9997100830078 C -729.7098388671875 -158.9997100830078 -724.7229614257812 -157.1094207763672 -720.958251953125 -153.6770324707031 C -719.1009521484375 -151.983642578125 -717.6395874023438 -150.0049438476562 -716.61474609375 -147.7958221435547 C -715.54345703125 -145.4864501953125 -715.000244140625 -143.03173828125 -715.000244140625 -140.4999084472656 C -715.000244140625 -137.9682922363281 -715.54345703125 -135.5137023925781 -716.61474609375 -133.2043609619141 C -717.6395874023438 -130.9952697753906 -719.1009521484375 -129.0165557861328 -720.9581909179688 -127.3231811523438 C -724.7230224609375 -123.8905334472656 -729.7099609375 -122.0000915527344 -735.0003051757812 -122.0000915527344 Z M -803.6937255859375 -160.9809112548828 C -814.3551635742188 -160.9809112548828 -824.7020874023438 -162.8299102783203 -834.4468994140625 -166.4765014648438 C -839.1372680664062 -168.2316741943359 -843.6622924804688 -170.4048309326172 -847.8963623046875 -172.9355621337891 C -852.095947265625 -175.4456787109375 -856.0465087890625 -178.3296508789062 -859.6382446289062 -181.5073852539062 C -863.2366333007812 -184.69091796875 -866.5050048828125 -188.1958618164062 -869.3525390625 -191.9248199462891 C -872.2334594726562 -195.6975860595703 -874.7089233398438 -199.7330322265625 -876.7102661132812 -203.9190979003906 C -878.7522583007812 -208.1904144287109 -880.3209838867188 -212.6618804931641 -881.372802734375 -217.2092742919922 C -882.4526977539062 -221.878173828125 -883.000244140625 -226.6831817626953 -883.000244140625 -231.4907989501953 C -883.000244140625 -236.2984161376953 -882.4526977539062 -241.1034088134766 -881.372802734375 -245.7722930908203 C -880.3209838867188 -250.3196563720703 -878.7522583007812 -254.7910919189453 -876.710205078125 -259.0623779296875 C -874.7089233398438 -263.2484130859375 -872.2334594726562 -267.2837829589844 -869.3524780273438 -271.0565185546875 C -866.5050048828125 -274.7854309082031 -863.2366333007812 -278.2903137207031 -859.6382446289062 -281.4738159179688 C -856.0465087890625 -284.6514587402344 -852.095947265625 -287.535400390625 -847.8963623046875 -290.0454711914062 C -843.6622924804688 -292.5761413574219 -839.13720703125 -294.7492370605469 -834.4468994140625 -296.50439453125 C -824.7020874023438 -300.15087890625 -814.3551635742188 -301.9998168945312 -803.6937255859375 -301.9998168945312 C -793.0320434570312 -301.9998168945312 -782.6849975585938 -300.15087890625 -772.9400634765625 -296.50439453125 C -768.2496337890625 -294.749267578125 -763.7245483398438 -292.576171875 -759.4904174804688 -290.0454711914062 C -755.290771484375 -287.535400390625 -751.3402099609375 -284.6514892578125 -747.7484130859375 -281.4738159179688 C -744.1500244140625 -278.2903442382812 -740.8816528320312 -274.7854309082031 -738.0341186523438 -271.0565185546875 C -735.1531372070312 -267.2838134765625 -732.6776123046875 -263.2484130859375 -730.6763305664062 -259.0623779296875 C -728.6342163085938 -254.7910919189453 -727.0655517578125 -250.3196716308594 -726.0137329101562 -245.7722930908203 C -724.933837890625 -241.1034088134766 -724.3862915039062 -236.2984466552734 -724.3862915039062 -231.4907989501953 C -724.3862915039062 -228.2088623046875 -724.6423950195312 -224.9139404296875 -725.148193359375 -221.6793518066406 C -721.7763671875 -216.0839691162109 -719.9996948242188 -209.7543334960938 -719.9996948242188 -203.2992095947266 C -719.9996948242188 -198.1809387207031 -721.0864868164062 -193.2167663574219 -723.2298583984375 -188.5445861816406 C -725.29150390625 -184.0506744384766 -728.23779296875 -180.0194091796875 -731.9869384765625 -176.5628204345703 C -735.7186889648438 -173.1222686767578 -740.0601806640625 -170.4226531982422 -744.8907470703125 -168.5389404296875 C -749.87841796875 -166.5939788818359 -755.1728515625 -165.6078033447266 -760.6268920898438 -165.6078033447266 C -764.3519897460938 -165.6078033447266 -768.0343017578125 -166.074462890625 -771.5880126953125 -166.9958038330078 C -776.3845825195312 -165.1067962646484 -781.4033813476562 -163.6419982910156 -786.5227661132812 -162.6376495361328 C -792.1263427734375 -161.538330078125 -797.9035034179688 -160.9809112548828 -803.6937255859375 -160.9809112548828 Z" stroke="none"/><path d="M -758.9996948242188 -87.00029754638672 C -751.267822265625 -87.00029754638672 -745.000244140625 -92.82059478759766 -745.000244140625 -99.99989318847656 C -745.000244140625 -107.1800918579102 -751.267822265625 -113.0003967285156 -758.9996948242188 -113.0003967285156 C -766.7316284179688 -113.0003967285156 -773.0001220703125 -107.1800918579102 -773.0001220703125 -99.99989318847656 C -773.0001220703125 -92.82059478759766 -766.7316284179688 -87.00029754638672 -758.9996948242188 -87.00029754638672 M -735.0003051757812 -125.0000915527344 C -725.6115112304688 -125.0000915527344 -718.000244140625 -131.9399871826172 -718.000244140625 -140.4998931884766 C -718.000244140625 -149.0606994628906 -725.6115112304688 -155.9996948242188 -735.0003051757812 -155.9996948242188 C -744.3890991210938 -155.9996948242188 -752.0004272460938 -149.0606994628906 -752.0004272460938 -140.4998931884766 C -752.0004272460938 -131.9399871826172 -744.3890991210938 -125.0000915527344 -735.0003051757812 -125.0000915527344 M -803.6937255859375 -163.9808959960938 C -792.296142578125 -163.9808959960938 -781.4830932617188 -166.1913604736328 -771.770751953125 -170.1545867919922 C -768.2493286132812 -169.1492309570312 -764.5067138671875 -168.6077880859375 -760.6268920898438 -168.6077880859375 C -739.845947265625 -168.6077880859375 -722.9996948242188 -184.1390991210938 -722.9996948242188 -203.2991943359375 C -722.9996948242188 -209.7869567871094 -724.9310913085938 -215.8582305908203 -728.2930908203125 -221.0519256591797 C -727.6962280273438 -224.4539642333984 -727.3862915039062 -227.9407958984375 -727.3862915039062 -231.4907989501953 C -727.3862915039062 -268.7751159667969 -761.55029296875 -298.9998168945312 -803.6937255859375 -298.9998168945312 C -845.8362426757812 -298.9998168945312 -880.000244140625 -268.7751159667969 -880.000244140625 -231.4907989501953 C -880.000244140625 -194.2064971923828 -845.8362426757812 -163.9808959960938 -803.6937255859375 -163.9808959960938 M -758.9996948242188 -81.00029754638672 C -770.0279541015625 -81.00029754638672 -779.0001220703125 -89.52349090576172 -779.0001220703125 -99.99989318847656 C -779.0001220703125 -110.4767913818359 -770.0279541015625 -119.0003967285156 -758.9996948242188 -119.0003967285156 C -747.971923828125 -119.0003967285156 -739.000244140625 -110.4767913818359 -739.000244140625 -99.99989318847656 C -739.000244140625 -89.52349090576172 -747.971923828125 -81.00029754638672 -758.9996948242188 -81.00029754638672 Z M -735.0003051757812 -119.0000915527344 C -747.6826171875 -119.0000915527344 -758.0004272460938 -128.6448669433594 -758.0004272460938 -140.4998931884766 C -758.0004272460938 -152.3549346923828 -747.6826171875 -161.9996948242188 -735.0003051757812 -161.9996948242188 C -722.3180541992188 -161.9996948242188 -712.000244140625 -152.3549346923828 -712.000244140625 -140.4998931884766 C -712.000244140625 -128.6448669433594 -722.3180541992188 -119.0000915527344 -735.0003051757812 -119.0000915527344 Z M -803.6937255859375 -157.9808959960938 C -849.0776977539062 -157.9808959960938 -886.000244140625 -190.9572906494141 -886.000244140625 -231.4907989501953 C -886.000244140625 -272.0238342285156 -849.0776977539062 -304.9998168945312 -803.6937255859375 -304.9998168945312 C -758.3092651367188 -304.9998168945312 -721.3862915039062 -272.0238342285156 -721.3862915039062 -231.4907989501953 C -721.3862915039062 -228.4140014648438 -721.6012573242188 -225.3259887695312 -722.0263671875 -222.2820434570312 C -718.73095703125 -216.4553985595703 -716.9996948242188 -209.9405059814453 -716.9996948242188 -203.2991943359375 C -716.9996948242188 -180.8618927001953 -736.5707397460938 -162.6077880859375 -760.6268920898438 -162.6077880859375 C -764.2744140625 -162.6077880859375 -767.8849487304688 -163.0270080566406 -771.3877563476562 -163.8555603027344 C -781.604736328125 -159.9562377929688 -792.4620971679688 -157.9808959960938 -803.6937255859375 -157.9808959960938 Z" stroke="none" fill="#000"/></g><g transform="translate(890 312)" fill="url(#a)"><path d="M -804.693359375 -161.9810791015625 C -815.2347412109375 -161.9810791015625 -825.4636840820312 -163.8087310791016 -835.0960693359375 -167.4132537841797 C -839.7301025390625 -169.1473388671875 -844.200439453125 -171.2941741943359 -848.3829956054688 -173.7940826416016 C -852.529541015625 -176.2725372314453 -856.4297485351562 -179.1196899414062 -859.9752807617188 -182.2565002441406 C -863.5252075195312 -185.3971862792969 -866.7490844726562 -188.8543243408203 -869.557373046875 -192.5319061279297 C -872.3966674804688 -196.2501068115234 -874.8359985351562 -200.2264709472656 -876.8076782226562 -204.3505859375 C -878.8182983398438 -208.5562133789062 -880.36279296875 -212.9583587646484 -881.3981323242188 -217.4347991943359 C -882.4609375 -222.0299072265625 -882.9998779296875 -226.7590789794922 -882.9998779296875 -231.490966796875 C -882.9998779296875 -236.2228698730469 -882.4609375 -240.9520416259766 -881.3981323242188 -245.547119140625 C -880.3627319335938 -250.0235137939453 -878.8182983398438 -254.4256439208984 -876.8076782226562 -258.6312255859375 C -874.8359985351562 -262.7553100585938 -872.3966064453125 -266.7316589355469 -869.557373046875 -270.4497680664062 C -866.7490844726562 -274.1272888183594 -863.5252075195312 -277.5844116210938 -859.9752807617188 -280.7250366210938 C -856.4297485351562 -283.8617858886719 -852.529541015625 -286.7088928222656 -848.3829345703125 -289.1872863769531 C -844.200439453125 -291.6871337890625 -839.7301025390625 -293.8339233398438 -835.0960693359375 -295.5679626464844 C -825.4636840820312 -299.1724243164062 -815.2347412109375 -301 -804.693359375 -301 C -794.1517944335938 -301 -783.9227294921875 -299.1724243164062 -774.290283203125 -295.5679626464844 C -769.65625 -293.8339233398438 -765.1858520507812 -291.6871337890625 -761.00341796875 -289.1872863769531 C -756.8568115234375 -286.7088928222656 -752.9566040039062 -283.8617858886719 -749.4111328125 -280.7250366210938 C -745.8612670898438 -277.5844116210938 -742.6373901367188 -274.1272888183594 -739.8291625976562 -270.4497680664062 C -736.9899291992188 -266.7316284179688 -734.5505981445312 -262.7553100585938 -732.5789794921875 -258.6312255859375 C -730.568359375 -254.4256439208984 -729.0239868164062 -250.0235137939453 -727.9885864257812 -245.547119140625 C -726.92578125 -240.9520416259766 -726.3869018554688 -236.2228698730469 -726.3869018554688 -231.490966796875 C -726.3869018554688 -228.1383514404297 -726.6582641601562 -224.7727966308594 -727.1939697265625 -221.4744567871094 C -723.7930908203125 -215.9585876464844 -721.9993896484375 -209.6917114257812 -721.9993896484375 -203.2993927001953 C -721.9993896484375 -198.3260650634766 -723.0555419921875 -193.5021667480469 -725.1384887695312 -188.9617309570312 C -727.1445922851562 -184.5887756347656 -730.0131225585938 -180.6646118164062 -733.6644287109375 -177.2982177734375 C -737.3041381835938 -173.9425201416016 -741.539794921875 -171.3089904785156 -746.2537231445312 -169.4707794189453 C -751.1251220703125 -167.5711669921875 -756.2973022460938 -166.6079711914062 -761.6265869140625 -166.6079711914062 C -765.376708984375 -166.6079711914062 -769.0819091796875 -167.0918121337891 -772.650634765625 -168.0466918945312 C -777.482421875 -166.1217498779297 -782.5469360351562 -164.6330261230469 -787.7149658203125 -163.619140625 C -793.2552490234375 -162.5322113037109 -798.9675903320312 -161.9810791015625 -804.693359375 -161.9810791015625 Z" stroke="none"/><path d="M -804.693359375 -299 C -846.8358764648438 -299 -880.9998779296875 -268.7752990722656 -880.9998779296875 -231.4909973144531 C -880.9998779296875 -194.2066650390625 -846.8358764648438 -163.9810791015625 -804.693359375 -163.9810791015625 C -793.2958374023438 -163.9810791015625 -782.4827880859375 -166.1915893554688 -772.7705078125 -170.15478515625 C -769.2490234375 -169.1494445800781 -765.50634765625 -168.6079711914062 -761.6265869140625 -168.6079711914062 C -740.8455810546875 -168.6079711914062 -723.9993896484375 -184.1392822265625 -723.9993896484375 -203.2993774414062 C -723.9993896484375 -209.7871398925781 -725.931396484375 -215.8594970703125 -729.29345703125 -221.0531768798828 C -728.6965942382812 -224.4552001953125 -728.3869018554688 -227.9409637451172 -728.3869018554688 -231.4909973144531 C -728.3869018554688 -268.7752990722656 -762.5499877929688 -299 -804.693359375 -299 M -804.693359375 -303 C -793.9115600585938 -303 -783.4467163085938 -301.1296997070312 -773.58935546875 -297.4411010742188 C -768.8427124023438 -295.6649475097656 -764.2630004882812 -293.4655456542969 -759.977294921875 -290.9039916992188 C -755.7247314453125 -288.3622436523438 -751.723876953125 -285.4415283203125 -748.0858764648438 -282.2229614257812 C -744.4391479492188 -278.9966125488281 -741.1263427734375 -275.4439086914062 -738.2396240234375 -271.66357421875 C -735.3170166015625 -267.8363037109375 -732.805419921875 -263.7418212890625 -730.7745971679688 -259.4938659667969 C -728.701171875 -255.1568756103516 -727.1082153320312 -250.6161651611328 -726.0400390625 -245.9978179931641 C -724.943115234375 -241.2551574707031 -724.3869018554688 -236.3743438720703 -724.3869018554688 -231.4909973144531 C -724.3869018554688 -228.2782287597656 -724.6283569335938 -225.0539093017578 -725.1055908203125 -221.884033203125 C -721.7600708007812 -216.2094116210938 -719.9993896484375 -209.8175506591797 -719.9993896484375 -203.2993774414062 C -719.9993896484375 -198.0361633300781 -721.1168212890625 -192.9317016601562 -723.3206176757812 -188.1278076171875 C -725.437744140625 -183.5129089355469 -728.4617919921875 -179.3745727539062 -732.3087768554688 -175.8277893066406 C -736.132568359375 -172.3023376464844 -740.5798950195312 -169.53662109375 -745.5271606445312 -167.6074523925781 C -750.6310424804688 -165.6171264648438 -756.0477294921875 -164.6079711914062 -761.6265869140625 -164.6079711914062 C -765.326171875 -164.6079711914062 -768.985107421875 -165.0581665039062 -772.5230102539062 -165.9473876953125 C -777.2842407226562 -164.0933532714844 -782.2587890625 -162.6514587402344 -787.3298950195312 -161.6565551757812 C -792.9967651367188 -160.5447998046875 -798.8386840820312 -159.9810791015625 -804.693359375 -159.9810791015625 C -815.4749145507812 -159.9810791015625 -825.939697265625 -161.8514099121094 -835.7969970703125 -165.5401000976562 C -840.5436401367188 -167.3163146972656 -845.1234130859375 -169.5158081054688 -849.4090576171875 -172.0773620605469 C -853.66162109375 -174.6191711425781 -857.6625366210938 -177.5399475097656 -861.300537109375 -180.7585754394531 C -864.9473266601562 -183.9849853515625 -868.2601318359375 -187.5377197265625 -871.1469116210938 -191.3180847167969 C -874.0695190429688 -195.1454162597656 -876.5811767578125 -199.2399291992188 -878.612060546875 -203.4879455566406 C -880.6854858398438 -207.8249969482422 -882.2785034179688 -212.3657531738281 -883.3466796875 -216.9841156005859 C -884.4436645507812 -221.726806640625 -884.9998779296875 -226.6076049804688 -884.9998779296875 -231.4909973144531 C -884.9998779296875 -236.3743438720703 -884.4436645507812 -241.2551574707031 -883.3466796875 -245.9978485107422 C -882.2785034179688 -250.6161651611328 -880.6854858398438 -255.1568908691406 -878.612060546875 -259.493896484375 C -876.5811767578125 -263.7418518066406 -874.0695190429688 -267.8363647460938 -871.1469116210938 -271.6636047363281 C -868.2601318359375 -275.4439392089844 -864.9473266601562 -278.9966125488281 -861.3004760742188 -282.2229614257812 C -857.6624755859375 -285.4415283203125 -853.66162109375 -288.3622436523438 -849.4090576171875 -290.9040222167969 C -845.1233520507812 -293.4655456542969 -840.5436401367188 -295.6649475097656 -835.7969970703125 -297.4411010742188 C -825.939697265625 -301.1296997070312 -815.4749145507812 -303 -804.693359375 -303 Z" stroke="none" fill="#f8f8f8"/></g><g transform="translate(137 156)" stroke="#f8f8f8" stroke-width="4" fill="url(#a)"><ellipse cx="17" cy="15.5" rx="17" ry="15.5" stroke="none"/><ellipse cx="17" cy="15.5" rx="19" ry="17.5" fill="none"/></g><g transform="translate(116 199)" stroke="#f8f8f8" stroke-width="4" fill="url(#a)"><ellipse cx="14" cy="13" rx="14" ry="13" stroke="none"/><ellipse cx="14" cy="13" rx="16" ry="15" fill="none"/></g><path d="M918.5,341.53s4.745,16.331,19.453,22.455S958.827,379.5,958.827,379.5s-17.177-1.732-31.411-8.673S918.5,341.53,918.5,341.53Z" transform="translate(-882.585 -298.5)"/><path d="M958.625,341.53s-4.745,16.331-19.453,22.455S918.3,379.5,918.3,379.5s17.3-2.971,31.534-9.912S958.625,341.53,958.625,341.53Z" transform="translate(-819.267 -298.5)"/><path d="M14.445,6.068c0,8.091-7.222,14.651-7.222,14.651S0,14.16,0,6.068,14.445-2.023,14.445,6.068Z" transform="translate(109.243 102.543) rotate(-135)" fill="url(#d)"/><path d="M14.445,6.068c0,8.091-7.222,14.651-7.222,14.651S0,14.16,0,6.068,14.445-2.023,14.445,6.068Z" transform="translate(76.243 92.329) rotate(135)" fill="url(#d)"/><path d="M911.445,401.566c0,1.918,19.887,22.765,39.2,22.765s38.045-20.847,38.045-22.765-18.734,15.092-38.045,15.092S911.445,399.647,911.445,401.566Z" transform="translate(-862.067 -293.873)"/></g></svg>